<svg width="300" height="332" viewBox="0 0 300 332" fill="none" xmlns="http://www.w3.org/2000/svg">
<path d="M107.29 78.9393C107.29 83.0395 107.034 87.1397 106.778 91.24C106.522 93.2901 106.522 95.3402 106.265 97.3903C106.009 99.4404 105.496 101.747 105.496 103.541C105.496 104.309 106.522 104.309 106.778 103.541C107.29 101.49 107.29 99.1841 107.547 97.3903C107.803 95.3402 108.059 93.2901 108.059 91.24C108.315 87.1397 108.572 82.7833 108.572 78.6831C108.828 77.9143 107.547 77.9143 107.29 78.9393ZM299.744 222.959C299.231 218.603 297.694 215.015 295.387 211.427C292.056 206.302 287.699 202.202 282.318 199.383C271.042 192.976 258.742 189.389 245.929 187.338C238.753 186.057 231.578 184.52 224.146 183.751C220.559 183.238 216.971 182.726 213.383 182.47C210.308 182.213 207.489 182.213 204.67 182.213C200.058 181.957 195.445 181.701 190.576 182.47C189.807 182.726 189.038 182.726 188.269 182.726C185.194 182.47 181.863 182.982 178.788 183.495C169.05 185.032 159.568 187.851 150.342 190.67C148.805 191.182 148.805 191.182 148.805 189.389C148.805 188.876 148.805 188.107 148.805 187.595C148.805 181.188 149.061 174.782 148.292 168.375C147.78 163.762 147.524 159.15 146.499 154.537C145.986 152.231 145.986 152.231 148.292 151.205C152.905 149.412 157.005 146.593 160.337 143.005C161.106 142.236 161.874 141.98 162.899 142.492C167 144.03 169.562 146.849 171.869 150.437C177.25 158.637 179.044 168.119 179.556 177.601C179.556 178.882 179.3 180.163 179.556 181.444C179.556 181.957 179.813 182.213 180.582 182.213C182.888 181.957 185.194 181.444 187.501 181.444C188.269 181.444 188.526 181.188 188.526 180.419C188.526 179.138 188.269 178.113 188.269 176.832C187.244 170.681 185.963 164.531 183.913 158.893C181.863 153.256 179.813 147.874 175.969 143.005C172.894 139.161 169.05 136.598 164.693 134.548C162.899 133.78 162.643 133.523 162.899 131.473C163.412 129.167 163.668 126.604 164.181 124.298C165.206 118.148 165.975 111.997 167 105.847C167.768 99.6966 168.793 93.8026 169.562 87.6523C170.587 80.9894 171.612 74.0703 172.637 67.4075C173.406 62.7948 174.175 58.182 174.944 53.5693C175.713 48.444 175.969 43.5751 176.738 38.4498C178.019 29.7369 180.069 21.0239 181.094 12.311C181.35 10.0046 181.863 7.44201 181.863 5.13565C181.863 4.62312 181.863 3.85432 181.094 3.59805C180.582 3.59805 180.069 3.08554 179.813 2.82928C178.019 1.54796 176.225 0.522911 173.919 0.266648C172.125 -0.245877 170.075 0.0103778 168.281 0.779166C167 1.54795 165.462 1.80421 164.181 2.31674C157.518 4.11058 150.599 5.13563 143.936 7.18574C130.867 11.0297 117.797 15.1299 104.471 18.7176C92.9396 21.7927 82.1766 26.4054 70.901 30.2494C61.9318 33.3245 52.9626 36.3997 44.2497 39.2186C41.1745 40.2436 37.8431 41.0124 34.768 42.2938C32.9741 42.8063 31.6928 43.8313 31.4366 46.1377C31.1803 49.4691 30.6678 52.5443 30.1552 55.8757C29.1302 60.7447 28.6177 65.6137 27.8489 70.4827C27.3363 74.3266 27.0801 78.1706 26.3113 82.0145C25.7988 85.0897 25.2862 88.4211 24.7737 91.4962C24.0049 96.1089 23.7487 100.978 22.9799 105.591C22.2111 110.203 21.186 114.56 20.9298 119.173C20.6735 123.017 20.4173 126.86 19.6485 130.448C18.3672 137.111 17.3421 144.03 16.0608 150.693C15.0357 156.843 14.0107 163.25 12.9856 169.4C12.2169 175.294 11.1918 180.932 11.1918 186.826C11.1918 189.389 10.6793 191.951 10.423 194.514C10.1667 195.795 10.6793 196.82 11.7043 197.589C13.2419 198.614 14.7795 199.639 16.0608 201.177C16.317 201.689 16.8296 201.689 17.3421 201.689C19.1359 201.689 20.9298 201.945 22.7236 201.945C27.3363 202.202 31.9491 201.177 36.5618 200.664C38.3556 200.408 40.4057 200.408 42.1996 199.639C46.0435 197.589 50.1437 196.051 54.2439 194.258C56.2941 193.233 58.3442 192.208 60.6505 193.489H60.9068C63.2131 193.745 65.7758 194.001 68.0821 194.258C68.8509 194.258 69.6197 194.258 70.1322 195.283C71.4136 198.102 71.6698 200.92 70.3885 203.996C68.5947 208.096 66.2883 212.196 64.2382 216.296C63.7257 217.065 63.2131 218.09 62.1881 218.346C57.5754 220.396 53.2189 222.447 48.8624 224.753C39.637 229.622 29.899 233.978 20.4172 238.079C14.7795 240.385 9.39795 242.948 4.2727 246.279C-0.08377 249.354 -1.10883 252.942 1.19753 257.811C3.76016 263.449 7.60412 268.061 11.7043 272.418C16.8296 277.799 22.9799 282.156 28.6177 286.768C37.0743 293.431 46.5561 298.813 56.294 304.194C66.2883 309.576 76.5388 315.214 86.7893 320.083C96.5273 324.952 106.522 328.796 117.285 330.589C121.897 331.358 126.51 331.358 130.867 330.846C136.504 330.077 141.886 328.283 147.267 326.233C157.518 321.876 167.768 317.776 177.763 312.907C187.757 308.038 197.751 303.426 207.745 298.557C215.946 294.456 224.146 289.844 232.347 285.487C249.26 276.518 265.917 267.036 280.524 254.479C284.624 250.892 288.468 247.304 292.056 242.948C294.106 240.385 295.387 237.31 296.925 234.491C298.719 231.416 299.231 228.341 300 225.009C300 224.497 300 223.728 299.744 222.959ZM256.435 205.021C254.641 205.533 253.104 206.814 251.31 205.789C250.285 205.277 249.26 205.021 248.235 205.277C251.054 204.508 253.873 204.764 256.435 205.021ZM158.543 143.261C154.699 145.568 151.111 148.13 147.011 149.668C146.242 149.924 145.986 149.924 145.73 148.899C144.705 145.055 143.423 141.467 141.117 138.392C140.861 137.88 140.861 137.624 141.373 137.367C144.705 136.086 148.036 134.805 151.624 133.523C151.368 134.548 151.111 135.317 151.111 135.83C150.599 139.674 154.443 142.749 158.03 141.724C158.543 141.467 159.568 140.955 159.824 141.724C160.081 142.493 159.055 143.005 158.543 143.261ZM115.491 196.308C115.235 191.695 115.235 187.082 115.491 182.47C115.491 176.063 114.978 169.656 113.441 163.25C112.416 159.406 111.391 155.306 108.828 151.974C107.034 149.668 104.728 147.361 102.165 145.824C100.115 144.543 97.2961 146.08 97.0399 148.643C97.0399 149.412 96.5273 149.924 95.7585 150.18C91.1458 151.718 86.2768 153.256 81.6641 155.049C80.3828 155.562 80.1265 155.562 80.3828 154.024C80.639 151.205 81.1515 148.643 81.9203 146.08C82.1766 145.568 82.4329 145.311 82.9454 145.055C85.7643 143.774 88.8394 143.261 91.6583 142.236C98.3212 139.93 104.728 137.367 111.391 135.317C122.666 131.473 133.685 127.373 144.705 122.76C146.242 122.248 147.78 121.479 149.317 120.966C150.086 120.71 150.343 120.966 150.086 121.735C149.83 124.042 149.317 126.348 149.061 128.654C149.061 129.423 148.292 129.423 147.78 129.679C144.705 130.961 141.63 131.729 138.811 133.267C138.042 133.523 138.298 133.011 138.042 132.755C137.786 132.242 137.529 131.729 137.017 131.986C136.504 132.242 136.504 132.755 136.504 133.267C136.504 134.548 136.761 135.83 137.786 136.855C139.836 138.905 140.348 141.467 141.373 144.03C142.142 146.08 142.398 148.387 143.68 150.18C143.936 150.693 143.936 151.205 144.192 151.974C144.448 156.074 145.474 159.918 145.73 164.019C145.986 166.837 146.242 169.4 146.499 172.219C146.755 176.575 147.011 181.188 146.755 185.545C146.499 193.489 145.73 201.433 144.192 209.121C143.936 210.915 142.911 211.683 141.63 212.709C133.173 218.346 123.947 222.447 114.978 226.547C114.466 226.803 113.953 226.803 113.953 226.034C113.953 225.265 113.697 224.753 113.697 223.984C114.209 221.165 114.722 218.346 115.234 215.527C115.747 209.121 115.747 202.714 115.491 196.308ZM150.599 117.379C149.83 117.123 149.317 116.61 148.549 116.354C147.011 115.585 145.73 115.585 144.192 116.097C134.454 119.429 124.972 123.017 115.234 126.604C103.959 130.704 92.4271 134.805 81.1515 138.905C79.614 139.417 78.0764 139.93 76.5388 140.442C76.0263 140.699 75.77 141.211 75.5137 141.724C75.2575 143.518 74.745 145.311 74.745 147.362C74.745 148.899 74.2324 150.18 73.7199 151.718C72.6949 155.049 73.2074 155.818 76.5388 157.1C78.5889 157.868 80.639 157.356 82.4329 156.587C87.3019 154.793 92.4271 153.256 97.2961 151.462C97.5524 151.462 97.8086 151.205 98.3212 151.205C99.3462 151.205 100.115 151.718 100.371 152.487C100.628 153.256 99.6025 153.256 99.0899 153.512C90.377 157.356 81.6641 161.2 73.2074 165.044C65.7758 168.375 58.3441 171.194 50.9125 174.269C47.8374 175.55 44.7622 177.088 41.6871 178.369C40.9183 178.882 40.4058 178.882 40.4058 177.601C40.662 172.988 40.9183 168.375 41.4308 164.019C41.6871 160.687 41.9433 157.612 42.4559 154.281C42.7121 150.693 43.4809 147.105 43.9934 143.518C44.506 139.674 45.0185 135.83 45.2747 131.986C45.7873 126.86 45.7873 121.735 46.5561 116.61C47.0686 113.279 47.3248 109.691 47.3248 106.359C47.5811 103.028 48.3499 99.6966 48.6062 96.3652C49.1187 90.2149 51.1688 84.5771 51.9376 78.4268C52.4501 74.5829 52.9626 70.9952 53.4752 67.1512C53.4752 66.3825 53.7314 66.1262 54.5002 65.8699C57.8316 64.0761 61.6756 63.051 65.007 61.7697C73.4637 58.6946 82.1766 56.1319 90.8895 53.5693C96.7836 51.7755 102.421 49.7254 108.315 47.9315C123.435 43.5751 138.042 38.4498 153.161 34.0933C158.543 32.5558 163.668 30.7619 168.793 28.7118C169.05 28.4556 169.562 28.4556 170.075 28.1993C169.818 31.5307 169.05 34.8621 168.537 37.9373C168.025 41.0124 168.025 43.8313 167.768 46.9065C167.512 51.0067 166.743 55.1069 166.231 59.2071C165.462 65.1011 164.437 70.9952 164.181 76.8892C163.924 81.2457 163.156 85.3459 162.643 89.7024C162.387 92.7775 162.131 96.1089 161.618 99.1841C161.362 102.772 160.849 106.103 160.593 109.691C160.08 113.791 159.568 118.148 159.055 122.248C158.799 124.298 158.543 126.348 158.287 128.398C158.03 129.423 157.518 129.936 156.493 130.448C151.368 132.498 145.986 134.548 140.861 136.855C140.605 136.855 140.605 137.111 140.348 137.111C139.836 137.367 139.323 137.111 139.067 136.598C138.811 136.086 139.067 135.83 139.579 135.573C142.655 134.292 145.73 133.011 148.805 131.986C150.343 131.473 151.111 130.448 151.368 128.911C151.624 126.348 152.136 123.785 152.393 121.223C152.393 119.173 151.88 118.148 150.599 117.379ZM149.574 119.429C137.786 123.529 126.51 128.654 114.466 132.498C105.24 135.573 96.0148 139.161 86.5331 141.98C85.2518 142.493 83.7142 142.749 82.4329 143.005H82.1766C81.6641 143.005 79.614 141.98 79.614 141.724C79.8702 140.955 80.639 140.955 81.4078 140.955C89.0957 138.649 96.271 135.573 103.703 133.011C111.391 130.448 119.078 127.373 126.766 124.554C132.148 122.504 137.529 120.71 142.911 118.66C145.474 117.635 147.78 117.635 149.574 119.429ZM177.763 23.074C176.738 28.9681 175.2 34.8621 174.687 40.7562C174.175 45.6252 173.662 50.2379 172.894 55.1069C172.381 59.2071 171.612 63.051 170.844 67.1512C169.818 73.3016 168.793 79.7081 168.025 85.8584C167 92.0087 166.231 97.9028 165.462 104.053C164.437 110.46 163.668 116.61 162.643 123.017C162.131 125.835 161.618 128.398 161.106 131.217C159.312 130.448 159.055 129.936 159.568 128.142C160.593 121.991 161.362 115.841 162.131 109.691C162.643 105.334 163.156 100.978 163.668 96.6215C164.181 92.265 164.693 87.6523 165.206 83.2958C165.975 75.8642 166.231 68.6888 167.512 61.2572C168.281 57.4132 168.793 53.313 169.562 49.4691C169.818 47.9315 169.818 46.1377 169.818 44.3438C169.818 40.2436 171.1 36.3997 171.356 32.2995C171.869 26.4055 174.944 21.7927 176.994 16.6675C178.019 14.3611 178.788 12.0547 179.813 10.0046C180.069 9.74836 180.069 9.49211 180.325 9.23585C179.556 13.8486 178.531 18.4613 177.763 23.074ZM40.4058 48.1878C60.138 43.0625 79.3577 36.3997 98.8337 30.2494C111.134 26.4054 123.435 22.3052 135.992 18.7176C146.499 15.6424 157.262 12.5673 167.768 9.49211C171.356 8.46706 174.944 7.18575 178.788 6.41696C179.3 6.41696 179.556 6.16069 179.813 6.67322C179.556 7.44201 179.3 8.2108 178.788 8.97959C176.225 14.3611 173.662 19.9989 171.356 25.3804C171.1 25.8929 170.587 26.4054 170.075 26.6617C161.618 29.7369 153.161 32.2995 144.448 34.8621C134.967 37.681 125.741 40.7562 116.516 43.5751C101.909 47.9315 87.3018 52.8005 72.6949 57.157C66.5446 59.2071 60.138 61.2572 54.2439 64.0761C53.4752 64.3324 52.9626 64.0761 52.4501 63.5636C49.6312 60.7447 47.0686 57.6695 44.506 54.3381C43.2246 52.5443 41.6871 51.0067 40.4058 49.2128C39.637 48.9566 39.1244 48.4441 40.4058 48.1878ZM19.6485 184.007C19.9047 179.907 20.4173 175.807 21.186 171.706C22.4674 163.762 23.7487 155.818 25.03 147.618C26.5676 136.855 28.1051 126.092 29.899 115.329C30.924 108.922 31.9491 102.516 32.9741 96.109C33.4867 91.24 33.9992 86.3709 34.768 81.502C35.5368 77.4018 36.3055 73.3016 37.0743 69.2014C38.0994 63.051 39.1244 56.9007 39.8932 50.2379C41.6871 52.8005 43.4809 55.3632 45.531 57.6695C47.5811 60.2322 49.8875 62.5385 51.9376 64.8449C52.4501 65.6137 52.7064 66.1262 52.4501 66.895C51.6813 71.764 51.1688 76.633 50.1437 81.2457C49.375 85.6022 48.0936 89.9586 47.5811 94.5714C47.0686 98.9278 46.2998 103.284 46.0435 107.641C45.7873 112.254 45.2747 117.123 44.506 121.735C44.2497 123.529 44.2497 125.067 44.2497 126.86C43.9934 133.523 43.2246 140.186 41.9433 146.593C41.1745 150.949 40.662 155.306 40.4058 159.406C40.1495 163.762 39.8932 167.863 39.3807 172.219C39.1244 173.757 39.637 175.038 39.637 176.575C39.637 177.601 39.3807 178.626 38.6119 179.394C34.2555 184.007 30.1552 188.876 25.5425 193.233C23.4924 195.283 20.9298 197.077 18.8797 199.383C18.8797 194.514 19.1359 189.132 19.6485 184.007ZM40.1495 198.614C36.3055 198.614 32.7179 199.383 28.8739 199.895C26.3113 200.408 23.4924 200.152 20.6735 199.895C27.5926 194.258 32.9741 187.338 39.1244 180.932C39.637 184.263 40.1495 187.851 40.662 191.182C40.9183 193.233 41.1745 195.283 41.4308 197.333C41.6871 198.102 41.1745 198.614 40.1495 198.614ZM68.0821 191.951C67.8259 192.207 67.5696 191.951 67.0571 191.951C65.2633 191.695 63.7257 191.439 61.6756 191.439C63.4694 190.67 64.7507 189.901 66.2883 189.389C67.5696 188.876 67.3133 190.414 67.8259 190.926C68.0821 191.182 68.3384 191.695 68.0821 191.951ZM67.5696 185.288C66.2883 182.982 64.2382 181.701 62.1881 180.419C61.6756 180.163 61.4193 179.907 61.4193 179.394C61.4193 178.626 60.9068 178.113 60.138 177.857C59.3692 177.601 58.6004 177.857 58.0879 178.369C57.5754 178.882 57.0628 179.907 56.8066 180.676C56.5503 181.444 57.0628 181.701 57.5754 181.957C59.6255 182.47 61.163 183.495 62.9569 184.52C63.9819 185.032 65.2632 186.057 65.007 187.082C65.007 187.851 63.4694 188.107 62.4444 188.62C61.6756 188.876 60.9068 189.132 60.138 189.645C58.0879 190.926 56.5503 190.157 55.0127 188.62C53.2189 187.082 51.9376 185.288 51.6813 182.726C51.6813 181.701 50.9125 180.932 49.8875 180.932C48.8624 180.932 47.5811 182.213 47.5811 183.238C47.5811 184.263 48.0936 184.776 49.1187 185.032C49.375 185.032 49.8875 185.032 50.1437 185.545C51.1688 187.851 52.7064 189.901 55.0127 191.695C52.9626 192.464 51.1688 193.233 49.375 194.258C47.5811 195.026 46.0435 195.795 44.2497 196.82C42.9684 197.589 42.7121 197.333 42.4559 195.795C42.1996 193.489 41.9433 191.439 41.6871 189.132C41.4308 187.082 41.1745 184.776 40.662 182.726C40.4057 180.676 40.4058 180.419 42.4559 179.394C49.8875 176.063 57.5754 172.988 65.007 169.913C70.3885 167.606 75.77 165.3 81.1515 162.737C87.8144 159.918 94.2209 156.843 100.628 154.024C101.396 153.768 101.653 154.281 102.165 154.537C104.215 157.612 105.753 161.2 106.265 164.787C106.778 168.119 106.778 168.119 103.703 169.144C93.4522 172.732 83.9704 178.113 74.2324 182.982C72.4386 183.751 70.6448 184.52 68.8509 185.545C68.3384 186.057 67.8259 186.057 67.5696 185.288ZM70.901 191.695C70.3885 190.926 70.1322 189.901 69.6197 189.132C69.1072 188.364 69.3634 187.851 70.1322 187.595C73.7199 185.801 77.3076 184.007 81.1515 182.47C87.3019 179.651 93.4522 176.063 99.8587 173.757C102.165 172.988 104.471 171.963 106.522 171.194C107.29 170.938 107.547 171.194 107.547 171.706C107.803 173.5 108.059 175.294 107.803 177.601C108.315 182.726 108.059 187.851 108.059 193.233C108.059 194.514 107.803 194.514 106.778 194.001C104.728 192.976 102.421 192.464 99.8587 192.464C96.271 192.207 92.4271 191.695 88.8394 191.182C86.5331 190.926 84.2267 190.926 81.9203 191.695C78.5889 192.976 75.2575 192.72 71.9261 192.72C71.6698 192.72 71.1573 192.208 70.901 191.695ZM68.0821 213.734C69.876 210.658 71.4136 207.327 72.6949 203.996C73.7199 201.433 73.7199 199.127 72.6949 196.564C72.1823 195.026 72.1823 195.026 73.7199 195.026C77.5639 195.026 81.4078 194.258 85.2518 193.489C87.5581 192.976 89.6082 193.745 91.9146 194.001C94.7335 194.258 97.2961 194.77 100.115 194.77C102.165 194.77 104.215 195.026 106.265 195.795C108.315 196.564 108.828 196.82 108.572 199.127C108.315 201.945 108.059 205.021 108.059 207.84C108.059 209.633 107.803 211.683 107.29 213.221C106.522 216.809 105.753 220.653 104.984 224.24C104.728 225.265 105.24 226.29 106.009 226.803C107.547 228.084 109.084 228.597 110.878 229.366C112.159 229.878 113.184 229.109 114.209 228.597C120.104 226.034 125.998 223.472 131.892 220.396C136.761 217.834 141.117 215.015 145.73 211.94C146.242 211.427 146.499 210.915 146.499 210.402C146.499 208.865 147.011 207.583 147.267 206.046C147.524 205.277 147.78 205.277 148.292 205.533C151.88 207.583 155.724 208.865 159.312 210.658C161.874 211.94 164.181 213.221 166.743 214.502C163.156 216.552 159.824 218.346 156.749 220.396C149.574 224.497 141.886 227.572 134.454 231.159C128.816 233.722 123.435 237.053 118.053 240.385C117.285 240.897 116.772 240.641 116.26 240.385C111.391 238.335 106.778 235.516 101.909 233.466C97.5524 231.416 93.1959 229.366 88.8394 227.572C87.8144 227.316 86.7893 226.803 86.0205 226.034C84.9955 225.522 84.483 225.778 84.2267 226.803C84.2267 228.084 84.2267 229.366 84.2267 230.391C84.2267 231.159 84.9955 231.672 85.508 232.184C87.8144 233.466 90.1208 234.747 92.4271 235.772C96.0148 237.053 99.3462 239.104 102.678 240.641C106.009 242.179 109.34 243.716 112.672 244.998C113.441 245.51 114.466 245.51 115.491 245.766C116.772 245.766 117.541 245.254 117.541 243.973C117.541 242.691 118.053 241.922 119.335 241.41C123.947 239.104 128.304 236.285 132.917 233.978C138.811 231.159 144.705 228.853 150.599 226.034C155.98 223.472 161.106 220.396 166.231 217.321C167.512 216.552 167.256 216.552 167.768 218.09C168.537 220.14 167.256 220.909 165.718 221.678C157.774 226.547 149.061 230.647 140.605 234.491C133.942 237.566 127.535 241.154 121.129 244.485C119.847 245.254 118.566 245.766 117.028 246.535C116.003 247.048 114.722 246.791 113.441 246.535C109.084 245.254 104.984 242.691 100.628 240.897C96.7836 239.104 93.1959 237.31 89.6082 235.516C87.8144 234.747 86.0205 233.466 84.2267 232.697C83.7142 232.441 83.7142 232.184 83.4579 231.672C83.2017 230.134 83.2016 228.597 83.2016 227.316C83.2016 225.778 84.2267 224.753 85.508 224.24C90.377 222.19 94.9897 220.396 99.8587 218.603C101.653 217.834 103.446 217.065 105.24 216.296C106.009 216.04 106.522 215.527 106.265 214.502C106.265 210.915 107.034 207.583 107.034 204.252C107.034 200.92 108.059 200.92 104.215 201.945C91.6583 206.046 79.614 210.658 67.5696 216.296C67.3133 216.552 67.0571 216.552 66.5446 216.809C67.0571 215.527 67.5696 214.759 68.0821 213.734ZM71.1573 242.435C67.5696 238.079 64.7507 233.21 63.9819 227.316C63.7257 224.497 63.4694 221.678 64.2382 218.859C64.2382 218.603 64.4945 218.09 65.007 217.834C65.007 218.346 65.007 218.859 65.007 219.371C63.9819 226.547 66.032 232.953 70.6448 238.591C73.2074 241.922 76.0263 244.741 79.1014 247.304C83.9704 251.917 89.6082 255.504 95.5023 258.836C98.0649 260.373 100.884 261.142 103.703 262.167C103.959 262.424 104.728 262.423 104.728 262.936C104.728 263.449 103.959 263.192 103.703 263.192C102.421 263.192 101.396 262.68 100.115 262.167C89.0957 257.811 78.8452 251.917 71.1573 242.435ZM122.666 292.15C116.26 288.819 110.109 284.975 104.215 280.874C102.421 279.849 101.14 278.568 101.14 276.262C100.884 273.699 100.371 271.393 100.115 268.83C101.14 270.624 100.884 272.418 101.14 274.468C101.396 276.774 102.165 278.824 104.728 279.849C107.547 281.131 110.109 283.181 112.416 284.975C116.516 288.05 121.385 290.356 125.741 293.175C129.329 295.225 133.173 297.019 136.504 299.582C136.761 299.838 137.017 299.838 137.017 300.35C132.148 297.532 127.535 294.713 122.666 292.15ZM234.909 240.897C229.015 245.51 222.352 249.098 216.202 253.198C206.72 259.348 196.47 264.474 186.988 270.624C174.175 280.106 153.418 292.15 139.579 300.094C140.092 299.069 141.117 298.557 141.886 297.788C145.217 295.481 148.549 293.688 151.88 291.381C153.93 289.844 156.493 289.075 158.799 287.794C161.874 286 164.693 283.693 167.768 282.156C171.869 280.106 175.456 277.543 179.3 275.237C179.556 275.237 186.476 270.624 186.732 270.624C191.345 267.292 196.214 264.474 200.826 261.398C210.564 254.992 220.815 249.61 230.553 243.46C231.834 242.691 233.115 241.666 234.397 240.641C235.165 240.129 235.165 239.36 234.909 238.591C234.653 237.822 234.14 238.335 233.884 238.591C231.578 239.872 229.271 241.154 226.965 242.435C222.352 245.254 217.74 248.073 213.383 250.892C206.208 255.248 199.032 259.861 192.113 264.217C188.526 266.524 184.938 269.086 181.094 271.393C173.406 276.005 165.975 280.874 158.287 285.231C153.161 288.05 148.036 291.381 142.911 294.2C142.142 294.713 141.117 295.225 140.348 295.738C139.323 296.506 138.554 296.506 137.273 295.994C134.454 294.713 132.148 293.175 129.841 291.381C127.535 289.844 125.485 288.306 123.179 287.025C119.591 285.231 116.772 282.412 113.953 280.106C109.853 276.518 105.24 273.443 101.396 269.599C100.628 268.83 100.628 268.574 101.653 268.061C108.828 264.217 115.747 260.117 122.922 256.529C128.048 253.967 133.173 250.892 138.554 248.585C141.373 247.304 144.192 245.51 147.011 243.973C152.393 241.154 157.518 238.591 162.899 235.772C173.406 230.391 183.913 224.753 194.163 218.859C198.264 216.552 202.62 214.759 206.72 212.452C207.233 212.196 207.745 212.196 208.258 212.709C211.077 215.015 213.896 217.577 216.715 220.14C219.021 222.447 221.84 223.984 224.146 226.29C227.99 229.622 231.578 233.21 235.166 236.797C236.191 237.566 235.934 240.129 234.909 240.897ZM220.046 203.739C214.152 203.739 208.258 205.021 202.62 207.327C200.57 208.096 198.52 209.633 196.47 210.915C194.163 212.196 192.113 213.221 189.551 213.99C186.732 215.015 184.169 214.246 181.863 212.452C178.275 209.633 174.687 206.558 171.1 203.483C167.768 200.664 163.924 198.614 159.312 198.102C155.724 197.845 152.393 196.82 148.805 197.076C148.292 197.076 148.036 197.076 147.78 196.564C147.78 195.795 148.292 195.795 148.805 195.795C151.88 195.283 154.955 195.539 158.03 196.051C162.643 196.82 167 198.102 170.587 201.177C173.406 203.739 176.738 206.046 179.556 208.608C181.607 210.658 183.913 212.452 187.244 212.452C188.269 212.452 189.294 212.196 190.32 211.683C193.138 210.402 195.957 209.121 198.52 207.327C202.108 204.764 206.464 203.996 210.564 203.227C215.946 201.945 221.584 201.689 226.965 202.714C229.784 203.227 232.859 203.227 235.678 204.252C237.216 205.021 239.009 205.533 240.547 206.814C238.497 207.071 237.216 206.302 235.678 205.789C231.322 204.508 225.684 203.739 220.046 203.739ZM242.853 216.809C241.572 216.04 240.547 215.015 239.778 213.734C239.009 212.709 239.009 211.683 239.778 210.658C240.547 209.89 241.06 208.865 241.828 208.096C243.11 206.814 243.366 206.814 246.185 206.814C247.21 206.814 248.235 206.558 249.26 207.071C250.029 207.327 250.285 207.583 249.516 208.352C246.954 210.658 244.903 213.221 243.878 216.552C243.878 217.065 243.366 217.065 242.853 216.809ZM272.836 220.653C268.736 223.728 264.123 225.778 258.485 226.034C257.973 226.034 256.948 226.034 256.435 225.522C253.104 223.472 249.516 221.934 246.441 219.371C244.903 218.09 244.647 216.809 245.416 215.015C248.491 209.121 253.36 205.789 259.767 205.533C263.354 205.277 266.173 207.071 268.992 209.377C271.299 211.171 272.836 213.477 273.861 216.296C274.63 217.577 274.117 219.371 272.836 220.653ZM102.934 80.7332C102.934 84.8334 102.678 88.9336 102.421 93.0338C102.165 95.0839 102.165 97.134 101.909 99.1841C101.653 101.234 101.14 103.541 101.14 105.334C101.14 106.103 102.165 106.103 102.421 105.334C102.934 103.284 102.934 100.978 103.19 99.1841C103.446 97.134 103.703 95.0839 103.703 93.0338C103.959 88.9336 104.215 84.5771 104.215 80.4769C104.215 79.7081 102.934 79.9644 102.934 80.7332ZM111.903 77.1455C111.903 81.2457 111.647 85.3459 111.391 89.4461C111.134 91.4962 111.134 93.5463 110.878 95.5964C110.622 97.6465 110.109 99.9529 110.109 101.747C110.109 102.516 111.134 102.516 111.391 101.747C111.903 99.6966 111.903 97.3903 112.159 95.5964C112.416 93.5463 112.672 91.4962 112.672 89.4461C112.928 85.3459 113.184 80.9894 113.184 76.8892C113.441 75.8642 112.159 76.1204 111.903 77.1455ZM94.9897 77.1455C94.7335 76.8892 94.7335 76.8892 94.4772 76.8892V76.633C94.4772 76.3767 94.2209 76.3767 93.9647 76.3767C93.7084 76.3767 93.7084 76.3767 93.4522 76.3767C93.1959 76.3767 93.1959 76.633 93.1959 76.8892C93.1959 77.1455 93.1959 77.4018 92.9396 77.658C92.9396 77.9143 92.9396 77.9143 92.9396 78.1706C92.9396 78.4268 93.1959 78.4268 93.1959 78.6831L93.4522 78.9393H93.7084C93.9647 78.9393 93.9647 78.9393 94.2209 78.6831L94.4772 78.4268H94.7335L94.9897 78.1706V77.9143V77.658C95.246 77.4018 95.246 77.1455 94.9897 77.1455ZM116.516 75.3516C116.516 79.4519 116.26 83.5521 116.003 87.6523C115.747 89.7024 115.747 91.7525 115.491 93.8026C115.235 95.8527 114.722 98.1591 114.722 99.9529C114.722 100.722 115.747 100.722 116.003 99.9529C116.516 97.9028 116.516 95.5964 116.772 93.8026C117.028 91.7525 117.285 89.7024 117.285 87.6523C117.541 83.5521 117.797 79.1956 117.797 75.0954C118.053 74.0703 116.772 74.3266 116.516 75.3516ZM93.7084 111.997C93.4522 111.741 93.4522 111.741 93.7084 111.997C93.7084 111.741 93.4522 111.741 93.4522 111.741C93.4522 111.741 93.4522 111.741 93.1959 111.485H92.9396H92.6834C92.6834 111.485 92.6834 111.485 92.4271 111.485C92.4271 111.485 92.4271 111.485 92.1708 111.485C92.1708 111.485 92.1708 111.485 91.9146 111.485C91.9146 111.485 91.9146 111.485 91.6583 111.485C91.6583 111.485 91.4021 111.485 91.4021 111.741C91.4021 111.741 91.4021 111.741 91.4021 111.997V112.254C91.4021 112.254 91.4021 112.253 91.4021 112.51C91.4021 112.51 91.4021 112.51 91.6583 112.766H91.9146H92.1708H92.4271H92.6834H92.9396C92.9396 112.766 92.9397 112.766 93.1959 112.766V112.51V112.254C93.7084 112.254 93.7084 112.254 93.7084 111.997ZM140.092 59.4634C140.092 56.9007 139.579 56.6445 137.273 57.4132C134.967 58.182 132.917 59.2071 130.61 59.7196C121.129 62.7948 111.647 65.1011 102.421 68.9451C98.3212 70.4827 94.221 72.0202 90.1208 73.5578C89.6082 73.8141 89.0957 73.8141 88.8394 74.5829C88.5832 75.8642 88.3269 77.1455 88.3269 78.4268C88.3269 86.6272 87.8144 94.8276 87.5581 103.028C87.3019 107.641 86.5331 112.51 86.0205 117.122C86.0205 117.891 85.7643 118.404 86.2768 118.916C87.0456 119.429 87.5581 119.173 88.0706 118.916C91.1458 117.635 94.2209 116.866 97.2961 115.841C101.396 114.56 105.24 113.022 109.084 111.741C113.697 110.203 118.053 108.153 122.666 106.616C127.023 105.078 130.867 103.028 135.223 101.49C135.992 101.234 136.504 100.978 136.504 99.9529C136.504 96.8777 136.761 94.0588 137.017 90.9837C137.273 86.371 137.786 82.0145 138.298 77.4018C138.554 74.8391 138.811 72.2765 139.067 69.4576C139.323 66.1262 139.836 62.7948 140.092 59.4634C140.092 59.9759 140.092 59.7196 140.092 59.4634ZM138.554 60.2322C137.786 64.3324 137.529 68.1763 137.273 72.2765C137.017 76.1204 136.504 79.9644 135.992 83.8083C135.736 87.396 135.479 91.24 134.967 94.8276C134.967 96.3652 134.71 97.9028 134.71 99.4404C134.71 100.209 134.198 100.465 133.685 100.722C128.304 103.028 122.922 105.078 117.285 107.128C111.391 109.178 105.753 111.485 99.8587 113.535C96.271 114.816 92.6834 116.097 88.8394 117.122C88.5832 117.122 87.5581 117.891 87.5581 116.61C88.0706 111.741 89.0957 106.616 89.352 101.747C89.6082 95.0839 90.1208 88.1648 90.1208 81.502C90.1208 79.7081 90.1208 78.1705 90.1208 76.3767C90.1208 75.3517 90.6333 74.8391 91.4021 74.5829C94.7335 73.3016 98.3211 72.0202 101.653 70.7389C111.134 66.895 120.872 64.3323 130.61 61.2572C132.66 60.4884 134.967 59.7196 137.017 58.9508C138.298 58.9508 138.554 59.2071 138.554 60.2322ZM229.528 235.772C225.94 233.466 223.121 230.391 220.046 227.828C217.227 225.522 214.408 222.703 212.102 219.884C211.333 219.115 210.564 218.346 209.539 217.577C208.002 216.552 207.489 216.552 205.952 217.834C205.439 218.346 204.67 218.603 203.901 219.115C201.851 220.14 199.801 221.165 197.751 222.19C190.319 226.29 182.888 230.134 175.456 234.235C171.869 236.028 168.537 238.079 165.206 240.129C160.849 242.691 156.749 245.254 152.649 247.817C145.217 252.173 137.273 255.248 130.098 259.861C127.023 261.911 123.691 263.449 120.104 264.986C117.541 266.267 115.491 268.318 112.416 268.574C112.159 268.574 111.903 268.83 111.903 268.83C111.134 269.086 111.134 269.599 111.647 270.111C113.697 271.649 116.003 273.187 118.053 274.98C119.591 276.262 121.641 277.287 122.922 278.824C124.716 280.874 127.023 282.156 129.073 284.206C131.635 286.768 134.454 288.562 137.273 290.869C138.042 291.637 139.067 292.15 139.836 292.406C140.348 292.406 140.861 292.15 141.117 291.894C143.936 289.844 146.755 288.05 149.83 286.768C153.161 285.231 156.237 283.181 159.312 281.131C162.387 279.081 165.718 277.543 168.793 275.749C170.331 274.98 171.869 273.955 173.15 272.93C173.662 272.418 174.431 272.161 174.944 271.649C178.531 268.83 182.632 266.524 186.476 264.217C191.088 261.655 195.701 258.836 200.57 256.017C203.645 254.223 206.977 252.429 210.052 250.635C212.871 249.098 215.433 247.048 217.996 245.51C221.584 243.204 225.428 241.154 229.271 238.847C231.322 237.31 231.065 237.053 229.528 235.772ZM221.584 231.928C222.352 231.928 224.402 233.466 224.659 233.978C224.659 234.491 224.402 234.491 224.146 234.747C221.071 236.285 218.252 238.335 215.433 240.385C214.408 241.154 213.639 241.41 212.614 240.385C210.564 238.335 210.564 238.335 213.127 236.797C215.69 235.26 218.765 234.235 221.071 232.441C221.327 231.928 221.584 231.928 221.584 231.928ZM175.2 245.254C175.2 244.741 175.713 244.485 176.225 244.485C176.738 244.229 176.738 244.741 176.994 244.998C177.506 246.023 178.531 246.535 179.3 247.304C179.813 247.56 179.813 247.817 179.3 248.073C178.019 248.842 176.481 249.867 175.2 250.635C174.688 250.892 174.175 250.892 173.919 250.379C173.406 249.867 172.894 249.354 172.637 248.585C172.381 248.073 171.612 247.56 171.869 247.048C172.381 246.279 173.15 246.023 174.175 246.279C174.944 246.279 175.456 246.535 175.2 245.254ZM156.749 263.449C156.237 263.192 156.493 262.68 156.749 262.423C158.543 261.142 160.593 259.861 162.643 259.092C163.156 258.836 163.412 259.092 163.412 259.348C163.924 260.886 164.95 262.167 166.231 262.936C164.437 264.217 162.643 264.986 161.106 265.755C160.593 266.011 160.081 265.755 159.824 265.499C158.799 264.986 157.774 264.217 156.749 263.449ZM159.312 266.78C157.005 268.061 154.955 269.086 152.905 270.111C151.624 270.88 150.342 270.624 149.061 269.599C146.499 267.549 146.499 267.549 149.317 266.011C150.855 265.242 152.393 264.474 153.674 263.705C154.186 263.449 154.699 263.449 155.212 263.961C156.749 264.986 157.774 266.011 159.312 266.78ZM165.718 260.373C164.693 258.836 164.693 258.58 166.487 257.555C167.512 257.042 168.281 256.529 169.05 256.017C169.306 255.761 169.562 255.761 169.818 255.761C170.587 255.761 173.662 258.323 173.662 259.092C173.662 259.605 173.406 259.605 173.15 259.861C171.612 260.63 170.075 261.655 168.537 262.167C167.768 262.424 166.487 261.655 165.718 260.373ZM171.1 254.736C172.894 253.711 174.175 252.686 175.969 252.173C176.481 251.917 176.738 252.173 176.738 252.429C177.25 253.454 178.019 254.223 179.044 254.992C179.556 255.504 179.556 255.761 179.044 256.017C178.019 256.529 176.994 257.298 176.225 257.811C175.713 258.067 175.456 258.067 175.2 257.811C174.175 256.273 172.637 255.504 171.1 254.736ZM177.506 251.66C177.25 251.404 176.994 251.148 177.506 250.892C177.506 250.892 177.763 250.892 177.763 250.635C179.813 248.842 181.863 247.817 184.169 250.123C184.938 250.635 185.963 250.635 186.988 251.404C185.194 252.429 183.4 253.454 181.607 254.479C181.094 254.736 180.582 254.736 180.069 254.223C179.3 253.454 178.531 252.429 177.506 251.66ZM183.144 247.304C185.194 246.023 187.501 244.741 189.551 243.46C190.063 243.204 190.32 243.716 190.576 243.973C191.345 245.254 192.37 246.535 194.163 246.791C192.113 247.817 190.32 248.842 188.526 249.867C188.269 249.867 188.013 250.123 188.013 249.867C186.732 248.842 184.425 248.842 183.144 247.304ZM191.601 243.46C191.345 242.948 191.345 242.691 191.857 242.435C193.138 241.666 194.42 240.897 195.701 239.872C196.214 239.616 196.47 239.616 196.726 240.129C197.495 241.41 198.264 242.435 199.289 243.46L199.545 243.716C199.545 243.973 199.289 244.229 199.032 244.229C198.007 244.741 196.982 245.51 195.957 246.023C195.701 246.279 195.445 246.279 194.932 246.023C193.651 245.51 192.37 244.485 191.601 243.46ZM197.495 239.36C196.982 239.104 197.495 238.847 197.751 238.591C198.264 238.335 198.776 237.822 199.289 237.566C201.851 235.772 202.364 236.028 204.414 238.335C204.926 238.847 205.183 239.36 205.695 239.872C205.695 240.129 205.439 240.129 205.439 240.385C204.414 241.41 203.133 242.179 201.851 242.691C201.339 242.948 201.083 242.691 200.57 242.435C199.289 241.666 198.52 240.385 197.495 239.36ZM202.876 235.772C204.414 234.747 205.952 233.722 207.233 232.953C207.489 232.697 208.002 232.697 208.258 233.21C209.283 234.235 210.564 235.26 212.102 236.028C210.564 237.053 209.027 238.079 207.489 239.104C206.977 239.36 206.464 238.847 206.208 238.591C205.183 237.31 204.414 236.285 202.876 235.772ZM206.977 231.416C205.952 231.159 205.695 229.878 204.67 229.366C204.158 228.853 204.158 228.597 204.926 228.341C205.183 228.341 205.439 228.084 205.695 227.828C207.745 226.034 209.283 226.547 210.564 228.597C210.564 228.597 210.564 228.853 210.821 228.853C210.821 229.109 210.564 229.366 210.564 229.366C210.308 229.622 210.052 229.622 209.796 229.878C208.77 230.391 208.002 231.416 206.977 231.416ZM205.439 231.672C205.439 231.672 205.695 231.928 206.208 232.184C205.695 232.441 205.695 232.441 205.439 232.441C205.183 232.697 204.927 232.953 204.67 232.953C201.595 235.003 201.083 235.003 198.776 232.184C198.264 231.672 198.52 231.416 199.032 231.159C200.314 230.647 201.339 229.878 202.364 229.366C202.876 229.109 203.133 229.109 203.389 229.622C203.901 230.391 204.67 231.159 205.439 231.672ZM199.801 235.516C199.545 236.028 199.032 236.028 198.776 236.285C198.264 236.797 197.495 237.31 196.726 237.566C195.701 237.822 195.701 236.541 194.932 236.285C194.42 236.028 193.907 235.772 193.395 235.516C193.138 235.516 192.626 235.003 192.37 235.516C192.113 235.772 192.626 236.285 192.882 236.541C193.395 237.053 194.163 237.31 194.676 238.079C195.188 238.591 195.189 238.847 194.42 239.36C193.138 240.129 192.113 240.897 190.832 241.666C190.063 242.179 189.807 241.922 189.294 241.41C186.988 238.847 186.988 238.847 190.063 237.053C191.857 236.028 193.651 235.003 195.188 233.722C195.957 233.21 196.47 233.21 197.239 233.978C198.007 234.235 199.032 234.747 199.801 235.516ZM188.013 241.154C189.038 242.179 188.782 242.691 187.757 243.204C185.451 244.741 185.194 244.741 183.4 242.435C182.888 241.922 182.632 241.666 182.375 241.666C181.607 241.666 181.607 242.179 181.863 242.691C182.375 243.46 182.632 243.973 183.4 244.485C183.657 244.741 183.913 244.998 183.657 245.254C182.888 246.023 181.35 246.535 180.582 245.766L180.325 245.51C179.556 244.998 178.275 244.229 178.531 243.46C178.531 242.691 180.069 242.691 180.838 242.179C182.632 241.41 184.169 240.129 185.707 239.104C186.476 238.591 186.988 238.335 187.501 239.36C187.244 240.385 187.501 240.897 188.013 241.154ZM172.894 251.148C173.406 251.66 173.406 251.917 172.637 252.173C171.869 252.686 170.844 253.198 170.075 253.711C169.562 253.711 169.306 253.454 169.306 253.198C168.537 252.173 168.025 251.404 167.256 250.379C167 250.123 167 249.867 167.256 249.61C168.281 249.098 169.05 248.329 170.075 247.817C170.331 247.56 170.844 247.304 170.844 248.073C171.356 249.354 172.125 250.379 172.894 251.148ZM167.512 253.198C168.793 254.479 168.793 254.479 167 255.504C166.487 255.761 166.231 256.017 165.718 256.273C165.462 256.017 165.206 256.017 165.206 255.761C164.437 254.736 163.668 253.967 162.899 252.942C162.387 252.429 162.643 252.173 163.156 251.917C163.412 251.66 163.924 251.66 164.181 251.404C165.206 250.892 165.975 250.892 166.487 252.173C166.743 252.429 167 252.942 167.512 253.198ZM163.156 255.248C163.668 255.761 163.924 256.273 164.437 256.786C164.437 257.042 164.181 257.298 163.924 257.298C162.387 257.811 161.106 258.58 159.568 259.092C159.055 259.348 158.799 259.092 158.543 258.58C158.287 258.067 158.03 257.555 157.774 257.298C156.493 255.248 156.493 255.248 158.543 254.223C159.568 253.711 160.593 252.942 161.362 252.942C162.387 252.942 162.387 254.479 163.156 255.248ZM157.518 259.348C157.774 259.861 157.774 260.117 157.262 260.373C157.005 260.63 156.749 260.63 156.493 260.886C155.724 261.142 154.955 262.424 154.186 261.911C152.905 261.142 152.393 259.605 151.624 258.323V258.067C152.649 257.042 154.186 256.786 155.212 256.017C155.468 256.017 155.724 256.273 155.724 256.273C155.98 257.555 156.749 258.58 157.518 259.348ZM153.161 262.936C151.624 263.705 150.086 264.474 148.805 265.242C148.549 265.242 148.292 265.499 148.292 265.499C147.267 264.73 146.499 263.705 145.986 262.423C145.73 261.655 146.499 260.886 147.011 260.373C147.78 259.861 148.805 259.605 149.574 259.092C150.086 258.836 150.343 259.092 150.599 259.605C151.368 260.886 151.88 262.167 153.161 262.936ZM146.242 265.242C147.011 265.755 147.011 266.267 145.986 266.78C144.705 267.292 143.68 268.061 142.655 268.574C142.142 268.574 139.579 264.986 139.836 264.73C140.092 264.217 140.605 264.217 140.861 263.961C141.886 263.449 142.655 262.68 143.68 262.423C144.705 262.423 144.961 263.961 145.73 264.73C145.986 264.986 145.986 264.986 146.242 265.242ZM145.217 268.574H145.474C145.73 268.574 145.73 268.83 145.986 268.83C146.755 269.855 147.78 270.624 148.805 271.649C149.317 271.905 149.061 272.161 148.805 272.418C146.755 273.443 144.705 274.724 142.655 275.749C142.142 276.005 141.886 276.005 141.63 275.493C140.861 274.724 139.836 273.699 139.067 272.93C138.811 272.674 138.554 272.418 139.067 272.161C140.861 270.88 143.167 269.599 145.217 268.574ZM146.242 275.237C146.755 274.98 147.267 274.98 147.524 275.493C147.78 276.262 148.549 277.031 149.317 277.543C149.574 277.799 149.574 277.799 149.83 278.056C149.83 278.312 149.574 278.568 149.317 278.568C147.011 279.337 144.705 280.874 142.655 282.156C141.63 282.668 140.861 282.412 140.092 281.387C138.554 279.337 138.554 279.337 140.861 278.056C142.655 277.287 144.448 276.262 146.242 275.237ZM149.574 276.005C148.292 274.212 148.292 274.212 150.086 273.187C152.649 271.905 155.212 270.88 157.518 269.343C158.287 268.83 158.543 269.086 159.055 269.599C160.849 271.649 160.849 271.649 158.543 273.187C156.493 274.724 154.186 275.749 151.88 277.03C151.624 277.287 151.111 277.287 151.111 277.543C150.599 277.543 150.599 277.287 150.342 277.287C150.342 276.774 149.83 276.262 149.574 276.005ZM161.362 267.549C164.181 266.267 166.743 264.73 169.306 263.192C170.075 262.68 170.587 262.68 171.1 263.449C171.356 263.705 171.612 263.961 171.869 264.217C173.15 265.499 173.15 265.499 171.612 266.267C168.793 267.805 165.975 269.086 163.156 270.88C162.899 270.88 162.643 271.136 162.643 271.136C161.874 270.88 161.618 269.855 160.849 269.343C160.08 268.318 160.08 268.061 161.362 267.549ZM172.125 262.167C171.869 261.655 172.125 261.655 172.637 261.398C175.713 259.605 178.788 257.811 182.119 255.761C182.632 255.504 182.888 255.504 183.4 256.017C183.913 256.786 184.682 257.555 185.194 258.067C185.194 258.067 185.194 258.323 185.451 258.58C185.194 258.836 185.194 258.836 184.938 259.092C181.607 260.373 179.044 262.424 175.713 263.961C174.431 264.474 172.637 263.449 172.125 262.167ZM183.4 254.992C186.732 253.198 189.807 250.892 192.882 249.354C193.651 248.842 193.907 248.842 194.42 249.61C196.214 252.173 196.214 252.173 193.651 253.711C191.601 254.992 189.551 256.017 187.757 257.298C186.732 257.811 186.219 257.811 185.451 257.042C184.938 256.273 184.425 255.504 183.4 254.992ZM196.982 246.791C198.52 246.023 200.058 244.998 201.339 244.229C202.108 243.716 202.62 243.716 203.133 244.741C203.389 245.51 204.158 245.766 204.414 246.535C204.414 247.048 204.158 247.048 203.901 247.304C201.851 248.585 199.801 249.867 198.007 250.892C197.495 251.148 197.239 251.148 196.982 250.635C196.726 250.379 196.726 250.123 196.47 250.123C194.676 248.073 194.676 248.073 196.982 246.791ZM203.645 242.948C205.183 241.923 206.977 240.641 208.77 239.36C209.539 238.847 210.052 238.847 210.564 239.616C210.821 239.872 210.821 240.129 211.077 240.129C212.871 241.666 212.871 241.666 210.821 242.948C209.539 243.716 208.258 244.485 206.72 245.254C206.208 245.51 205.695 245.51 205.183 244.998C204.926 244.485 204.158 243.716 203.645 242.948ZM217.483 227.828C218.252 228.853 219.277 229.366 220.302 229.878C220.815 230.134 221.327 230.391 220.559 230.903C218.252 232.184 216.202 233.466 213.896 234.747C213.896 234.747 213.639 234.747 213.383 235.003C213.127 235.003 213.127 234.747 212.871 234.747C212.102 234.235 211.077 233.722 210.308 233.21C208.514 231.928 208.514 231.928 210.564 230.903C212.358 229.878 214.152 228.597 216.202 227.828C216.715 227.572 217.227 227.315 217.483 227.828ZM215.69 226.034C215.69 226.29 215.946 226.29 215.69 226.29C215.69 227.059 212.358 228.084 211.846 227.572C211.333 227.059 210.821 226.803 210.308 226.29C210.052 226.034 209.283 226.034 209.283 225.522C209.283 225.009 209.795 225.009 210.308 224.753C210.564 224.497 210.821 224.497 211.077 224.24C212.871 223.472 214.664 224.24 215.69 226.034ZM206.72 218.603C207.233 218.346 207.489 218.346 208.002 218.603C209.539 219.371 210.564 220.653 211.333 221.934C211.589 222.19 211.589 222.447 211.333 222.703C210.821 222.959 210.308 223.472 209.796 222.959C209.283 222.703 208.77 222.446 208.258 221.934C207.233 221.165 205.952 220.653 204.67 219.884C205.695 219.628 206.208 219.115 206.72 218.603ZM201.851 221.678C203.133 220.909 204.158 220.396 205.439 221.934C206.208 222.703 207.233 223.215 208.002 223.728C208.514 223.984 208.77 224.497 208.002 224.753C206.977 225.522 204.926 226.803 204.158 226.803C203.133 226.547 202.108 226.034 201.339 225.265C199.289 222.959 199.289 223.215 201.851 221.678ZM194.932 225.265C195.957 224.753 196.726 223.728 197.751 223.728C198.776 223.728 199.032 225.009 199.801 225.778C200.57 226.29 201.339 227.059 202.364 227.828C201.339 228.341 200.314 228.853 199.545 229.366C199.032 229.622 198.776 229.622 198.264 229.366C196.982 228.597 195.701 227.572 194.676 226.547C194.42 226.034 194.42 225.522 194.932 225.265ZM192.37 226.803C192.882 226.547 193.138 226.29 193.395 226.803C194.163 228.084 195.445 229.109 196.47 229.878C197.239 230.391 197.239 230.647 196.47 231.159C195.188 231.928 194.163 232.953 192.882 233.21C191.601 233.21 190.832 231.672 189.807 230.903C189.038 230.391 188.526 229.878 187.757 229.366C189.294 228.341 190.832 227.572 192.37 226.803ZM184.938 230.903C185.194 230.647 185.451 230.647 185.707 230.391C186.476 229.878 186.988 229.622 187.757 230.647C188.526 231.672 189.807 232.441 190.832 233.21C191.088 233.466 191.345 233.722 191.857 233.722C191.601 234.235 191.345 234.235 191.345 234.491C191.088 234.747 191.088 234.747 190.832 235.003C188.013 237.053 187.244 237.053 184.682 234.491C182.119 232.185 182.119 232.184 184.938 230.903ZM176.481 235.003C177.763 234.235 179.044 233.466 180.582 232.953C181.094 232.953 181.35 233.466 181.607 233.722C182.632 235.003 183.657 236.028 184.938 236.797C185.707 237.053 185.451 237.31 184.938 237.822C183.913 238.591 182.888 239.104 181.863 239.872C181.35 240.129 181.094 240.385 180.582 239.872C179.3 238.591 177.763 237.31 176.225 236.285C175.713 235.772 175.969 235.516 176.481 235.003ZM174.175 236.541C174.687 236.285 174.944 236.797 175.2 237.053C176.738 238.335 178.275 239.872 180.325 241.41C178.019 242.179 176.225 243.204 174.431 244.485C173.919 244.741 173.406 244.485 173.15 244.229C171.356 242.948 169.818 241.41 167.768 240.385C170.075 238.847 172.125 237.566 174.175 236.541ZM161.874 243.716C163.156 242.691 164.693 241.922 165.975 240.897C166.231 240.641 166.487 240.641 166.743 240.897C168.537 242.179 170.331 243.716 172.125 245.254C170.331 246.279 168.537 247.304 166.743 248.329C167 247.56 166.487 247.304 165.975 247.304C164.181 246.791 163.156 245.51 161.618 244.485C161.362 243.973 161.618 243.716 161.874 243.716ZM155.212 247.817C156.749 246.791 158.287 245.766 159.824 244.741C160.337 244.485 160.593 244.485 161.106 244.998C161.874 245.766 162.643 246.279 163.156 246.791C164.181 247.817 165.462 248.329 167 248.073C164.693 249.867 162.131 250.635 159.568 252.173C158.543 252.686 158.03 251.917 157.262 251.404C156.493 250.635 155.98 249.354 154.955 248.585C154.699 248.329 154.699 248.073 155.212 247.817ZM148.292 251.66C149.83 250.892 151.111 250.123 152.649 249.098C153.418 248.585 153.93 248.842 154.443 249.61C155.468 251.148 156.237 252.686 158.287 253.198C156.237 254.223 154.443 255.248 152.649 256.273C152.136 256.529 151.88 256.529 151.368 256.273C150.086 255.248 149.061 254.223 148.036 252.942C147.524 252.173 147.524 251.917 148.292 251.66ZM145.217 253.198C145.73 252.942 146.242 252.942 146.755 253.454C147.78 254.992 149.061 256.017 150.599 257.298C148.805 258.323 147.011 259.092 145.217 260.117C144.705 260.373 144.448 259.861 144.192 259.348C143.167 258.067 141.886 256.786 140.348 255.761C142.142 254.736 143.68 253.967 145.217 253.198ZM134.454 258.58C136.504 257.555 138.554 256.786 140.348 255.761C139.579 256.786 140.348 257.298 140.861 258.067C141.63 258.836 142.398 259.605 142.911 260.373C143.423 260.886 143.423 261.398 142.655 261.655C141.63 262.167 140.861 262.424 140.092 263.192C137.786 264.73 135.992 263.961 134.198 262.423C131.892 260.373 131.892 259.861 134.454 258.58ZM118.822 273.699C117.028 272.418 115.235 271.136 113.441 269.855C116.772 268.83 119.335 266.524 122.154 265.242C124.716 263.961 127.279 262.68 129.841 261.398C130.61 261.142 130.867 261.142 131.379 261.655C132.404 263.192 134.198 263.961 135.992 264.73C133.429 266.267 130.867 268.061 128.048 269.086C127.535 269.343 127.023 268.83 126.766 268.574C125.998 267.293 124.716 266.524 123.691 265.499C123.435 265.242 122.922 264.986 122.41 264.986C122.154 266.011 122.922 266.524 123.435 267.036C124.204 267.805 124.972 268.574 125.741 269.086C126.254 269.599 126.254 270.111 125.485 270.368C123.691 271.393 121.641 272.418 119.847 273.443C119.591 273.955 119.335 273.955 118.822 273.699ZM124.204 277.799C123.435 276.774 122.41 276.262 121.385 275.493C120.872 275.237 120.616 274.724 121.385 274.468C123.435 273.443 125.485 272.161 127.535 271.136C129.073 270.368 130.354 269.599 131.892 268.574C132.66 268.061 133.173 268.061 133.942 268.83C134.454 269.599 135.223 270.368 136.248 270.88C136.504 271.136 137.017 271.136 137.017 270.624C136.761 269.855 136.248 269.343 135.736 268.83C134.198 267.292 134.198 267.293 136.248 266.011C138.298 264.73 138.298 264.73 139.579 266.78C139.836 267.292 140.092 267.805 140.605 268.061C141.63 268.83 141.117 269.086 140.348 269.599C137.529 271.136 134.967 272.674 132.148 274.212C130.098 275.493 127.791 276.774 125.741 278.056C124.972 278.312 124.716 278.312 124.204 277.799ZM129.073 281.643C128.304 281.131 127.535 280.618 126.766 280.106C125.998 279.593 125.998 279.081 126.766 278.824C130.098 277.287 132.917 275.237 136.248 273.699C137.017 273.187 137.529 273.443 138.042 274.212C138.811 274.98 139.579 276.005 140.605 277.03C140.092 277.287 139.579 277.799 138.811 278.056C135.992 279.081 133.685 280.618 131.123 282.156C130.354 282.156 129.585 282.412 129.073 281.643ZM134.967 286.512C134.198 286.512 131.379 283.95 131.123 283.437C131.123 283.181 131.379 282.925 131.635 282.925C133.173 282.156 134.71 281.131 136.248 280.362C137.017 279.849 137.529 280.106 137.786 280.874C138.042 281.387 138.298 282.156 138.811 282.668C140.092 283.693 139.323 284.206 138.298 284.718C137.273 285.231 136.248 286 135.479 286.512C135.223 286.256 134.967 286.512 134.967 286.512ZM147.267 286.256C144.961 287.537 142.655 289.075 140.605 290.356C139.836 290.869 139.323 290.356 138.811 289.844C137.786 289.075 136.761 288.05 135.736 287.281C138.554 285.743 141.117 284.462 143.68 282.925C144.705 282.412 145.217 282.156 145.986 283.437C146.242 284.206 147.011 284.718 147.524 285.231C147.78 285.743 147.78 286 147.267 286.256ZM158.03 280.106C155.468 281.643 152.649 283.181 150.086 284.718C149.83 284.718 149.83 284.975 149.574 284.975C149.061 284.975 148.805 284.718 148.805 284.462C148.292 284.206 148.036 283.693 147.524 283.437C145.73 281.899 145.73 281.387 148.036 280.362C150.599 279.337 152.905 278.056 155.212 276.774C155.98 276.262 156.493 276.518 157.005 277.287C157.262 277.799 157.774 278.312 158.287 278.824C158.799 279.337 158.799 279.849 158.03 280.106ZM160.849 278.312C160.337 278.568 159.824 278.568 159.568 278.056C159.312 277.799 159.055 277.543 159.055 277.287C157.518 276.005 157.005 275.749 159.568 274.212C161.874 272.93 164.181 271.649 166.231 270.368C167 269.855 167.512 270.111 168.281 270.88C168.793 271.649 169.562 272.674 170.844 273.187C167 274.724 164.181 276.774 160.849 278.312ZM179.813 266.524C177.25 268.318 174.944 269.855 172.637 271.649C172.381 271.905 172.125 272.161 171.869 272.418C171.356 272.418 171.1 271.905 170.587 271.649C168.537 269.599 168.537 269.599 171.1 268.318C173.662 267.036 175.969 265.242 178.531 263.961C180.069 263.192 180.069 264.73 180.582 265.242C181.094 266.011 180.069 266.011 179.813 266.524ZM191.345 259.861C188.526 261.398 185.963 262.936 183.144 264.474C182.888 264.73 182.632 264.73 182.375 264.986C181.607 264.474 180.838 263.705 180.325 262.936C180.069 262.423 180.838 262.167 181.35 261.911C184.682 260.63 187.501 258.58 190.576 257.042C191.088 256.786 191.345 256.786 191.857 257.298C193.138 258.836 193.138 258.836 191.345 259.861ZM194.932 257.555C194.42 257.811 192.626 256.786 192.37 256.273C192.37 256.017 192.626 255.761 192.882 255.761C195.445 254.223 198.007 252.686 200.314 250.892C200.826 250.635 201.083 250.635 201.595 250.892C202.364 251.404 203.133 252.429 204.158 252.173C201.339 254.223 198.007 255.504 194.932 257.555ZM213.127 246.791C210.308 248.842 207.489 250.635 204.414 251.917C204.414 250.635 203.133 250.379 202.364 249.61C205.183 247.817 207.745 246.023 210.564 244.485C211.333 244.229 213.383 245.51 213.639 246.279C213.639 246.535 213.383 246.791 213.127 246.791ZM219.533 242.691C218.252 243.46 216.971 244.229 215.69 245.254C214.921 245.766 214.408 245.51 213.896 244.998C212.102 243.46 212.102 243.46 214.152 242.179C215.177 241.41 216.458 240.897 217.483 240.129C217.74 239.872 217.996 239.616 218.508 239.616C219.021 239.872 219.277 240.385 219.79 240.641C221.071 241.666 221.071 241.922 219.533 242.691ZM228.246 237.822C226.453 238.847 224.915 239.872 223.121 240.641C222.352 240.897 219.533 239.872 219.533 239.104C219.533 238.847 219.79 238.847 219.79 238.591C221.327 237.31 223.121 236.285 224.915 235.26C225.684 235.003 228.503 236.285 228.503 237.053C228.759 237.566 228.503 237.566 228.246 237.822ZM121.129 73.3016C121.129 77.4018 120.872 81.502 120.616 85.6022C120.36 87.6523 120.36 89.7024 120.104 91.7525C119.847 93.8026 119.335 96.1089 119.335 97.9028C119.335 98.6716 120.36 98.6716 120.616 97.9028C121.129 95.8527 121.129 93.5463 121.385 91.7525C121.641 89.7024 121.897 87.6523 121.897 85.6022C122.154 81.502 122.41 77.1455 122.41 73.0453C122.666 72.2765 121.129 72.5328 121.129 73.3016ZM77.5639 171.706C77.0513 170.681 76.0263 170.938 75.0012 171.45C72.6949 172.475 70.3885 173.5 68.0821 174.525C67.3134 174.782 66.5446 175.294 66.032 176.319C65.5195 177.344 66.2883 178.113 67.5696 178.113C69.3634 177.601 71.4136 176.832 73.2074 176.063C74.4887 175.55 75.5138 175.038 76.5388 174.269C77.5639 173.5 78.0764 172.732 77.5639 171.706ZM135.736 64.0761C135.736 64.0761 135.479 64.0761 135.479 63.8198H135.223H134.967C134.967 63.8198 134.967 63.8198 134.71 63.8198C134.71 63.8198 134.71 63.8198 134.71 64.0761V64.3324V64.5886C134.71 64.5886 134.71 64.5886 134.71 64.8449C134.967 64.8449 134.967 65.1011 135.223 65.1011C135.479 65.1011 135.479 65.1011 135.736 65.1011C135.992 65.1011 135.992 65.1011 135.992 64.8449C136.248 64.5886 136.248 64.5886 136.248 64.3324C136.248 64.0761 136.248 64.0761 136.248 63.8198C135.992 64.3323 135.992 64.3324 135.736 64.0761ZM125.741 71.5077C125.741 75.6079 125.485 79.7081 125.229 83.8083C124.973 85.8584 124.972 87.9085 124.716 89.9586C124.46 92.0087 123.947 94.3151 123.947 96.109C123.947 96.8777 124.973 96.8777 125.229 96.109C125.741 94.0588 125.741 91.7525 125.998 89.9586C126.254 87.9085 126.51 85.8584 126.51 83.8083C126.766 79.7081 127.023 75.3517 127.023 71.2514C127.279 70.4827 125.741 70.4827 125.741 71.5077ZM132.66 97.9028C132.66 97.6465 132.66 97.3903 132.66 97.3903C132.66 97.134 132.404 96.8777 132.148 96.6215C131.892 96.3652 131.635 96.3652 131.379 96.6215L131.123 96.8777L130.867 97.134C130.867 97.134 130.867 97.3903 130.61 97.3903C130.61 97.3903 130.61 97.3903 130.61 97.6465V97.9028C130.61 98.159 130.61 98.4153 130.867 98.6716C130.867 98.6716 130.867 98.9278 131.123 98.9278C131.123 98.9278 131.379 98.9278 131.379 99.1841C131.379 99.1841 131.379 99.1841 131.635 99.4404H131.892C132.148 99.4404 132.404 99.4404 132.404 99.1841C132.66 98.9278 132.66 98.9278 132.66 98.6716C132.66 98.4153 132.66 98.159 132.66 97.9028Z" fill="black"/>
</svg>
