<svg width="243" height="247" viewBox="0 0 243 247" fill="none" xmlns="http://www.w3.org/2000/svg">
<path d="M150.803 71.4861C149.669 72.4078 148.535 73.3296 147.471 74.2513C147.542 74.3222 147.613 74.3931 147.684 74.464C148.889 73.4714 150.024 72.4787 151.229 71.557C151.087 71.4861 150.945 71.4152 150.803 71.4861ZM131.589 85.5958C128.895 86.3757 118.614 94.5295 115.423 98.3583C117.266 97.862 129.107 88.4319 131.589 85.5958ZM142.153 87.7937C135.347 92.5442 129.887 98.7128 123.931 104.314C125.42 104.101 141.728 89.1409 142.153 87.7937ZM86.4947 79.0727C90.1107 79.9235 93.6558 80.9871 97.2719 81.9088C98.0518 82.1215 98.4063 81.9797 98.5481 81.058C98.8317 78.6473 98.8317 76.2366 99.2572 73.8968C99.9662 69.8553 100.25 65.743 100.533 61.6306C100.746 57.9437 100.959 54.3276 101.526 50.7116C101.597 50.0735 101.526 49.7899 100.746 50.1444C98.8317 50.9243 96.9883 51.9169 95.0739 52.7678C89.3308 55.3203 83.6585 58.1564 77.8445 60.7089C74.0158 62.4105 70.4706 64.6794 66.6419 66.3811C62.6004 68.1537 58.7716 70.4935 54.6593 72.6206C59.1971 73.2587 63.5221 73.8968 67.7763 74.7476C74.0158 75.8821 80.2552 77.5837 86.4947 79.0727ZM27.5744 106.016C32.3249 107.717 37.2881 108.852 42.1804 109.986C39.6988 108.639 28.8507 105.732 27.5744 106.016ZM151.229 82.0506C153.64 81.058 160.659 74.1804 163.708 69.7135C159.383 73.3296 155.412 77.2292 151.442 81.1998C151.229 81.4125 151.016 81.6961 151.229 82.0506ZM66.8546 55.3203C67.4927 55.4621 68.0599 55.533 68.698 55.533C71.9596 55.3203 75.1502 54.4694 77.9863 52.7678C80.1134 51.4206 81.2478 49.4353 81.0351 46.8119C80.9642 45.8193 80.4679 45.3939 79.6171 45.1812C77.9863 44.8267 76.3555 44.543 74.7248 44.1885C74.2285 44.0467 73.7321 44.1885 73.3067 44.3303C72.1723 44.7558 71.1087 45.323 70.0452 45.8902C67.9181 47.1664 66.0037 48.6554 64.8693 50.9952C63.8058 53.0514 64.5857 54.6821 66.8546 55.3203ZM84.4385 32.915C85.3602 33.2695 86.4238 33.1277 87.4164 33.2695C90.607 33.624 93.5849 34.9003 96.7047 35.4675C100.959 36.2474 105.284 37.0983 109.396 38.6581C115.281 40.927 121.521 41.7778 127.476 43.6922C129.604 44.4012 131.943 44.0467 133.858 45.6066C134 45.7484 134.354 45.8193 134.496 45.7484C135.276 45.4648 135.985 45.8193 136.694 46.032C137.545 46.3865 137.97 46.1029 138.396 45.4648C139.246 44.2594 140.239 43.125 141.444 42.2033C142.65 41.2815 143.855 40.3598 145.06 39.3671C146.408 38.3036 147.4 36.9564 148.818 36.0347C150.945 34.6166 152.718 32.7732 154.632 31.2133C154.774 31.0715 154.987 31.0006 154.916 30.7879C154.845 30.5752 154.632 30.6461 154.42 30.5752C153.569 30.4334 152.718 30.2916 151.796 30.1498C150.165 29.9371 148.818 28.8735 147.187 28.519C143.642 27.7391 140.239 26.6046 136.836 25.4702C132.723 24.0521 128.327 23.7685 124.215 22.4214C121.45 21.4996 118.685 20.507 115.848 19.7271C112.02 18.5926 108.049 18.1672 104.362 16.5364C104.22 16.4655 104.079 16.4655 103.937 16.4655C103.299 16.3946 102.944 16.7491 102.519 17.1746C101.739 17.9545 101.101 18.8053 100.25 19.4435C97.2719 21.7832 94.2231 23.9812 91.2451 26.2501C88.8344 28.0936 86.3528 29.8662 84.2258 31.9932C84.084 32.1351 83.7294 32.2769 83.8712 32.6314C83.9422 32.915 84.2258 32.8441 84.4385 32.915ZM28.1416 99.4218C35.6573 101.194 42.8894 103.747 50.476 105.165C47.6399 103.605 29.7015 98.9964 28.1416 99.4218ZM173.492 203.082C179.448 199.607 184.199 194.644 189.516 190.319C183.277 193.439 178.526 198.402 173.492 203.082ZM182.213 209.463C188.666 204.429 194.196 198.331 200.223 192.73C193.345 197.339 187.886 203.507 181.859 209.038C181.93 209.179 182.072 209.321 182.213 209.463ZM208.731 176.28C207.597 177.202 206.462 178.124 205.399 179.046C205.47 179.117 205.54 179.187 205.611 179.258C206.817 178.266 207.951 177.273 209.156 176.351C209.015 176.21 208.873 176.139 208.731 176.28ZM209.156 186.774C211.993 185.994 219.579 177.273 221.635 174.508C218.728 176.351 209.369 185.64 209.156 186.774ZM108.404 209.747C104.362 208.116 87.6291 203.791 86.0692 204.074C87.3455 204.854 107.34 209.959 108.404 209.747ZM180.086 123.883C178.952 124.805 177.817 125.727 176.754 126.648C176.825 126.719 176.896 126.79 176.967 126.861C178.172 125.869 179.306 124.876 180.512 123.954C180.37 123.812 180.228 123.741 180.086 123.883ZM240.992 170.254C239.007 168.977 236.738 168.481 234.398 168.127C233.972 168.056 233.76 167.914 233.547 167.63C231.633 164.511 230.073 161.32 230.144 157.491C230.215 155.577 230.356 153.733 230.356 151.89C230.427 150.188 230.711 148.487 231.278 146.856C233.405 141.113 236.17 135.795 240.496 131.399C240.637 131.257 240.779 131.115 240.85 130.974C241.488 129.981 241.346 129.272 240.283 128.776C239.928 128.563 239.503 128.421 239.077 128.35C237.376 128.137 235.887 127.287 234.398 126.648C233.122 126.081 231.845 125.443 230.498 125.018C225.464 123.387 220.359 121.827 215.254 120.196C214.474 119.984 214.049 119.913 214.191 120.976C214.261 121.402 213.907 121.756 213.623 122.04C212.56 123.245 211.354 124.309 210.149 125.372C207.455 127.712 204.902 130.335 202.35 132.817C199.159 135.937 195.827 138.915 192.565 141.893C190.013 144.232 187.318 146.501 184.695 148.77C181.221 151.748 177.817 154.726 174.343 157.704C171.153 160.469 167.891 163.234 164.7 166.07C162.715 167.843 160.375 169.261 158.461 171.105C154.207 175.146 149.882 179.117 145.982 183.513C143.217 186.561 139.955 189.185 137.332 192.446C136.623 193.297 135.63 193.864 134.496 194.077C132.227 194.502 129.958 194.361 127.618 194.077C123.435 193.581 119.394 192.73 115.281 192.021C112.02 191.454 108.758 190.461 105.568 189.681C96.2792 187.341 86.7783 185.711 77.49 183.229C75.0084 182.591 72.4559 182.094 70.1161 180.889C69.5489 180.606 68.9108 180.393 68.4144 179.684C69.3362 179.896 70.187 179.967 70.896 180.18C74.0867 181.315 77.4191 181.882 80.6806 182.733C86.7074 184.222 92.805 185.285 98.8317 186.632C106.277 188.263 113.65 190.39 121.237 191.525C125.137 192.092 128.965 192.943 132.936 192.73C134 192.659 134.992 192.446 135.772 191.666C136.836 190.603 137.899 189.61 138.963 188.547C143.146 184.434 146.975 179.896 151.158 175.784C155.129 171.955 159.241 168.339 163.566 164.865C167.04 162.1 170.302 159.051 173.705 156.144C177.888 152.528 182.143 148.912 186.326 145.225C188.949 142.956 191.431 140.616 194.054 138.277C196.678 135.866 199.372 133.526 201.854 130.974C203.768 129.059 205.611 127.074 207.738 125.372C209.369 124.096 210.787 122.536 212.276 121.118C212.985 120.48 212.985 119.487 213.198 118.707C213.34 118.14 212.418 117.998 211.922 117.715C210.078 116.58 207.951 116.155 205.895 115.8C205.47 115.729 205.186 115.659 204.973 115.304C203.768 113.39 202.633 111.404 202.137 109.206C201.144 104.952 201.428 100.627 202.279 96.4439C203.697 89.9917 207.171 84.4613 211.496 79.4981C211.638 79.2854 211.851 79.1436 212.064 78.9309C213.127 77.7255 212.914 76.8747 211.425 76.3075C211.213 76.2366 210.929 76.0948 210.645 76.0239C208.802 75.7403 207.171 74.8894 205.54 74.1095C203.272 73.1169 201.003 72.266 198.592 71.557C194.196 70.2808 189.8 68.8627 185.404 67.4446C184.766 67.2319 184.057 67.2319 183.986 66.2393C183.986 66.0266 183.561 65.8139 183.348 65.6721C181.292 64.254 178.952 63.7577 176.612 63.4032C176.258 63.3323 175.974 63.2614 175.761 62.9069C174.556 60.9925 173.351 59.0072 172.854 56.7383C171.862 52.4842 172.145 48.1591 173.067 43.9758C174.556 37.4528 177.959 31.8514 182.497 26.8882C184.057 25.1866 183.915 24.3357 181.646 23.6267C180.441 23.2722 179.236 23.0595 178.101 22.4923C175.052 21.0033 171.862 19.9398 168.6 18.8762C161.439 16.6073 154.278 14.4094 147.046 12.495C140.948 10.8642 135.134 8.73713 129.178 6.61005C123.222 4.48296 117.408 2.07226 111.311 0.4415C108.191 -0.409333 105.284 -0.0548169 102.66 1.71775C100.25 3.34852 97.91 5.19199 95.6411 7.10637C90.5361 11.4314 85.2893 15.4729 79.9716 19.5144C75.7174 22.7759 71.3923 25.8956 67.1382 29.1571C60.7569 34.0494 54.5175 39.0835 48.1362 43.9758C43.5275 47.521 39.2734 51.4206 34.7356 55.0367C28.8507 59.7871 23.1784 64.7503 17.4353 69.6426C13.0393 73.4714 9.13969 77.9383 4.3892 81.4125C4.17649 81.5543 4.03469 81.767 3.89288 81.9088C2.40392 83.8232 1.26947 85.9503 0.844057 88.361C-0.00677661 93.0406 -0.290386 97.7201 0.34774 102.4C0.844059 105.803 1.69489 109.065 3.60927 111.901C6.72899 116.509 11.0541 119.487 16.5136 120.764C21.6895 121.969 26.7236 123.529 31.8286 124.947C34.8774 125.798 37.7135 127.428 40.9041 127.996C43.3857 128.421 45.7964 128.917 48.278 129.555C50.1215 129.981 51.965 130.619 53.8085 130.903C56.9991 131.47 60.2606 131.824 63.4512 132.463C66.1455 133.03 68.698 133.951 71.3923 134.519C77.3482 135.724 83.0913 137.709 89.118 138.773C92.2378 139.34 95.2157 140.545 98.4772 140.191C100.533 139.978 102.519 139.624 104.149 137.922C105.922 136.079 107.907 134.448 109.893 132.817C115.281 128.492 120.457 123.812 125.491 119.062C128.256 116.438 130.951 113.673 133.858 111.121C136.481 108.923 139.175 106.867 141.515 104.385C143.571 102.258 145.84 100.344 148.038 98.4292C153.427 93.6787 158.886 89.07 164.346 84.3904C167.395 81.767 170.656 79.4272 173.492 76.5202C176.47 73.4714 180.583 71.557 182.639 67.5155C182.781 67.2319 183.135 66.6647 183.631 67.0192C183.986 67.3028 183.915 67.8701 183.773 68.2246C183.064 69.4299 182.639 70.7771 181.504 71.7697C180.015 72.9751 178.385 74.1095 176.967 75.4567C175.194 77.2292 173.351 78.9309 171.436 80.4908C167.253 83.8941 163.141 87.3683 159.028 90.9135C154.349 94.9549 149.598 98.8546 145.06 103.109C141.373 106.583 137.474 109.915 133.716 113.319C129.533 117.006 125.633 120.976 121.521 124.734C117.55 128.35 113.438 131.824 109.325 135.228C107.553 136.717 105.355 137.851 104.291 140.049C104.149 140.333 103.866 140.475 103.582 140.616C101.03 141.751 98.3354 142.318 95.6411 141.822C91.1742 141.042 86.6365 140.191 82.3114 138.986C76.2137 137.284 70.0452 136.008 64.0185 134.306C59.1971 132.888 54.0212 133.03 49.1998 131.328C46.4346 130.335 43.3148 130.477 40.6205 129.059C40.1242 128.776 39.8406 128.492 39.1316 129.272C37.7135 130.761 36.2955 132.463 34.3811 133.455C33.8139 133.739 33.4593 134.235 33.0339 134.731C30.9068 137.709 29.9142 141.042 29.6306 144.729C29.347 148.983 29.2052 153.237 30.1978 157.42C31.8995 164.723 36.1536 169.828 43.3148 172.452C46.9309 173.799 50.6887 174.437 54.3757 175.571C58.8426 176.919 63.3094 178.337 67.7054 179.967C67.989 180.038 68.4144 180.038 68.0599 180.535C66.9255 182.307 65.791 184.009 63.9476 185.143C63.2385 185.569 62.5295 185.994 61.9623 186.703C60.1897 188.972 58.9844 191.525 58.6298 194.361C58.0626 198.615 57.7081 202.869 58.3462 207.194C58.8426 210.668 59.6934 214.001 61.6787 216.908C64.7984 221.516 69.1235 224.494 74.583 225.7C79.7589 226.905 84.793 228.394 89.8271 229.954C93.1595 230.947 96.3501 232.577 99.7535 233.499C103.795 234.633 107.765 236.122 111.878 236.973C116.699 237.966 121.237 239.88 126.129 240.66C131.305 241.511 136.41 242.858 141.657 243.496C144.989 243.922 148.109 244.985 151.371 245.694C153.71 246.191 155.979 247.183 158.532 246.971C159.312 246.9 159.95 246.758 160.304 246.12C161.51 244.489 163.353 243.638 164.771 242.22C167.111 239.951 169.593 237.966 172.074 235.91C174.84 233.57 177.463 231.088 180.157 228.678C184.837 224.494 189.516 220.311 194.196 216.057C197.032 213.504 199.797 210.881 202.633 208.399C204.477 206.84 206.462 205.492 208.164 203.72C211 200.813 213.907 198.048 217.027 195.495C220.643 192.517 223.975 189.327 227.237 185.994C230.427 182.733 233.618 179.613 237.092 176.635C238.51 175.43 239.928 174.295 241.275 173.09C242.41 172.026 242.339 171.105 240.992 170.254ZM81.106 32.8441C82.8077 31.3551 84.4385 29.7244 86.211 28.3772C90.3943 25.1157 94.5067 21.7123 98.9026 18.7344C99.9662 18.0254 100.817 16.82 101.81 15.8983C102.66 15.1184 103.582 14.693 104.717 15.1893C108.475 16.7491 112.516 17.2455 116.345 18.3799C120.173 19.5144 123.931 20.7906 127.76 21.8541C130.171 22.5632 132.652 22.6341 134.992 23.3431C138.75 24.4776 142.366 25.9665 146.195 26.7464C148.393 27.1719 150.307 28.3772 152.434 28.8026C153.498 29.0153 154.561 29.0153 155.554 29.3698C157.043 29.8662 157.327 30.717 156.192 31.7805C154.207 33.624 152.292 35.4675 150.094 37.0274C148.322 38.3036 147.046 40.1471 145.202 41.3524C142.862 42.9832 140.735 44.7558 139.105 47.1665C138.679 47.8046 138.112 47.9464 137.403 47.8755C135.276 47.5919 133.29 46.9537 131.234 46.5283C124.782 45.1812 118.33 43.5504 112.091 41.636C107.765 40.2889 103.44 38.7999 98.9735 37.9491C94.9321 37.1692 91.1033 35.7511 86.991 35.1839C85.3602 34.9712 83.7294 34.9712 82.2405 34.1912C82.0987 34.1203 81.9569 34.1203 81.8151 34.1912C81.3896 34.333 80.9642 34.6166 80.6806 34.1203C80.4679 33.5531 80.8224 33.1277 81.106 32.8441ZM110.956 63.4032C111.169 64.254 111.665 64.8922 112.374 65.2467C116.416 67.2319 121.946 66.9483 124.853 62.1269C125.704 60.7089 126.271 59.2199 125.775 57.4474C125.42 56.1002 124.569 55.2494 123.08 55.2494C121.875 55.2494 120.67 55.1785 119.181 54.8949C120.953 53.9022 122.726 53.5477 124.499 54.044C126.342 54.6112 127.193 56.0293 127.264 57.9437C127.476 62.6942 123.577 66.5938 119.323 67.5155C117.337 67.941 115.423 67.5864 113.438 67.0901C109.538 66.0975 108.404 62.6942 110.318 59.2908C112.091 56.0293 114.856 54.044 119.11 54.3985C116.841 55.2494 114.714 55.7457 113.225 57.3764C111.665 59.0072 110.389 60.8507 110.956 63.4032ZM64.373 48.939C66.7128 45.8902 69.8325 43.9049 73.5194 42.9123C73.803 42.8414 74.2994 42.6996 74.4412 42.8414C75.2211 43.6922 76.0719 43.125 76.9228 43.0541C78.3408 42.9123 79.7589 43.2668 81.0351 43.834C82.2405 44.4012 82.9495 46.1738 82.7368 47.6628C82.2405 50.9243 80.6097 53.1932 77.6318 54.6112C74.7957 55.9584 71.8887 56.7383 68.769 56.8801C67.7054 56.951 66.7128 56.6674 65.791 56.242C62.8131 55.0367 62.2459 51.7751 64.373 48.939ZM53.6666 71.8406C57.8499 69.359 62.1041 67.0192 66.5001 64.7503C74.9375 60.4962 83.5167 56.5965 92.0251 52.5551C95.0739 51.137 98.1227 49.7899 101.172 48.3718C102.66 47.6628 103.228 48.0173 103.228 49.8607C102.873 51.9169 102.59 54.2567 102.448 56.6674C102.377 57.9437 102.164 59.2199 102.093 60.5671C101.881 65.1758 101.526 69.7844 100.746 74.3222C100.392 76.3075 100.321 78.3637 100.25 80.349C100.179 81.1289 99.8244 81.9088 100.179 82.8306C100.392 83.3978 99.3281 84.1777 98.7608 84.0359C95.2157 83.0433 91.5996 82.0506 87.9836 81.1289C79.6171 78.9309 71.2505 76.9456 62.884 75.1731C60.4733 74.6767 57.9917 74.464 55.581 73.9677C54.9429 73.8259 54.3048 73.6132 53.6666 73.2587C52.7449 72.6915 52.8158 72.3369 53.6666 71.8406ZM92.1669 135.795C90.7488 135.511 89.4017 135.015 87.9836 134.661C82.595 133.384 77.2064 132.25 71.8887 130.903C63.2385 128.705 54.6593 126.294 46.2219 123.316C43.3857 122.323 40.3369 121.827 37.359 121.189C33.9557 120.48 30.6232 119.416 27.2199 118.566C24.1711 117.786 21.1223 116.935 18.2861 115.588C14.8828 113.957 12.4721 111.404 10.345 108.426C6.65809 103.392 6.01996 97.6492 6.51628 91.7643C6.72899 89.07 7.50892 86.5175 9.28149 84.3904C9.91962 83.6105 10.5577 83.256 11.6213 83.256C14.6701 83.1851 17.648 83.6814 20.4841 84.7449C24.4547 86.2339 28.638 86.9429 32.6794 87.9356C39.0607 89.4954 45.5128 90.7717 51.7523 93.0406C56.361 94.6713 60.9696 96.2312 65.6492 97.862C71.0378 99.7054 76.6392 100.769 82.1696 102.329C85.2184 103.18 88.1254 104.385 91.1033 105.378C91.8833 105.661 92.5923 105.945 93.3722 106.087C93.9394 106.228 94.1521 106.37 93.6558 106.867C91.8124 108.781 91.1033 111.121 90.607 113.673C90.4652 114.524 90.1107 114.737 89.3308 114.453C85.502 113.248 81.5314 112.539 77.5609 111.759C75.5047 111.404 73.5194 110.837 71.3923 110.979C74.583 111.759 77.8445 112.539 81.0351 113.319C83.7294 113.957 86.4947 114.737 89.189 115.304C90.1816 115.517 89.9689 116.084 89.898 116.651C89.8271 117.289 89.4726 117.644 88.7635 117.502C86.5656 117.077 84.4385 116.722 82.2405 116.438C83.6585 117.431 85.2184 118.069 86.8492 118.636C87.3455 118.849 87.9127 119.062 88.409 119.062C89.5435 118.991 89.5435 119.629 89.5435 120.48C89.4726 122.253 89.5435 124.025 89.5435 125.869C87.1328 125.018 84.793 124.521 82.0987 123.954C84.793 125.23 86.991 126.719 89.5435 127.499C90.0398 127.641 90.0398 128.137 90.1816 128.563C91.316 132.037 93.4431 134.731 96.421 136.788C94.9321 136.646 93.5849 136.079 92.1669 135.795ZM166.686 78.86C162.786 82.8306 158.461 86.5175 154.349 90.2753C149.315 94.8131 144.21 99.28 138.537 103.038C136.552 104.314 135.063 106.299 133.078 107.647C128.682 110.624 125.066 114.453 121.166 117.857C117.054 121.402 113.083 125.018 109.184 128.776C107.411 130.548 105.638 132.25 103.866 134.093C102.944 135.015 101.951 135.724 100.817 136.362C100.037 136.858 99.3281 136.788 98.619 136.362C97.0592 135.582 95.6411 134.661 94.4358 133.313C94.1522 132.959 94.0104 132.817 94.5067 132.463C98.1936 129.697 102.022 127.216 105.284 123.883C105.709 123.458 106.347 123.245 106.418 122.465C102.093 125.656 97.5555 128.421 93.514 132.108C92.5923 130.903 91.8833 129.556 91.3869 128.067C91.1742 127.287 91.6706 127.074 92.0251 126.79C94.6485 124.734 97.3428 122.678 100.037 120.551C103.724 117.715 106.844 114.17 110.105 110.908C111.382 109.632 112.658 108.285 114.005 107.008C114.218 106.796 114.43 106.583 114.43 106.087C113.296 106.583 112.445 107.363 111.594 108.143C109.254 110.199 106.915 112.326 104.575 114.453C101.242 117.573 97.5555 120.338 93.8685 123.174C92.8759 123.954 91.9542 124.734 90.9615 125.585C90.5361 123.458 90.5361 121.402 90.8906 119.275C90.8906 119.133 90.8906 118.849 90.9615 118.849C93.514 117.857 95.003 115.517 97.201 114.028C99.1153 112.752 100.746 111.121 102.306 109.348C98.1227 111.546 94.5776 114.382 91.1742 117.857C91.1033 116.297 91.6705 115.02 91.8833 113.673C92.1669 111.192 93.1595 108.994 94.7194 107.008C95.003 106.654 95.2157 106.158 95.8538 106.583C96.2792 106.867 96.4919 106.441 96.7756 106.299C98.4772 105.236 99.9662 103.747 101.526 102.471C105.993 98.7128 110.389 94.884 114.714 90.9844C120.173 86.0921 125.633 81.1998 131.022 76.2366C136.198 71.4861 141.303 66.6647 146.266 61.7015C151.442 56.5965 156.547 51.4915 161.935 46.5992C166.331 42.5578 170.798 38.5163 175.194 34.4748C175.265 34.4039 175.336 34.4039 175.69 34.2621C174.485 36.3183 173.563 38.3036 172.783 40.2889C171.436 43.6213 171.011 47.0955 171.223 50.6407C171.294 52.8387 170.444 54.1858 168.884 55.3912C166.473 57.3055 164.133 59.2908 162.077 61.5597C158.886 64.8921 155.058 67.5155 151.867 70.848C151.654 71.0607 151.158 71.1316 151.442 71.6279C156.759 68.0828 161.439 63.7577 166.189 59.5744C167.82 58.1564 169.735 57.0219 171.223 55.3912C172.571 60.1417 174.131 64.7503 178.739 67.4446C174.131 70.7771 170.514 74.9603 166.686 78.86ZM125.066 159.051C125.491 159.335 125.704 158.909 125.988 158.767C127.689 157.704 129.178 156.215 130.738 154.939C135.205 151.181 139.601 147.352 143.926 143.452C149.385 138.56 154.845 133.668 160.234 128.705C165.409 123.954 170.514 119.133 175.478 114.17C180.654 109.065 185.759 103.96 191.147 99.0673C195.543 95.0258 200.01 90.9844 204.406 86.9429C204.477 86.872 204.548 86.872 204.902 86.7302C203.697 88.7864 202.775 90.7717 201.995 92.7569C200.648 96.0894 200.223 99.5636 200.435 103.109C200.506 105.307 199.656 106.654 198.096 107.859C195.685 109.774 193.345 111.759 191.289 114.028C188.098 117.36 184.27 119.984 181.079 123.316C180.866 123.529 180.37 123.6 180.654 124.096C185.971 120.551 190.651 116.226 195.401 112.043C197.032 110.624 198.946 109.49 200.435 107.859C201.783 112.61 203.342 117.218 207.951 119.913C203.059 123.6 199.301 128.35 194.905 132.533C191.218 136.008 187.602 139.482 183.773 142.743C178.668 147.139 173.634 151.748 167.962 155.435C165.977 156.711 164.488 158.697 162.502 160.044C158.106 163.022 154.49 166.85 150.591 170.254C146.478 173.799 142.508 177.415 138.608 181.173C136.907 182.874 135.134 184.576 133.503 186.278C132.44 187.412 131.234 188.192 129.887 188.901C129.462 189.114 129.178 189.185 128.753 188.972C126.909 188.192 125.278 187.199 123.931 185.711C123.648 185.356 123.506 185.214 124.002 184.86C127.689 182.094 131.518 179.613 134.779 176.28C135.205 175.855 135.843 175.642 136.127 174.579C131.66 178.053 127.051 180.818 123.01 184.505C122.088 183.3 121.379 181.953 120.883 180.464C120.67 179.684 121.166 179.471 121.521 179.187C124.144 177.131 126.838 175.075 129.533 172.948C133.22 170.112 136.339 166.567 139.601 163.305C140.877 162.029 142.153 160.682 143.501 159.406C143.713 159.193 143.926 158.98 143.926 158.484C142.791 158.98 141.941 159.76 141.09 160.54C138.75 162.596 136.41 164.723 134.07 166.85C130.738 169.97 127.051 172.735 123.364 175.571C122.371 176.351 121.45 177.131 120.457 177.982C120.032 175.855 120.032 173.799 120.386 171.672C120.386 171.53 120.386 171.246 120.457 171.246C123.01 170.254 124.499 167.914 126.697 166.425C128.611 165.149 130.242 163.518 131.802 161.745C127.618 163.943 124.073 166.779 120.67 170.254C120.599 168.694 121.166 167.418 121.379 166.07C121.662 163.589 122.655 161.391 124.215 159.406C124.286 159.122 124.499 158.626 125.066 159.051ZM66.571 173.515C63.1676 172.806 59.8352 171.743 56.4319 170.892C53.383 170.112 50.4051 169.261 47.569 167.914C44.3784 166.425 41.9677 164.227 39.9824 161.32C38.2098 158.626 36.4373 155.86 36.0119 152.599C35.4446 148.203 35.2319 143.807 36.8627 139.482C38.2807 135.937 40.266 135.015 44.0239 135.653C48.2071 136.362 51.965 138.206 56.0773 138.986C62.1041 140.12 67.989 141.751 73.9449 143.24C77.2064 144.02 80.397 145.225 83.5876 146.289C89.898 148.345 96.0665 150.968 102.59 152.386C108.971 153.804 115.21 155.86 121.308 158.058C123.151 158.697 123.151 158.697 122.017 160.256C120.812 161.887 120.315 163.731 119.89 165.645C119.606 167.063 119.535 167.063 118.188 166.638C112.729 165.078 107.127 164.298 101.668 163.093C101.313 163.022 101.03 163.093 100.675 163.093C100.675 163.163 100.675 163.234 100.675 163.234C103.228 163.872 105.78 164.511 108.333 165.149C111.665 165.929 115.068 166.779 118.401 167.559C119.394 167.772 119.394 168.268 119.252 168.977C119.11 169.899 118.543 169.828 117.834 169.686C115.778 169.332 113.65 168.977 111.594 168.765C113.65 169.97 115.778 171.034 118.188 171.388C118.755 171.459 118.897 171.601 118.897 172.097C118.897 173.87 118.897 175.642 118.897 177.415C118.897 177.982 118.826 178.124 118.188 177.911C116.132 177.131 113.934 176.777 111.807 176.28C114.147 177.486 116.345 178.975 118.897 179.684C119.323 179.826 119.394 180.18 119.464 180.464C120.599 184.08 122.797 186.845 125.988 189.114C122.655 188.547 119.535 187.554 116.416 186.845C111.382 185.64 106.347 184.576 101.313 183.3C92.6632 181.102 84.084 178.691 75.6465 175.713C72.6686 174.65 69.6198 174.224 66.571 173.515ZM150.236 240.589C148.818 240.235 147.471 239.809 146.053 239.455C140.664 238.249 135.276 237.044 129.958 235.697C121.237 233.499 112.658 231.088 104.22 228.04C101.384 227.047 98.3354 226.551 95.3575 225.912C91.9542 225.203 88.6217 224.14 85.2184 223.289C82.1696 222.509 79.1208 221.658 76.2846 220.311C72.8813 218.751 70.4706 216.199 68.3435 213.221C65.2238 208.825 64.0894 203.933 64.373 198.615C64.4439 196.275 64.7984 194.006 65.6492 191.808C67.0673 188.263 69.0526 187.412 72.8104 187.979C76.781 188.618 80.397 190.319 84.2967 191.099C90.5361 192.375 96.6338 194.006 102.802 195.495C106.064 196.275 109.184 197.48 112.374 198.544C118.685 200.6 124.924 203.224 131.447 204.642C137.616 205.989 143.713 207.903 149.669 210.172C150.378 210.456 151.513 210.385 151.796 210.952C152.009 211.59 151.016 212.157 150.591 212.725C149.456 214.355 149.031 216.199 148.676 218.042C148.464 219.035 148.038 219.177 147.117 218.893C144.564 218.113 141.941 217.475 139.246 216.979C135.985 216.341 132.723 215.773 129.462 215.135C129.462 215.206 129.391 215.348 129.391 215.419C132.227 216.128 134.992 216.908 137.828 217.546C141.019 218.255 144.139 219.106 147.329 219.815C148.322 220.027 147.967 220.595 147.967 221.091C147.967 221.658 147.684 222.084 146.975 221.942C145.415 221.658 143.926 221.446 142.366 221.162C141.728 221.02 141.019 221.233 140.239 220.666C140.381 221.375 140.806 221.375 141.09 221.516C143.004 222.438 144.919 223.431 147.117 223.573C147.613 223.644 147.542 223.927 147.542 224.211C147.542 226.196 147.542 228.181 147.542 230.308C145.202 229.387 142.791 228.961 140.452 228.465C142.862 229.599 145.06 231.159 147.613 231.939C148.109 232.081 148.109 232.577 148.251 232.932C149.385 236.406 151.513 239.1 154.49 241.227C152.86 241.369 151.583 240.873 150.236 240.589ZM223.408 184.789C219.721 188.263 216.105 191.737 212.276 194.999C207.171 199.395 202.137 204.003 196.465 207.69C194.48 208.967 192.991 210.952 191.005 212.299C186.609 215.277 182.993 219.106 179.094 222.509C174.981 226.054 171.011 229.67 167.111 233.428C165.409 235.13 163.637 236.831 162.006 238.533C160.943 239.668 159.737 240.447 158.39 241.157C157.965 241.369 157.681 241.44 157.256 241.227C155.412 240.447 153.781 239.455 152.434 237.966C152.151 237.611 152.08 237.47 152.505 237.115C156.192 234.35 160.021 231.868 163.282 228.536C163.708 228.11 164.346 227.898 164.417 227.118C160.092 230.308 155.483 233.074 151.513 236.761C150.733 235.626 150.024 234.421 149.527 233.145C149.244 232.365 149.385 231.939 150.024 231.443C152.718 229.387 155.341 227.33 158.036 225.274C161.723 222.438 164.842 218.893 168.104 215.632C169.38 214.355 170.656 213.008 172.003 211.732C172.216 211.519 172.429 211.306 172.429 210.81C171.294 211.306 170.444 212.086 169.593 212.866C167.253 214.922 164.913 217.05 162.573 219.177C159.241 222.296 155.554 225.062 151.867 227.898C150.874 228.678 149.882 229.458 148.96 230.45C148.535 228.252 148.535 226.125 148.818 224.069C148.818 223.927 148.818 223.644 148.889 223.644C151.442 222.651 152.931 220.311 155.129 218.822C157.043 217.546 158.674 215.915 160.234 214.213C158.036 214.993 156.263 216.553 154.349 217.9C152.505 219.318 150.733 220.807 149.031 222.793C148.96 221.162 149.527 219.886 149.74 218.539C150.024 216.057 150.945 213.859 152.576 211.874C152.86 211.519 153.072 211.023 153.711 211.448C154.136 211.732 154.349 211.306 154.632 211.165C156.334 210.101 157.823 208.612 159.383 207.336C163.85 203.578 168.246 199.749 172.571 195.85C178.03 190.957 183.49 186.065 188.878 181.102C194.054 176.351 199.159 171.53 204.122 166.567C209.298 161.462 214.403 156.357 219.792 151.464C224.188 147.423 228.655 143.382 233.051 139.34C233.122 139.269 233.193 139.269 233.547 139.127C232.342 141.184 231.42 143.169 230.64 145.154C229.293 148.487 228.867 151.961 229.08 155.506C229.151 157.704 228.3 159.051 226.74 160.256C224.33 162.171 221.99 164.156 219.934 166.425C216.743 169.757 212.914 172.381 209.724 175.713C209.511 175.926 209.015 175.997 209.298 176.493C214.616 172.948 219.296 168.623 224.046 164.44C225.677 163.022 227.591 161.887 229.08 160.256C230.427 165.007 231.987 169.616 236.596 172.31C231.562 175.855 227.804 180.676 223.408 184.789ZM154.136 156.499C160.446 151.677 165.693 145.65 171.578 140.333C164.7 144.941 159.241 151.039 153.143 156.64C153.71 156.924 153.923 156.64 154.136 156.499ZM85.1475 210.81C90.2525 212.441 95.1448 213.646 100.108 214.71C97.0592 213.221 86.7783 210.456 85.1475 210.81ZM144.919 150.826C150.803 147.281 155.554 142.247 160.943 138.064C158.248 138.702 146.478 148.061 144.919 150.826ZM193.062 122.111C188.595 125.443 180.795 133.172 180.512 134.59C185.688 131.328 189.162 126.507 193.062 122.111ZM57.4245 151.819C64.9402 153.521 72.1723 156.144 79.7589 157.491C77.0646 155.931 58.8426 151.464 57.4245 151.819ZM71.4633 162.313C66.7837 160.398 61.8914 159.193 56.8573 158.342C61.6078 160.044 66.5001 161.249 71.4633 162.313Z" fill="black"/>
</svg>
