<svg width="300" height="310" viewBox="0 0 300 310" fill="none" xmlns="http://www.w3.org/2000/svg">
<path d="M119.81 155.29C118.567 155.29 117.324 156.284 117.324 157.527C117.324 158.77 118.07 159.515 119.064 159.515C120.307 159.515 121.798 158.273 121.798 157.03C122.047 156.284 121.052 155.29 119.81 155.29ZM298.281 210.472C297.038 206.992 295.05 203.512 292.564 200.529C288.338 195.806 283.616 191.332 278.147 187.604C273.176 184.124 267.707 180.892 262.239 177.909C259.505 176.418 257.019 174.678 254.036 173.684C244.591 170.204 234.896 166.724 225.202 164.238C222.468 163.492 219.485 162.995 216.751 162.747C212.028 162.25 207.305 161.504 202.583 161.007C197.114 160.261 191.646 159.764 186.426 159.764C181.454 159.515 176.483 159.267 171.512 159.515C167.535 159.764 163.557 160.013 159.58 160.758C155.106 161.504 150.632 162.498 146.406 163.492C143.672 164.238 140.938 164.984 137.955 165.481C134.972 165.978 131.989 166.972 129.255 168.464C128.509 168.961 128.261 168.712 128.261 167.718C128.261 166.475 128.261 165.232 128.261 163.99C128.261 162.995 127.515 162.001 128.261 161.255C129.007 160.51 130.001 160.261 130.995 160.013C140.192 156.533 149.389 153.301 158.586 150.07C168.529 146.59 178.472 143.11 188.414 138.884C188.663 138.884 189.16 138.636 189.16 138.387C189.657 137.641 190.651 137.393 191.397 137.144C193.634 136.647 194.877 135.156 195.126 132.67C195.374 130.682 195.374 128.693 195.374 126.704C195.374 101.102 195.623 75.7481 195.126 50.1456C194.877 41.1972 194.877 32.2488 195.623 23.3003C195.871 17.8318 195.623 12.6119 195.374 7.14343C195.374 5.65203 195.126 4.16061 193.634 3.16634C193.386 2.91777 193.137 2.66921 192.888 2.42065C191.148 0.183537 188.911 -0.562174 186.177 0.432097C184.189 1.1778 181.951 1.67494 179.963 2.42065C175.24 4.40919 170.517 6.14916 165.795 7.14343C159.829 8.38627 154.112 10.6234 148.395 12.3634C145.412 13.3576 142.429 14.6005 139.446 15.3462C131.989 16.8376 124.781 18.5775 117.324 20.8147C111.11 22.8032 105.144 24.5432 98.9299 26.2831C92.7157 28.0231 86.2529 29.2659 80.0387 31.503C73.3274 33.9887 65.8704 35.2316 59.1591 37.9658C52.9449 40.4515 46.4821 42.9372 40.0194 44.4286C35.7937 45.4228 31.8166 47.1628 27.591 48.4057C26.3482 48.9028 25.851 49.3999 25.851 50.6428C26.0996 54.6199 26.0996 58.3484 26.0996 62.3254C26.0996 85.6908 26.0996 108.808 26.3482 132.173C26.3482 141.37 26.3482 150.567 26.3482 159.515C26.3482 169.707 26.3482 179.649 26.3482 189.841C26.3482 191.083 26.5967 191.829 27.8396 192.575C29.331 193.321 30.5738 194.315 31.8167 195.309C32.5624 195.806 33.3081 196.303 34.3023 196.055C35.048 195.806 35.7937 195.558 36.5394 195.558C43.0022 193.818 49.4649 192.078 55.6791 190.089C57.4191 189.592 59.1591 189.095 60.8991 188.349C65.1247 185.864 69.5989 184.372 74.0731 182.632C77.5531 181.389 81.033 180.395 84.513 178.904C90.23 176.169 96.1957 173.684 102.161 171.447C103.156 170.949 103.404 171.198 103.404 172.441C103.653 175.424 102.907 178.407 103.156 181.389C103.653 185.366 103.404 189.344 103.404 193.072C103.404 193.569 103.404 194.066 103.404 194.315C103.404 194.812 103.653 195.309 103.901 195.558C104.647 196.303 105.641 197.049 106.387 197.546C107.133 198.043 107.878 198.043 108.624 197.795C109.867 197.546 111.11 196.552 112.353 196.055C117.324 194.066 122.544 192.078 127.267 189.592C128.261 189.095 128.509 188.598 128.509 187.604C128.509 183.875 128.509 180.146 128.509 176.418C128.509 175.672 128.758 175.175 129.504 174.927C131.244 174.429 133.232 173.684 134.972 172.938C135.718 172.689 135.966 172.689 136.464 173.187C138.204 174.429 139.695 175.672 141.684 176.915C142.678 177.412 143.672 177.909 144.666 178.655C147.152 180.644 149.638 182.135 152.372 183.875C154.858 185.615 157.343 187.106 159.58 189.095C160.326 189.841 160.078 190.089 159.332 190.586C156.598 191.581 154.112 193.072 151.378 194.315C146.903 196.303 142.678 198.789 138.204 200.778C133.481 203.263 128.509 205.252 123.538 206.992C118.07 208.98 112.601 211.217 107.133 213.455C106.387 213.703 105.89 213.703 105.393 213.206C102.161 210.72 98.6813 207.986 95.2014 205.5C91.97 203.263 89.2358 200.28 86.2529 197.795C84.7615 196.552 83.5187 195.309 82.0273 194.315C81.2816 193.818 81.033 193.818 80.7845 194.812C80.0388 197.546 81.5302 201.275 84.0158 202.518C84.2644 202.766 84.513 202.766 84.7615 203.015C89.2358 206.495 93.4614 209.975 97.6871 213.703C99.9242 215.692 102.41 216.935 104.896 218.426C106.635 219.42 107.63 218.674 107.381 216.686C107.381 216.189 107.133 215.692 107.878 215.443C110.115 214.697 112.353 213.703 114.341 212.46C120.058 209.229 126.769 207.986 132.487 204.506C133.729 203.76 135.221 203.263 136.464 202.766C142.429 200.529 147.898 197.546 153.615 195.061C155.106 194.315 156.349 193.569 157.84 192.823C158.586 192.326 159.58 192.575 160.078 193.321C160.575 194.066 160.326 194.812 159.829 195.558C159.58 195.806 159.332 196.055 159.083 196.303C155.852 198.54 152.123 200.28 148.643 202.02C143.921 204.506 138.701 206.246 133.729 208.483C130.498 209.975 127.267 211.715 123.787 212.957C121.052 213.703 118.567 214.946 115.833 216.189C113.844 217.183 111.855 217.929 109.867 218.177C109.121 218.177 108.624 218.426 107.878 218.923C106.635 219.917 105.144 220.166 103.653 219.172C101.167 217.68 98.6813 216.189 96.4442 214.449C91.7214 210.472 87.2472 206.246 82.0273 202.766C81.2816 202.269 80.5359 202.02 80.2873 201.275C79.7902 199.038 79.0445 196.801 79.7902 194.315C79.7902 193.818 80.0388 193.569 80.5359 193.569C82.5244 193.072 84.2644 191.829 86.2529 191.332C91.4729 189.592 96.4442 187.604 101.167 185.366C101.913 185.118 101.913 184.869 101.913 184.124C101.664 182.632 101.416 180.892 101.664 179.401C101.913 178.158 101.167 177.909 100.173 178.407C97.9356 179.401 95.4499 180.146 93.4614 181.389C88.2415 184.124 83.2701 186.858 78.2988 189.592C75.0674 191.332 71.3389 192.326 67.859 193.569C59.4077 196.801 50.9563 200.529 42.7536 204.506C40.7651 205.5 38.7765 206.743 36.5394 207.738C31.0709 209.975 25.851 212.709 21.1282 215.94C18.6426 217.68 15.6598 218.923 13.6712 221.16C10.4398 224.64 7.95416 228.369 5.71705 232.346C3.47995 236.323 2.48568 241.046 0.745703 245.271C-0.248568 248.005 -0.248568 250.74 0.745703 253.474C1.98854 257.451 4.72278 260.931 6.95989 264.411C10.6884 270.377 15.6597 275.845 21.3768 279.822C24.6082 282.059 28.0881 283.799 31.3195 286.285C37.2851 290.759 43.7479 294.239 50.7078 295.979C52.1992 296.228 53.442 296.973 54.6849 297.47C61.8933 300.95 69.3503 303.685 77.0559 305.922C80.7845 306.916 84.513 307.91 88.2415 308.159C91.2243 308.407 93.9585 308.656 96.9414 309.153C99.9242 309.65 103.156 309.899 106.387 309.65C109.618 309.402 113.098 308.656 116.33 308.656C121.55 308.407 126.769 308.407 131.989 307.91C136.961 307.413 141.932 306.916 146.903 305.673C150.632 304.679 154.36 304.679 158.089 303.685C164.552 301.945 171.014 299.956 177.477 297.222C183.94 294.488 190.651 292.996 197.114 290.262C203.577 287.528 210.537 285.539 217.248 283.053C226.445 279.325 235.891 276.094 244.591 271.371C253.29 266.648 262.239 262.671 270.69 257.451C274.419 255.214 278.147 253.225 281.13 250.243C286.847 244.774 291.57 238.56 295.547 231.6C297.784 227.872 299.027 223.646 299.773 219.42C300.518 216.686 299.275 213.455 298.281 210.472ZM125.03 190.835C120.307 192.823 115.833 195.061 110.861 196.552C110.115 196.801 109.618 197.049 108.873 197.298C108.873 188.598 108.873 179.898 108.873 171.447C108.873 170.204 109.121 169.707 110.364 169.458C115.087 167.47 119.81 165.481 124.532 163.741C126.272 162.995 126.272 162.995 126.272 164.735C126.272 172.689 126.272 180.892 126.272 188.846C126.272 189.592 126.024 190.338 125.03 190.835ZM126.769 160.758C125.278 161.504 123.787 162.001 122.295 162.25C119.312 162.995 116.578 163.99 113.844 165.232C110.115 166.724 106.635 168.464 102.907 169.955C99.427 171.447 95.9471 173.187 92.4671 174.927C86.5015 177.661 80.5359 179.898 74.3217 182.135C70.8418 183.378 67.6104 184.621 64.1304 185.864C60.4019 187.106 56.922 188.846 53.442 190.338C49.7135 191.829 45.7364 192.575 42.0079 193.818C40.5165 194.315 39.0251 194.812 37.2851 195.061C35.048 195.558 34.3023 194.812 34.0537 192.575C34.0537 191.581 33.8052 190.835 33.8052 189.841C33.8052 168.464 33.8052 146.838 33.8052 125.462C33.8052 104.085 33.8052 82.4594 33.8052 61.0826C33.8052 59.5912 34.0537 57.8512 34.0537 56.3598C34.0537 55.6141 34.3023 55.117 35.048 55.117C36.5394 55.117 37.5337 53.8741 38.7765 53.1284C39.2737 52.8799 39.5222 52.6313 40.0194 52.3827C44.9907 50.8913 49.7135 49.1514 54.6849 47.4114C56.4248 46.6657 58.1648 46.1685 60.1533 46.1685C62.3905 45.92 64.1304 45.1743 66.119 44.18C72.8303 40.9486 80.2873 39.2086 87.2472 36.723C92.2186 34.983 97.1899 33.4916 102.41 32.0002C106.635 30.7574 110.861 29.7631 114.838 28.5202C120.307 26.7803 125.527 25.5374 130.995 23.7975C135.966 22.0575 140.938 20.5661 146.158 19.3232C150.632 18.329 154.858 16.3404 159.332 15.0976C167.037 12.8605 174.743 10.1262 182.697 8.13769C185.183 7.39199 187.42 6.6463 189.906 6.14916C190.9 5.90059 192.143 5.90058 193.137 5.65201C193.883 5.40345 193.883 5.90059 193.883 6.39772C193.883 8.8834 194.131 11.3691 194.131 13.8548C194.131 50.3942 194.131 86.6851 194.131 123.225C194.131 126.704 193.634 130.184 193.883 133.664C193.883 134.41 193.634 134.907 192.888 135.404C191.894 136.15 190.651 136.399 189.409 136.896C186.674 137.89 183.94 138.636 181.454 139.879C174.992 143.358 167.783 144.85 161.072 147.833C159.083 148.827 157.095 149.573 154.858 150.567C150.632 152.555 146.158 153.55 141.684 155.041C136.712 156.781 131.741 158.521 126.769 160.758ZM226.694 236.82C225.202 238.56 223.462 239.803 221.225 240.797C217.745 242.288 214.265 244.028 211.034 245.768C205.565 248.751 200.097 251.734 194.131 254.468C188.663 256.954 183.443 259.44 178.223 262.671C175.24 264.66 171.76 265.654 168.28 267.145C163.557 269.134 159.332 271.868 154.858 274.105C151.378 275.845 147.898 278.082 143.921 279.325C141.684 280.071 139.446 281.562 137.209 282.308C135.221 283.053 133.481 284.048 131.741 285.042C130.747 285.539 130.001 285.539 129.007 285.042C125.775 283.551 123.29 281.065 120.555 278.828C118.07 276.839 115.584 275.099 113.347 273.111C110.613 270.874 108.127 268.885 105.393 266.648C103.156 264.659 100.67 263.417 98.4328 261.677C97.6871 261.18 97.4385 260.682 97.1899 259.688C96.9414 256.705 96.9414 253.723 97.1899 250.491C97.1899 249.745 97.4385 249.497 98.1842 249C104.15 246.266 109.867 243.531 115.833 241.046C122.047 238.311 128.509 235.577 134.724 233.091C140.192 230.854 145.412 228.369 150.881 225.883C158.338 222.652 166.043 219.669 173.252 216.437C177.477 214.697 181.454 212.46 185.68 210.472C190.651 208.235 195.871 206.495 200.843 204.009C201.34 203.76 201.837 203.76 202.085 204.258C204.074 206.495 206.311 208.235 208.051 210.72C210.04 213.455 212.028 216.189 214.265 218.923C216.751 221.906 219.485 224.64 222.219 227.623C223.462 229.114 224.705 230.357 225.948 231.6C226.694 232.346 226.694 232.594 225.699 233.091C219.237 235.826 212.774 239.306 206.56 242.537C201.34 245.023 196.12 247.757 190.9 250.243C184.686 253.474 178.223 256.705 172.257 259.937C167.535 262.422 162.812 264.659 158.089 267.145C152.869 269.879 147.898 272.614 142.678 274.851C140.192 275.845 137.209 276.591 134.724 277.834C134.226 278.082 133.729 278.331 133.481 278.579C131.741 280.071 130.249 279.574 128.758 278.331C125.775 276.094 123.041 273.359 120.058 270.874C115.833 267.642 112.104 263.914 108.624 260.185C105.641 256.954 102.161 253.971 99.427 250.243C99.427 249.994 99.1785 249.994 98.6813 249.745C98.6813 252.977 98.6813 255.96 98.9299 258.942C98.9299 259.44 99.1785 259.688 99.427 259.937C104.15 262.671 107.878 266.399 112.104 269.631C116.33 272.862 120.307 276.342 124.532 279.574C126.024 280.816 127.515 282.059 129.255 283.053C130.249 283.551 131.244 283.799 132.238 283.053C132.487 282.805 132.984 282.805 132.735 282.308C132.487 281.314 133.232 280.816 133.978 280.568C136.961 278.828 140.192 277.834 143.175 275.845C144.169 275.099 145.661 275.099 146.655 274.602C150.383 273.111 153.863 270.625 157.592 269.134C162.812 267.145 167.286 263.914 172.257 261.428C176.483 259.191 180.709 256.705 185.183 254.717C188.166 253.474 190.651 251.485 193.634 249.994C198.605 247.508 203.577 245.023 208.548 242.786C211.78 241.294 215.011 239.554 218.242 237.814C220.479 236.571 222.965 235.329 225.202 234.334C225.948 234.086 226.197 233.589 226.694 233.091C226.942 233.837 226.694 234.583 227.191 235.08C227.191 236.323 226.942 236.571 226.694 236.82ZM239.371 208.235C239.371 208.98 239.122 209.477 238.376 208.98C236.388 207.738 234.399 205.998 233.405 203.76C232.908 202.766 233.156 201.772 233.654 200.778C234.896 198.54 239.122 197.298 239.122 197.298C239.122 197.298 240.862 197.049 241.608 197.049C242.353 197.049 242.602 197.546 243.596 197.546C241.608 199.286 240.613 201.275 240.116 203.512C239.619 205.252 239.371 206.743 239.371 208.235ZM267.21 212.957C262.487 216.189 257.516 218.177 251.799 217.432C249.065 217.183 247.076 215.195 245.088 213.952C244.342 213.455 243.596 212.709 242.602 212.212C240.613 210.72 240.116 208.732 240.613 206.495C241.359 201.523 244.342 198.292 248.816 196.552C249.065 196.552 249.313 196.303 249.81 196.303C250.059 196.303 250.308 196.303 250.805 196.303C252.545 196.055 254.036 197.049 255.528 197.546C259.256 199.038 262.985 201.026 266.216 203.512C267.956 204.755 268.95 206.495 269.447 208.483C269.447 210.472 268.702 211.963 267.21 212.957ZM170.02 134.907C175.986 132.67 181.454 130.184 187.42 127.699C187.917 127.45 188.166 127.202 188.663 127.699C189.16 128.444 189.409 127.947 189.409 127.45C189.657 126.207 189.657 124.965 189.657 123.473C189.657 98.6163 189.657 73.511 189.409 48.6542C189.409 36.723 189.409 25.0403 189.409 13.109C189.409 12.3633 190.154 11.1205 189.16 11.1205C188.166 11.1205 188.663 12.3633 188.663 13.109C188.414 34.2373 188.911 55.3655 188.414 76.4938C188.414 83.2051 188.414 89.9164 188.414 96.3792C188.414 105.825 188.414 115.27 188.414 124.964C188.414 125.462 188.414 125.959 187.917 126.207C183.194 128.196 178.472 129.936 173.749 132.173C170.517 133.664 167.037 134.659 163.806 136.15C156.598 139.63 148.892 142.364 141.435 145.098C135.718 147.087 130.001 149.076 124.284 151.313C121.052 152.555 118.07 154.047 114.838 155.041C105.144 157.775 95.4499 161.504 86.0044 164.984C82.773 166.227 79.7902 167.221 76.8074 168.712C73.0789 170.452 69.1018 171.944 65.1247 173.435C61.6447 174.678 57.9162 175.921 54.4363 177.164C50.2107 178.904 45.985 180.644 41.5108 182.135C41.0136 182.384 40.7651 182.384 40.7651 181.638C40.7651 181.141 40.7651 180.644 40.7651 180.395C40.7651 146.341 40.7651 112.288 40.7651 78.2338C40.7651 72.0196 41.0137 65.8054 40.5165 59.5912C40.5165 59.0941 40.7651 58.8455 41.0136 58.5969C41.5108 57.3541 42.7536 58.0998 43.4993 57.6026C46.9793 56.3598 50.4592 55.8627 53.9392 54.6198C61.3962 52.1342 68.6046 48.9028 76.0617 46.4171C79.0445 45.4228 81.7787 43.9314 85.0101 43.1857C88.7386 42.1915 92.4671 41.1972 96.1956 39.9544C106.635 36.4744 117.075 32.9945 127.764 30.2602C133.481 28.7688 139.446 27.526 145.163 25.5374C148.146 24.5432 151.129 24.2946 154.112 23.3003C157.592 22.0575 161.072 20.5661 164.8 19.5718C169.523 18.329 173.997 16.8376 178.72 16.0919C181.951 15.5947 184.437 13.1091 187.669 12.3634C187.917 12.3634 188.414 12.1148 188.166 11.6176C187.917 11.1205 187.669 11.3691 187.171 11.3691C185.68 11.6176 184.437 12.1148 183.194 12.8605C181.206 13.8547 179.217 14.849 177.229 15.0976C172.257 16.0919 167.286 17.3347 162.315 18.8261C157.343 20.5661 152.372 22.3061 147.401 23.5489C143.424 24.2946 139.695 25.5374 135.966 26.5317C131.741 27.526 127.267 28.7688 123.041 30.0116C116.081 31.7516 109.37 34.2373 102.41 36.2258C99.1785 37.2201 95.9471 38.7115 92.7157 39.4572C89.2358 40.4515 85.5072 41.1972 82.2759 42.44C76.8074 44.4286 71.5875 46.1685 66.119 48.4057C61.1476 50.3942 56.1763 52.3827 50.9563 53.8741C47.9735 54.8684 44.7422 55.8627 41.7594 56.1112C41.2622 56.1112 40.7651 56.3598 40.2679 56.857C39.5222 57.6027 39.5222 58.8455 39.5222 59.8398C39.5222 79.9737 39.5222 100.108 39.5222 120.49C39.5222 140.873 39.5222 161.007 39.5222 181.389C39.5222 181.886 39.5222 182.135 39.5222 182.632C39.5222 183.378 40.0194 183.626 40.7651 183.378C42.7536 182.384 45.2393 182.384 47.2278 181.141C51.4535 178.904 56.1763 177.412 60.6505 175.921C67.6104 173.435 74.5703 170.701 81.2816 167.967C89.2358 164.735 97.1899 162.001 105.144 159.018C109.121 157.527 113.098 156.781 116.827 155.29C121.052 153.798 125.278 151.81 129.504 150.318C135.718 148.081 141.684 145.844 147.898 143.856C155.603 141.619 162.563 137.641 170.02 134.907ZM95.6985 59.3426C93.4614 59.3426 90.9757 62.0769 90.9757 64.5626C90.9757 66.7997 93.2129 68.5396 95.9471 68.5396C98.1842 68.5396 100.173 66.054 100.173 63.5683C100.173 61.3312 98.1842 59.3426 95.6985 59.3426ZM95.2014 66.054C93.9585 66.054 92.9643 65.3083 92.9643 64.314C92.9643 63.5683 94.4557 61.8283 95.45 61.8283C96.4442 61.8283 97.4385 62.8226 97.4385 63.5683C97.4385 65.0597 96.4442 66.054 95.2014 66.054ZM73.3274 67.7939C70.5932 67.7939 68.1075 70.031 68.1075 72.2681C68.1075 74.0081 70.3446 76.2452 72.3332 76.2452C74.5703 76.2452 76.8074 73.7595 76.8074 71.5224C76.8074 69.2853 75.5645 67.7939 73.3274 67.7939ZM72.3332 74.0081C71.5875 74.0081 70.3446 73.0138 70.3446 72.0196C70.3446 71.0253 71.3389 70.2796 73.0789 70.2796C74.0731 70.2796 74.5703 70.5282 74.5703 71.771C74.5703 72.7653 73.0789 74.0081 72.3332 74.0081ZM169.772 41.1972C169.275 38.4629 169.523 35.7287 167.783 33.243C166.043 30.7574 165.795 30.5088 162.563 31.0059C156.846 32.0002 151.378 33.4916 146.158 35.4801C143.424 36.4744 140.938 37.7173 138.204 38.463C132.487 40.4515 126.521 42.1915 120.804 44.6771C115.833 46.6657 110.613 48.4057 105.641 49.8971C96.9414 52.3827 87.9929 54.6198 79.2931 57.8512C78.7959 58.0998 78.2988 58.0998 77.8017 58.3484C73.8246 59.5912 69.8475 60.834 66.119 62.3254C63.6333 63.3197 62.1419 65.3083 61.8933 68.0425C61.6448 69.7825 61.6448 71.771 61.6448 73.511C61.3962 79.9737 61.6447 86.4365 61.3962 92.6507C61.1476 99.362 61.3962 105.825 61.1476 112.536C61.1476 120.242 60.8991 128.196 61.1476 134.907C61.1476 138.884 61.1476 141.619 61.1476 144.353C61.1476 146.838 62.3905 148.578 63.6333 150.567C64.6276 152.058 66.119 152.555 67.859 152.307C69.3504 152.058 70.8418 151.81 72.5817 151.561C75.0674 151.313 77.3045 149.821 79.7902 149.076C84.2644 147.584 88.7386 146.341 93.2128 144.85C98.9299 142.861 104.647 140.376 110.364 138.139C113.844 136.647 117.572 135.653 121.052 134.161C125.278 132.421 129.752 130.93 133.978 128.693C139.695 125.959 145.412 123.722 151.129 120.739C154.112 119.247 156.846 117.507 160.078 116.762C162.315 116.265 164.303 115.27 166.043 113.779C168.529 111.79 169.275 109.305 169.523 106.57C169.523 93.645 169.772 80.7194 169.275 67.5454C169.026 61.5797 169.275 55.6141 169.275 49.6485C169.275 46.6657 170.269 43.9314 169.772 41.1972ZM107.878 112.288C107.63 113.779 107.381 115.27 107.133 116.762C106.884 118.005 106.138 118.253 104.647 118.502C103.653 118.502 102.161 118.502 100.67 118.253C96.9414 117.756 93.2128 117.756 89.7329 116.762C88.2415 116.265 86.7501 115.767 85.7558 114.276C84.7615 112.785 84.7615 111.542 86.0044 109.802C87.7444 107.565 89.4843 105.328 91.4729 103.091C94.2071 100.108 96.6928 97.3735 99.427 94.3907C102.161 91.1593 101.913 91.4078 104.15 93.8935C105.393 95.3849 105.393 97.1249 103.901 99.362C102.161 102.096 100.173 104.333 97.9356 106.57C97.1899 107.316 96.6928 108.062 96.1956 108.808C95.6985 109.305 95.9471 109.553 96.4442 109.802C97.4385 110.05 98.6813 110.299 99.6756 110.299C102.161 110.299 104.647 111.045 107.133 111.293C107.878 111.045 108.127 111.542 107.878 112.288ZM123.041 78.4823C123.041 78.7309 122.792 78.9795 122.792 79.228C123.041 85.6908 122.295 92.4021 121.301 98.8649C120.804 103.091 120.058 107.316 119.561 111.542C119.312 113.033 118.815 114.028 117.324 114.525C116.081 115.022 115.087 115.767 113.844 116.265C112.601 116.762 111.358 115.767 111.855 114.276C112.601 110.548 113.098 106.819 113.098 102.593C112.85 99.362 113.844 95.6335 114.341 92.1536C114.59 89.1707 115.584 85.9394 115.335 82.9566C115.335 81.7137 115.584 80.4709 116.081 79.228C116.33 78.4823 116.578 77.9852 117.324 77.9852C118.815 77.7366 120.058 76.9909 121.55 76.7424C123.041 75.9967 123.787 76.9909 123.041 78.4823ZM147.401 91.4078C144.666 94.1421 142.181 97.1249 139.446 100.108C137.209 102.345 134.972 104.333 132.984 106.57C132.238 107.316 131.492 107.316 130.747 106.57C130.001 105.825 129.504 104.83 129.255 103.836C129.007 102.842 129.504 101.848 130.249 101.102C132.984 98.3678 135.469 95.1364 138.204 92.1536C138.452 91.905 138.701 91.4078 138.204 91.4078C135.469 90.9107 132.735 89.6679 130.249 88.6736H130.001C129.255 88.1765 128.012 88.6736 127.764 87.6793C127.515 86.4365 127.515 85.1937 127.764 83.9508C128.012 82.708 128.509 81.4651 129.007 80.2223C129.504 79.4766 130.001 79.228 130.498 79.4766C135.718 81.9623 141.435 82.9566 146.655 85.4422C147.898 85.9394 148.643 86.9336 148.643 88.425C148.395 89.6679 148.146 90.6621 147.401 91.4078ZM166.043 47.1628C160.078 49.3999 154.112 51.8856 147.649 53.6256C144.418 54.6198 141.186 56.1113 137.955 57.1055C128.509 60.0883 119.064 63.3197 109.867 66.5511C102.907 68.7882 95.6985 71.2739 88.7386 73.7595C81.5302 76.2452 74.0731 78.7309 66.8647 81.2166H66.6161C65.6218 81.2166 64.6276 82.708 63.8819 81.9623C63.3847 81.4652 63.6333 80.2223 63.3847 79.228C62.8876 75.9967 63.6333 73.0138 63.8819 70.031C64.379 66.7997 65.8704 65.0597 68.8532 64.0654C73.8246 62.3254 78.7959 60.834 83.7673 59.3426C90.9757 56.857 98.1842 54.8684 105.641 52.8799C112.104 51.1399 118.318 48.6542 124.532 46.1685C129.255 44.18 133.978 42.6886 138.949 41.1972C143.423 39.7058 147.649 37.7172 152.372 36.2258C156.1 34.983 159.829 34.2373 163.806 33.4916C164.8 33.243 166.043 34.7344 166.54 36.2258C167.286 38.2144 167.037 40.2029 167.037 42.1915C167.037 43.4343 167.037 44.6771 167.037 45.92C167.037 46.6657 166.789 46.9142 166.043 47.1628ZM84.0158 63.8168C81.033 63.8168 79.5416 65.5568 79.2931 68.5396C79.2931 70.5282 81.033 72.2681 83.5187 72.2681C86.0044 72.2681 88.2415 70.031 88.2415 67.5454C88.2415 65.3082 86.5015 63.8168 84.0158 63.8168ZM83.2701 70.031C82.2759 70.031 81.5302 69.2853 81.5302 68.2911C81.5302 67.0482 82.5244 66.0539 84.2644 66.3025C85.2587 66.3025 86.0044 66.5511 86.0044 67.7939C85.7558 68.7882 84.513 70.031 83.2701 70.031ZM107.878 252.231C110.861 255.214 114.341 257.948 117.075 261.18C118.815 263.417 121.052 265.157 122.792 267.394C124.532 269.879 127.267 271.868 129.255 274.105C130.995 276.094 131.741 276.342 134.227 275.099C134.475 275.099 134.724 274.851 134.724 274.851C137.706 273.111 141.186 272.117 144.418 270.625C151.626 266.897 159.332 264.411 166.043 259.937C167.535 258.942 169.026 257.948 170.766 257.202C176.732 254.22 182.697 251.485 188.663 248.751C192.64 247.011 196.617 245.52 200.346 243.283C206.063 240.3 211.78 237.068 217.745 234.334C218.988 233.589 220.479 232.843 221.722 232.346C222.468 232.097 222.468 231.351 221.971 231.103C221.225 230.606 220.728 229.86 219.982 229.363C216.751 226.877 214.514 223.646 211.78 220.912C209.045 218.177 206.808 215.195 204.571 211.963C203.825 210.72 202.583 209.726 200.843 209.229C200.594 209.229 200.345 209.477 200.097 209.477C197.363 211.466 194.131 212.46 191.148 213.703C185.183 216.437 179.217 218.923 173.252 221.657C168.28 223.894 163.309 225.883 158.586 228.369C152.372 231.6 146.158 234.831 139.695 237.566C132.984 240.3 126.521 243.531 119.81 246.265C116.081 247.757 112.85 250.243 108.624 250.74C108.127 250.74 107.63 250.988 107.63 251.485C107.133 251.734 107.63 251.983 107.878 252.231ZM118.567 260.931C117.821 259.937 117.075 258.942 116.081 258.197C115.335 257.7 115.833 257.451 116.33 257.202C118.318 256.457 120.307 255.462 122.295 254.468C123.538 253.723 125.029 253.225 126.521 252.48C127.018 251.983 127.515 252.231 128.012 252.977C128.509 253.723 129.255 254.717 130.001 255.214C130.249 255.463 130.747 255.462 130.747 254.965C130.498 254.22 129.752 253.474 129.255 252.977C128.261 251.734 128.261 251.734 129.752 250.988C132.238 249.745 132.238 249.745 133.481 252.231C133.481 252.48 133.729 252.728 133.729 252.977C134.724 254.468 134.724 254.468 132.984 255.214C128.509 257.202 124.284 259.191 119.81 261.428C119.312 261.428 119.064 261.428 118.567 260.931ZM167.783 234.583C167.535 233.837 168.529 233.837 169.026 233.589C169.523 233.34 169.523 233.837 169.772 234.086C170.269 235.329 171.512 236.074 172.506 237.068C171.014 238.063 169.275 238.808 167.783 239.554C167.037 239.803 166.789 239.803 166.292 239.057C165.795 238.311 165.297 237.317 164.8 236.323C164.552 236.074 164.552 235.577 164.055 235.826C163.557 236.074 163.557 236.323 163.806 236.82C164.055 237.814 164.552 239.057 165.297 239.803C165.795 240.3 165.546 240.548 165.049 240.797C162.315 242.288 162.066 242.288 160.326 239.554C160.078 239.306 160.078 238.808 159.829 238.56C159.58 238.063 159.829 237.814 160.078 237.566C161.817 236.571 163.557 235.577 165.546 235.08C166.043 234.831 166.54 234.831 167.037 235.08C167.783 235.329 168.032 235.329 167.783 234.583ZM198.108 224.392C196.617 225.386 195.374 225.883 193.883 226.629C193.386 226.877 193.137 226.629 192.64 226.132C191.894 225.137 191.148 224.392 190.403 223.397C191.646 222.9 192.888 222.154 194.131 221.657C194.877 221.16 195.374 221.409 195.871 222.154C196.617 222.9 197.363 223.646 198.108 224.392ZM196.368 220.663C197.86 220.414 198.605 219.669 199.848 219.172C200.594 218.923 201.091 218.674 201.588 219.669L201.837 219.917C203.577 221.906 203.577 221.906 201.34 223.149C201.091 223.397 200.594 223.397 200.346 223.646C199.6 224.143 199.103 224.143 198.605 223.149C198.108 222.154 197.363 221.409 196.368 220.663ZM195.623 237.566C196.12 238.311 196.12 238.808 195.126 239.057C193.137 240.051 191.148 241.046 189.409 242.04C188.911 242.288 188.414 242.288 188.166 241.791C187.669 240.797 187.171 240.051 186.177 239.306C188.911 237.566 191.646 236.323 194.38 235.329C196.368 234.086 198.357 233.091 200.346 231.849C201.091 231.351 201.588 231.6 201.837 232.097C201.837 232.346 202.085 232.346 202.085 232.594C203.825 234.583 203.825 234.583 201.34 235.826C200.097 236.323 198.854 236.82 197.611 237.566C197.114 237.814 196.866 237.566 196.368 237.317C195.623 236.571 195.374 235.329 194.131 235.329C194.131 236.323 195.126 236.82 195.623 237.566ZM177.974 240.797C178.223 240.797 178.472 241.046 178.472 241.294C178.472 241.543 178.223 241.543 177.974 241.791C176.483 242.537 174.992 243.283 173.5 244.028C172.754 244.277 172.257 244.277 172.009 243.78C171.263 242.786 170.269 241.791 169.523 240.797C169.523 240.548 169.275 240.548 169.523 240.3C171.015 239.554 172.506 238.56 173.5 238.063C173.997 237.814 173.997 238.063 174.246 238.063C174.992 239.554 176.483 240.051 177.974 240.797ZM174.992 237.317C177.229 236.323 179.466 235.08 181.703 234.086C182.449 233.837 182.449 234.334 182.697 234.831C183.194 236.323 184.189 237.317 185.929 238.063C183.94 239.057 182.2 239.803 180.212 240.797C179.963 240.797 179.714 241.046 179.466 240.797C178.472 239.306 176.732 239.057 175.489 237.814C175.489 237.566 175.24 237.317 174.992 237.317ZM171.015 244.277C171.512 244.774 171.263 245.023 171.015 245.023C170.02 245.52 169.026 246.017 167.783 246.514C167.535 246.763 167.037 246.763 166.789 246.265C166.043 244.774 164.8 243.78 163.06 242.786C164.8 242.04 166.292 241.294 167.783 240.548C168.28 240.3 168.529 240.548 168.529 241.046C169.275 242.537 170.02 243.531 171.015 244.277ZM165.546 247.26C165.795 247.508 165.795 247.757 165.297 248.005C163.557 248.751 161.817 249.497 160.078 250.243C159.332 250.243 158.835 249.497 158.338 249C158.089 248.751 157.84 248.503 157.84 248.254C156.846 246.514 156.846 246.265 158.586 245.52C158.835 245.271 159.332 245.023 159.58 245.023C160.575 244.774 161.32 243.531 162.066 244.028C163.557 244.774 164.8 245.768 165.546 247.26ZM158.089 250.491C158.338 250.74 158.338 250.74 158.586 251.237C158.338 251.237 158.338 251.485 158.089 251.485C157.84 251.485 157.592 251.734 157.343 251.734C152.621 253.971 152.62 253.971 149.141 250.243C148.643 249.745 148.892 249.745 149.389 249.497C151.129 248.503 152.869 247.508 154.858 247.011C155.603 246.763 156.1 246.763 156.1 247.757C156.349 248.503 157.095 249.497 158.089 250.491ZM151.129 254.22C149.141 255.214 147.152 256.208 144.666 256.954C143.672 257.202 142.926 256.705 142.181 256.208C139.695 253.971 139.695 253.474 142.678 252.231C143.921 251.734 145.163 251.237 146.655 250.74C147.152 250.491 147.649 250.491 148.146 250.988C149.141 251.983 150.135 252.977 151.129 254.22ZM142.181 257.7C139.695 258.694 137.706 259.688 135.469 260.682C135.221 260.931 134.972 260.682 134.724 260.434C133.978 259.44 132.984 258.445 132.238 257.202C131.989 256.705 132.238 256.705 132.487 256.457C134.475 255.463 136.464 254.717 138.452 253.723C138.949 253.474 139.198 253.971 139.446 254.22C140.192 255.711 140.938 256.705 142.181 257.7ZM138.701 260.682C139.446 260.434 139.944 260.434 140.192 261.18C140.689 262.174 141.435 263.168 142.429 263.914C139.446 264.66 137.209 265.902 134.724 266.897C134.226 267.145 133.729 267.145 133.481 266.648C133.481 266.399 133.232 266.399 133.232 266.151C131.492 263.914 131.492 263.665 134.227 262.422C135.469 261.925 137.209 261.428 138.701 260.682ZM143.921 258.445C145.909 257.7 147.898 256.954 149.638 256.208C149.886 255.96 150.135 255.96 150.383 255.96C150.881 255.96 150.881 256.208 151.129 256.457C151.626 257.202 152.62 257.948 152.62 258.942C152.62 259.937 151.129 259.937 150.383 260.434C148.395 261.677 146.158 262.671 144.169 263.417C143.423 263.665 143.175 263.665 142.678 262.92C140.441 259.688 140.192 259.688 143.921 258.445ZM152.123 255.214C152.372 254.468 153.615 254.468 154.36 254.22C156.349 253.225 158.586 252.48 160.575 251.485C161.569 250.988 162.315 250.988 162.812 251.983C163.06 252.728 163.806 253.225 164.303 253.723C164.303 254.22 164.055 254.22 163.806 254.22C162.563 254.965 160.823 255.462 159.58 255.96C158.089 256.457 156.598 257.202 155.106 257.948C154.36 258.197 153.863 258.197 153.615 257.451C153.118 256.705 152.123 255.96 152.123 255.214ZM163.557 250.491C163.557 250.243 163.806 249.994 164.055 249.994C167.286 248.503 170.517 247.011 173.749 245.271H173.997C174.494 245.271 174.494 245.52 174.494 245.768C176.732 249 177.229 248.503 173.252 249.994C171.015 250.74 169.026 252.231 166.789 252.977C165.546 252.977 163.557 251.734 163.557 250.491ZM174.992 244.774C178.223 243.283 181.206 241.294 184.437 240.051C185.183 239.803 185.68 239.803 185.929 240.548C185.929 240.797 186.177 240.797 186.177 241.046C187.669 243.283 187.669 243.283 185.183 244.526C182.946 245.768 180.709 246.514 178.472 247.757C177.726 248.005 177.477 247.757 176.98 247.26C176.483 246.265 175.986 245.52 174.992 244.774ZM196.866 232.594C195.623 233.34 194.38 234.086 193.137 234.583C192.64 234.831 192.391 234.583 192.143 234.334C191.397 233.34 190.9 232.346 190.154 231.351C189.906 231.103 189.657 230.606 189.16 230.854C188.663 231.103 189.16 231.6 189.409 232.097C189.906 233.091 190.651 234.086 191.148 234.831C191.397 235.328 191.397 235.577 190.9 235.577C189.657 236.074 188.414 236.571 187.42 237.317C186.923 237.566 186.923 237.317 186.426 237.068C184.934 236.074 184.189 234.831 183.194 233.34C186.674 231.849 189.657 229.86 192.888 228.12C193.634 227.623 194.131 227.623 194.877 228.369C195.623 229.363 196.368 230.357 197.114 231.351C197.363 232.097 197.363 232.346 196.866 232.594ZM192.391 227.126C191.397 227.623 190.403 228.369 189.409 228.866C188.663 229.114 188.663 228.866 188.414 228.369C187.669 227.374 186.674 226.629 185.431 226.132C185.431 227.126 186.177 227.623 186.674 228.12C187.917 229.363 187.917 229.611 186.426 230.606C185.431 231.103 184.437 231.6 183.443 232.097C182.946 232.346 182.449 232.346 182.2 231.849C181.703 230.854 180.957 230.109 180.46 229.114C180.212 228.617 180.46 228.617 180.709 228.369C183.443 226.877 186.177 225.634 188.911 224.143C189.409 223.894 189.657 224.143 189.906 224.392C190.403 225.386 191.397 226.132 192.391 227.126ZM180.957 232.097C181.454 232.594 181.206 232.843 180.709 233.091C180.212 233.34 179.963 233.589 179.466 233.589C177.477 234.583 176.98 234.583 175.737 232.594C175.489 232.097 175.24 231.849 174.743 231.6C174.246 231.6 174.246 232.097 174.246 232.594C174.494 233.34 174.992 234.086 175.489 234.583C175.986 235.08 175.737 235.329 175.24 235.577C173.5 236.571 172.506 236.074 170.766 234.086C170.02 233.091 170.02 232.843 171.263 232.346C173.5 231.849 175.489 230.357 177.726 229.363C178.472 228.866 178.72 228.866 179.217 229.86C179.714 230.854 180.46 231.6 180.957 232.097ZM160.575 242.288C160.823 242.537 160.823 242.537 161.072 242.786C161.072 243.034 160.823 243.034 160.575 243.283C158.338 244.774 158.338 244.526 156.846 242.537C156.846 242.288 156.598 242.04 156.598 242.04C155.355 240.051 155.355 240.051 157.592 239.306C158.338 239.057 158.835 239.057 159.083 239.803C159.332 240.548 160.078 241.543 160.575 242.288ZM156.846 244.277C157.343 244.774 157.095 245.023 156.598 245.023C155.106 245.52 153.615 246.017 152.123 246.514C151.626 246.763 151.378 246.265 151.378 246.017C150.881 245.271 150.632 244.526 150.135 243.78C149.886 243.283 149.886 242.786 149.141 243.034C148.643 244.277 149.638 245.271 150.135 246.265C150.632 247.26 150.632 247.508 149.638 248.254C146.903 249.745 146.655 249.497 145.661 246.763C144.915 244.774 144.915 244.774 146.655 244.028C147.401 243.78 148.395 243.283 149.141 243.034C150.632 242.288 152.123 241.543 153.863 240.797C154.609 240.548 154.858 240.548 155.106 241.294C155.603 242.288 156.1 243.283 156.846 244.277ZM145.661 249C146.158 249.497 145.909 249.745 145.412 249.745C144.169 250.243 142.926 250.74 141.684 251.237C141.186 251.485 140.938 251.237 140.689 250.74C140.441 249.994 140.192 249.497 139.695 249C138.949 248.005 139.446 247.26 139.944 246.763C140.938 246.017 142.181 245.768 143.175 245.271C143.672 245.271 143.672 245.52 143.921 246.017C144.418 247.011 144.915 248.254 145.661 249ZM140.441 251.983C138.949 252.728 137.706 253.225 136.215 253.723C135.718 253.971 135.469 253.723 135.221 253.225C134.724 252.231 134.227 251.237 133.729 250.243C133.481 249.745 133.481 249.497 133.978 249.248H134.227C135.221 248.751 136.464 248.005 137.458 248.005C138.452 248.254 138.452 249.745 139.198 250.74C139.695 250.988 139.944 251.485 140.441 251.983ZM124.035 265.654C123.787 265.902 123.29 265.654 123.041 265.405C122.047 264.411 121.052 263.417 119.561 262.422C123.041 261.18 126.272 259.44 129.504 257.948C130.249 257.7 130.747 257.7 131.244 258.445C131.989 259.44 132.487 260.185 133.232 261.18C133.729 261.677 133.232 261.677 132.984 261.925C130.001 262.92 127.018 264.162 124.035 265.654ZM124.781 267.642C124.284 267.145 124.284 266.648 125.03 266.399C126.521 265.902 127.764 265.157 129.255 264.411C129.504 264.411 129.752 264.162 130.001 264.162C130.498 264.162 130.498 264.659 130.747 264.908C130.995 265.902 131.492 266.897 132.238 267.394C132.487 267.642 132.487 267.891 131.989 268.139C131.492 268.388 130.995 268.637 130.498 268.885C127.515 270.625 126.769 270.377 124.781 267.642ZM139.198 271.371C136.961 272.365 134.724 273.359 132.487 274.602C131.741 275.099 131.492 274.105 130.747 273.857L130.498 273.608C129.752 272.862 128.509 271.868 128.509 271.122C128.509 270.128 130.249 270.377 130.995 269.631C132.735 268.388 134.724 268.139 136.464 267.145C136.712 266.897 137.209 266.897 137.458 267.394C137.955 268.637 138.701 269.631 139.446 270.625V270.874C139.695 271.122 139.446 271.122 139.198 271.371ZM149.389 266.648C146.903 267.891 144.418 269.134 141.932 270.128C141.186 270.377 140.689 270.377 140.441 269.631C139.944 268.637 139.198 268.139 138.701 267.145C138.452 266.648 138.452 266.151 139.198 266.151C142.181 265.157 144.915 264.162 147.898 262.92C148.146 262.671 148.395 262.671 148.643 263.168C149.141 264.162 149.638 264.908 150.383 265.902C150.383 265.902 150.383 266.151 150.632 266.151C150.135 266.399 149.638 266.648 149.389 266.648ZM152.123 265.157C151.626 265.405 151.129 265.157 150.881 264.659C150.632 264.411 150.383 264.162 150.383 263.914C148.892 261.925 148.892 262.174 151.129 260.931C153.366 259.688 155.603 258.942 158.089 257.7C158.835 257.451 159.083 257.7 159.332 258.197C160.078 259.191 160.326 260.434 162.066 260.931C158.089 262.174 155.355 264.162 152.123 265.157ZM171.015 255.462C168.28 256.705 165.795 258.445 163.309 259.937C162.563 260.434 162.315 260.434 161.818 259.688C161.32 258.942 160.823 258.197 160.078 257.451C159.829 256.954 159.829 256.705 160.326 256.705C163.309 255.96 165.795 253.723 168.777 252.728C170.02 252.231 170.517 252.48 171.015 253.474C171.263 253.723 171.512 254.22 171.512 254.468C171.76 255.214 171.263 255.462 171.015 255.462ZM182.946 249.994C179.714 251.485 176.732 252.977 173.5 254.468C173.003 254.717 172.754 254.468 172.506 254.22C172.257 253.971 172.257 253.723 172.009 253.474C171.015 251.983 171.014 251.983 172.506 251.485C175.489 250.491 178.223 249 180.957 247.757C181.454 247.508 181.703 247.26 182.2 247.508C182.697 248.005 183.194 248.751 183.443 249.497C183.691 249.745 183.194 249.745 182.946 249.994ZM185.431 248.503C184.934 248.751 183.443 247.757 183.194 247.011C182.946 246.266 183.691 246.265 184.189 246.017C186.426 244.774 188.911 243.531 191.148 242.288C191.646 242.04 192.143 241.791 192.64 242.537C193.137 243.283 193.883 243.78 194.877 244.028C191.894 246.017 188.414 247.011 185.431 248.503ZM194.877 244.028C195.126 242.537 193.634 242.288 193.137 241.294C196.12 240.051 198.606 238.063 201.588 237.068C202.334 236.82 202.583 237.068 203.08 237.566C203.577 238.063 204.074 238.808 204.82 239.306C201.588 241.046 198.357 243.034 194.877 244.028ZM219.734 231.103L219.982 231.351C219.982 231.6 219.734 231.849 219.485 231.849C217.497 232.843 215.757 233.589 213.768 234.583C213.271 234.831 213.022 234.583 212.774 234.334C212.028 233.837 211.531 233.34 210.785 232.843C210.537 232.594 210.288 232.346 210.04 232.594C209.791 232.843 209.791 233.091 210.04 233.34C210.537 233.837 211.034 234.334 211.531 234.583C212.028 234.831 212.028 235.08 211.531 235.329C209.543 236.323 207.803 237.317 206.063 238.063C205.565 238.311 205.317 238.063 205.068 237.814C202.831 235.826 202.831 235.826 205.565 234.583C208.548 233.091 211.531 231.351 214.514 229.611C214.762 229.363 215.011 229.363 215.26 229.114C217.248 229.114 218.739 229.363 219.734 231.103ZM215.011 226.38C216.751 228.12 216.751 228.12 214.514 229.114C212.028 230.357 209.791 231.6 207.554 232.843C206.808 233.34 206.063 233.589 205.565 233.837C205.068 233.837 204.82 233.837 204.82 233.589C204.323 232.843 203.825 232.346 203.08 231.849C202.334 231.103 202.583 230.606 203.328 230.109C205.565 229.114 207.803 228.12 209.791 227.126C210.785 226.629 211.531 226.38 212.277 225.883C213.52 225.137 214.265 225.634 215.011 226.38ZM210.288 221.657C210.785 222.403 211.531 222.9 212.277 223.397C213.022 223.894 213.022 224.392 212.277 224.889C210.288 225.883 208.3 226.877 206.311 227.623C205.565 227.871 205.068 227.871 204.571 227.374C203.577 226.629 202.831 225.883 201.837 225.137C201.588 224.889 201.091 224.392 200.594 224.889C200.097 225.386 200.594 225.634 200.843 225.883C201.588 226.877 202.583 227.623 203.825 228.369C202.334 229.363 200.843 230.109 199.351 230.854C198.606 231.351 198.357 230.854 197.86 230.109C197.114 228.866 196.368 227.623 194.877 227.126C196.368 226.38 197.363 225.634 198.605 225.137C201.837 223.646 204.82 221.906 208.3 220.414C209.045 220.663 209.791 220.663 210.288 221.657ZM206.808 217.183C207.554 217.929 208.3 218.674 208.3 219.42C208.3 220.414 206.808 220.166 206.311 220.414C205.317 221.16 204.571 220.912 204.074 219.917C203.577 219.172 202.831 218.674 201.588 218.177C203.08 217.432 204.074 216.935 205.068 216.437C205.814 216.189 206.311 216.686 206.808 217.183ZM193.883 213.952C195.871 212.957 198.108 212.46 200.097 210.969C200.594 210.72 201.091 210.72 201.34 210.969C202.831 211.963 203.577 213.206 204.571 214.697C204.82 214.946 204.82 215.195 204.571 215.443C204.074 215.692 203.328 215.94 202.831 215.692C201.837 214.946 201.091 214.449 200.097 213.703C199.6 213.206 199.103 212.957 198.605 212.709C198.357 212.709 197.86 212.46 197.86 212.709C197.611 212.957 197.86 213.206 198.108 213.455C199.103 214.449 200.097 215.195 201.091 216.189C201.34 216.437 201.588 216.437 201.837 216.686C200.594 217.68 199.103 218.426 197.86 218.923C196.617 219.42 195.871 218.177 194.877 217.432C194.38 216.934 194.131 216.189 193.634 215.692C192.391 214.697 192.888 214.449 193.883 213.952ZM188.166 216.437C189.409 215.94 190.403 215.195 191.148 215.195C192.143 215.195 192.391 216.686 192.888 217.432C193.634 218.177 194.38 218.923 195.374 219.669C194.131 220.166 193.137 220.663 191.894 221.16C191.646 221.409 191.397 221.16 191.148 220.912C189.906 219.917 188.663 218.923 187.669 217.432C187.42 216.934 187.669 216.686 188.166 216.437ZM176.732 221.657C177.974 221.16 179.466 220.414 180.709 219.917C182.449 219.172 183.94 218.426 185.68 217.68C186.177 217.432 186.426 217.183 186.674 217.929C187.42 219.669 188.911 220.912 190.403 222.154C188.911 222.9 187.42 223.646 185.929 224.392C185.431 224.64 185.183 224.392 184.934 223.894C183.691 222.403 182.449 220.912 180.709 219.917C180.212 220.663 180.709 221.16 181.206 221.657C181.951 222.652 182.946 223.397 183.94 224.392C184.437 224.889 184.437 225.137 183.691 225.386C183.443 225.386 183.194 225.634 183.194 225.634C180.46 227.374 179.963 227.374 177.726 224.889C177.229 224.392 176.98 223.646 176.483 223.149C175.489 222.154 175.737 221.906 176.732 221.657ZM170.02 224.392C171.263 223.894 172.257 223.397 173.5 222.9C174.246 222.652 174.743 222.652 174.992 223.397C175.986 225.137 176.98 226.629 178.969 227.623C177.477 228.369 175.986 229.363 174.743 230.109C174.246 230.357 173.997 230.357 173.749 229.86C172.754 228.369 171.263 226.877 169.772 225.634C169.026 224.889 169.275 224.64 170.02 224.392ZM167.535 225.634C168.032 225.386 168.28 225.634 168.777 226.132C170.269 227.623 171.512 229.363 173.252 230.854C171.263 231.6 169.275 232.097 167.286 233.34C166.789 233.589 166.54 233.34 166.292 233.091C164.552 231.849 163.309 229.86 161.32 228.617C163.309 227.374 165.546 226.629 167.535 225.634ZM148.892 235.08C150.632 234.086 152.372 233.34 154.112 232.346C155.106 233.837 156.349 235.08 157.592 236.074C158.089 236.323 158.586 236.571 159.083 236.571C159.332 236.571 159.58 236.571 159.829 236.323C159.829 236.074 159.58 235.826 159.332 235.826C158.089 235.329 157.095 234.334 156.349 233.34C155.852 232.843 155.106 232.097 154.36 232.097C156.1 231.351 157.84 230.357 159.332 229.363C159.829 229.114 160.326 229.114 160.823 229.611C162.315 231.103 163.806 232.843 165.049 234.334C161.072 236.074 157.095 238.311 152.869 239.803C151.626 240.3 151.129 239.554 150.383 238.808C149.638 237.814 149.141 236.82 148.395 235.826C148.395 235.329 148.643 235.08 148.892 235.08ZM142.181 238.063C143.672 237.317 144.915 236.82 146.406 236.074C147.152 235.577 147.649 235.826 148.146 236.571C148.395 237.317 148.892 237.814 149.389 238.56C149.886 239.306 150.383 240.3 151.378 240.797C149.638 241.543 147.898 242.288 146.158 243.034C145.661 243.283 145.412 243.283 144.915 242.786C143.921 241.543 142.926 240.548 141.932 239.057C141.435 238.311 141.684 238.311 142.181 238.063ZM127.764 244.028C129.752 242.786 132.238 242.288 134.227 241.294C135.966 240.548 137.706 239.803 139.198 239.057C139.944 238.808 140.441 238.56 140.938 239.554C141.684 241.046 142.926 242.288 144.169 243.531C142.429 244.277 140.689 245.023 139.198 245.768C138.701 246.017 138.452 245.768 138.452 245.271C137.706 244.028 136.712 243.034 135.966 241.791C135.718 241.543 135.718 241.046 135.221 241.294C134.724 241.543 134.972 242.04 135.221 242.537C135.718 243.283 136.464 244.028 136.961 245.023C137.955 246.514 137.955 246.514 136.464 247.26C135.966 247.508 135.469 247.757 134.972 248.005C133.978 248.254 132.735 249.248 131.741 248.751C130.001 248.005 128.758 246.763 127.515 245.271C126.769 244.526 127.267 244.277 127.764 244.028ZM116.33 249C119.312 248.005 122.047 246.514 125.03 245.271C125.527 245.023 126.024 245.023 126.521 245.768C127.515 247.26 129.007 248.254 130.498 249.248C128.758 249.994 127.267 250.988 125.527 251.734C124.532 252.231 123.538 252.977 122.544 252.728C121.55 252.728 121.301 251.237 120.555 250.491C120.058 249.994 119.561 249.248 118.815 248.751C118.567 248.503 118.318 248.254 117.821 248.503C117.572 248.751 117.821 249.248 117.821 249.497C118.567 250.491 119.312 251.237 120.058 252.231C121.301 253.474 121.052 253.723 119.561 254.468C118.07 255.214 116.827 255.711 115.335 256.457C114.59 256.705 114.093 256.705 113.595 256.208C112.85 255.462 112.104 254.965 111.358 254.22C110.613 253.474 110.115 252.728 109.121 251.983C112.104 251.734 113.844 249.994 116.33 249Z" fill="black"/>
</svg>
