<svg width="971" height="130" viewBox="0 0 971 130" fill="none" xmlns="http://www.w3.org/2000/svg">
<path d="M110.805 65.3046C110.5 63.7812 109.688 62.2831 108.443 61.2929C107.732 60.7343 106.92 60.3534 106.107 59.9472C105.371 59.5663 104.635 59.1347 103.949 58.6776C101.156 56.7733 98.8457 54.2851 96.332 52.0761C93.6406 49.7148 90.7207 47.8866 87.2676 46.8964C83.459 45.7792 79.4219 45.4491 75.4609 45.2968C71.3984 45.1444 67.3106 45.1698 63.2481 45.1952C59.3125 45.2206 55.3516 45.3222 51.416 45.6015C47.5059 45.9062 43.5957 46.3886 39.7617 47.2265C37.8574 47.6327 35.9531 48.1405 34.0996 48.7499C33.7949 48.8515 33.4395 48.953 33.1094 49.08C32.4492 49.4101 31.8145 49.7401 31.1543 50.0702C30.7734 50.4003 30.4941 50.8065 30.418 51.3397C30.3418 51.873 30.4688 52.33 30.7988 52.6855C30.3164 55.7069 29.8594 58.703 29.4785 61.7245C25.8731 60.7851 21.7852 62.6132 20.3125 66.0917C18.7129 69.8495 20.2617 74.4198 23.9941 76.1972C25.7969 77.0605 27.9043 77.2636 29.834 76.6542C31.6367 83.4589 33.6934 90.3651 37.5527 96.3319C41.0059 101.689 45.8555 106.209 51.9746 108.291C55.4023 109.433 59.084 109.941 62.6895 110.017C66.2441 110.094 69.8242 109.662 73.2012 108.519C76.5527 107.377 79.498 105.447 82.2402 103.187C84.957 100.953 87.6231 98.5663 90.0859 96.0526C92.5488 93.539 94.6055 90.746 95.9512 87.4706C97.3731 84.0175 98.1856 80.3105 99.125 76.705C99.3281 75.9179 99.5313 75.1562 99.7344 74.369C102.4 75.4862 105.574 75.1562 107.91 73.4042C110.271 71.5761 111.414 68.3007 110.805 65.3046Z" fill="#CCCCCC"/>
<path d="M42.3262 67.6661C44.9668 58.2208 61.4199 60.379 58.3984 71.17C56.0879 81.9102 41.2851 77.5684 42.3262 67.6661Z" fill="white"/>
<path d="M68.834 65.4061C72.5664 54.412 89.7305 62.1053 85.3633 72.4139C80.6152 83.205 64.873 76.2479 68.834 65.4061Z" fill="white"/>
<path d="M77.5937 28.2598C87.2422 29.8086 96.7129 32.4492 105.955 35.6992C98.4648 29.6563 71.2715 9.69922 68.123 8.09961C56.5195 14.8027 43.4687 22.0645 32.6269 30.1895C47.2011 25.9492 62.7148 25.8984 77.5937 28.2598ZM57.9922 20.1348C58.8047 17.5957 61.8261 17.3418 64.0859 17.1133C70.3828 16.4531 77.5175 18.5098 81.25 23.8926C81.5293 24.4004 80.8691 24.9336 80.4629 24.5273C76.2734 19.0937 68.9609 17.2148 62.4101 18.459C55.0468 19.8809 61.0898 25.2383 65.2285 21.1504C65.6093 20.7695 66.1679 21.3535 65.8125 21.7598C63.832 24.502 57.1797 24.6289 57.9922 20.1348Z" fill="black"/>
<path d="M43.3925 32.4239C47.0488 33.2872 49.7402 36.461 50.375 40.168C53.7519 26.584 69.8242 25.9747 69.4179 41.5645C71.1699 37.2227 74.3183 32.8555 79.2695 32.3731C88.0547 31.002 90.9746 36.6133 90.0859 44.586C92.2187 38.3145 101.74 32.3985 106.082 39.8125C106.133 38.8477 106.107 37.9082 106.184 36.918C82.4433 28.336 56.1386 24.3243 31.5097 31.5098C30.5957 35.3946 30.6211 39.5332 30.4179 43.5196C31.6367 37.5528 36.6386 30.7989 43.3925 32.4239Z" fill="black"/>
<path d="M30.5195 49.2324C49.2324 43.418 69.7226 41.1328 88.8164 46.3887C90.1113 38.0098 88.0546 31.5098 78.2539 33.668C73.7597 34.6836 71.6777 39.2285 69.7226 42.9609C69.5957 43.1895 69.3418 43.1895 69.164 43.0879C67.0058 44.4844 70.4336 32.6016 62.3593 31.0527C58.0429 30.2656 54.2597 33.5664 52.5332 37.2734C51.6191 38.1621 50.6796 45.3477 49.7402 44.2051C49.4863 44.2051 49.2578 44.0273 49.2832 43.7227C49.5625 41.1836 49.2324 38.4922 47.6074 36.4355C44.8906 32.6777 39.2539 32.2461 35.9531 35.4453C32.4238 38.6953 31.0273 43.7734 30.4687 48.4707C30.1894 48.6992 30.2656 49.1309 30.5195 49.2324ZM76.2226 37.1465C78.9394 36.334 81.9101 36.5625 84.5761 37.4258C85.3125 37.5527 88.5625 38.9746 86.582 39.5078C84.9824 38.873 83.4335 38.0605 81.707 37.832C79.955 37.5273 78.2031 37.6289 76.4511 37.9082C75.9433 38.0098 75.7148 37.2988 76.2226 37.1465ZM74.4199 40.6758C77.5683 39.8887 83.6621 40.7266 86.5312 42.4531C87.0898 42.7832 86.6074 43.5449 86.0488 43.3164C83.2304 42.0723 77.6953 40.7773 74.6484 41.5391C74.1152 41.666 73.8867 40.8027 74.4199 40.6758ZM54.7675 36.3086C58.7539 32.9062 68.4785 34.6582 65.3046 36.0039C58.373 33.4902 53.7011 38.8223 54.7675 36.3086ZM53.625 40.752C55.58 39.6855 57.7129 39.0762 59.9472 38.8984C60.8105 38.6699 68.6562 39.1016 66.2187 40.752C64.2382 40.3965 62.2324 39.7617 60.1757 39.9902C58.0937 40.0918 56.0117 40.6504 54.082 41.5391C53.5742 41.7676 53.1425 41.0312 53.625 40.752ZM34.9375 39.6094C37.1464 37.5273 41.1328 35.2422 43.9765 37.1719C44.2812 37.5527 44.0019 38.0859 43.5195 37.9844C39.2031 35.877 34.1757 42.0469 34.9375 39.6094ZM33.3632 45.1445C35.1152 43.748 37.1972 42.8848 39.33 42.3262C40.1425 42.1484 47.9375 40.3457 45.957 42.5293C43.8496 42.834 41.6914 42.8086 39.6347 43.3672C37.5527 43.8496 35.5722 44.6621 33.7949 45.8809C33.3125 46.1855 32.9316 45.4492 33.3632 45.1445Z" fill="black"/>
<path d="M103.721 38.6192C97.6777 34.6074 92.2949 41.5645 90.1367 46.7442C95.3418 48.2422 100.42 50.2481 105.27 52.7363C105.676 48.7246 107.275 41.4121 103.721 38.6192ZM101.867 47.9629C99.3789 47.252 97.0683 45.4492 94.4531 45.3223C93.9707 45.3477 93.9707 44.586 94.4531 44.5606C97.1953 44.586 99.709 46.1348 102.248 47.0235C102.756 47.252 102.375 48.1406 101.867 47.9629ZM103.543 44.5098C101.359 43.0879 98.7949 41.8946 96.1035 42.1485C95.5703 42.1992 95.5449 41.3106 96.1035 41.2852C98.2617 41.1074 100.445 41.5137 102.35 42.5547C102.959 42.8848 103.619 43.2403 104.076 43.7735C104.432 44.1797 104.025 44.7383 103.543 44.5098Z" fill="black"/>
<path d="M71.3476 57.8906C76.0195 55.25 81.9355 55.3515 86.582 57.9414C88.9687 55.4785 80.3613 54.0312 78.7617 54.1836C75.8925 54.1836 73.125 54.9707 70.7129 56.5195C70.332 56.7734 70.916 58.1191 71.3476 57.8906Z" fill="black"/>
<path d="M38.5175 60.1504C41.6152 58.6524 45.3476 58.0176 48.9277 58.3731C49.8418 58.3731 50.7812 58.3985 51.6953 58.5254C51.7207 58.1192 51.6699 57.7129 51.4414 57.3321C46.9726 56.0118 41.9453 56.3418 37.8828 58.5762C37.4511 58.7793 38.0859 60.3535 38.5175 60.1504Z" fill="black"/>
<path d="M110.297 63.5019C109.357 61.3945 107.453 59.8202 105.269 59.1093C105.701 57.5605 105.955 56.0116 106.031 54.4374C100.75 51.6698 95.2656 49.3593 89.5527 47.8105C89.2988 47.9374 88.9179 47.8613 88.791 47.6073C76.7304 44.2304 64.0605 43.9257 51.7207 45.703C50.5019 46.8964 49.207 48.0136 47.8359 49.0038C47.4296 49.3085 47.582 49.8925 48.0898 49.9433C57.7382 50.8573 67.8183 49.8671 76.4003 45.4491C80.5898 46.1093 84.7285 47.0234 88.791 48.2421C90.1621 52.914 93.0566 57.8144 97.6523 59.9726C94.0468 62.1816 90.3398 64.2128 86.7597 66.4726C84.8554 59.3124 74.1914 56.1386 69.4179 62.3085C69.4179 62.3339 69.4179 62.3593 69.4433 62.3593C68.4785 63.705 67.7929 65.1269 67.4882 66.7519C66.7519 65.8124 65.6093 65.2538 64.4414 65.1015C63.8574 65.0253 63.2734 65.0507 62.6894 65.1523C62.1054 65.2792 61.5214 65.457 61.039 65.8378C60.5058 66.2441 60.2773 66.8027 59.8711 67.2851C59.4648 66.9042 59.4394 65.8124 59.1855 65.2792C58.9062 64.6698 58.5254 64.1113 58.0937 63.6034C57.2304 62.6132 56.1386 61.9023 54.9199 61.4198C52.4062 60.455 49.5117 60.5312 47.0234 61.5214C44.916 62.3339 43.0625 63.8573 42.0722 65.8886C40.7519 65.8124 39.4824 65.6601 38.1621 65.5331C35.6738 64.9491 32.9062 65.0253 30.3164 64.7206C30.4179 59.8456 30.8242 54.7675 31.9668 49.9687C31.6113 50.0702 31.2558 50.1718 30.9003 50.2734C30.0117 54.1073 29.58 58.0937 29.4023 61.953C14.3457 58.1698 18.0273 80.7421 29.6308 76.8573C31.3574 107.656 46.3125 126.851 76.1211 117.762C93.6406 113.141 99.2519 90.5683 99.5566 74.8515C106.59 77.289 113.42 70.4843 110.297 63.5019ZM23.6386 75.0546C17.2402 69.7226 20.541 60.5058 29.3007 62.664C29.1484 66.9296 29.1484 71.2968 29.5293 75.6386C27.7011 76.9335 25.3398 76.4257 23.6386 75.0546ZM68.8339 65.4062C72.5664 54.412 89.7304 62.1054 85.3632 72.414C80.6152 83.205 64.873 76.248 68.8339 65.4062ZM42.3261 67.6659C44.9668 58.2206 61.4199 60.3788 58.3984 71.1698C56.0879 81.9101 41.2851 77.5683 42.3261 67.6659ZM70.205 102.578C68.5293 104.178 64.2382 104.406 64.2128 101.359C63.5273 101.385 62.8671 101.461 62.1816 101.588C62.5117 105.879 56.5195 103.949 56.3164 100.801C55.9101 94.9101 66.6757 94.0722 69.7988 97.3984C71.2968 99.0995 72.541 100.877 70.205 102.578ZM106.615 73.2265C104.432 74.496 101.918 74.4452 99.5566 73.8105C99.4804 72.4648 99.9882 70.9159 99.582 69.6718C96.8144 82.3163 91 97.83 76.4003 99.912C72.5918 88.0292 55.6308 88.08 51.8476 99.9628C45.9316 99.455 39.914 93.412 36.1816 89.0702C33.2871 85.2109 31.9414 80.4882 30.6211 75.9179C30.5703 75.6894 30.3925 75.5878 30.2148 75.5624C30.7734 72.287 29.9609 68.8339 30.2402 65.5077C34.0488 65.914 37.832 66.4218 41.6152 66.8534C39.1269 79.6249 58.3476 83.4081 59.7695 70.0019C59.8203 69.5702 59.9218 69.1386 60.0996 68.7323C60.2011 68.4784 60.3281 68.1991 60.455 67.9706C60.7089 67.5136 61.0644 67.1073 61.4707 66.7773C61.6992 66.5995 61.9023 66.4218 61.9023 66.3964C64.0605 65.3554 66.9804 66.5488 67.2597 69.0624C67.3359 73.582 70.4589 77.5683 74.9023 78.6093C81.6308 80.5136 88.4355 74.0136 86.9121 67.2851C90.9492 64.8476 95.5195 62.8163 99.2011 59.9472C107.732 56.8241 114.436 67.9452 106.615 73.2265Z" fill="black"/>
<path d="M77.3906 69.037C77.4922 69.2909 77.5937 69.5702 77.7715 69.748C77.9238 69.9003 78.1269 69.9765 78.3301 69.9257C78.5332 69.8749 78.6601 69.7226 78.7109 69.5194C78.7871 69.2655 78.8125 68.9862 78.7871 68.7323C78.7871 68.7069 78.7871 68.6816 78.7871 68.6562C78.7871 68.6054 78.7871 68.5292 78.7617 68.4784C78.7363 68.2753 78.7109 68.0976 78.6347 67.8944C78.6094 67.8183 78.584 67.7675 78.5586 67.6913C78.457 67.2597 78.2539 66.8534 77.7715 66.8788C77.0605 66.9042 77.1367 67.8437 77.1875 68.3515C77.2383 68.58 77.289 68.8085 77.3906 69.037Z" fill="black"/>
<path d="M50.0195 69.6718C50.1211 69.8496 50.3242 69.9511 50.5273 69.9511C50.7305 69.9511 50.9082 69.8242 50.9844 69.6464C51.1113 69.4179 51.1875 69.164 51.2383 68.9101C51.2383 68.8847 51.2383 68.8593 51.2383 68.8339C51.2637 68.7832 51.2637 68.707 51.2637 68.6562C51.289 68.4531 51.289 68.25 51.2637 68.0722C51.2637 67.9961 51.2383 67.9199 51.2383 67.8691C51.2383 67.4375 51.1113 67.0058 50.6543 66.9043C49.9687 66.7773 49.8164 67.7168 49.791 68.1992C49.7656 68.4277 49.7656 68.6816 49.8164 68.9101C49.8418 69.1386 49.8672 69.4687 50.0195 69.6718Z" fill="black"/>
<path d="M67.1582 84.4746C66.041 84.0175 64.8222 84.2207 63.6797 84.4746C63.4258 84.5253 63.1719 84.6015 62.9179 84.6523C62.8164 84.6777 62.6894 84.6777 62.5371 84.7031C62.5371 84.6269 62.5371 84.5507 62.5371 84.4999C62.5625 84.1699 62.5879 83.8652 62.6133 83.5351C62.8164 81.0214 63.1719 78.5332 63.6543 76.0703C63.7558 75.5625 63.5019 75.0546 62.9941 74.9023C62.5371 74.7753 61.9277 75.0546 61.8262 75.5625C61.2676 78.457 60.8613 81.3769 60.6582 84.2968C60.6074 84.9824 60.5058 85.7187 61.039 86.2265C61.5722 86.7597 62.3086 86.6582 62.9687 86.5312C64.1875 86.3027 65.4316 85.7949 66.625 86.2773C67.1074 86.455 67.666 86.0742 67.7929 85.6171C67.9707 85.0839 67.6406 84.6523 67.1582 84.4746Z" fill="black"/>
<path d="M170.828 78.2285C168.695 78.2793 166.359 75.4102 166.842 73.3027C167.121 72.084 167.832 71.2461 169.127 71.0176C169.813 70.8906 170.498 70.7383 171.438 70.5352C171.438 72.9473 171.438 75.2832 171.438 77.6191C171.463 78.1016 171.26 78.2285 170.828 78.2285Z" fill="#E0E0E0"/>
<path d="M236.107 83.1797C235.752 89.4512 234.99 95.6973 231.182 101.055C225.418 109.205 217.775 114.029 207.619 114.309C200.84 114.512 194.238 113.648 188.119 110.373C181.924 107.072 177.861 102.146 176.109 95.3164C174.256 88.1055 173.164 80.793 173.139 73.3027C173.139 70.7637 173.088 68.2246 172.986 65.7109C172.961 64.9492 173.164 64.3398 173.469 63.6797C174.307 61.9785 175.551 60.582 176.668 59.1094C178.115 57.2305 179.385 55.25 180.553 53.2188C182.762 49.3594 183.295 47.252 183.143 42.6055C186.342 46.3125 190.48 47.9883 194.543 49.7656C196.193 50.4766 197.92 50.832 199.748 50.7559C200.205 50.7305 200.688 50.7813 200.84 50.2227C200.992 49.7148 200.662 49.3848 200.307 49.1055C198.986 48.0391 197.691 46.9727 197.057 45.3223C197.184 45.2715 197.285 45.1953 197.336 45.2207C201.982 47.5313 207.086 47.3535 212.037 48.0391C219.146 49.0547 225.596 51.4668 230.979 56.4434C234.381 59.5918 235.803 63.4766 235.854 67.9961C235.854 68.123 235.854 68.2754 235.854 68.4023C236.311 73.3281 236.387 78.2539 236.107 83.1797Z" fill="#E0E0E0"/>
<path d="M243.75 75.7657C243.395 77.6446 241.795 79.1934 240.094 79.295C238.266 79.422 238.037 79.2188 238.037 77.3907C238.037 75.461 237.732 73.6075 237.021 71.6778C238.596 71.3985 240.043 71.6016 241.414 72.1856C243.191 72.9727 244.029 74.2423 243.75 75.7657Z" fill="#E0E0E0"/>
<path d="M191.268 67.2599C189.338 67.1583 189.414 69.1388 189.287 70.5099C189.186 71.754 189.338 73.252 190.938 73.3282C192.816 73.4298 192.791 71.8048 192.893 70.586C192.842 69.1134 192.893 67.336 191.268 67.2599Z" fill="black"/>
<path d="M221.66 59.5918C219.273 56.9765 216.201 56.0625 212.773 56.164C211.834 56.1894 210.971 56.5957 210.234 57.2304C209.904 57.5351 209.549 57.8652 209.701 58.373C209.879 58.957 210.412 59.0332 210.894 59.0078C211.732 58.957 212.57 58.83 213.459 58.7031C216.1 59.0839 218.74 59.5918 220.924 61.4453C221.279 61.75 221.711 62.2832 222.168 61.8769C222.6 61.4961 222.346 60.8613 222.168 60.3789C222.092 60.0742 221.889 59.8203 221.66 59.5918Z" fill="black"/>
<path d="M191.014 60.8105C191.217 60.3788 190.912 60.0487 190.607 59.7694C189.516 58.7792 188.322 58.0937 186.773 58.1698C184.209 58.2968 182.127 59.4394 180.299 61.1659C179.943 61.496 179.613 61.953 180.02 62.4608C180.4 62.9433 180.756 62.5624 181.187 62.4101C183.219 61.6483 185.225 60.8358 187.459 61.1151C188.297 61.2167 189.135 61.1659 189.973 61.2167C190.404 61.2421 190.836 61.2421 191.014 60.8105Z" fill="black"/>
<path d="M243.775 71.5508C243.471 71.2969 243.369 71.0937 243.547 70.6621C244.207 69.0625 244.74 67.4121 245.4 65.8125C247.736 60.125 249.107 54.2344 248.879 48.039C248.828 47.3281 248.777 46.6172 248.752 45.9062C248.473 40.5996 246.797 35.8262 243.293 31.7637C239.002 26.7871 233.568 23.6894 227.398 21.6836C220.518 19.4746 213.434 18.2305 206.197 17.9765C200.51 17.7988 194.797 17.9258 189.439 20.3633C187.916 21.0488 186.52 21.8867 185.148 22.9277C183.904 23.8418 181.873 23.1562 180.324 23.8926C179.715 24.1719 179.105 24.4004 178.496 24.7305C173.113 27.5996 169.533 31.9922 167.426 37.7051C163.973 47.0996 163.693 56.2656 168.848 65.1777C169.33 65.9902 169.66 66.8281 170.854 67.1074C171.996 67.3613 171.285 68.5547 171.285 69.3164C171.285 70.1289 170.625 69.6211 170.295 69.5703C168.035 69.2402 165.979 70.5859 165.42 72.7949C164.582 76.0449 167.045 79.4219 170.574 79.8281C171.285 79.9043 171.514 80.082 171.59 80.8183C171.945 85.1094 172.809 89.3496 173.647 93.5644C175.627 103.568 181.543 110.119 190.938 113.775C194.441 115.146 198.123 115.705 201.855 116.061C213.865 117.203 223.844 113.471 231.359 103.848C234.076 100.369 235.98 96.4844 236.742 92.0918C236.818 91.6855 236.59 90.9492 237.453 90.873C239.256 90.6953 240.297 89.5273 240.982 88.0039C241.795 86.2012 242.15 84.2715 241.82 82.291C241.668 81.2754 241.795 80.5898 242.836 79.9043C245.832 77.8984 246.518 73.7344 243.775 71.5508ZM170.828 78.2285C168.695 78.2793 166.359 75.4101 166.842 73.3027C167.121 72.084 167.832 71.2461 169.127 71.0176C169.813 70.8906 170.498 70.7383 171.438 70.5351C171.438 72.9472 171.438 75.2832 171.438 77.6191C171.463 78.1016 171.26 78.2285 170.828 78.2285ZM236.107 83.1797C235.752 89.4512 234.99 95.6972 231.182 101.055C225.418 109.205 217.775 114.029 207.619 114.309C200.84 114.512 194.238 113.648 188.119 110.373C181.924 107.072 177.861 102.146 176.109 95.3164C174.256 88.1054 173.164 80.793 173.139 73.3027C173.139 70.7637 173.088 68.2246 172.986 65.7109C172.961 64.9492 173.164 64.3398 173.469 63.6797C174.307 61.9785 175.551 60.582 176.668 59.1094C178.115 57.2305 179.385 55.25 180.553 53.2187C182.762 49.3594 183.295 47.2519 183.143 42.6055C186.342 46.3125 190.48 47.9883 194.543 49.7656C196.193 50.4765 197.92 50.832 199.748 50.7558C200.205 50.7305 200.688 50.7812 200.84 50.2226C200.992 49.7148 200.662 49.3847 200.307 49.1055C198.986 48.039 197.691 46.9726 197.057 45.3223C197.184 45.2715 197.285 45.1953 197.336 45.2207C201.982 47.5312 207.086 47.3535 212.037 48.039C219.147 49.0547 225.596 51.4668 230.979 56.4433C234.381 59.5918 235.803 63.4765 235.854 67.9961C235.854 68.123 235.854 68.2754 235.854 68.4023C236.311 73.3281 236.387 78.2539 236.107 83.1797ZM243.75 75.7656C243.395 77.6445 241.795 79.1933 240.094 79.2949C238.266 79.4219 238.037 79.2187 238.037 77.3906C238.037 75.4609 237.732 73.6074 237.022 71.6777C238.596 71.3984 240.043 71.6015 241.414 72.1855C243.191 72.9726 244.029 74.2422 243.75 75.7656Z" fill="black"/>
<path d="M215.287 65.5587C214.17 65.3048 213.688 66.5997 213.84 67.6153C214.094 69.1134 213.713 71.1192 215.871 71.5509C217.064 71.7794 217.242 70.713 217.242 69.5958C216.811 68.2247 217.471 66.0157 215.287 65.5587Z" fill="black"/>
<path d="M210.793 95.2149C210.514 95.4434 210.26 95.6973 210.031 95.9512C208.457 97.6016 206.4 98.084 203.912 98.3126C203.709 98.3633 202.795 97.8047 202.719 98.7442C202.668 99.6075 203.582 99.5821 204.242 99.6329C206.527 99.7852 208.66 99.2774 210.463 97.7794C211.021 97.3223 211.555 96.8653 211.936 96.2559C212.164 95.9004 212.24 95.4942 211.885 95.1641C211.529 94.834 211.148 94.961 210.793 95.2149Z" fill="black"/>
<path d="M206.07 87.6485C207.238 87.4453 206.73 85.668 205.588 85.8711C204.648 86.0488 203.506 86.2012 202.566 85.9727C201.576 85.7442 201.754 84.9824 201.805 84.1192C201.932 82.1133 201.982 80.1074 201.982 78.0762C201.957 74.0899 201.627 70.1289 201.068 66.2188C200.891 65.0508 199.139 65.5586 199.291 66.7012C200.002 71.5254 200.256 76.4258 200.103 81.3008C200.078 82.418 199.977 83.5352 199.926 84.6778C199.875 85.5156 200.002 86.3535 200.637 86.9883C201.957 88.334 204.445 87.9531 206.07 87.6485Z" fill="black"/>
<path d="M308.877 81.3008C306.973 81.4785 305.424 80.2344 305.5 78.5332C305.576 76.3496 306.846 74.9531 308.521 75.1816C308.979 75.2324 309.207 75.3847 309.258 75.8926C309.41 77.3398 309.588 78.7871 309.791 80.209C309.893 80.9199 309.613 81.2246 308.877 81.3008Z" fill="#B3B3B3"/>
<path d="M376.568 77.8984C375.35 87.3691 372.201 96.1289 366.717 103.898C362.527 109.84 356.586 113.699 349.527 115.553C347.217 116.162 344.779 115.527 342.469 114.969C336.73 113.598 331.475 111.16 326.625 107.783C319.033 102.477 314.793 94.9863 312.686 86.125C311.873 82.6718 310.984 79.2187 310.883 75.7148C310.781 71.2714 311.645 66.955 313.93 63.0195C316.113 59.2617 318.602 55.7324 321.242 52.3046C322.766 50.3242 324.111 48.2929 325.127 46.0078C325.305 45.6015 325.381 44.9921 326.092 45.5253C329.215 47.7851 332.922 48.2421 336.578 48.9277C342.52 50.0703 348.461 51.1113 354.199 53.0918C362.68 56.0117 367.275 62.0039 368.85 70.6113C369.104 72.0078 369.383 73.3789 369.662 74.7753C369.814 75.5117 369.865 76.4257 370.855 76.4511C371.897 76.4765 372.074 75.5371 372.252 74.7753C372.811 72.2363 373.141 69.6464 373.395 67.0566C373.42 66.8535 373.445 66.625 373.496 66.1425C374.436 67.0312 374.969 67.8691 375.324 68.8339C376.391 71.7793 376.975 74.75 376.568 77.8984Z" fill="#B3B3B3"/>
<path d="M365.193 76.2734L364.584 69.3418L361.258 66.7012L356.535 65.3047L349.299 66.7012L346.658 68.1484L345.465 73.4551L346.455 76.959L349.324 79.6504L351.229 82.6211L356.535 80.8945L360.191 80.5644L363.061 76.4512L365.193 76.2734Z" fill="white"/>
<path d="M336.045 77.6699L335.436 70.7383L332.109 68.0977L327.387 66.7012L320.15 68.0977L317.789 71.1953L316.316 74.8516L315.834 78.2285L318.424 81.9609L322.055 84.0176L327.463 83.6367L331.83 82.6211L334.166 79.9043L336.045 77.6699Z" fill="white"/>
<path d="M382.713 79.041C381.596 80.3359 380.047 80.6406 378.447 80.793C377.889 80.8438 377.939 80.4883 377.965 80.1074C378.117 78.5332 378.32 76.959 378.422 75.3848C378.473 74.3184 379.26 74.7754 379.742 74.623C381.24 74.623 382.256 75.3848 382.941 76.6035C383.449 77.4668 383.373 78.3047 382.713 79.041Z" fill="#B3B3B3"/>
<path d="M389.365 55.2754C387.131 43.8496 381.291 34.9883 371.719 28.4883C368.164 26.0762 364.33 24.375 360.141 23.4356C354.326 22.1407 348.461 21.5567 342.52 21.9375C336.629 22.3184 330.967 23.6133 325.99 26.9649C324.543 27.9297 323.299 29.0977 321.369 28.92C320.836 28.8692 320.277 29.2246 319.744 29.4532C315.91 31.0782 312.787 33.6172 310.375 36.9942C306.389 42.6055 304.688 49.0293 304.256 55.7579C303.9 61.5215 304.789 67.209 306.16 72.795C306.363 73.6075 306.186 73.9883 305.627 74.5215C303.113 76.9844 303.418 80.92 306.262 82.2403C307.227 82.6973 307.531 83.2813 307.684 84.2207C308.471 88.918 308.039 93.5645 307.252 98.1856C306.846 100.572 306.338 102.959 305.576 105.27C305.424 105.752 305.221 106.311 305.678 106.768C306.186 107.25 306.744 107.047 307.277 106.793C307.785 106.564 308.293 106.234 308.775 105.955C309.359 105.625 309.766 105.016 310.604 104.813C310.248 107.301 310.273 109.688 309.613 111.998C309.461 112.506 309.283 113.064 309.816 113.445C310.426 113.877 310.883 113.395 311.34 113.064C311.797 112.734 312 112.252 312.178 111.744C312.457 110.932 312.736 110.119 313.092 109.104C314.793 112.633 316.037 116.061 316.875 119.641C317.002 120.225 317.104 120.834 317.84 120.885C318.576 120.961 318.779 120.352 318.982 119.793C320.379 115.731 321.648 111.643 321.522 107.275C321.522 106.971 321.369 106.564 321.826 106.311C321.979 106.438 322.156 106.539 322.334 106.691C327.768 111.414 334.039 114.588 340.971 116.416C344.348 117.305 347.877 118.066 351.279 116.924C357.551 114.816 362.883 111.16 367.225 106.158C367.936 105.346 368.164 105.397 368.799 106.184C370.83 108.672 373.775 109.789 376.543 111.109C377.66 111.643 378.473 110.932 378.371 109.688C378.295 108.9 378.092 108.139 377.889 107.022C379.082 108.291 380.174 109.154 381.342 109.967C381.85 110.322 382.383 110.729 383.018 110.322C383.627 109.941 383.5 109.307 383.398 108.748C382.51 104.051 382.84 99.4043 383.906 94.8086C385.227 89.1719 387.055 83.6875 388.451 78.0762C390.381 70.5098 390.863 63.0196 389.365 55.2754ZM308.877 81.3008C306.973 81.4786 305.424 80.2344 305.5 78.5332C305.576 76.3496 306.846 74.9532 308.522 75.1817C308.979 75.2325 309.207 75.3848 309.258 75.8926C309.41 77.3399 309.588 78.7871 309.791 80.209C309.893 80.92 309.613 81.2247 308.877 81.3008ZM376.568 77.8985C375.35 87.3692 372.201 96.129 366.717 103.898C362.527 109.84 356.586 113.699 349.527 115.553C347.217 116.162 344.779 115.527 342.469 114.969C336.731 113.598 331.475 111.16 326.625 107.783C319.033 102.477 314.793 94.9864 312.686 86.125C311.873 82.6719 310.984 79.2188 310.883 75.7149C310.781 71.2715 311.645 66.9551 313.93 63.0196C316.113 59.2618 318.602 55.7325 321.242 52.3047C322.766 50.3243 324.111 48.293 325.127 46.0079C325.305 45.6016 325.381 44.9922 326.092 45.5254C329.215 47.7852 332.922 48.2422 336.578 48.9278C342.52 50.0704 348.461 51.1114 354.199 53.0918C362.68 56.0118 367.275 62.0039 368.85 70.6114C369.104 72.0079 369.383 73.3789 369.662 74.7754C369.814 75.5118 369.865 76.4258 370.856 76.4512C371.897 76.4766 372.074 75.5371 372.252 74.7754C372.811 72.2364 373.141 69.6465 373.395 67.0567C373.42 66.8536 373.445 66.625 373.496 66.1426C374.436 67.0313 374.969 67.8692 375.324 68.834C376.391 71.7793 376.975 74.75 376.568 77.8985ZM382.713 79.0411C381.596 80.336 380.047 80.6407 378.447 80.793C377.889 80.8438 377.939 80.4883 377.965 80.1075C378.117 78.5332 378.32 76.959 378.422 75.3848C378.473 74.3184 379.26 74.7754 379.742 74.6231C381.24 74.6231 382.256 75.3848 382.941 76.6036C383.449 77.4668 383.373 78.3047 382.713 79.0411Z" fill="black"/>
<path d="M361.969 62.8672C360.395 61.3691 358.516 60.582 356.484 60.5312C354.631 60.6328 352.93 60.7852 351.33 61.5469C350.645 61.877 349.807 62.207 350.162 63.1719C350.518 64.1621 351.355 63.832 352.066 63.5781C352.143 63.5527 352.219 63.502 352.32 63.4766C355.266 62.3848 358.109 62.4102 360.75 64.3906C361.131 64.6699 361.563 64.9492 361.994 65.1777C362.248 65.3301 362.604 65.4316 362.857 65.2031C363.111 64.9492 363.01 64.6191 362.934 64.3145C362.756 63.7051 362.375 63.248 361.969 62.8672Z" fill="black"/>
<path d="M333.354 62.1563C330.561 60.7344 325.025 60.3789 321.725 63.3242C321.191 63.8066 320.404 64.4668 320.963 65.2031C321.572 66.0156 322.334 65.2793 322.918 64.873C324.975 63.4512 327.26 63.0195 329.723 63.2734C330.865 63.4004 331.982 63.6543 332.973 63.9336C333.557 63.9844 334.014 63.9336 334.141 63.4004C334.293 62.7656 333.811 62.3848 333.354 62.1563Z" fill="black"/>
<path d="M348.283 100.064C347.42 101.055 346.328 101.486 344.932 101.436C344.729 101.41 344.475 101.359 344.221 101.359C343.941 101.359 343.688 101.461 343.611 101.766C343.51 102.121 343.688 102.324 343.992 102.502C345.465 103.391 348.613 102.273 349.146 100.623C349.248 100.318 349.375 99.9883 349.121 99.7598C348.791 99.4551 348.512 99.8106 348.283 100.064Z" fill="black"/>
<path d="M354.402 68.8593C353.184 69.164 352.016 69.6972 351.025 70.4589C350.543 70.8398 350.086 71.373 350.061 72.0078C350.035 72.6933 350.416 73.2011 351.025 73.455C351.33 73.582 351.711 73.3027 351.787 73.0234C351.889 72.6679 351.66 72.3886 351.355 72.2617C351.279 72.2363 351.355 71.9062 351.432 71.7792C351.635 71.5 351.914 71.3222 352.193 71.1445C352.727 70.789 353.311 70.5097 353.92 70.3066C355.113 69.9003 356.459 69.6972 357.703 69.9257C358.16 70.0019 358.617 70.1796 358.973 70.4843C358.592 70.3828 358.211 70.3574 357.83 70.3828C357.271 70.4335 356.662 70.4843 356.154 70.789C355.113 71.3984 355.012 72.8203 356.129 73.4042C357.145 73.9375 358.465 73.9375 359.506 73.5566C360.014 73.3535 360.471 73.0742 360.674 72.5156C360.902 71.8808 360.75 71.1445 360.496 70.5605C359.531 68.2753 356.408 68.3769 354.402 68.8593Z" fill="black"/>
<path d="M327.793 68.8593C326.574 69.164 325.406 69.6972 324.416 70.4589C323.934 70.8398 323.477 71.373 323.451 72.0078C323.426 72.6933 323.807 73.2011 324.416 73.455C324.721 73.582 325.102 73.3027 325.178 73.0234C325.279 72.6679 325.051 72.3886 324.746 72.2617C324.67 72.2363 324.746 71.9062 324.822 71.7792C325.025 71.5 325.305 71.3222 325.584 71.1445C326.117 70.789 326.701 70.5097 327.311 70.3066C328.504 69.9003 329.85 69.6972 331.094 69.9257C331.551 70.0019 332.008 70.1796 332.363 70.4843C331.982 70.3828 331.602 70.3574 331.221 70.3828C330.662 70.4335 330.053 70.4843 329.545 70.789C328.529 71.3984 328.402 72.8203 329.52 73.4042C330.535 73.9375 331.855 73.9375 332.896 73.5566C333.404 73.3535 333.861 73.0742 334.064 72.5156C334.293 71.8808 334.141 71.1445 333.887 70.5605C332.896 68.2753 329.799 68.3769 327.793 68.8593Z" fill="black"/>
<path d="M346.48 88.5117C345.059 88.4863 343.662 88.1816 342.393 87.5469C341.707 87.2168 341.529 87.0137 341.428 86.2266C341.326 85.4395 341.275 84.6523 341.199 83.8652C340.92 80.7168 340.793 77.543 340.793 74.3691C340.793 73.125 338.838 73.125 338.838 74.3691C338.838 78.127 339.041 81.8848 339.422 85.6172C339.498 86.3789 339.498 87.2676 339.904 87.9531C340.26 88.5625 340.895 88.9434 341.529 89.248C343.078 90.0098 344.754 90.3906 346.48 90.416C347.725 90.4922 347.725 88.5371 346.48 88.5117Z" fill="black"/>
<path d="M374.715 65.1524C373.268 63.1211 370.627 64.7969 369.078 65.7872C367.453 66.8028 365.955 67.9961 364.584 69.3418C364.305 68.8086 363.949 68.3008 363.543 67.8438C360.775 64.67 356.256 64.3145 352.295 65.254C348.512 64.8985 345.871 68.2754 345.008 71.7286C344.779 71.4239 344.525 71.1192 344.271 70.8145C343.434 69.9004 342.393 69.1895 341.123 69.1133C339.854 69.0372 338.584 69.7735 337.543 70.4844C337.238 70.6876 336.934 70.9415 336.654 71.1954C336.121 70.002 335.334 68.9102 334.217 68.0469C330.789 65.3301 326.473 65.3809 322.588 66.8028C319.998 67.1075 317.865 69.1133 316.52 71.5254C315.555 70.3067 314.387 69.2403 313.041 68.4532C311.391 67.4883 308.217 66.0157 306.693 67.8946C306.363 68.3008 306.287 68.8848 306.693 69.2657C307.049 69.6211 307.734 69.6719 308.064 69.2657C308.521 68.7071 309.359 68.9864 309.994 69.1895C310.857 69.4688 311.67 69.8751 312.406 70.3575C313.701 71.17 314.768 72.2872 315.58 73.5567C315.301 74.3438 315.098 75.1563 314.996 75.918C314.336 80.92 319.439 84.1446 323.807 84.7793C328.225 85.4141 332.896 83.8399 335.588 80.1836C336.984 78.2793 337.594 75.9434 337.34 73.7344C337.492 72.9981 338.025 72.5157 338.66 72.1094C339.371 71.6524 340.311 70.9668 341.199 71.0938C341.986 71.2208 342.621 71.9063 343.129 72.5157C343.789 73.3028 344.322 74.2168 344.754 75.1563C345.16 78.6856 347.623 81.8848 351.203 82.6719C353.539 83.1797 355.977 82.7481 358.262 82.1387C360.318 81.5801 362.324 80.6661 363.695 78.9903C365.498 76.7813 366.057 73.9375 365.371 71.3477C366.59 70.0782 367.91 68.9356 369.383 67.9708C370.145 67.4629 370.932 66.9805 371.744 66.5489C372.049 66.3965 372.354 66.2442 372.709 66.1934C372.734 66.1934 372.938 66.168 373.039 66.1934C373.344 66.5997 373.877 66.8028 374.359 66.5235C374.791 66.2442 375.02 65.584 374.715 65.1524ZM334.852 77.6192C333.354 80.92 329.748 82.8497 326.193 82.9512C324.365 83.002 322.486 82.6465 320.836 81.8086C319.262 81.0215 317.561 79.8028 317.053 78.0254C316.799 77.2129 316.85 76.3243 317.027 75.4864C317.002 74.5977 317.256 73.7344 317.637 72.9219C318.348 71.3731 319.541 70.0274 320.963 69.0625C322.156 68.25 323.68 67.7168 325.127 68.0469C327.209 67.5645 329.367 67.6153 331.373 68.5547C334.852 70.1797 336.502 74.0391 334.852 77.6192ZM363.061 76.4512C361.436 79.6504 357.449 80.6661 354.123 80.8946C352.422 80.9961 350.721 80.7168 349.324 79.6758C348.029 78.711 347.141 77.2383 346.811 75.6641C346.404 73.7852 346.785 71.7286 347.725 70.0528C348.131 69.3165 348.715 68.5801 349.426 67.9961C349.654 68.0977 349.934 68.0977 350.213 67.9708C353.412 66.5235 357.881 65.9649 360.928 68.0723C363.594 69.9004 364.533 73.5567 363.061 76.4512Z" fill="black"/>
<path d="M518.502 82.4942C517.639 92.3204 513.398 100.496 506.619 107.504C503.268 110.957 499.865 114.359 495.625 116.746C490.369 119.691 484.986 120.352 479.096 118.498C462.566 113.318 453.248 101.842 449.439 85.338C448.982 83.3829 448.957 81.4024 448.932 79.8536C448.297 72.7188 450.76 66.9298 454.365 61.5216C456.676 58.043 459.494 54.9708 462.566 52.1524C465.715 49.2579 469.549 47.6583 473.687 46.8966C477.623 46.1602 481.609 45.6524 485.672 45.7032C488.795 45.754 491.766 46.5411 494.787 47.2012C500.348 48.42 503.978 52.1016 507.178 56.3673C511.113 61.5977 514.312 67.2344 517.258 73.0743C518.857 76.1719 518.781 79.2696 518.502 82.4942Z" fill="#E0E0E0"/>
<path d="M527.592 56.7227C526.424 46.4141 521.752 37.8574 514.439 30.6719C508.295 24.6289 500.957 20.3887 492.984 17.2402C489.938 16.0469 486.814 14.9297 483.488 14.9297C474.221 14.9297 466.73 18.9668 460.484 25.4668C455 31.1797 451.293 38.0352 448.678 45.5C446.799 50.832 445.072 56.1895 445.301 61.9531C445.428 65.1777 445.402 68.4277 445.377 71.6523C445.301 78.7617 446.291 85.7441 448.068 92.5996C448.322 93.5898 448.779 94.4785 449.211 95.418C450.785 98.8965 452.918 102.02 455.279 104.99C455.965 105.879 456.193 106.463 455.076 107.301C453.451 108.545 453.197 109.738 453.832 111.135C454.289 112.15 455.102 112.785 456.016 113.369C459.342 115.502 463.15 116.314 466.807 117.559C469.346 118.422 472.063 118.523 474.576 119.311C477.268 120.148 479.883 121.24 482.676 121.672C488.516 122.561 493.721 120.834 498.494 117.559C499.357 116.975 500.195 116.568 501.313 116.695C502.379 116.822 503.445 116.543 504.41 116.035C509.387 113.496 513.703 110.043 517.766 106.209C519.035 105.016 518.934 103.848 517.639 102.73C517.207 102.375 517.385 102.121 517.512 101.791C518.273 99.8613 518.934 97.8809 519.822 96.002C521.27 92.9297 522.361 89.7559 523.123 86.4805C523.555 84.6777 523.682 82.8496 524.342 81.0723C526.652 74.7754 527.439 68.1738 527.947 61.5469C527.82 59.9473 527.77 58.3477 527.592 56.7227ZM481.203 39.4824C481.559 39.3047 481.914 39.2539 482.27 39.4062C486.078 41.0312 489.988 42.377 493.645 44.4844C486.662 42.6562 479.756 43.748 472.799 44.7637C475.541 42.8848 478.258 40.9551 481.203 39.4824ZM518.502 82.4941C517.639 92.3203 513.398 100.496 506.619 107.504C503.268 110.957 499.865 114.359 495.625 116.746C490.369 119.691 484.986 120.352 479.096 118.498C462.566 113.318 453.248 101.842 449.439 85.3379C448.982 83.3828 448.957 81.4023 448.932 79.8535C448.297 72.7187 450.76 66.9297 454.365 61.5215C456.676 58.043 459.494 54.9707 462.566 52.1523C465.715 49.2578 469.549 47.6582 473.688 46.8965C477.623 46.1602 481.609 45.6523 485.672 45.7031C488.795 45.7539 491.766 46.541 494.787 47.2012C500.348 48.4199 503.979 52.1016 507.178 56.3672C511.113 61.5977 514.313 67.2344 517.258 73.0742C518.857 76.1719 518.781 79.2695 518.502 82.4941Z" fill="black"/>
<path d="M469.879 59.541C465.842 58.9316 462.186 59.7441 459.088 62.4863C458.453 63.0449 457.717 63.959 458.402 64.7715C458.961 65.4316 459.723 64.6191 460.307 64.289C463.024 62.664 465.994 61.9531 468.813 61.75C469.27 61.7754 469.397 61.8008 469.549 61.8008C470.285 61.8769 471.174 62.0293 471.352 61.039C471.504 60.0488 470.692 59.6679 469.879 59.541Z" fill="black"/>
<path d="M504.563 60.5313C502.074 58.7793 496.844 58.6524 494.254 60.3282C493.645 60.7344 493.061 61.1915 493.492 62.004C493.873 62.7149 494.533 62.6387 495.168 62.3848C497.631 61.3692 500.119 61.4961 502.608 62.2325C503.344 62.461 504.106 62.6133 504.613 62.7403C505.781 62.7149 505.934 62.461 505.578 61.6485C505.375 61.1407 504.994 60.836 504.563 60.5313Z" fill="black"/>
<path d="M488.389 103.416C486.383 104.939 484.199 105.473 481.762 105.066C481.152 104.965 480.645 105.27 480.543 105.93C480.441 106.59 480.848 106.996 481.432 107.148C482.143 107.326 482.879 107.377 483.234 107.453C485.113 107.453 486.561 107.25 487.881 106.488C488.77 105.98 489.404 105.244 489.481 104.203C489.531 103.391 489.074 102.883 488.389 103.416Z" fill="black"/>
<path d="M498.85 68.0977C498.266 68.0469 497.733 68.3262 497.656 68.834C497.377 70.9668 497.174 73.125 498.113 75.1817C498.291 75.5625 498.647 75.8672 499.104 75.8418C499.637 75.7911 499.84 75.3086 499.891 74.8516C499.992 73.9375 499.992 73.0235 500.043 71.9825C499.992 71.0938 499.967 70.0782 499.84 69.0879C499.789 68.5293 499.434 68.1485 498.85 68.0977Z" fill="black"/>
<path d="M465.893 67.0059C465.359 67.0313 464.953 67.3614 464.928 67.8438C464.852 69.7227 464.801 71.627 465.486 73.4043C465.817 74.2676 466.578 74.2168 467.01 73.3536C467.442 72.4903 467.34 71.5508 467.365 70.6368C467.34 69.6719 467.365 68.7071 467.035 67.7676C466.858 67.2344 466.477 66.9551 465.893 67.0059Z" fill="black"/>
<path d="M481.533 88.7402C480.848 89.0957 480.086 89.2734 479.324 89.1211C479.096 89.0703 478.41 88.9687 478.283 88.7402C478.283 88.7402 478.334 88.207 478.334 88.1055C478.41 86.2773 478.512 84.4238 478.613 82.5957C478.817 78.9648 479.02 75.3594 479.248 71.7539C479.324 70.4844 477.344 70.4844 477.268 71.7539C476.963 76.248 476.709 80.7676 476.481 85.2871C476.43 86.3535 476.328 87.4199 476.328 88.4863C476.328 89.375 476.582 90.0605 477.369 90.543C478.943 91.4824 480.975 91.3047 482.524 90.4668C483.666 89.8574 482.651 88.1309 481.533 88.7402Z" fill="black"/>
<path d="M581.826 77.0351C580.328 77.4159 579.135 76.7304 578.348 75.3593C577.408 73.7597 576.773 72.0585 576.773 71.0683C576.85 67.3105 578.424 65.203 580.785 64.746C581.521 64.5937 581.826 64.7714 581.877 65.5077C582.08 68.3769 582.588 71.2206 582.893 74.0898C582.994 74.9784 583.375 76.6288 581.826 77.0351Z" fill="#CCCCCC"/>
<path d="M664.219 76.0958C663.127 84.2462 661.578 92.295 658.049 99.836C651.32 114.283 635.984 121.875 619.734 118.422C616.383 117.711 613.006 117.025 609.857 115.553C601.021 111.389 595.385 104.229 591.373 95.6212C588.682 89.9083 587.488 83.7384 586.041 77.6192C584.67 71.9317 585.102 66.1681 584.898 60.4298C584.771 57.2306 585.686 55.0978 588.402 53.1427C592.211 50.4005 594.471 46.1095 597.441 42.5294C598.584 41.1583 599.6 39.7364 601.148 38.7462C601.885 38.2638 602.443 38.2638 603.256 38.6192C609.07 41.1075 615.012 43.2403 621.334 44.129C622.096 44.2306 622.883 44.256 623.67 44.2813C627.275 44.3321 628.012 43.5196 627.555 39.9142C630.043 40.5235 632.455 41.3106 634.943 41.6915C637.203 42.047 639.717 43.4689 641.723 40.9044C642.078 40.4728 642.51 41.0821 642.84 41.2599C644.566 42.2501 646.217 43.4435 648.02 44.256C650.203 45.2462 652.514 46.0841 654.723 44.2306C655.18 43.8497 655.434 44.2052 655.687 44.4845C658.125 47.0743 660.689 49.5118 663.66 51.5177C664.143 51.8478 664.219 52.3302 664.219 52.838C664.32 60.5821 665.26 68.3517 664.219 76.0958Z" fill="#CCCCCC"/>
<path d="M667.824 73.5822C667.824 70.2814 667.799 67.1837 667.85 64.0861C667.85 63.5275 667.621 62.7404 668.357 62.4865C669.094 62.2325 669.779 62.5626 670.312 63.0704C671.252 63.9845 671.81 65.1017 672.09 66.3966C672.598 68.8849 670.643 72.4396 667.824 73.5822Z" fill="#CCCCCC"/>
<path d="M669.373 59.9473C667.773 59.8711 667.697 59.1602 667.748 58.0176C668.027 51.5684 667.088 45.1699 666.859 38.7461C666.758 35.877 666.479 33.0332 665.895 30.1895C664.904 25.4668 662.391 22.0645 658.328 19.5762C649.441 14.0918 639.641 12.2637 629.84 12.0605C620.648 12.4414 613.158 12.7969 602.164 16.7578C596.959 18.6367 591.906 20.9727 587.26 24.0195C583.705 26.3555 581.039 29.4023 580.455 33.8203C579.236 42.8848 579.338 51.9746 580.607 61.0137C580.709 61.7754 580.633 62.0039 579.82 62.2324C577.129 62.9688 575.199 64.6445 574.438 67.3867C573.422 71.0684 574.336 74.4453 576.52 77.4668C577.738 79.1426 579.592 80.3105 581.547 79.6758C583.705 78.9648 583.807 79.9805 583.959 81.4531C583.984 81.6816 584.01 81.8848 584.061 82.1133C585.711 90.1113 588.275 97.7031 592.871 104.559C599.777 114.867 609.477 120.453 621.613 122.104C632.252 123.551 642.027 121.418 650.609 114.689C657.084 109.611 661.121 102.908 663.66 95.2148C665.463 89.7813 666.529 84.1699 667.418 78.5078C667.52 77.8223 667.24 76.8066 668.256 76.5527C672.623 75.4863 674.121 72.1094 674.857 68.25C675.543 64.5937 672.598 60.0996 669.373 59.9473ZM585.889 28.9707C588.479 26.3555 591.678 24.7559 594.928 23.1562C601.986 19.7031 609.324 17.1895 617.17 16.0977C627.123 14.7012 636.949 14.7266 646.674 17.6211C651.041 18.916 655.002 20.9727 658.785 23.4102C660.461 24.502 661.629 26.1016 662.213 28.2344C661.426 27.8027 660.613 27.4219 659.852 26.9648C653.021 22.8262 645.303 21.8105 637.66 20.541C629.713 19.2207 621.74 19.7539 614.021 21.3789C607.395 22.7754 600.691 24.3496 594.521 27.3965C590.891 29.1738 587.387 31.2305 584.314 33.9219C584.086 34.125 583.908 34.4551 583.35 34.4297C583.604 32.2969 584.391 30.4941 585.889 28.9707ZM581.826 77.0352C580.328 77.416 579.135 76.7305 578.348 75.3594C577.408 73.7598 576.773 72.0586 576.773 71.0684C576.85 67.3105 578.424 65.2031 580.785 64.7461C581.521 64.5937 581.826 64.7715 581.877 65.5078C582.08 68.377 582.588 71.2207 582.893 74.0898C582.994 74.9785 583.375 76.6289 581.826 77.0352ZM582.563 52.3301C582.563 48.2422 582.436 44.332 582.613 40.4473C582.715 38.543 584.137 37.1465 585.533 35.9531C589.393 32.6523 593.785 30.0879 598.533 28.3359C604.145 26.2793 609.934 24.5527 615.824 23.5625C624.66 22.0645 633.547 22.0898 642.408 24.0195C648.02 25.2383 653.504 26.5586 658.531 29.4531C664.219 32.7539 664.346 33.3633 664.168 40.2187C662.543 38.873 661.172 37.6035 659.674 36.4609C652.844 31.3828 645.023 29.3262 636.645 28.8945C622.756 28.1836 609.324 30.1895 596.375 35.293C591.576 37.1973 587.59 40.1934 585.051 44.8652C583.781 47.1758 583.654 49.791 582.563 52.3301ZM664.219 76.0957C663.127 84.2461 661.578 92.2949 658.049 99.8359C651.32 114.283 635.984 121.875 619.734 118.422C616.383 117.711 613.006 117.025 609.857 115.553C601.021 111.389 595.385 104.229 591.373 95.6211C588.682 89.9082 587.488 83.7383 586.041 77.6191C584.67 71.9316 585.102 66.168 584.898 60.4297C584.771 57.2305 585.686 55.0977 588.402 53.1426C592.211 50.4004 594.471 46.1094 597.441 42.5293C598.584 41.1582 599.6 39.7363 601.148 38.7461C601.885 38.2637 602.443 38.2637 603.256 38.6191C609.07 41.1074 615.012 43.2402 621.334 44.1289C622.096 44.2305 622.883 44.2559 623.67 44.2812C627.275 44.332 628.012 43.5195 627.555 39.9141C630.043 40.5234 632.455 41.3105 634.943 41.6914C637.203 42.0469 639.717 43.4688 641.723 40.9043C642.078 40.4727 642.51 41.082 642.84 41.2598C644.566 42.25 646.217 43.4434 648.02 44.2559C650.203 45.2461 652.514 46.084 654.723 44.2305C655.18 43.8496 655.434 44.2051 655.688 44.4844C658.125 47.0742 660.689 49.5117 663.66 51.5176C664.143 51.8477 664.219 52.3301 664.219 52.8379C664.32 60.582 665.26 68.3516 664.219 76.0957ZM667.824 73.582C667.824 70.2812 667.799 67.1836 667.85 64.0859C667.85 63.5273 667.621 62.7402 668.357 62.4863C669.094 62.2324 669.779 62.5625 670.313 63.0703C671.252 63.9844 671.811 65.1016 672.09 66.3965C672.598 68.8848 670.643 72.4395 667.824 73.582Z" fill="black"/>
<path d="M643.018 52.0761C641.24 52.1523 639.336 52.9394 637.863 54.6152C637.432 55.0976 637.229 55.707 637.736 56.2656C638.193 56.748 638.727 56.6465 639.26 56.3672C639.59 56.1894 639.92 55.9355 640.25 55.7324C642.281 54.4883 644.236 54.5136 646.115 56.0371C646.928 56.6972 647.664 57.459 648.451 58.1699C648.984 58.6523 649.568 59.2617 650.33 58.6777C651.016 58.1445 650.787 57.3828 650.508 56.6972C649.441 54.209 646.115 52.0508 643.018 52.0761Z" fill="black"/>
<path d="M609.096 54.3614C610.213 54.1329 610.441 53.4981 609.731 52.6603C609.223 52.0763 608.588 51.797 607.522 51.8731C605.516 52.2794 603.205 52.6349 601.25 54.0567C600.133 54.8692 599.346 55.9103 598.889 57.2052C598.635 57.9415 598.533 58.7032 599.346 59.0841C600.209 59.4903 600.691 58.8556 601.022 58.17C601.834 56.4942 603.256 55.6056 605.008 55.1993C606.354 54.8692 607.725 54.6407 609.096 54.3614Z" fill="black"/>
<path d="M621.41 103.416C619.277 103.289 617.221 102.959 615.773 101.106C615.266 100.471 614.58 99.9376 613.793 100.572C612.904 101.283 613.437 102.07 613.945 102.756C615.723 105.244 618.262 106.082 621.182 106.082C622.121 106.133 623.086 106.031 623.187 104.889C623.289 103.772 622.375 103.467 621.41 103.416Z" fill="black"/>
<path d="M643.754 62.1816C643.119 61.4706 642.231 61.039 641.139 61.2167C640.072 61.3945 639.26 62.2831 638.574 63.0702C638.117 63.6034 638.879 64.3652 639.336 63.832C639.793 63.2988 640.301 62.664 640.986 62.3847C641.19 62.3085 641.393 62.2831 641.596 62.2831C641.037 62.6132 640.631 63.2226 640.377 63.8574C640.326 63.9589 640.301 64.0859 640.25 64.2128C639.92 65.0761 639.818 66.0409 640.022 66.955C640.225 67.9199 640.783 69.0116 641.672 69.5195C642.18 69.7988 642.789 69.8495 643.246 69.4941C643.424 69.3417 643.576 69.164 643.729 68.9609C644.643 68.4531 645.176 67.5136 645.252 66.4726C645.252 66.4472 645.252 66.4218 645.252 66.371C645.277 66.2187 645.303 66.0409 645.303 65.8886C645.531 64.8476 645.43 63.7304 644.719 62.8925C644.516 62.5624 644.16 62.3085 643.754 62.1816Z" fill="black"/>
<path d="M610.518 64.5175C610.594 63.6288 610.441 62.7148 609.857 62.08C609.807 61.9277 609.731 61.7753 609.654 61.623C609.324 60.9374 608.791 60.3535 608.029 60.1757C607.268 59.998 606.481 60.1757 605.77 60.4804C604.399 61.039 603.256 62.1054 602.57 63.4257C602.266 64.0351 603.205 64.5937 603.51 63.9843C603.967 63.0956 604.627 62.3339 605.49 61.8261C606.176 61.4199 607.293 60.9374 608.055 61.3691C607.877 61.3945 607.699 61.4452 607.522 61.496C607.141 61.5468 606.76 61.6992 606.43 61.9785L606.404 62.0038C605.77 62.4101 605.287 63.121 605.135 63.9081C605.084 64.162 605.084 64.416 605.084 64.6699C605.008 65.2285 605.008 65.787 605.109 66.2949C605.236 66.9804 605.516 67.6152 605.947 68.1484C606.379 68.707 607.065 69.291 607.801 69.3163C608.639 69.3163 609.274 68.58 609.705 67.9706C610.137 67.3359 610.416 66.5995 610.518 65.8632C610.568 65.4824 610.568 65.0761 610.543 64.6952C610.518 64.5937 610.518 64.5429 610.518 64.5175Z" fill="black"/>
<path d="M628.469 89.5527C626.615 89.8066 623.975 90.2129 622.604 88.5879C621.131 86.8867 621.69 83.916 621.816 81.8594C622.121 76.3242 622.426 70.7637 622.731 65.2285C622.807 63.832 620.649 63.832 620.572 65.2285C620.217 71.6523 619.684 78.1016 619.531 84.5508C619.481 86.8105 619.811 89.248 621.715 90.7207C623.645 92.1934 626.209 92.041 628.494 91.7363C629.815 91.5332 629.84 89.375 628.469 89.5527Z" fill="black"/>
<path d="M730.59 84.5761C728.406 84.5761 726.984 83.0273 727.035 80.4374C727.264 78.6855 727.975 76.832 729.396 75.3085C729.625 75.08 729.853 74.7499 730.234 74.8261C730.691 74.9023 730.564 75.3593 730.59 75.664C730.717 78.3554 731.021 81.0214 731.453 83.662C731.58 84.4238 731.225 84.5761 730.59 84.5761Z" fill="#B3B3B3"/>
<path d="M798.916 89.8321C796.478 99.8106 792.086 108.697 783.098 114.537C773.322 120.885 761.059 121.469 749.963 112.43C741.076 105.193 736.125 95.6211 733.941 84.5508C732.672 78.127 732.139 71.627 732.443 65.0762C732.469 64.3399 732.697 63.8828 733.23 63.375C734.906 61.6992 736.709 60.2012 738.867 59.1856C739.477 58.9063 739.654 58.4746 739.705 57.8399C739.934 54.9199 740.467 52.0254 741.33 49.2324C741.533 48.5977 741.711 47.9375 742.016 47.3281C742.32 46.668 742.498 45.5 743.412 45.8809C744.174 46.1856 743.564 47.1504 743.311 47.7852C742.041 51.0098 741.355 54.3867 740.771 58.0176C743.006 57.0528 745.088 56.1387 747.17 55.2246C747.678 54.9961 747.602 54.5391 747.602 54.1074C747.551 50.8321 748.287 47.6328 748.846 44.4082C748.896 44.1289 748.998 43.8496 749.074 43.5703C749.227 43.1133 749.404 42.4785 749.912 42.5293C750.572 42.5801 750.521 43.291 750.547 43.7989C750.623 46.5664 749.861 49.2071 749.582 51.9239C749.506 52.6856 749.379 53.4473 749.277 54.3867C751.105 54.0059 752.807 53.6758 754.508 53.2696C755.752 52.9649 757.478 53.3965 758.113 52.3809C758.697 51.4922 758.291 49.9688 758.291 48.7246C758.316 46.7188 758.291 44.6875 758.316 42.6817C758.316 42.25 758.342 41.8184 758.443 41.3867C758.57 40.8535 758.646 40.1172 759.434 40.2188C760.094 40.2949 760.145 40.9297 760.145 41.4629C760.17 42.9864 760.17 44.5352 760.17 46.0586C760.17 47.836 760.17 49.6133 760.094 51.3906C760.068 52.1778 760.246 52.5586 761.109 52.4063C763.547 52 765.984 51.9746 768.422 52.0254C769.158 52.0508 769.361 51.7461 769.234 51.086C768.676 48.166 768.853 45.1446 767.914 42.2754C767.889 42.1739 767.863 42.0977 767.863 41.9961C767.863 41.3106 767.355 40.3711 768.27 40.0918C769.285 39.7617 769.488 40.7774 769.768 41.4629C770.961 44.3828 771.012 47.4551 771.062 50.5274C771.088 51.7207 771.393 52.1524 772.662 52.2285C774.643 52.3555 776.623 52.8125 778.654 53.1172C778.273 50.0196 777.74 47.0742 776.547 44.2813C776.369 43.8496 776.217 43.3926 776.064 42.9356C775.937 42.5039 775.912 42.0469 776.395 41.793C776.852 41.5645 777.258 41.7676 777.537 42.1231C777.893 42.5801 778.223 43.0625 778.451 43.5703C779.695 46.4141 780.33 49.4102 780.533 52.4824C780.559 52.9903 780.406 53.5489 781.143 53.7266C784.342 54.5645 787.465 55.6563 790.461 57.0274C790.791 56.4942 790.512 56.1133 790.41 55.7071C789.598 52.8125 788.201 50.1973 786.652 47.6582C786.398 47.252 786.17 46.8457 785.967 46.3887C785.764 45.9063 785.764 45.4239 786.271 45.1192C786.728 44.8145 787.109 45.0938 787.439 45.3985C787.693 45.6016 787.947 45.8555 788.125 46.1348C790.41 49.5625 792.314 53.1426 792.873 57.2813C793 58.1192 793.254 58.6524 794.016 59.084C796.174 60.3535 798.154 61.8516 799.881 63.6797C800.338 64.1621 800.668 64.5938 800.643 65.2793C800.363 73.5059 800.871 81.7832 798.916 89.8321Z" fill="#B3B3B3"/>
<path d="M807.32 78.2539C807.193 78.8124 806.812 79.1679 806.33 79.4218C805.34 79.9804 804.273 80.3867 803.131 80.5644C803.131 78.5331 803.08 76.5273 803.156 74.5468C803.207 73.5312 804.832 72.9726 805.67 73.582C806.838 74.4706 807.676 76.8574 807.32 78.2539Z" fill="#B3B3B3"/>
<path d="M817.146 108.647C808.412 98.1856 816.588 81.9102 817.476 70.1544C818.873 51.543 811.205 32.3223 796.834 20.2872C791.705 15.9962 786.094 13.1016 779.518 12.1114C774.947 11.4259 770.301 11.8067 765.705 11.6798C762.836 11.6036 759.967 11.5528 757.123 11.629C747.221 11.9337 737.445 14.3458 730.158 21.379C716.143 34.8868 713.807 55.5294 715.635 73.963C716.853 86.2774 719.342 98.338 719.824 110.703C719.9 112.531 720.535 113.039 722.287 112.633C723.226 112.404 724.166 112.328 725.131 112.303C730.971 112.15 736.963 112.455 742.447 110.018C743.107 109.713 743.412 110.043 743.768 110.449C745.545 112.404 747.551 114.131 749.684 115.705C757.072 121.164 765.248 123.348 774.287 121.266C782.031 119.488 788.379 115.35 793.228 109.002C793.584 108.545 793.711 107.758 794.726 108.342C797.139 109.738 799.83 110.602 802.547 111.186C807.168 112.201 811.84 111.287 816.486 111.211C817.832 111.16 818.162 109.84 817.146 108.647ZM730.59 84.5763C728.406 84.5763 726.984 83.0274 727.035 80.4376C727.264 78.6856 727.975 76.8321 729.396 75.3087C729.625 75.0802 729.853 74.7501 730.234 74.8263C730.691 74.9024 730.564 75.3595 730.59 75.6641C730.717 78.3556 731.021 81.0216 731.453 83.6622C731.58 84.4239 731.225 84.5763 730.59 84.5763ZM798.916 89.8321C796.478 99.8106 792.086 108.697 783.098 114.537C773.322 120.885 761.059 121.469 749.963 112.43C741.076 105.193 736.125 95.6212 733.941 84.5509C732.672 78.127 732.139 71.627 732.443 65.0763C732.469 64.3399 732.697 63.8829 733.23 63.3751C734.906 61.6993 736.709 60.2013 738.867 59.1856C739.476 58.9063 739.654 58.4747 739.705 57.8399C739.934 54.92 740.467 52.0255 741.33 49.2325C741.533 48.5977 741.711 47.9376 742.016 47.3282C742.32 46.6681 742.498 45.5001 743.412 45.8809C744.174 46.1856 743.564 47.1505 743.31 47.7852C742.041 51.0098 741.355 54.3868 740.771 58.0177C743.006 57.0528 745.088 56.1388 747.17 55.2247C747.678 54.9962 747.601 54.5391 747.601 54.1075C747.551 50.8321 748.287 47.6329 748.846 44.4083C748.896 44.129 748.998 43.8497 749.074 43.5704C749.226 43.1134 749.404 42.4786 749.912 42.5294C750.572 42.5802 750.521 43.2911 750.547 43.7989C750.623 46.5665 749.861 49.2071 749.582 51.9239C749.506 52.6856 749.379 53.4473 749.277 54.3868C751.105 54.0059 752.807 53.6759 754.508 53.2696C755.752 52.9649 757.478 53.3966 758.113 52.3809C758.697 51.4923 758.291 49.9688 758.291 48.7247C758.316 46.7188 758.291 44.6876 758.316 42.6817C758.316 42.2501 758.342 41.8184 758.443 41.3868C758.57 40.8536 758.646 40.1173 759.434 40.2188C760.094 40.295 760.144 40.9298 760.144 41.463C760.17 42.9864 760.17 44.5352 760.17 46.0587C760.17 47.836 760.17 49.6134 760.094 51.3907C760.068 52.1778 760.246 52.5587 761.109 52.4063C763.547 52.0001 765.984 51.9747 768.422 52.0255C769.158 52.0509 769.361 51.7462 769.234 51.086C768.676 48.1661 768.853 45.1446 767.914 42.2755C767.889 42.1739 767.863 42.0977 767.863 41.9962C767.863 41.3106 767.355 40.3712 768.269 40.0919C769.285 39.7618 769.488 40.7774 769.768 41.463C770.961 44.3829 771.012 47.4552 771.062 50.5274C771.088 51.7208 771.393 52.1524 772.662 52.2286C774.643 52.3556 776.623 52.8126 778.654 53.1173C778.273 50.0196 777.74 47.0743 776.547 44.2813C776.369 43.8497 776.217 43.3927 776.064 42.9356C775.937 42.504 775.912 42.047 776.394 41.7931C776.851 41.5645 777.258 41.7677 777.537 42.1231C777.893 42.5802 778.223 43.0626 778.451 43.5704C779.695 46.4141 780.33 49.4102 780.533 52.4825C780.559 52.9903 780.406 53.5489 781.143 53.7266C784.342 54.5645 787.465 55.6563 790.461 57.0274C790.791 56.4942 790.512 56.1134 790.41 55.7071C789.598 52.8126 788.201 50.1973 786.652 47.6583C786.398 47.252 786.17 46.8458 785.967 46.3888C785.764 45.9063 785.764 45.4239 786.271 45.1192C786.728 44.8145 787.109 45.0938 787.439 45.3985C787.693 45.6016 787.947 45.8556 788.125 46.1348C790.41 49.5626 792.314 53.1427 792.873 57.2813C793 58.1192 793.254 58.6524 794.016 59.0841C796.174 60.3536 798.154 61.8516 799.881 63.6798C800.338 64.1622 800.668 64.5938 800.643 65.2794C800.363 73.5059 800.871 81.7833 798.916 89.8321ZM780.432 37.4766C765.73 32.4493 751.816 34.4552 740.111 45.7032C736.201 49.461 732.824 53.6251 730.996 58.8302C730.285 60.836 729.396 62.8673 730.742 65.0255C730.996 65.4571 730.666 66.2188 730.641 66.8536C730.564 68.4278 730.488 70.0274 730.387 71.6016C730.361 72.0079 730.564 72.6173 729.98 72.6681C729.295 72.7188 729.346 72.0333 729.346 71.6016C729.295 70.2052 729.371 68.8341 729.346 67.4376C729.244 62.9181 729.016 58.4239 730.031 53.9552C731.275 48.5216 733.738 43.6466 737.141 39.3048C740.06 35.5977 743.514 32.4239 747.5 29.8087C754.889 24.9845 762.912 23.7149 771.469 25.1114C782.057 26.838 790.943 31.6368 797.393 40.2696C803.334 48.1915 805.746 57.2306 804.451 67.1329C804.4 67.5138 804.299 67.8946 804.197 68.2501C803.994 68.8848 803.74 69.4942 803.512 70.1036C803.156 68.3009 803.08 66.5489 803.613 64.8477C803.791 64.2638 803.816 63.7052 803.588 63.1466C798.992 51.797 792.492 41.5899 780.432 37.4766ZM807.32 78.254C807.193 78.8126 806.812 79.168 806.33 79.422C805.34 79.9805 804.273 80.3868 803.131 80.5645C803.131 78.5333 803.08 76.5274 803.156 74.547C803.207 73.5313 804.832 72.9727 805.67 73.5821C806.838 74.4708 807.676 76.8575 807.32 78.254Z" fill="black"/>
<path d="M783.885 58.4746C782.412 58.5762 780.914 59.0332 779.721 60.1504C779.238 60.6074 778.832 61.1152 779.264 61.7754C779.721 62.4609 780.33 62.2324 780.914 61.9023C781.117 61.7754 781.32 61.6484 781.523 61.5215C783.504 60.3789 784.926 60.582 786.525 62.2324C787.033 62.7402 787.49 63.2988 788.023 63.7812C788.455 64.1621 788.988 64.543 789.547 64.1113C790.029 63.7305 789.877 63.1465 789.724 62.6387C789.09 60.5312 786.297 58.5 783.885 58.4746Z" fill="black"/>
<path d="M752.705 61.7246C752.781 60.582 751.588 60.3535 750.623 60.1758C750.521 60.1504 750.42 60.1504 750.344 60.1504C747.525 60.3281 745.139 61.3438 743.361 63.6035C743.082 63.959 742.879 64.4414 742.726 64.873C742.574 65.3047 742.701 65.7363 743.133 65.9902C743.514 66.1934 743.894 66.0664 744.199 65.8125C744.504 65.5332 744.783 65.1777 745.088 64.873C746.586 63.2988 748.439 62.5371 750.598 62.5117C751.385 62.4355 752.603 62.918 752.705 61.7246Z" fill="black"/>
<path d="M780.305 102.984C779.746 102.68 779.187 102.959 778.933 103.441C778.121 105.066 776.75 105.625 775.049 105.676C774.566 105.676 774.236 105.981 774.185 106.488C774.109 107.047 774.414 107.402 774.947 107.555C775.303 107.656 775.683 107.707 775.836 107.732C778.375 107.707 780.305 106.438 780.812 104.635C780.99 103.975 780.99 103.34 780.305 102.984Z" fill="black"/>
<path d="M783.123 66.6249C781.549 66.3964 779.924 68.9862 779.848 71.7538C779.797 73.3788 780.305 74.9784 782.183 74.8007C785.078 74.5722 784.824 71.9823 785.256 70.0019C785.205 68.453 785.027 66.9042 783.123 66.6249Z" fill="black"/>
<path d="M751.131 67.209C749.557 67.4121 748.668 70.3066 749.303 72.998C749.683 74.5722 750.572 75.9941 752.35 75.3593C755.066 74.3691 754.152 71.957 754.076 69.9511C753.594 68.4277 753.035 66.9804 751.131 67.209Z" fill="black"/>
<path d="M768.599 92.7012C767.432 93.082 765.426 93.7676 764.791 92.2441C764.512 91.5586 764.512 90.7715 764.486 90.0352C764.461 88.9941 764.435 87.9785 764.435 86.9375C764.435 83.002 764.689 79.0664 765.197 75.1563C765.375 73.8105 763.242 73.8105 763.09 75.1563C762.506 79.9043 762.252 84.7031 762.379 89.4766C762.43 91.2539 762.43 93.3105 763.953 94.5039C765.476 95.6973 767.508 95.2656 769.183 94.707C770.453 94.3262 769.894 92.2949 768.599 92.7012Z" fill="black"/>
<path d="M865.084 82.9258C864.855 82.9004 864.627 82.9258 864.398 82.9258C860.336 82.875 859.396 81.2754 861.377 77.7461C862.037 76.5781 862.875 75.6387 864.297 75.3594C865.084 75.207 865.49 75.4101 865.592 76.2988C865.769 78 865.998 79.7012 866.328 81.3769C866.582 82.5195 866.277 83.0273 865.084 82.9258Z" fill="#E6E6E6"/>
<path d="M941.51 70.2306C941.307 73.9376 941.23 77.6446 940.9 81.3516C940.494 85.8712 939.783 90.3907 938.488 94.7579C938.006 96.3575 937.473 97.8809 936.863 99.3282C936.686 99.2266 936.508 99.0997 936.305 99.0235C935.695 98.7188 935.162 99.6329 935.771 99.9376C936 100.065 936.203 100.191 936.432 100.318C936.127 100.979 935.822 101.639 935.492 102.274C935.213 102.121 934.908 101.994 934.629 101.842C934.045 101.512 933.512 102.426 934.096 102.756C934.4 102.934 934.705 103.061 935.01 103.213C934.477 104.203 933.893 105.143 933.283 106.057C933.055 105.93 932.826 105.828 932.598 105.701C932.344 105.574 932.014 105.65 931.887 105.879C931.734 106.108 931.836 106.463 932.064 106.59C932.268 106.691 932.471 106.818 932.674 106.92C931.734 108.24 930.744 109.484 929.652 110.678C929.576 110.576 929.475 110.5 929.373 110.399C929.195 110.195 928.814 110.195 928.637 110.399C928.434 110.627 928.434 110.932 928.637 111.135C928.713 111.236 928.814 111.338 928.916 111.414C927.875 112.481 926.758 113.471 925.59 114.41C925.234 113.801 924.93 113.141 924.676 112.481C924.574 112.201 924.32 112.024 924.016 112.1C923.762 112.176 923.559 112.481 923.635 112.76C923.939 113.572 924.32 114.334 924.727 115.07C923.508 115.984 922.213 116.822 920.867 117.609C920.842 117.508 920.816 117.381 920.791 117.279C920.766 117.152 920.664 117.025 920.537 116.975C920.436 116.899 920.258 116.873 920.131 116.924C919.826 117.025 919.699 117.279 919.75 117.584C919.775 117.787 919.826 117.965 919.902 118.168C918.658 118.854 917.363 119.463 916.018 120.047C915.916 119.666 915.84 119.311 915.713 118.955C915.51 118.32 914.494 118.574 914.697 119.234C914.824 119.641 914.926 120.047 915.027 120.453C914.773 120.555 914.545 120.656 914.266 120.758C913.479 121.063 912.691 121.266 911.879 121.418C911.955 120.758 912.031 120.072 912.057 119.412C912.082 118.727 911.041 118.727 910.99 119.412C910.965 120.149 910.889 120.91 910.787 121.647C909.67 121.799 908.527 121.875 907.385 121.875C907.055 121.85 906.725 121.799 906.395 121.748C906.623 120.961 906.826 120.174 907.055 119.387C907.131 119.133 906.953 118.803 906.674 118.727C906.395 118.65 906.115 118.803 906.014 119.108C905.785 119.945 905.557 120.783 905.303 121.621C903.602 121.367 901.926 121.063 900.301 120.656C900.377 120.428 900.428 120.199 900.504 119.971C900.529 119.895 900.58 119.793 900.605 119.717C900.555 119.844 900.631 119.691 900.631 119.666C900.656 119.641 900.656 119.59 900.682 119.565C900.758 119.387 900.859 119.209 900.961 119.031C901.088 118.777 901.037 118.447 900.783 118.32C900.529 118.193 900.199 118.244 900.072 118.498C899.742 119.108 899.488 119.742 899.311 120.402C897.635 119.945 896.01 119.412 894.436 118.777C894.689 118.32 894.893 117.838 895.096 117.356C895.197 117.102 894.969 116.772 894.715 116.695C894.41 116.619 894.182 116.797 894.055 117.076C893.877 117.508 893.674 117.94 893.445 118.346C892.303 117.838 891.186 117.279 890.119 116.67C890.195 116.441 890.271 116.238 890.348 116.01C890.424 115.756 890.246 115.426 889.967 115.35C889.687 115.274 889.408 115.426 889.307 115.731C889.256 115.858 889.205 116.01 889.154 116.137C888.113 115.502 887.098 114.791 886.107 114.029C886.234 113.75 886.336 113.445 886.437 113.141C886.514 112.887 886.336 112.557 886.057 112.481C885.777 112.404 885.498 112.557 885.396 112.861C885.346 113.014 885.295 113.191 885.244 113.344C884.229 112.506 883.238 111.592 882.324 110.602L882.35 110.576C882.502 110.348 882.4 109.992 882.172 109.865C881.994 109.764 881.816 109.789 881.664 109.865C880.826 108.9 879.988 107.91 879.227 106.818C879.252 106.768 879.277 106.742 879.303 106.691C879.455 106.463 879.354 106.108 879.125 105.981C878.973 105.904 878.795 105.904 878.643 105.981C878.465 105.701 878.262 105.447 878.084 105.168C877.602 104.432 877.145 103.67 876.713 102.908C876.891 102.604 877.068 102.274 877.297 101.969C877.449 101.74 877.348 101.385 877.119 101.258C876.865 101.106 876.561 101.207 876.408 101.436C876.307 101.588 876.23 101.715 876.154 101.867C875.646 100.979 875.164 100.065 874.707 99.1505C874.783 99.0997 874.885 99.0235 874.961 98.9727C875.189 98.8204 875.316 98.4903 875.139 98.2618C874.986 98.0333 874.656 97.9063 874.428 98.0841C874.352 98.1348 874.301 98.1856 874.225 98.2364C873.564 96.8907 872.955 95.5196 872.396 94.1231C872.473 94.0977 872.574 94.0723 872.65 94.047C872.904 93.9708 873.107 93.6661 873.031 93.3868C872.955 93.1075 872.676 92.9298 872.371 93.0059C872.244 93.0313 872.117 93.0821 872.016 93.1075C869.756 87.2423 868.334 81.0977 867.699 74.6739C867.598 73.5313 867.521 72.3634 867.344 71.2208C867.191 70.3067 867.572 70.0528 868.385 70.0528C871.66 70.0528 874.834 70.6368 877.932 71.6524C878.617 71.8809 878.668 72.2872 878.668 72.922C878.77 80.8692 885.65 86.4044 893.369 84.7794C895.324 84.3731 896.873 83.3829 898.143 81.8595C900.148 79.4473 901.139 76.6544 901.443 73.5821C901.646 71.5255 903.068 70.2559 905.15 70.3321C907.182 70.4083 910.152 72.8966 910.584 74.877C911.727 80.1837 916.855 84.6016 922.695 85.3126C930.236 86.2266 934.121 83.1544 934.934 75.6134C935.213 73.0997 938.184 69.9005 940.697 69.3927C941.662 69.1641 941.535 69.7481 941.51 70.2306Z" fill="#E6E6E6"/>
<path d="M940.977 67.3106C938.59 67.8692 936.711 69.2657 934.934 71.0176C932.014 65.3301 927.342 62.461 921.299 63.0704C916.602 63.5528 912.539 65.9141 910.33 70.6368C910 70.6875 909.822 70.2813 909.568 70.0528C907.283 68.1231 904.846 67.7676 902.23 69.1641C901.418 69.5957 901.215 69.418 900.859 68.6563C898.625 63.9082 895.019 62.0801 889.764 62.9688C888.85 63.1211 887.91 63.0957 886.996 63.2735C883.619 63.9082 881.182 65.8125 879.734 68.9356C879.353 69.7227 879.049 69.875 878.186 69.5704C875.088 68.4024 871.838 67.793 868.512 67.92C867.42 67.9707 867.166 67.6407 867.217 66.625C867.293 64.67 867.394 62.7149 867.268 60.7852C867.064 57.9668 868.816 55.7832 869.502 53.2696C869.629 52.8125 869.959 52.9141 870.264 53.0411C873.818 54.5391 876.256 52.8379 878.287 50.1973C878.947 49.334 879.277 49.1563 880.293 49.8164C883.721 52.0508 887.352 52.0254 891.059 50.4766C891.566 50.2481 891.973 49.9688 892.48 50.6036C895.35 54.1075 899.234 53.8028 902.357 51.8985C903.525 51.1875 904.312 51.1114 905.506 51.8985C909.111 54.209 912.615 53.9805 915.916 51.3399C916.373 50.9844 916.652 50.9844 917.109 51.2637C919.445 52.711 921.781 52.6348 923.99 51.0352C924.676 50.5274 925.082 50.6797 925.666 51.1368C927.672 52.711 929.855 53.5489 932.369 52.3555C933.156 51.9747 933.232 52.6348 933.436 53.0157C934.273 54.5899 935.289 56.0372 936.812 57.002C937.269 57.2813 937.803 57.5352 938.311 57.7129C940.596 58.4747 941.434 59.6426 941.51 62.1055C941.535 63.4512 941.611 64.7969 941.662 66.1426C941.687 66.6758 941.637 67.1582 940.977 67.3106Z" fill="#E6E6E6"/>
<path d="M949.584 74.9023C950.371 75.6133 950.32 76.4512 949.762 77.2637C948.365 79.3457 946.562 80.8184 944.15 81.0469C944.15 78.8887 944.15 76.7051 944.15 74.5469C944.15 73.8105 944.658 73.6074 945.242 73.5312C946.893 73.2773 948.34 73.7851 949.584 74.9023Z" fill="#E6E6E6"/>
<path d="M923.813 56.4435C922.238 56.4688 921.096 57.2306 920.08 58.3224C919.674 58.7794 919.445 59.3126 919.902 59.8204C920.385 60.4044 920.969 60.2267 921.502 59.8458C921.654 59.7442 921.807 59.6173 921.934 59.4903C923.076 58.4747 924.346 58.4493 925.691 59.0841C926.809 59.6173 927.723 60.379 928.484 61.3185C928.992 61.9278 929.475 62.5626 930.211 62.9181C931.049 63.2989 931.633 62.9181 931.608 61.9278C931.557 61.7501 931.481 61.4962 931.379 61.2423C930.16 58.4239 926.885 56.3673 923.813 56.4435Z" fill="black"/>
<path d="M909.721 102.477C907.842 102.553 905.963 103.111 904.059 102.553C903.627 102.426 903.221 102.654 903.018 103.061C902.764 103.568 902.992 103.975 903.373 104.279C904.186 104.914 905.15 105.016 906.42 105.016C907.461 104.838 908.832 104.94 910.102 104.457C910.736 104.229 911.346 103.822 911.193 103.035C911.041 102.248 910.279 102.451 909.721 102.477Z" fill="black"/>
<path d="M955.398 55.5038C956.389 53.3456 955.957 51.3398 954.053 50.0956C953.139 49.4863 953.215 49.1054 953.672 48.2675C955.729 44.4843 953.773 40.0156 949.584 38.9491C948.67 38.7206 948.518 38.5175 948.949 37.6288C950.701 33.9726 949.99 30.6972 946.994 27.955C944.887 26.0253 942.373 25.2636 939.58 25.3652C938.666 25.3906 938.26 25.2128 938.26 24.1718C938.234 22.1913 937.27 20.6171 935.67 19.4745C932.471 17.1386 929.043 17.0878 925.514 18.6366C924.676 19.0175 924.27 19.0937 924.117 17.9765C923.813 15.9706 922.568 14.6757 920.563 14.3964C916.83 13.8632 913.123 14.0663 909.772 16.0214C908.857 16.5546 908.4 16.707 907.537 15.7421C903.678 11.3495 896.898 11.1718 892.861 15.3105C892.404 15.7675 892.15 16.0468 891.566 15.412C890.729 14.498 889.561 14.1171 888.367 13.8886C882.73 12.8222 877.906 14.3456 873.92 18.4589C873.488 18.9159 873.057 19.3222 872.371 19.5253C866.607 21.3281 862.266 24.8574 859.625 30.3417C858.99 31.662 858.686 33.0839 859.143 34.5312C859.346 35.2167 859.092 35.5214 858.686 35.9277C855.588 38.9491 855.131 46.1601 857.873 49.5116C858.406 50.1718 858.432 50.5527 858.025 51.289C855.613 55.7577 856.984 62.3085 860.971 64.9491C861.91 65.5585 862.037 66.1679 861.809 67.1073C861.352 69.0624 861.352 70.9921 862.24 72.8202C862.545 73.4296 862.291 73.6835 861.809 74.039C859.473 75.664 858.355 77.9999 858.127 80.7675C857.949 82.7734 858.813 83.9921 860.717 84.7031C862.367 85.3124 864.068 85.4648 865.795 85.2363C866.709 85.1093 867.115 85.3886 867.293 86.3027C868.258 90.9999 870.01 95.3925 872.143 99.6327C871.965 99.8105 871.889 100.064 872.016 100.293C872.143 100.471 872.371 100.598 872.6 100.547C873.133 101.588 873.691 102.629 874.25 103.67C874.402 103.949 874.555 104.178 874.732 104.457C874.605 104.736 874.453 105.016 874.326 105.295C874.225 105.549 874.453 105.879 874.707 105.955C875.012 106.031 875.24 105.853 875.367 105.574C875.367 105.549 875.393 105.549 875.393 105.523C875.85 106.285 876.332 107.021 876.84 107.732C876.662 107.834 876.484 107.961 876.307 108.037C876.053 108.164 875.977 108.519 876.129 108.748C876.281 109.002 876.586 109.078 876.84 108.926C877.043 108.824 877.246 108.697 877.449 108.57C878.262 109.687 879.1 110.754 879.988 111.744C879.861 111.871 879.734 112.023 879.582 112.15C879.379 112.328 879.379 112.709 879.582 112.887C879.811 113.09 880.115 113.09 880.318 112.887C880.445 112.76 880.572 112.633 880.699 112.506C881.715 113.598 882.807 114.588 883.949 115.553C883.822 115.705 883.645 115.832 883.518 115.984C883.492 116.01 883.441 116.035 883.416 116.035C883.416 116.035 883.416 116.035 883.391 116.035C883.391 116.035 883.391 116.035 883.365 116.035C883.264 115.908 883.137 115.807 882.959 115.832C882.705 115.832 882.4 116.06 882.426 116.365C882.477 116.695 882.629 116.975 882.959 117.076C883.188 117.152 883.441 117.127 883.67 117.051C884.102 116.898 884.432 116.568 884.711 116.213C885.727 117 886.768 117.762 887.885 118.473C887.732 118.701 887.834 119.057 888.088 119.184C888.367 119.336 888.647 119.234 888.799 119.006C889.764 119.564 890.754 120.098 891.77 120.605C891.516 120.885 891.262 121.164 890.982 121.418C890.475 121.875 891.236 122.637 891.719 122.154C892.1 121.799 892.43 121.443 892.76 121.062C893.191 121.266 893.598 121.469 894.055 121.646C899.539 123.881 904.897 124.947 910.152 124.439C910.102 125.023 911.016 125.226 911.168 124.617C911.193 124.516 911.219 124.414 911.244 124.312C912.641 124.109 914.012 123.83 915.357 123.398C915.383 123.906 915.383 124.439 915.357 124.973C915.332 125.658 916.373 125.658 916.424 124.973C916.449 124.338 916.424 123.703 916.398 123.068C918.607 122.281 920.816 121.189 922.975 119.717C924.092 118.955 925.158 118.193 926.199 117.381C926.377 117.609 926.555 117.838 926.758 118.041C927.215 118.549 927.977 117.787 927.494 117.305C927.316 117.127 927.164 116.924 927.012 116.746C928.357 115.654 929.602 114.537 930.795 113.344C930.871 113.369 930.922 113.394 931.023 113.394C931.15 113.394 931.303 113.344 931.404 113.242C931.557 113.09 931.607 112.81 931.506 112.633C932.801 111.262 934.02 109.84 935.111 108.342C935.34 108.469 935.568 108.57 935.772 108.697C936.025 108.824 936.355 108.748 936.482 108.519C936.635 108.291 936.533 107.935 936.305 107.809C936.102 107.707 935.898 107.605 935.695 107.478C936.381 106.488 937.016 105.473 937.6 104.432C937.828 104.508 938.057 104.609 938.311 104.685C938.971 104.889 939.225 103.873 938.59 103.67C938.438 103.619 938.285 103.543 938.107 103.492C938.336 103.06 938.539 102.603 938.768 102.172C939.225 102.578 939.682 103.01 940.088 103.467C940.266 103.67 940.647 103.67 940.824 103.467C941.027 103.264 941.027 102.934 940.824 102.73C940.316 102.172 939.783 101.664 939.225 101.182C940.291 98.7441 941.129 96.1288 941.713 93.3613C942.449 89.832 943.059 86.3027 943.541 82.5702C945.547 83.9921 947.248 83.2558 948.873 82.1132C949.914 81.3769 950.727 80.4374 951.463 79.3964C953.494 76.5019 952.961 73.7851 949.787 72.2616C948.391 71.6015 947.553 70.7636 946.969 69.3671C946.664 68.6308 946.816 68.4277 947.426 68.123C948.645 67.539 949.762 66.8027 950.676 65.7616C951.844 64.4159 952.301 62.9179 951.387 61.2929C951.031 60.6327 951.387 60.4042 951.742 60.0234C953.215 58.6015 954.586 57.2812 955.398 55.5038ZM865.084 82.9257C864.855 82.9003 864.627 82.9257 864.398 82.9257C860.336 82.8749 859.397 81.2753 861.377 77.746C862.037 76.5781 862.875 75.6386 864.297 75.3593C865.084 75.207 865.49 75.4101 865.592 76.2988C865.77 77.9999 865.998 79.7011 866.328 81.3769C866.582 82.5195 866.277 83.0273 865.084 82.9257ZM941.51 70.2304C941.307 73.9374 941.23 77.6445 940.9 81.3515C940.494 85.871 939.783 90.3906 938.488 94.7577C938.006 96.3574 937.473 97.8808 936.863 99.3281C936.686 99.2265 936.508 99.0995 936.305 99.0234C935.695 98.7187 935.162 99.6327 935.772 99.9374C936 100.064 936.203 100.191 936.432 100.318C936.127 100.978 935.822 101.639 935.492 102.273C935.213 102.121 934.908 101.994 934.629 101.842C934.045 101.512 933.512 102.426 934.096 102.756C934.4 102.934 934.705 103.06 935.01 103.213C934.477 104.203 933.893 105.143 933.283 106.057C933.055 105.93 932.826 105.828 932.598 105.701C932.344 105.574 932.014 105.65 931.887 105.879C931.734 106.107 931.836 106.463 932.064 106.59C932.268 106.691 932.471 106.818 932.674 106.92C931.734 108.24 930.744 109.484 929.652 110.678C929.576 110.576 929.475 110.5 929.373 110.398C929.195 110.195 928.814 110.195 928.637 110.398C928.434 110.627 928.434 110.932 928.637 111.135C928.713 111.236 928.814 111.338 928.916 111.414C927.875 112.48 926.758 113.471 925.59 114.41C925.234 113.801 924.93 113.141 924.676 112.48C924.574 112.201 924.32 112.023 924.016 112.1C923.762 112.176 923.559 112.48 923.635 112.76C923.939 113.572 924.32 114.334 924.727 115.07C923.508 115.984 922.213 116.822 920.867 117.609C920.842 117.508 920.816 117.381 920.791 117.279C920.766 117.152 920.664 117.025 920.537 116.975C920.436 116.898 920.258 116.873 920.131 116.924C919.826 117.025 919.699 117.279 919.75 117.584C919.775 117.787 919.826 117.965 919.902 118.168C918.658 118.853 917.363 119.463 916.018 120.047C915.916 119.666 915.84 119.31 915.713 118.955C915.51 118.32 914.494 118.574 914.697 119.234C914.824 119.641 914.926 120.047 915.027 120.453C914.773 120.555 914.545 120.656 914.266 120.758C913.479 121.062 912.691 121.266 911.879 121.418C911.955 120.758 912.031 120.072 912.057 119.412C912.082 118.726 911.041 118.726 910.99 119.412C910.965 120.148 910.889 120.91 910.787 121.646C909.67 121.799 908.527 121.875 907.385 121.875C907.055 121.85 906.725 121.799 906.395 121.748C906.623 120.961 906.826 120.174 907.055 119.387C907.131 119.133 906.953 118.803 906.674 118.726C906.395 118.65 906.115 118.803 906.014 119.107C905.785 119.945 905.557 120.783 905.303 121.621C903.602 121.367 901.926 121.062 900.301 120.656C900.377 120.428 900.428 120.199 900.504 119.971C900.529 119.894 900.58 119.793 900.605 119.717C900.555 119.844 900.631 119.691 900.631 119.666C900.656 119.641 900.656 119.59 900.682 119.564C900.758 119.387 900.859 119.209 900.961 119.031C901.088 118.777 901.037 118.447 900.783 118.32C900.529 118.193 900.199 118.244 900.072 118.498C899.742 119.107 899.488 119.742 899.311 120.402C897.635 119.945 896.01 119.412 894.436 118.777C894.689 118.32 894.893 117.838 895.096 117.355C895.197 117.101 894.969 116.771 894.715 116.695C894.41 116.619 894.182 116.797 894.055 117.076C893.877 117.508 893.674 117.939 893.445 118.346C892.303 117.838 891.186 117.279 890.119 116.67C890.195 116.441 890.272 116.238 890.348 116.01C890.424 115.756 890.246 115.426 889.967 115.35C889.688 115.273 889.408 115.426 889.307 115.73C889.256 115.857 889.205 116.01 889.154 116.137C888.113 115.502 887.098 114.791 886.107 114.029C886.234 113.75 886.336 113.445 886.438 113.141C886.514 112.887 886.336 112.557 886.057 112.48C885.777 112.404 885.498 112.557 885.397 112.861C885.346 113.014 885.295 113.191 885.244 113.344C884.229 112.506 883.238 111.592 882.324 110.601L882.35 110.576C882.502 110.348 882.4 109.992 882.172 109.865C881.994 109.764 881.816 109.789 881.664 109.865C880.826 108.9 879.988 107.91 879.227 106.818C879.252 106.768 879.277 106.742 879.303 106.691C879.455 106.463 879.354 106.107 879.125 105.98C878.973 105.904 878.795 105.904 878.643 105.98C878.465 105.701 878.262 105.447 878.084 105.168C877.602 104.432 877.145 103.67 876.713 102.908C876.891 102.603 877.068 102.273 877.297 101.969C877.449 101.74 877.348 101.385 877.119 101.258C876.865 101.105 876.561 101.207 876.408 101.435C876.307 101.588 876.23 101.715 876.154 101.867C875.647 100.978 875.164 100.064 874.707 99.1503C874.783 99.0995 874.885 99.0234 874.961 98.9726C875.189 98.8202 875.316 98.4902 875.139 98.2616C874.986 98.0331 874.656 97.9062 874.428 98.0839C874.352 98.1347 874.301 98.1855 874.225 98.2363C873.564 96.8906 872.955 95.5195 872.397 94.123C872.473 94.0976 872.574 94.0722 872.65 94.0468C872.904 93.9706 873.107 93.6659 873.031 93.3866C872.955 93.1073 872.676 92.9296 872.371 93.0058C872.244 93.0312 872.117 93.082 872.016 93.1074C869.756 87.2421 868.334 81.0976 867.699 74.6738C867.598 73.5312 867.522 72.3632 867.344 71.2206C867.191 70.3066 867.572 70.0527 868.385 70.0527C871.66 70.0527 874.834 70.6367 877.932 71.6523C878.617 71.8808 878.668 72.287 878.668 72.9218C878.77 80.8691 885.65 86.4042 893.369 84.7792C895.324 84.373 896.873 83.3827 898.143 81.8593C900.148 79.4472 901.139 76.6542 901.443 73.582C901.647 71.5253 903.068 70.2558 905.15 70.332C907.182 70.4081 910.152 72.8964 910.584 74.8769C911.727 80.1835 916.855 84.6015 922.695 85.3124C930.236 86.2265 934.121 83.1542 934.934 75.6132C935.213 73.0995 938.184 69.9003 940.697 69.3925C941.662 69.164 941.535 69.748 941.51 70.2304ZM882.553 68.123C884.508 65.5839 887.301 65.1015 891.313 64.9238C893.395 64.6445 896.035 65.5077 897.914 68.1991C899.057 69.8241 899.564 71.5761 899.26 73.582C899.107 74.6484 898.93 75.6894 898.574 76.705C897.432 79.8788 895.705 82.5195 891.998 82.9257C887.986 83.3574 884.635 82.0117 882.324 78.6347C879.963 75.1054 880.115 71.2714 882.553 68.123ZM917.262 66.498C917.897 66.2441 918.557 66.0917 919.064 65.5331C919.547 64.9745 920.309 65.3808 920.715 65.2538C924.168 65.2031 927.164 66.0917 929.754 68.0722C933.588 71.0175 933.766 78.5077 930.109 81.6816C929.094 82.5702 927.875 83.0273 926.555 83.1288C921.502 83.5605 916.195 81.5292 913.606 76.5273C911.32 72.2109 912.717 68.3769 917.262 66.498ZM940.977 67.3105C938.59 67.8691 936.711 69.2656 934.934 71.0175C932.014 65.33 927.342 62.4609 921.299 63.0702C916.602 63.5527 912.539 65.914 910.33 70.6367C910 70.6874 909.822 70.2812 909.568 70.0527C907.283 68.123 904.846 67.7675 902.23 69.164C901.418 69.5956 901.215 69.4179 900.859 68.6562C898.625 63.9081 895.02 62.08 889.764 62.9687C888.85 63.121 887.91 63.0956 886.996 63.2734C883.619 63.9081 881.182 65.8124 879.734 68.9355C879.354 69.7226 879.049 69.8749 878.186 69.5702C875.088 68.4023 871.838 67.7929 868.512 67.9199C867.42 67.9706 867.166 67.6406 867.217 66.6249C867.293 64.6698 867.395 62.7148 867.268 60.7851C867.064 57.9667 868.816 55.7831 869.502 53.2695C869.629 52.8124 869.959 52.914 870.264 53.0409C873.818 54.539 876.256 52.8378 878.287 50.1972C878.947 49.3339 879.277 49.1562 880.293 49.8163C883.721 52.0507 887.352 52.0253 891.059 50.4765C891.566 50.248 891.973 49.9687 892.48 50.6034C895.35 54.1074 899.234 53.8027 902.357 51.8984C903.525 51.1874 904.313 51.1113 905.506 51.8984C909.111 54.2089 912.615 53.9804 915.916 51.3398C916.373 50.9843 916.652 50.9843 917.109 51.2636C919.445 52.7109 921.781 52.6347 923.99 51.0351C924.676 50.5273 925.082 50.6796 925.666 51.1366C927.672 52.7109 929.855 53.5488 932.369 52.3554C933.156 51.9745 933.232 52.6347 933.436 53.0156C934.273 54.5898 935.289 56.037 936.813 57.0019C937.27 57.2812 937.803 57.5351 938.311 57.7128C940.596 58.4745 941.434 59.6425 941.51 62.1054C941.535 63.4511 941.611 64.7968 941.662 66.1425C941.688 66.6757 941.637 67.1581 940.977 67.3105ZM949.584 74.9023C950.371 75.6132 950.32 76.4511 949.762 77.2636C948.365 79.3456 946.563 80.8183 944.15 81.0468C944.15 78.8886 944.15 76.705 944.15 74.5468C944.15 73.8105 944.658 73.6074 945.242 73.5312C946.893 73.2773 948.34 73.7851 949.584 74.9023Z" fill="black"/>
<path d="M891.744 57.7891C890.652 56.8242 889.332 56.4688 887.885 56.418C884.66 56.5703 882.426 58.3984 880.522 60.7852C880.192 61.1914 880.039 61.75 880.445 62.1816C880.877 62.6387 881.41 62.4355 881.842 62.1309C882.629 61.5723 883.391 60.9375 884.127 60.3281C886.082 58.7285 888.164 58.0684 890.5 59.5664C891.084 59.9219 891.668 59.9473 892.1 59.3379C892.506 58.7539 892.227 58.2207 891.744 57.7891Z" fill="black"/>
<path d="M889.738 71.5763C891.135 71.5509 890.932 70.1544 890.856 69.1896C890.779 68.3009 890.957 66.9044 889.611 66.9552C888.393 67.006 888.672 68.3009 888.57 69.2911C888.723 70.129 888.266 71.5763 889.738 71.5763Z" fill="black"/>
<path d="M923.787 70.8905C925.006 70.9159 924.879 69.621 925.006 68.7577C925.057 68.4022 925.031 68.0214 924.955 67.6659C924.828 67.0058 924.422 66.5741 923.711 66.6249C923.102 66.6757 922.721 67.0819 922.619 67.6913C922.568 67.996 922.568 68.3261 922.543 68.6054C922.594 69.5956 922.492 70.8651 923.787 70.8905Z" fill="black"/>
<path d="M937.092 97.6777C936.787 97.2969 936.483 96.9414 936.152 96.5605C936.076 96.459 935.899 96.4082 935.772 96.4082C935.645 96.4082 935.492 96.459 935.391 96.5605C935.289 96.6621 935.238 96.7891 935.238 96.9414C935.238 96.9922 935.238 97.043 935.264 97.0937C935.289 97.1953 935.34 97.2715 935.391 97.3223C935.695 97.7031 936 98.0586 936.33 98.4395C936.406 98.541 936.584 98.5918 936.711 98.5918C936.838 98.5918 936.99 98.541 937.092 98.4395C937.193 98.3379 937.244 98.2109 937.244 98.0586C937.244 98.0078 937.244 97.957 937.219 97.9062C937.219 97.8047 937.168 97.7285 937.092 97.6777Z" fill="black"/>
<path d="M929.805 101.994C929.729 101.867 929.627 101.791 929.5 101.74C929.373 101.715 929.195 101.715 929.094 101.791C928.865 101.943 928.738 102.273 928.916 102.502C929.297 103.061 929.652 103.619 930.033 104.152C930.109 104.279 930.211 104.356 930.338 104.406C930.465 104.432 930.643 104.432 930.744 104.356C930.973 104.203 931.1 103.873 930.922 103.645C930.567 103.111 930.186 102.553 929.805 101.994Z" fill="black"/>
<path d="M927.24 106.057C927.113 105.803 926.758 105.727 926.529 105.879C926.276 106.031 926.199 106.336 926.352 106.59L927.469 108.621C927.596 108.875 927.951 108.951 928.18 108.799C928.434 108.647 928.51 108.342 928.358 108.088L927.24 106.057Z" fill="black"/>
<path d="M924.752 110.246C924.676 110.145 924.625 110.043 924.574 109.941C924.549 109.865 924.524 109.789 924.498 109.688C924.473 109.561 924.371 109.434 924.244 109.383C924.143 109.307 923.965 109.281 923.838 109.332C923.711 109.383 923.584 109.459 923.533 109.586C923.457 109.713 923.457 109.84 923.483 109.992C923.533 110.221 923.61 110.424 923.737 110.627C923.838 110.83 923.99 111.008 924.168 111.16C924.27 111.262 924.397 111.313 924.549 111.313C924.676 111.313 924.828 111.262 924.93 111.16C925.031 111.059 925.082 110.932 925.082 110.779C925.082 110.652 925.031 110.5 924.93 110.398C924.854 110.373 924.803 110.297 924.752 110.246Z" fill="black"/>
<path d="M917.846 113.039C917.719 113.014 917.567 113.014 917.44 113.09C917.338 113.166 917.211 113.268 917.186 113.395C917.135 113.699 917.059 114.004 917.008 114.309C916.983 114.461 916.983 114.588 917.059 114.715C917.135 114.816 917.236 114.918 917.363 114.969C917.49 114.994 917.643 114.994 917.77 114.918C917.871 114.842 917.973 114.74 918.024 114.613C918.074 114.309 918.151 114.004 918.201 113.699C918.227 113.547 918.227 113.42 918.151 113.293C918.1 113.166 917.973 113.065 917.846 113.039Z" fill="black"/>
<path d="M882.045 104.508C881.994 104.457 881.943 104.432 881.867 104.406C881.817 104.381 881.74 104.355 881.664 104.355C881.613 104.355 881.563 104.355 881.512 104.381C881.41 104.406 881.334 104.457 881.283 104.508C881.258 104.533 881.233 104.584 881.207 104.609C881.156 104.686 881.131 104.787 881.131 104.863V105.371C881.131 105.447 881.131 105.523 881.182 105.574C881.207 105.65 881.233 105.701 881.283 105.752C881.334 105.803 881.385 105.828 881.461 105.854C881.512 105.879 881.588 105.904 881.664 105.904C881.715 105.904 881.766 105.904 881.817 105.879C881.918 105.854 881.994 105.803 882.045 105.752C882.07 105.727 882.096 105.676 882.121 105.65C882.172 105.574 882.197 105.473 882.197 105.396V104.889C882.197 104.813 882.197 104.736 882.147 104.686C882.121 104.609 882.096 104.559 882.045 104.508Z" fill="black"/>
<path d="M886.209 107.732C885.93 107.682 885.625 107.808 885.549 108.113C885.371 108.824 885.295 109.56 885.371 110.271C885.397 110.551 885.6 110.805 885.904 110.805C886.184 110.805 886.463 110.576 886.438 110.271C886.412 109.941 886.412 109.611 886.438 109.281C886.438 109.205 886.463 109.129 886.463 109.053V109.027C886.463 108.976 886.488 108.951 886.488 108.9C886.514 108.748 886.539 108.57 886.59 108.418C886.641 108.113 886.488 107.808 886.209 107.732Z" fill="black"/>
<path d="M890.779 110.982C890.729 110.703 890.399 110.525 890.119 110.601C889.84 110.703 889.688 110.957 889.738 111.262C889.865 111.769 889.967 112.277 890.094 112.785C890.145 113.064 890.475 113.242 890.754 113.166C891.033 113.064 891.186 112.81 891.135 112.506C891.008 111.998 890.881 111.49 890.779 110.982Z" fill="black"/>
<path d="M897.305 112.531C897.279 112.481 897.254 112.455 897.229 112.404C897.203 112.354 897.203 112.303 897.178 112.252C897.178 112.201 897.178 112.15 897.178 112.1C897.178 112.049 897.203 111.998 897.203 111.947C897.254 111.82 897.203 111.643 897.152 111.541C897.076 111.44 896.975 111.338 896.848 111.287C896.721 111.262 896.568 111.262 896.442 111.338C896.315 111.414 896.238 111.516 896.188 111.643C896.086 111.922 896.086 112.277 896.162 112.557C896.238 112.861 896.391 113.141 896.619 113.344C896.721 113.445 896.848 113.496 897 113.496C897.127 113.496 897.279 113.445 897.381 113.344C897.483 113.242 897.533 113.115 897.533 112.963C897.533 112.836 897.483 112.684 897.381 112.582C897.356 112.582 897.33 112.557 897.305 112.531Z" fill="black"/>
<path d="M903.652 114.283L903.145 113.775C903.094 113.725 903.043 113.699 902.967 113.674C902.916 113.648 902.84 113.623 902.764 113.623C902.688 113.623 902.611 113.623 902.561 113.674C902.484 113.699 902.434 113.725 902.383 113.775C902.358 113.801 902.332 113.852 902.307 113.877C902.256 113.953 902.231 114.055 902.231 114.131C902.231 114.182 902.231 114.232 902.256 114.283C902.281 114.385 902.332 114.461 902.383 114.512L902.891 115.02C902.942 115.07 902.992 115.096 903.068 115.121C903.119 115.146 903.195 115.172 903.272 115.172C903.348 115.172 903.424 115.172 903.475 115.121C903.551 115.096 903.602 115.07 903.652 115.02C903.678 114.994 903.703 114.943 903.729 114.918C903.779 114.842 903.805 114.74 903.805 114.664C903.805 114.613 903.805 114.563 903.779 114.512C903.754 114.436 903.729 114.359 903.652 114.283Z" fill="black"/>
<path d="M910.356 113.369C910.279 113.242 910.178 113.166 910.051 113.115C909.924 113.09 909.746 113.09 909.645 113.166C909.543 113.242 909.442 113.344 909.391 113.471C909.365 113.598 909.365 113.75 909.442 113.877C909.67 114.207 909.899 114.563 910.102 114.893C910.178 115.02 910.279 115.096 910.406 115.147C910.533 115.172 910.711 115.172 910.813 115.096C910.914 115.02 911.016 114.918 911.067 114.791C911.092 114.664 911.092 114.512 911.016 114.385C910.787 114.055 910.559 113.699 910.356 113.369Z" fill="black"/>
<path d="M914.418 109.408C913.733 109.408 913.733 110.475 914.418 110.475C915.104 110.475 915.104 109.408 914.418 109.408Z" fill="black"/>
<path d="M914.748 110.424C914.063 110.424 914.063 111.49 914.748 111.49C915.434 111.49 915.434 110.424 914.748 110.424Z" fill="black"/>
<path d="M906.115 93.8185C905.201 93.7931 903.856 93.8439 903.424 92.8282C903.195 92.2696 903.246 91.6349 903.246 91.0509C903.246 90.2892 903.272 89.5528 903.322 88.7911C903.449 85.7189 903.754 82.672 904.287 79.6505C904.541 78.3302 902.484 77.7462 902.256 79.0919C901.596 82.7989 901.266 86.5314 901.164 90.2892C901.113 91.7618 901.037 93.4376 902.104 94.6056C903.119 95.7228 904.693 95.8751 906.115 95.9005C907.486 95.9259 907.486 93.8185 906.115 93.8185Z" fill="black"/>
</svg>
