<svg width="1086" height="560" viewBox="0 0 1086 560" fill="none" xmlns="http://www.w3.org/2000/svg">
<path d="M531.569 240.609C533.831 242.606 538.755 242.073 540.751 239.677C536.094 240.209 535.428 240.076 532.368 239.011C531.968 238.878 531.303 238.212 530.904 238.878C530.505 239.544 531.037 240.076 531.569 240.609ZM534.497 209.056C535.295 209.322 535.961 208.79 536.227 208.124C537.025 205.994 538.622 204.796 540.885 204.396C541.683 204.263 542.348 203.598 542.215 202.666C542.082 201.601 541.284 201.334 540.352 201.201C537.292 200.802 533.565 204.13 533.432 207.192C533.432 207.991 533.698 208.79 534.497 209.056ZM390.509 141.823C396.231 140.093 402.752 141.424 407.41 145.285C408.873 146.483 410.603 144.353 409.273 143.155C403.816 138.628 396.364 137.164 389.577 139.161C387.847 139.693 388.779 142.356 390.509 141.823ZM483.928 230.624C485.791 235.683 488.32 240.609 489.251 245.934C489.783 248.996 490.981 252.058 492.312 254.721C493.243 256.452 493.776 258.049 493.909 260.046C494.042 262.842 495.373 263.907 498.167 263.907C500.962 263.907 503.756 263.641 506.285 262.842C511.741 260.978 517.064 258.848 522.786 257.517C524.383 257.117 525.581 256.984 527.045 257.65C537.158 261.91 547.272 259.381 553.926 250.727C554.325 250.194 554.724 249.795 555.257 249.529C558.451 248.064 561.644 246.6 564.705 244.869C567.234 243.405 567.5 241.274 565.37 239.411C563.241 237.547 562.044 235.15 561.112 232.488C559.648 227.828 559.382 222.902 558.584 218.109C556.321 204.13 554.192 190.018 546.474 177.636C543.812 173.376 541.284 169.116 536.626 166.853C526.379 161.927 508.813 163.79 500.563 174.974C500.03 175.639 499.631 176.039 498.566 175.906C494.574 175.373 491.247 176.838 488.32 179.633C481.133 186.423 478.339 194.944 477.674 204.263C477.807 205.861 477.807 207.192 478.073 208.523C479.27 216.112 481.4 223.434 483.928 230.624ZM501.893 228.893C503.756 227.562 504.422 225.698 504.821 223.568C505.752 218.508 507.349 213.716 508.015 208.657C508.813 202.532 510.011 196.408 509.745 190.151C509.612 188.82 510.144 188.154 511.342 188.154C517.463 188.021 523.452 186.69 529.573 186.556C531.17 186.69 532.9 186.69 534.497 186.823C540.618 187.355 543.679 191.482 546.208 196.541C550.732 205.994 553.926 215.846 555.39 226.23C556.587 234.351 556.454 242.206 551.397 249.262C547.405 254.987 541.55 256.585 535.295 255.786C524.383 254.455 516.931 247.798 511.475 238.479C511.342 238.212 511.076 237.813 511.076 237.414C510.942 235.283 509.612 235.283 508.148 235.816C506.95 236.215 505.886 236.748 504.555 236.615C502.559 236.482 500.962 235.683 500.163 233.686C499.498 231.556 500.296 230.091 501.893 228.893ZM513.338 213.849C514.269 214.514 515.068 213.982 515.6 213.316C517.197 211.586 519.06 210.52 521.589 211.319C522.387 211.586 523.185 211.186 523.452 210.387C523.718 209.455 523.319 208.923 522.786 208.39C521.722 207.458 520.524 207.458 519.326 207.325C516.931 207.325 513.87 209.322 512.939 211.452C512.539 212.251 512.406 213.183 513.338 213.849ZM610.35 145.684C612.213 144.885 614.342 143.954 616.471 143.82C618.068 143.82 619.931 144.353 620.996 145.684C621.262 146.084 621.795 146.35 622.327 146.084C622.726 145.817 622.992 145.152 622.726 144.752C621.395 142.888 619.266 141.957 617.004 141.957C614.342 141.957 611.947 143.022 609.552 144.087C609.152 144.353 609.019 145.019 609.152 145.418C609.419 145.817 609.951 145.817 610.35 145.684ZM388.779 149.545C394.235 147.016 401.288 148.48 405.147 153.273C405.68 153.939 406.478 154.072 407.143 153.672C407.676 153.273 407.942 152.341 407.543 151.675C403.018 145.951 394.634 143.687 387.98 146.883C387.315 147.149 386.783 147.948 387.049 148.746C387.182 149.412 387.98 149.945 388.779 149.545ZM521.722 219.174C521.855 220.506 522.387 221.837 523.984 221.97C525.315 222.103 525.581 221.038 525.581 219.84C525.315 218.642 525.182 217.044 523.452 217.044C522.121 217.177 521.589 218.109 521.722 219.174ZM907.774 53.4226C909.904 54.6208 910.702 56.7509 911.633 58.8811C911.9 59.5467 912.166 60.6118 913.097 60.3455C913.896 60.0793 913.896 59.0142 913.896 58.2154C913.896 55.4196 911.767 51.9581 909.504 51.1593C908.706 50.893 907.907 50.7599 907.375 51.5587C906.843 52.2244 907.109 53.0232 907.774 53.4226ZM902.584 54.4876C905.379 56.7509 906.976 59.6799 908.04 63.0082C908.307 64.0733 908.706 65.0052 909.105 65.9372C909.238 66.3366 909.637 66.736 910.037 66.6028C910.569 66.4697 910.702 66.0703 910.702 65.5377C910.702 65.0052 910.702 64.4727 910.702 63.9401C910.702 59.4136 907.774 54.0882 904.447 52.0912C903.649 51.5587 902.717 50.893 901.786 51.9581C900.987 53.1563 901.919 53.9551 902.584 54.4876ZM611.148 151.01C610.084 151.675 611.015 153.273 612.08 152.607C615.939 150.211 620.863 150.078 624.855 152.208C625.92 152.74 626.851 151.143 625.787 150.61C621.395 148.214 615.673 148.347 611.148 151.01ZM908.04 175.107C907.375 175.639 906.843 176.305 907.375 177.104C908.041 178.036 908.972 177.636 909.77 177.237C915.493 173.642 917.622 167.785 919.751 162.459C919.751 161.261 919.751 160.462 918.953 160.196C918.021 159.796 917.489 160.329 916.956 161.128C916.557 161.794 916.158 162.459 915.892 163.258C914.029 167.518 911.9 171.779 908.04 175.107ZM745.555 33.0531C746.486 33.7188 746.886 32.7868 747.418 32.1212C749.281 29.4585 751.543 27.3283 755.003 26.9289C755.935 26.7958 756.866 26.5295 756.733 25.3313C756.6 24.1331 755.536 24 754.471 24C751.011 24.1331 746.353 27.7278 745.289 31.0561C745.156 31.8549 744.756 32.6537 745.555 33.0531ZM904.58 168.716C904.048 169.249 903.649 169.915 903.117 170.58C902.717 171.113 902.717 171.779 903.25 172.311C903.782 172.844 904.314 172.977 904.847 172.71C905.379 172.444 905.911 172.178 906.444 171.779C910.968 167.918 914.162 163.258 916.158 157.666C916.424 157.134 916.424 156.468 916.557 156.202C916.557 155.137 916.424 154.471 915.759 154.072C915.093 153.805 914.561 154.205 914.162 154.737C913.497 155.669 912.698 156.734 912.166 157.799C910.17 161.66 907.774 165.388 904.58 168.716ZM689.796 303.448C688.732 309.439 683.542 314.365 677.42 314.764C676.622 314.764 675.956 315.43 675.956 316.229C675.956 316.894 676.622 317.693 677.42 317.693C684.739 317.161 691.26 311.436 692.458 304.247C692.591 303.448 692.325 302.782 691.526 302.516C690.861 302.25 689.929 302.649 689.796 303.448ZM682.743 321.288C681.013 321.82 681.679 324.483 683.542 323.95C690.329 322.087 695.785 316.628 697.914 309.971C698.446 308.241 695.785 307.442 695.252 309.173C693.256 315.031 688.465 319.69 682.743 321.288ZM731.05 184.826C731.582 185.225 732.38 185.358 733.046 185.491C733.844 185.624 734.377 185.225 734.377 184.16C734.11 182.962 733.179 182.163 732.247 181.231C729.32 178.435 726.658 175.506 724.529 172.045C724.13 171.246 723.731 169.915 722.533 170.447C721.202 170.98 721.601 172.178 722.001 173.243C723.731 178.036 727.057 181.764 731.05 184.826ZM735.973 180.166C737.038 180.432 737.97 180.299 738.103 178.968C737.837 177.903 737.171 177.104 736.24 176.438C732.247 173.11 728.122 169.782 725.327 165.255C724.928 164.589 724.263 163.924 723.331 164.456C722.666 164.856 722.666 165.654 722.799 166.32C723.597 169.648 732.647 179.367 735.973 180.166ZM540.352 211.985C539.021 211.719 538.622 212.917 538.622 213.982C538.622 215.846 539.953 218.109 541.151 217.976C542.348 217.843 542.615 217.044 542.748 215.846C542.348 214.514 542.748 212.384 540.352 211.985ZM254.905 238.612C256.768 240.076 258.897 241.008 261.558 241.141C262.091 241.141 262.889 241.008 263.555 240.875C264.353 240.609 265.285 240.342 265.018 239.144C264.752 238.212 263.821 238.212 263.022 238.345C260.361 239.011 258.098 238.079 255.969 236.748C255.304 236.348 254.639 235.55 253.973 236.482C253.441 237.414 254.106 238.079 254.905 238.612ZM163.349 275.889C167.474 277.087 171.599 278.552 175.592 280.416C176.39 280.815 177.455 280.682 177.854 279.75C178.253 279.084 178.12 277.886 177.188 277.487C172.93 275.623 168.539 274.025 164.147 272.694C162.151 272.028 161.219 275.224 163.349 275.889ZM151.771 287.206C158.159 288.67 164.679 289.469 171.2 289.735C173.329 289.868 173.329 286.407 171.2 286.407C164.945 286.141 158.824 285.342 152.703 284.01C150.573 283.478 149.642 286.673 151.771 287.206ZM255.038 206.393C254.772 205.328 254.106 204.796 253.042 204.263C250.114 202.799 245.323 203.997 243.061 206.793C242.529 207.458 241.863 208.39 242.396 209.056C243.194 209.988 243.859 208.79 244.525 208.39C247.319 206.66 250.114 204.929 253.574 207.192C254.239 207.725 254.772 207.325 255.038 206.393ZM270.608 210.787C269.41 210.654 269.277 211.719 269.41 212.651C269.41 213.583 269.41 214.914 270.741 215.047C271.938 215.047 271.672 213.849 271.805 213.183C271.805 212.118 271.938 210.92 270.608 210.787ZM250.912 215.047C250.779 215.979 250.646 217.443 251.844 217.31C253.707 217.31 253.042 215.313 253.441 214.381C253.441 213.449 253.84 212.118 252.642 212.118C250.912 212.251 251.046 213.849 250.912 215.047ZM387.714 217.044C391.041 215.446 394.501 213.716 397.828 211.852C398.893 211.319 400.889 210.52 400.357 209.322C399.691 207.991 397.828 209.056 396.63 209.455C393.703 210.387 390.908 211.985 387.847 213.449C387.714 211.319 387.581 209.589 387.448 207.858C387.315 206.926 386.916 206.127 385.851 206.26C384.92 206.26 384.654 207.192 384.654 207.991C384.654 210.387 384.521 212.651 384.521 215.047C384.387 217.044 385.851 217.976 387.714 217.044ZM840.704 282.013C839.639 282.28 838.974 282.812 838.974 283.877C838.974 284.942 839.639 285.475 840.704 285.475C841.769 285.475 842.434 284.676 842.434 283.611C842.434 282.679 841.769 282.146 840.704 282.013ZM1058.02 303.448C1054.42 297.989 1048.83 294.528 1042.31 294.661C1040.45 294.661 1040.45 297.59 1042.31 297.457C1053.76 297.057 1059.48 308.773 1058.95 318.758C1058.42 328.211 1054.16 337.53 1050.17 345.918C1043.11 360.562 1033.8 374.142 1022.75 386.124C1000.26 410.621 971.385 428.993 940.378 440.842C928.667 445.235 916.823 448.83 904.714 451.626C901.52 437.78 897.661 423.934 894.866 409.955C890.741 389.452 886.216 369.083 881.825 348.713C881.425 347.116 881.292 345.918 883.555 346.051C885.018 346.184 885.418 345.252 885.418 344.054C885.285 342.989 885.151 341.924 884.885 340.992C883.022 334.069 881.159 327.279 879.429 320.356C875.969 306.776 874.505 292.664 870.912 279.084C870.513 277.487 871.578 277.62 872.376 277.221C879.163 273.493 886.482 270.431 891.14 263.641C895.531 257.384 895.664 257.384 890.341 251.925C889.277 250.86 889.011 250.194 890.075 248.996C893.934 244.603 896.197 239.277 898.06 233.686C901.786 222.369 902.717 210.92 902.185 199.071C902.185 198.006 901.653 196.675 902.851 196.009C905.645 194.278 907.641 191.615 910.17 189.618C916.957 183.894 920.683 176.305 923.61 168.317C923.743 167.785 923.876 167.252 923.876 166.719C923.876 165.921 923.876 164.989 923.078 164.722C922.146 164.456 921.88 165.388 921.481 166.054C919.751 169.249 918.021 172.444 916.291 175.506C912.432 182.163 906.976 187.355 901.121 192.148C899.657 193.346 898.858 194.145 898.858 196.009C898.991 204.13 898.725 212.384 897.394 220.372C895.931 229.692 893.402 238.745 887.68 246.6C886.748 247.931 886.083 248.33 884.885 246.999C884.486 246.6 883.954 246.2 883.555 245.801C879.695 242.206 879.828 242.206 882.49 237.813C887.281 229.825 889.144 220.905 890.874 211.852C892.737 202.133 891.007 192.281 890.608 182.562C890.474 177.636 891.539 173.376 894.068 168.716C894.6 170.314 894.068 171.246 894.068 172.311C894.068 173.642 894.068 174.841 895.531 175.373C896.862 175.773 897.794 174.974 898.193 173.909C900.455 168.716 904.847 165.122 908.573 161.128C909.77 159.796 910.968 158.465 912.033 156.069C904.714 157.799 902.185 164.057 897.661 167.918C896.995 166.453 897.394 164.19 895.398 163.924C893.402 163.657 893.934 162.592 894.201 161.527C896.064 153.14 898.193 144.752 899.524 136.232C901.387 124.516 902.717 112.534 904.314 100.818C905.512 92.1645 905.778 83.5108 906.177 74.8571C906.31 73.2595 906.177 71.5288 904.314 70.8631C902.584 70.1974 902.185 72.0613 901.121 72.9932C898.858 68.3336 898.592 63.6739 899.124 58.8811C899.657 54.6208 898.725 53.4226 894.467 53.822C890.608 54.2214 886.881 55.0202 883.022 55.1533C874.505 55.5527 866.255 53.9551 857.871 53.4226C847.757 52.7569 837.51 51.1593 827.796 55.4196C827.53 55.5527 827.13 55.5527 826.864 55.4196C820.61 53.822 814.621 51.9581 808.766 49.2954C801.048 45.8339 793.329 41.9731 784.812 40.6417C776.295 39.1773 768.178 36.3814 759.927 34.2513C756.6 33.4525 755.403 33.985 754.87 37.4465C753.939 43.3044 753.14 49.0292 752.209 54.887C749.414 71.9282 746.753 88.9693 743.825 106.01C741.563 118.658 739.034 131.173 736.639 143.82C735.84 148.214 736.506 149.412 740.897 150.477C749.946 152.607 759.129 154.205 768.311 155.936C773.9 157.001 779.489 158.598 785.078 158.998C793.196 159.663 801.048 162.193 809.165 162.992C810.363 163.125 811.294 163.657 811.161 165.122C811.028 166.986 812.226 168.45 813.69 169.515C816.75 171.645 820.077 172.71 823.803 172.844C836.046 173.376 848.156 171.912 860.399 171.912C869.715 171.912 879.163 171.912 888.745 171.912C888.079 174.974 887.148 177.903 887.414 180.832C887.813 185.092 887.813 189.352 887.946 193.612C888.345 205.595 886.482 217.177 882.49 228.494C881.292 232.088 879.695 235.416 877.3 239.011C876.768 238.345 876.635 237.813 876.235 237.414C873.973 235.017 872.775 235.15 870.912 237.813C870.38 238.745 869.848 239.677 869.182 240.476C864.791 246.333 860.532 252.591 852.947 254.455C848.289 255.52 845.495 258.182 842.966 261.91C841.236 264.573 839.107 266.969 837.643 269.765C836.845 271.363 835.913 271.363 834.583 270.431C830.723 267.369 826.864 264.307 823.005 261.244C820.477 259.247 818.48 256.718 814.887 256.452C809.831 256.185 805.173 254.188 800.781 251.792C796.922 249.662 793.861 246.733 791.466 243.138C790.801 242.206 790.535 241.141 789.204 241.274C787.74 241.274 787.341 242.473 787.075 243.538C786.675 245.002 786.01 245.135 784.812 244.336C782.949 243.138 781.219 241.807 779.622 240.342C769.109 230.357 763.254 217.976 760.726 203.864C759.927 199.604 759.129 195.476 760.193 191.083C760.992 187.488 759.927 183.894 758.064 180.699C755.536 176.704 752.874 172.977 749.813 169.515C747.551 166.853 744.49 165.654 741.163 164.856C738.901 164.323 737.57 165.654 737.837 167.918C737.837 168.317 738.369 168.85 737.704 169.382C735.042 167.119 732.247 164.989 729.985 162.326C729.187 161.394 728.255 160.462 727.057 161.527C725.993 162.459 726.658 163.524 727.324 164.323C731.981 169.249 736.506 174.308 743.426 175.906C744.357 176.172 745.289 176.838 745.954 175.639C746.62 174.441 745.954 173.642 745.156 172.844C744.091 171.779 743.027 170.58 741.962 169.515C744.49 169.782 746.353 171.113 747.817 172.844C749.68 175.107 751.277 177.503 753.14 179.767C756.6 183.894 757.798 188.82 757.133 193.879C756.467 199.47 757.266 204.796 758.596 209.988C762.722 225.431 769.375 239.277 783.881 247.931C785.078 248.597 784.679 249.262 784.28 250.061C783.082 252.591 781.618 254.987 780.687 257.65C779.888 259.913 778.957 259.647 777.36 258.449C766.847 250.594 758.596 241.008 753.406 228.893C750.08 221.171 746.487 213.449 746.487 204.796C746.487 203.331 745.289 202.932 744.357 202.399C738.901 198.938 734.11 194.811 729.985 189.885C727.457 186.956 725.327 183.761 723.331 180.432C722.932 179.633 722.4 178.835 721.335 179.234C720.404 179.633 720.67 180.565 720.803 181.364C721.069 183.761 722.134 185.758 723.464 187.621C728.122 194.944 733.977 200.935 741.297 205.728C742.361 206.393 743.293 207.059 743.559 208.39C745.555 218.375 748.749 227.695 753.406 236.881C758.863 247.532 766.98 255.52 776.295 262.576C777.626 263.641 777.892 264.04 777.094 265.638C775.364 268.833 775.63 270.031 778.425 272.428C779.356 273.227 780.421 273.892 781.352 274.558C785.611 277.087 790.002 279.351 794.66 280.815C796.257 281.348 796.789 282.146 796.922 283.744C797.455 291.599 797.188 299.587 797.188 307.442C797.188 320.755 797.588 333.936 798.519 347.249C798.652 348.713 798.519 350.71 800.249 351.11C802.511 351.642 801.979 352.974 801.713 354.438C796.124 381.597 789.204 408.49 784.812 435.916C783.615 443.638 782.417 451.36 781.352 459.081C754.072 457.217 727.057 453.889 700.708 450.028C666.907 445.102 633.239 438.978 599.704 432.588C598.906 427.928 597.974 423.268 596.776 418.742C592.651 403.165 588.792 387.588 585.465 371.879C583.602 362.826 580.94 353.772 579.343 344.586C578.944 342.456 579.343 340.725 581.473 339.927C584.4 338.728 587.328 337.397 590.522 336.731C597.575 335.134 604.495 333.536 611.282 331.273C612.213 330.873 613.278 330.607 613.145 329.542C613.012 328.078 613.81 327.945 614.875 327.678C624.855 325.548 634.57 322.353 644.151 319.291C647.212 318.359 650.14 316.894 653.067 315.696C654.664 315.031 655.995 313.699 655.463 312.102C654.664 310.105 655.596 309.439 657.06 308.507C657.326 308.374 657.725 307.974 657.858 307.708C658.79 304.779 661.451 304.513 663.713 303.448C667.706 301.717 671.565 299.454 675.424 297.457C678.219 295.992 681.013 294.528 684.34 293.862C688.732 293.063 690.728 290.534 690.861 286.007C690.994 284.277 691.26 282.679 691.925 280.948C692.99 278.286 692.591 276.155 690.462 274.558C688.865 273.36 688.599 272.161 688.732 270.431C688.998 266.703 688.066 263.375 684.739 261.244C683.941 260.712 683.142 260.446 682.344 261.244C681.546 262.043 681.945 262.842 682.61 263.508C684.872 265.638 685.272 268.434 684.872 271.363C684.606 273.626 685.272 275.49 687.268 276.821C688.066 277.354 688.865 278.152 688.466 279.084C687.401 281.481 687.401 284.143 687.002 286.673C686.602 289.203 684.606 290.268 682.211 289.735C681.279 289.469 680.215 289.469 679.15 289.336C678.219 289.203 677.021 289.735 676.489 288.803C675.956 287.871 676.888 286.939 677.42 286.007C677.553 285.741 677.686 285.608 677.819 285.475C679.949 282.146 679.15 280.549 675.291 280.416C675.025 280.416 674.626 280.416 674.626 279.883C675.956 278.419 678.086 277.62 679.416 275.889C681.013 273.626 680.481 272.028 677.686 271.496C676.622 271.363 675.424 271.496 674.226 270.83C676.089 269.499 677.819 268.301 679.416 267.102C680.082 266.57 680.88 265.771 680.481 264.972C679.683 263.508 680.082 261.91 679.949 260.313C678.352 245.801 675.823 231.422 674.093 216.911C673.162 209.722 671.565 202.532 671.033 195.21C670.9 193.346 669.702 192.814 667.972 193.746C659.322 198.405 650.14 201.467 640.957 204.396C636.832 205.728 632.707 207.059 628.315 208.39C628.315 207.592 628.714 207.325 629.114 206.926C635.901 200.402 642.155 193.612 648.01 186.29C650.938 182.562 653.333 178.435 655.197 174.175C656.261 171.645 655.596 170.447 653.067 169.648C651.604 169.249 650.273 168.716 648.809 168.184C640.026 164.856 631.376 161.66 622.726 158.066C619.665 156.734 618.601 157.267 616.871 160.063C615.54 162.193 614.342 164.323 612.878 166.453C603.962 179.367 594.115 191.349 582.138 201.601C577.88 205.195 574.287 209.455 571.758 214.514C571.359 215.313 570.693 216.512 571.758 217.044C573.488 217.843 574.952 219.307 577.081 219.574C580.94 220.106 584.799 219.84 588.925 220.372C587.461 221.304 587.328 222.503 587.062 223.701C586.53 227.961 586.263 232.088 586.396 236.348C586.529 249.662 587.328 262.842 589.856 275.889C590.123 277.62 590.123 278.152 588.126 277.62C582.803 276.289 577.347 275.224 572.157 273.759C568.431 272.694 564.838 271.23 563.374 267.102C562.975 265.904 562.044 265.105 560.58 265.372C559.116 265.638 558.717 266.836 558.451 268.167C557.12 274.558 551.93 278.019 545.542 276.821C538.622 275.49 532.634 272.561 527.71 267.502C526.246 266.037 524.915 264.307 522.387 264.573C516.266 265.105 510.543 266.57 504.954 269.232C497.768 272.561 493.643 278.019 491.913 285.741C490.316 293.063 490.715 300.253 491.646 307.575C492.844 316.362 494.973 324.882 501.361 331.539C502.026 332.205 502.159 332.87 501.893 333.669C500.429 337.93 500.429 342.456 499.365 346.85C495.506 364.024 492.046 381.331 489.384 398.772C488.719 402.899 487.92 407.026 487.122 411.153C477.54 409.422 467.826 407.825 458.111 406.227C412.999 398.905 367.487 393.713 321.975 392.381C320.511 387.189 319.047 381.864 317.583 376.671C314.922 367.219 312.926 357.5 309.599 348.181C309.066 346.583 309.333 345.918 311.196 345.918C312.393 345.918 313.591 345.518 314.922 345.252C316.918 344.852 317.45 343.654 316.918 341.79C315.055 335.799 313.325 329.941 311.595 323.95C309.067 315.43 306.272 306.909 303.211 298.522C302.679 297.191 302.679 296.392 304.409 296.126C314.123 294.661 323.039 290.8 331.822 286.54C343.4 280.948 354.445 274.158 363.361 264.706C363.628 264.44 363.761 264.173 364.027 264.04C367.886 262.576 370.148 259.114 373.475 256.984C374.54 256.319 374.673 255.12 373.741 254.055C370.814 250.727 369.217 246.6 366.289 243.271C367.62 242.606 368.684 242.073 369.749 241.408C375.205 238.079 380.129 234.351 384.387 229.559C385.053 228.893 385.585 227.828 386.517 229.026C388.513 231.422 390.775 231.289 393.17 229.825C393.969 229.425 394.767 229.159 395.566 228.893C409.406 223.434 421.649 215.846 428.968 202.266C429.766 200.802 429.766 199.87 428.835 198.672C427.105 196.275 425.375 194.012 423.645 191.749C417.257 183.361 410.337 175.506 405.28 166.187C403.816 163.524 401.82 161.128 399.824 158.731C398.36 156.868 397.163 157.134 396.231 159.264C395.033 162.326 393.17 164.856 391.174 167.385C382.125 178.968 371.346 188.42 358.171 194.811C355.776 196.009 355.643 196.941 357.639 198.805C359.901 201.068 361.898 203.598 363.894 206.127C367.354 210.52 367.354 210.52 364.293 215.313C361.764 219.44 359.369 223.568 356.841 227.562C356.575 228.094 356.441 229.692 355.111 228.36C353.514 226.763 352.316 227.428 351.252 228.893C342.469 239.677 331.556 247.798 319.579 254.455C308.002 260.978 295.892 265.638 282.052 262.443C280.056 261.91 278.193 263.508 277.927 265.505C277.528 268.167 276.33 270.564 274.999 272.827C269.41 282.146 255.836 283.078 248.783 274.824C246.92 272.561 245.19 270.298 243.859 267.635C243.061 265.904 241.863 265.372 240 264.972C232.947 263.774 225.761 264.04 218.708 264.706C208.062 265.505 199.678 270.298 193.557 278.951C187.435 287.605 184.108 297.457 182.112 307.841C180.781 314.764 180.515 321.82 181.048 328.876C181.181 330.208 181.181 331.539 179.451 332.072C178.652 332.338 178.519 333.27 178.386 334.069C178.12 338.196 177.721 342.19 177.455 346.317C177.322 348.447 177.987 349.512 180.116 349.246C181.58 349.113 182.112 349.645 181.979 351.11C181.713 353.506 181.846 355.903 182.112 358.432C182.511 361.361 182.911 364.29 183.31 367.219C183.709 369.615 184.508 372.012 186.105 373.876C188.101 376.139 191.294 376.671 193.291 379.201C193.69 379.734 194.754 380 195.154 380.799C195.553 381.331 196.085 381.464 196.751 381.464C199.279 381.065 200.61 379.867 200.61 377.204C200.61 372.811 200.477 368.417 200.477 364.024C200.477 362.426 200.344 360.829 200.344 359.364C200.344 358.432 200.211 357.5 199.146 357.367C198.081 357.234 197.682 358.166 197.549 358.965C197.15 360.562 197.15 362.027 197.15 363.624C197.283 368.151 197.283 372.544 197.416 377.071C196.085 372.944 195.553 368.683 195.021 364.423C194.888 363.358 195.287 361.361 193.557 361.627C192.093 361.761 192.625 363.491 192.625 364.556C192.625 367.885 192.891 371.213 193.557 374.541C193.291 374.142 193.024 373.743 192.891 373.343C191.161 370.148 191.028 366.553 190.496 363.092C190.363 362.293 190.23 361.228 189.032 361.361C187.968 361.494 187.968 362.426 187.968 363.225C187.835 366.021 187.835 368.683 188.766 372.012C187.435 370.547 186.903 369.349 186.637 368.151C185.439 362.426 184.641 356.568 184.241 350.71C184.108 349.379 184.774 349.379 185.838 349.379C190.097 349.512 194.355 349.778 198.481 349.912C199.545 349.912 200.211 350.311 200.61 351.376C202.34 356.036 203.671 360.829 202.074 365.755C201.807 366.686 201.275 367.885 202.606 368.284C203.937 368.683 204.602 367.618 205.001 366.553C205.667 364.29 206.066 362.027 205.667 359.63C205.267 356.435 204.336 353.373 203.138 350.178C205.401 350.045 207.53 350.045 207.53 346.85C207.264 338.728 207.929 330.607 208.994 322.486C209.393 319.557 209.925 316.761 210.457 313.965C210.99 311.17 211.655 308.507 212.454 305.179C212.853 306.111 212.986 306.377 212.986 306.643C215.115 321.155 216.446 335.799 215.248 350.444C214.982 354.039 215.78 354.971 219.373 354.438C221.902 354.172 221.636 355.104 221.103 356.835C219.107 364.556 216.978 372.278 215.381 380.133C214.05 386.257 212.853 392.248 211.522 398.372C153.235 407.026 96.1453 425.132 46.1088 456.685C38.7897 461.345 31.7367 466.271 24.8167 471.33C23.3529 472.395 24.8167 474.924 26.2806 473.726C80.4424 433.653 144.851 411.153 210.99 401.168C210.058 405.162 209.26 409.156 208.328 413.15C206.199 423.002 203.804 432.854 201.941 442.839C199.811 453.623 197.549 464.407 194.488 474.924C193.424 478.785 192.492 482.779 191.428 486.773C191.161 487.838 190.895 489.436 192.359 489.436C194.621 489.303 196.351 490.634 198.481 490.9C200.61 491.167 200.344 491.965 199.545 493.43C197.416 497.424 195.154 501.418 193.291 505.545C190.496 511.669 191.561 517.66 196.351 521.92C204.602 529.243 214.05 534.302 225.096 535.9C227.624 536.299 229.753 535.5 231.35 533.636C235.076 529.376 234.677 524.849 230.286 521.122C226.693 518.06 222.7 515.929 218.575 513.799C216.978 513.001 215.78 511.802 215.78 509.805C215.78 505.944 216.446 502.35 218.575 499.021C219.107 498.223 219.64 497.291 218.708 496.492C217.643 495.693 216.845 496.492 216.18 497.291C214.716 499.155 214.184 501.551 213.518 503.814C211.389 510.471 213.119 514.332 219.373 517.527C222.833 519.258 226.16 521.122 228.955 523.917C230.552 525.515 231.616 527.246 230.419 529.642C229.088 532.305 227.491 532.971 224.696 532.438C215.647 530.574 207.53 526.447 200.344 520.722C195.154 516.595 194.355 512.202 197.283 506.078C199.279 501.95 201.408 497.823 203.404 493.563C203.937 492.498 204.602 492.365 205.667 492.498C210.324 493.164 214.716 494.362 219.107 495.56C223.366 496.758 227.624 497.823 231.483 499.953C234.411 501.551 235.209 501.418 236.939 498.489C239.335 494.096 241.73 489.702 244.259 485.309C245.589 482.912 245.456 482.38 242.795 481.182C238.669 479.451 234.677 477.72 230.552 475.856C229.886 475.59 228.556 475.324 229.088 474.259C229.487 473.194 230.552 473.593 231.35 473.859C234.278 474.791 237.206 475.59 239.867 477.054C242.795 478.652 243.194 478.652 244.259 475.59C247.985 465.472 251.578 455.354 255.437 445.369C259.163 435.517 262.756 425.665 265.418 415.547C267.148 408.624 269.41 401.967 271.938 395.31C272.471 395.31 273.003 395.31 273.535 395.177C272.604 398.505 271.805 402.1 270.341 405.162C267.547 410.887 268.878 415.68 271.938 420.739C277.261 429.659 282.451 438.579 286.976 447.898C293.364 461.345 301.614 473.726 307.736 487.173C308.534 488.77 309.599 489.303 311.329 488.637C311.994 488.371 312.66 488.104 313.325 487.838C314.922 487.039 315.853 487.306 316.253 489.303C317.317 493.829 318.648 498.223 319.979 502.749C320.777 505.678 322.773 507.542 325.568 508.607C327.83 509.406 330.092 510.205 332.355 510.338C344.465 510.87 355.244 507.409 364.692 499.82C367.221 497.823 369.483 495.294 368.285 491.832C367.088 488.238 363.761 487.971 360.434 487.971C354.845 487.971 349.122 488.104 343.533 489.303C340.472 489.968 337.545 489.968 336.081 486.374C335.815 485.841 335.282 485.309 334.617 485.575C333.952 485.841 333.819 486.507 333.686 487.173C333.286 489.835 335.948 492.764 339.142 493.164C341.404 493.43 343.533 493.03 345.662 492.631C351.118 491.566 356.575 491.433 362.031 491.699C363.095 491.699 364.293 491.965 364.825 493.164C365.225 494.229 364.426 495.161 363.761 495.826C363.228 496.492 362.563 497.024 361.898 497.69C359.635 499.687 356.974 501.152 354.312 502.35C345.928 506.344 337.279 508.341 328.096 506.477C325.302 505.944 323.306 504.48 322.507 501.418C321.443 497.291 320.378 493.164 319.047 489.17C318.382 487.039 318.648 486.374 320.91 485.708C329.826 483.445 338.875 481.315 347.658 478.253C349.655 477.587 350.453 476.522 349.788 474.392C348.856 471.463 348.058 468.401 347.126 465.339C346.062 461.877 345.928 461.877 342.335 463.075C338.609 464.407 334.75 465.605 331.423 467.868C330.758 468.268 329.693 468.933 329.161 467.868C328.629 466.803 329.693 466.404 330.492 466.004C333.286 464.407 336.081 462.676 339.142 461.744C340.605 461.345 341.138 460.546 340.472 458.948C339.541 456.152 339.275 453.357 338.476 450.561C333.02 432.055 327.697 413.55 322.507 395.044C366.555 396.242 410.603 401.301 454.252 408.224C464.898 409.955 475.677 411.819 486.323 413.683C484.194 423.801 481.799 433.919 480.202 444.17C478.206 456.552 475.145 468.933 472.883 481.315C472.217 485.042 473.282 486.107 477.141 486.107C480.335 486.107 483.529 486.241 486.723 486.241C488.186 486.241 488.586 486.773 488.453 488.371C487.787 493.43 486.989 498.489 487.122 503.548C487.255 511.403 490.582 516.196 498.034 518.725C505.087 521.122 512.273 522.453 519.592 522.986C525.048 523.385 530.238 522.32 534.896 519.258C538.888 516.595 540.219 511.669 537.824 507.808C535.961 504.746 532.9 503.548 529.573 502.882C524.782 501.95 519.992 501.152 515.334 499.953C513.072 499.421 510.942 498.356 511.342 495.427C511.475 494.362 510.809 493.563 509.745 493.43C508.68 493.297 508.015 493.829 507.482 494.761C506.817 496.359 507.083 497.956 507.882 499.554C509.479 502.749 512.406 503.947 515.6 504.746C519.859 505.678 524.117 506.344 528.375 507.143C529.972 507.409 531.569 507.808 532.9 508.873C535.561 510.737 535.428 513.932 532.767 515.663C529.44 517.66 525.98 518.858 522.121 518.725C514.802 518.459 507.616 517.128 500.696 514.864C494.042 512.734 491.78 509.273 492.179 502.483C492.445 497.956 492.977 493.563 493.243 489.17C493.376 487.306 493.909 486.906 495.639 487.039C500.829 487.572 505.886 487.971 511.076 488.504C512.406 488.637 512.806 488.238 512.939 486.906C513.338 479.584 513.471 472.262 513.072 465.072C512.672 456.419 512.273 447.632 512.406 438.978C512.406 437.114 512.406 435.25 513.205 433.253C514.136 434.318 514.003 435.25 514.003 436.315C514.402 443.238 514.802 450.294 515.201 457.217C515.733 467.069 516.399 476.921 515.467 486.906C515.334 488.504 515.866 488.77 517.197 488.77C522.653 488.77 527.976 488.637 533.432 488.77C535.695 488.903 535.961 488.104 535.828 486.107C534.231 472.262 532.767 458.549 531.436 444.703C530.105 430.857 529.041 416.878 529.041 402.899C529.041 401.834 528.908 400.769 529.573 399.704C530.238 400.769 530.238 401.834 530.372 402.766C532.235 415.147 532.767 427.795 534.098 440.176C535.695 455.753 537.425 471.197 538.888 486.773C539.021 488.238 539.554 488.77 541.151 488.77C546.075 488.77 550.865 488.504 555.656 488.104C557.652 487.971 558.317 488.504 558.451 490.368C558.85 493.696 559.382 496.891 560.314 500.087C561.91 505.944 565.77 509.805 571.492 511.802C581.606 515.397 591.719 514.864 601.833 512.468C604.095 511.935 606.491 511.403 608.487 510.072C611.148 508.341 612.08 505.811 611.814 502.749C611.681 499.953 609.685 498.622 607.289 497.557C605.559 496.891 603.829 496.625 601.966 496.492C597.176 496.092 592.385 496.492 587.727 494.761C585.332 493.829 583.469 492.365 583.602 489.436C583.602 487.971 582.936 486.906 581.473 486.906C580.009 487.039 579.343 488.238 579.343 489.569C579.21 492.099 579.876 494.362 581.739 496.226C584.533 499.021 587.993 500.087 591.719 500.486C595.978 500.885 600.369 501.018 604.628 501.418C605.825 501.551 607.422 501.817 607.422 503.681C607.422 505.412 606.358 506.477 604.761 506.876C594.248 509.938 583.602 511.27 572.956 507.409C569.23 506.078 566.435 503.681 565.237 499.82C564.439 497.291 563.907 494.894 563.374 492.232C562.443 487.572 562.443 487.439 567.367 487.306C569.097 487.306 569.496 486.64 569.23 485.042C568.564 481.448 568.032 477.986 567.233 474.392C563.374 457.217 560.314 439.91 560.047 422.203C560.047 420.739 560.047 419.274 560.047 417.81C560.314 417.81 560.447 417.81 560.713 417.81C560.979 419.274 561.245 420.739 561.511 422.203C563.108 432.721 564.306 443.238 566.169 453.623C568.032 464.407 571.093 474.924 572.423 485.708C572.557 487.039 573.355 486.906 574.286 486.773C581.073 486.374 587.727 485.841 594.381 484.51C599.837 483.445 599.704 483.445 598.373 478.253C591.719 453.357 584.799 428.461 580.541 402.899C579.876 398.505 578.944 394.245 579.21 389.719C579.61 391.316 580.142 392.781 580.541 394.378C583.602 407.292 586.529 420.339 589.856 433.253C593.849 449.096 598.107 464.806 602.232 480.516C602.499 481.315 602.499 482.513 603.962 482.113C606.624 481.581 609.152 481.182 611.814 480.516C613.81 479.983 614.342 478.519 613.411 476.655C608.354 466.803 605.559 456.152 602.765 445.635C601.833 442.173 601.168 438.712 600.502 435.117C635.634 441.774 670.766 448.164 706.165 453.09C730.651 456.552 755.935 459.614 781.219 461.345C780.421 467.602 779.489 473.992 778.691 480.25C778.425 482.513 779.489 483.711 781.485 484.244C782.284 484.51 783.215 484.51 784.147 484.643C785.345 484.643 785.478 485.309 785.478 486.374C784.945 491.167 784.546 495.959 784.147 500.752C783.881 503.814 784.546 506.477 786.276 509.006C790.135 514.199 793.995 519.524 798.652 524.051C800.648 526.048 802.778 527.911 805.306 529.243C810.496 532.172 816.218 531.24 820.477 526.98C823.537 523.917 823.937 516.861 821.541 512.335C819.545 508.607 816.484 505.811 813.557 502.882C810.496 499.82 808.633 496.625 808.766 492.232C808.766 490.501 808.766 488.77 808.766 486.773C811.161 487.705 813.157 488.903 815.553 489.036C816.884 489.036 817.549 488.77 817.948 487.439C818.88 484.244 820.077 481.182 821.408 478.119C822.074 476.522 821.674 475.856 820.077 475.59C815.952 474.924 811.827 474.392 807.568 473.726C806.371 473.593 805.306 473.46 804.108 472.927C804.907 471.862 805.838 472.128 806.77 472.128C810.23 472.395 813.557 472.528 817.017 473.06C819.013 473.327 819.944 472.927 820.477 470.797C821.142 468.134 821.807 465.605 822.473 462.942C836.446 462.942 850.286 462.277 864.125 460.945C866.122 466.936 867.985 473.06 869.715 479.185C871.178 484.51 871.711 484.776 877.034 483.179C879.03 482.646 879.429 483.179 879.695 484.909C880.228 489.036 880.76 493.164 881.558 497.158C882.756 503.282 886.083 506.211 892.204 507.276C897.528 508.075 902.85 508.075 908.174 508.607C915.626 509.273 922.413 507.542 929.066 504.48C932.659 502.882 933.724 499.687 931.861 496.226C929.732 492.232 926.405 489.702 921.88 488.77C918.42 488.104 914.96 487.439 911.5 487.173C905.379 486.64 902.185 483.045 900.056 477.853C899.391 476.122 899.391 475.324 901.52 474.658C905.246 473.593 908.972 472.794 912.432 471.063C913.497 470.531 914.428 469.998 914.162 468.534C913.63 465.871 913.097 463.208 912.698 460.546C912.432 458.549 911.634 458.549 910.037 459.214C905.645 461.211 901.254 463.342 896.596 464.407C895.265 464.806 893.402 466.004 892.737 464.007C892.204 462.143 894.467 462.01 895.664 461.211C895.931 461.078 896.33 460.945 896.729 460.945C899.79 460.146 902.717 458.948 905.512 457.617C906.843 456.951 906.976 456.286 906.71 454.954C906.71 454.688 906.577 454.422 906.444 454.022C919.884 450.96 933.059 446.966 945.834 441.774C975.909 429.792 1003.99 411.686 1025.95 387.855C1036.72 376.006 1046.04 362.826 1053.09 348.447C1058.28 335.799 1067.07 317.294 1058.02 303.448ZM811.028 147.681C810.629 150.211 810.363 152.874 810.23 155.536C810.097 157.666 808.633 159.796 806.637 159.397C788.006 156.335 769.509 152.208 751.011 148.88C748.083 148.347 745.156 147.814 742.228 147.415C740.631 147.149 738.901 144.353 739.167 142.889C741.696 129.176 744.623 115.862 746.886 102.016C749.68 84.3096 752.475 66.0703 755.269 48.3635C755.669 45.5677 756.467 42.5056 756.733 39.7098C756.866 38.2453 759.262 36.2483 760.592 36.7808C774.565 41.8399 789.47 42.5056 803.044 49.1623C809.032 52.0912 817.682 56.6178 824.469 57.816C826.465 58.0823 823.271 60.8781 823.404 61.9431C822.739 70.1974 821.275 78.3186 820.211 86.4398C818.88 97.0905 817.815 107.741 816.085 118.259C814.089 128.111 812.625 137.829 811.028 147.681ZM813.69 158.998C813.424 158.865 813.157 158.731 813.157 158.332C813.157 158.066 813.157 157.666 813.157 157.4C813.157 157.267 813.157 157.267 813.157 157.134C813.29 152.874 813.823 148.746 814.488 144.486C815.287 139.96 816.085 135.566 817.15 131.04C818.081 127.046 819.013 123.052 819.412 119.058C819.811 114.93 820.21 110.67 820.61 106.543C821.275 98.1555 822.606 89.9012 823.67 81.6469C823.937 79.6499 824.203 77.6529 824.336 75.7891C824.07 73.792 824.203 71.795 824.602 69.798C824.735 69.2655 824.735 68.8661 824.868 68.3336C824.868 67.801 825.001 67.4016 825.001 66.8691C825.134 65.5377 825.4 63.4076 826.199 61.81C826.199 61.6769 826.199 61.5437 826.332 61.4106C827.13 60.0793 827.929 58.8811 828.993 57.9491C831.256 55.9521 834.183 56.2184 837.111 56.3515C841.902 56.4847 846.559 56.2184 851.35 56.3515C860.665 56.6178 869.848 58.0823 879.163 57.9491C881.425 57.9491 883.688 57.816 885.95 57.5497C887.68 57.4166 889.41 57.0172 891.14 56.884C892.204 56.7509 893.535 56.8841 894.201 57.816C895.132 59.0142 894.866 60.8781 894.6 62.3425C894.334 64.3396 893.801 66.3366 893.269 68.3336C892.737 70.4637 892.604 72.5938 892.471 74.8571C892.204 79.5168 891.938 84.1765 891.539 88.8362C890.874 98.1555 890.208 107.608 888.611 116.794C887.014 125.98 884.752 135.034 883.954 144.353C883.688 146.749 883.555 149.146 883.288 151.542C883.155 153.14 883.022 154.871 882.224 156.468C881.026 158.731 878.498 158.731 876.368 158.998C871.844 159.53 867.452 160.196 862.928 160.595C858.536 160.995 854.012 161.261 849.62 161.128C844.963 160.995 840.438 160.595 835.78 160.462C831.389 160.329 826.997 160.595 822.473 160.595C820.077 160.595 817.549 160.995 815.154 160.196C814.488 159.796 814.089 159.397 813.69 158.998ZM884.486 167.119C879.03 168.184 873.574 167.518 868.118 167.252C863.061 166.986 857.871 166.853 852.814 166.719C847.757 166.453 842.833 166.054 837.776 166.453C833.385 166.719 829.127 167.252 824.868 167.385C821.674 167.518 817.815 167.252 815.553 164.722C815.021 164.19 815.553 163.125 816.351 163.391C816.75 163.524 817.283 163.258 817.682 163.258C817.948 163.258 818.081 163.258 818.214 163.391C826.598 163.391 834.849 163.258 843.099 163.657C850.951 164.057 858.935 164.456 866.654 163.125C870.779 162.459 875.038 162.992 878.897 161.128C879.961 160.595 881.425 161.527 883.155 162.326C880.361 163.391 877.832 162.592 875.57 164.19C878.498 164.456 881.292 164.722 884.22 164.989V165.521C884.353 165.521 884.486 165.521 884.619 165.654C885.284 165.788 885.418 166.986 884.486 167.119ZM887.148 165.921C886.615 165.921 886.083 165.255 886.482 164.722C886.482 164.589 886.615 164.589 886.615 164.456H886.482C886.748 161.128 889.011 158.332 888.345 154.471C886.615 156.868 886.482 159.53 885.018 162.326C889.41 131.705 896.064 102.15 896.064 71.795C896.596 71.795 896.995 71.795 897.527 71.795C897.661 75.2565 897.927 78.5849 898.06 82.0463C898.193 81.3807 898.193 80.5819 898.459 79.9162C898.592 79.1174 898.858 78.1855 899.391 77.3867C899.391 77.1204 899.524 76.9873 899.657 76.8541C900.189 76.1885 900.854 75.6559 901.786 75.6559C902.185 75.6559 902.451 75.9222 902.584 76.1885C903.516 78.8511 903.383 81.9132 903.117 84.709C902.85 87.7711 902.318 90.8332 901.786 93.8953C901.254 96.9573 900.987 100.153 900.455 103.348C899.79 106.942 899.124 110.537 898.592 114.265C897.261 121.587 896.064 129.043 894.733 136.365C894.068 140.093 893.402 143.687 892.87 147.415C892.338 150.61 891.805 153.939 891.406 157.267C890.874 159.663 891.007 166.32 887.148 165.921ZM360.035 198.272C359.236 197.473 359.901 197.074 360.434 196.808C362.563 195.743 364.559 194.544 366.555 193.479C379.331 186.157 388.912 175.639 397.03 163.657C397.828 162.326 398.094 162.592 398.893 163.657C402.353 167.918 404.349 172.977 407.543 177.37C412.599 184.693 418.455 191.615 423.778 198.672C426.04 201.601 426.04 201.867 423.778 204.663C419.12 210.654 413.797 215.846 407.276 219.84C401.953 223.168 396.098 225.431 390.376 227.961C389.178 228.494 388.646 227.695 387.98 227.162C384.92 224.766 382.657 221.571 379.331 219.574C378.399 219.041 377.467 218.375 376.536 217.843C375.737 217.443 375.072 217.177 375.471 216.378C376.536 212.917 376.536 209.722 376.27 206.526C376.137 205.728 376.004 204.796 375.737 203.997C375.471 203.198 374.939 202.399 374.008 202.266C372.943 202.133 372.411 202.799 371.878 203.464C370.947 204.929 369.882 206.26 368.951 207.725C368.418 208.523 368.019 208.523 367.487 207.725C365.225 204.396 362.829 201.068 360.035 198.272ZM357.506 230.89C362.563 223.035 367.354 214.914 373.209 206.793C373.741 210.52 373.475 213.583 372.277 216.512C371.612 218.242 371.745 219.174 373.874 219.707C376.802 220.506 378.798 222.769 380.927 224.633C381.992 225.565 381.992 226.497 380.927 227.562C376.403 232.354 371.213 236.215 365.624 239.677C364.426 240.342 363.761 240.209 362.696 239.144C360.833 237.014 359.635 234.351 357.506 232.488C357.107 232.088 357.107 231.556 357.506 230.89ZM242.396 271.895C245.456 278.419 250.38 282.812 257.965 283.744C267.68 285.075 276.33 279.484 279.657 269.499C279.923 268.833 280.056 268.167 280.322 267.502C280.588 266.57 280.588 265.505 282.185 266.037C283.649 266.437 284.048 266.969 283.782 268.434C282.851 274.292 280.189 279.617 276.197 283.611C270.475 289.069 263.155 291.066 255.304 288.67C248.118 286.54 242.396 282.413 239.069 275.357C237.871 272.96 236.141 270.83 235.476 268.034C238.536 267.901 240.799 268.567 242.396 271.895ZM246.787 358.698C246.521 359.364 246.122 360.296 245.722 361.228C241.065 369.482 234.81 375.873 226.16 379.867C225.096 380.266 223.632 381.331 222.967 380.266C222.301 379.068 224.031 378.402 224.963 377.87C233.879 373.343 240.399 366.553 245.19 357.9C245.456 357.5 245.722 356.701 246.255 356.835C247.053 357.101 246.92 357.9 246.787 358.698ZM272.471 393.047C272.737 392.648 273.003 392.381 273.402 392.115C273.535 392.381 273.535 392.781 273.535 393.047C273.269 393.047 272.87 393.047 272.471 393.047ZM290.835 344.187C276.596 345.784 262.357 347.648 247.985 348.58C238.936 349.246 230.02 350.311 221.103 351.11C218.974 351.243 218.575 350.71 218.708 348.713C219.64 332.87 218.176 317.161 214.317 301.85C214.05 300.785 214.05 299.986 214.716 299.188C216.446 296.658 218.309 294.262 221.37 293.063C222.035 292.797 222.833 292.531 222.7 291.599C222.567 290.667 221.636 290.534 220.837 290.534C219.24 290.667 218.043 291.466 216.845 292.265C211.921 295.992 209.792 301.318 208.461 307.043C206.598 314.631 205.134 322.353 205.001 330.208C204.868 335.001 205.001 339.66 204.868 344.453C204.735 346.583 204.07 347.116 202.074 347.116C195.154 346.85 188.234 346.716 181.314 346.583C180.116 346.583 179.85 346.051 179.983 344.986C180.116 341.657 180.249 338.196 180.382 335.134C185.572 334.867 190.363 335.267 195.154 335.533C196.085 335.533 197.017 335.533 197.017 334.202C197.017 332.604 195.952 333.004 195.154 332.87C191.694 332.604 188.234 332.205 184.907 331.939C184.108 331.805 183.709 331.672 183.576 330.74C183.177 323.418 182.911 316.229 184.508 309.04C186.637 298.921 189.698 289.336 195.686 280.815C201.009 273.36 208.328 268.966 217.51 268.167C221.902 267.768 226.426 267.502 230.818 267.502C232.415 267.502 233.08 268.034 233.613 269.499C236.939 277.62 241.198 284.942 249.582 289.069C259.296 293.862 268.611 292.93 276.729 286.54C281.919 282.546 284.847 276.422 286.044 269.765C286.444 267.502 286.976 266.836 289.504 266.969C296.69 267.235 303.743 265.238 310.264 262.576C326.1 256.052 339.674 246.2 351.252 233.553C352.449 232.221 352.982 231.955 354.312 233.553C357.905 238.079 361.232 242.872 364.426 247.665C366.023 249.928 368.019 251.659 369.749 253.789C370.548 254.854 370.548 255.52 369.35 256.185C368.684 256.585 368.019 257.117 367.354 257.517C364.16 259.78 364.16 259.78 361.498 256.718C358.97 253.789 356.575 250.727 354.312 247.665C353.647 246.733 352.848 245.535 351.518 246.467C350.32 247.399 351.118 248.464 351.651 249.396C353.78 252.99 356.308 256.319 359.236 259.247C360.567 260.712 360.833 261.777 359.236 263.108C357.107 264.839 355.244 266.969 353.115 268.567C337.944 280.416 320.91 288.537 302.28 293.063C301.215 293.33 300.683 293.063 300.417 291.998C300.15 291.2 299.884 290.534 299.618 289.868C299.219 288.936 298.953 287.605 297.622 288.004C296.291 288.404 296.824 289.602 297.09 290.667C300.683 303.048 304.143 315.297 308.268 327.545C309.599 331.672 310.663 335.799 311.994 339.927C312.527 341.657 311.994 341.924 310.53 342.057C303.877 342.989 297.356 343.521 290.835 344.187ZM646.813 303.714C647.212 305.312 648.676 305.312 650.007 305.312C651.204 305.312 652.269 305.312 653.6 305.844C652.535 306.377 651.47 306.909 650.539 307.575C649.208 308.507 648.01 309.705 649.075 311.303C650.007 312.634 649.341 312.9 648.277 313.3C636.832 317.56 625.121 321.155 613.278 323.95C611.681 324.35 611.148 323.951 611.015 322.486C610.35 317.693 609.552 312.9 608.221 308.241C608.088 307.708 607.822 307.043 608.62 306.377C611.947 304.114 615.141 301.717 618.202 299.321C622.061 296.392 626.319 294.128 631.11 291.998C630.444 296.525 631.243 297.457 635.634 297.057C641.091 296.525 646.547 296.392 652.003 297.057C652.535 297.191 653.067 296.924 653.6 297.59C652.269 299.188 650.539 299.986 648.809 300.918C647.744 301.318 646.414 301.983 646.813 303.714ZM628.049 213.183C638.695 209.988 649.341 206.793 659.588 202.266C661.584 201.334 663.447 200.269 665.443 199.337C666.242 198.938 666.774 198.805 666.774 200.003C667.306 207.192 669.036 214.248 669.835 221.437C669.968 222.902 669.569 223.701 668.371 224.5C666.109 225.964 663.98 227.562 661.85 229.026C661.052 229.559 660.253 230.224 659.721 231.689C663.846 231.156 667.04 229.292 670.5 227.295C671.299 232.354 672.097 237.147 672.896 241.94C672.896 242.073 672.896 242.206 672.896 242.473C673.96 248.73 673.96 248.73 668.371 251.393C658.523 255.919 648.41 259.647 638.03 262.709C637.098 262.975 636.3 263.375 634.836 263.774C636.965 264.573 638.562 264.173 640.159 263.907C651.47 261.91 662.383 258.316 672.496 252.724C674.226 251.792 674.626 251.925 674.892 253.922C675.291 257.25 675.823 260.579 676.888 263.774C677.287 264.972 676.888 265.238 675.956 265.771C674.359 266.703 672.63 267.502 671.033 268.567C669.835 269.366 668.77 270.431 669.169 272.028C669.569 273.626 670.9 274.158 672.23 274.691C672.763 274.957 673.428 274.957 674.359 275.224C673.295 276.155 672.363 276.821 671.565 277.62C670.234 278.951 668.903 280.283 669.569 282.28C670.101 284.277 671.964 284.01 673.561 284.41C672.763 286.54 671.432 288.537 672.23 290.933C672.63 291.998 673.561 292.664 675.025 293.197C672.363 294.661 670.101 295.726 667.839 297.057C664.778 298.921 661.318 299.986 658.657 302.649C657.725 303.581 656.66 301.983 655.33 302.25C656.261 301.051 657.06 300.12 657.725 299.054C659.322 296.259 658.39 294.262 655.197 293.862C649.341 293.197 643.353 292.398 637.364 293.463C635.634 293.729 635.102 293.596 634.969 291.732C634.836 289.203 632.441 288.004 629.646 289.069C626.053 290.401 622.593 292.265 619.532 294.528C615.806 297.191 611.947 299.853 608.62 303.048C608.221 303.448 607.688 304.247 607.156 303.048C606.491 301.451 605.027 301.451 603.563 301.717C601.7 301.983 599.438 302.915 598.107 302.25C596.643 301.584 597.176 298.921 596.776 297.191C594.248 287.206 592.784 276.954 591.187 266.703C591.054 265.505 591.453 264.972 592.518 264.706C593.716 264.307 595.046 263.774 595.579 262.31C594.78 261.777 593.849 261.511 593.05 261.777C590.788 262.31 590.655 261.111 590.522 259.247C589.989 252.458 589.59 245.668 589.457 238.745C589.457 237.147 589.723 236.082 591.453 235.55C592.252 235.283 593.583 234.884 593.316 233.819C593.05 232.754 591.719 232.887 590.921 233.02C589.723 233.153 589.59 232.621 589.723 231.689C589.723 230.091 589.856 228.494 589.856 227.029C589.856 223.434 589.856 223.434 593.316 222.769C594.115 222.636 594.913 222.503 595.579 222.503C599.438 222.103 599.305 222.103 599.571 226.097C600.902 247.132 601.833 268.301 607.555 288.803C608.221 291.2 609.019 293.463 609.951 295.726C610.35 296.791 610.749 298.522 612.346 297.856C613.943 297.324 613.145 295.859 612.878 294.794C610.35 285.741 608.221 276.555 606.89 267.235C606.491 264.307 606.225 261.378 605.825 258.316C605.559 256.718 605.959 256.052 607.822 255.919C614.475 255.387 621.129 254.721 627.384 252.191C628.981 251.526 630.578 250.86 631.908 249.262C630.445 248.863 629.247 249.396 628.182 249.662C621.661 251.259 615.008 252.324 608.221 252.99C606.225 253.256 605.293 252.857 605.16 250.461C604.894 245.801 604.362 241.274 603.962 236.615C603.829 235.15 604.362 234.884 605.692 234.751C611.548 234.085 617.004 232.221 622.46 229.292C620.73 228.494 619.399 229.026 618.068 229.159C613.81 229.958 609.552 230.757 605.426 231.689C604.095 231.955 603.563 231.689 603.563 230.224C603.563 228.094 602.499 225.431 603.43 224.1C604.495 222.503 607.289 224.366 609.285 224.1C609.685 224.1 610.084 224.1 610.483 224.233C615.141 225.831 618.335 223.834 620.464 219.84C621.661 215.979 624.456 214.248 628.049 213.183ZM588.259 219.174C586.529 218.908 584.799 218.775 583.602 217.31C583.07 216.512 582.138 216.778 581.473 216.778C578.944 216.645 576.549 216.378 573.887 215.713C577.081 210.92 580.674 206.793 584.799 203.198C598.24 191.882 609.019 178.302 618.335 163.391C619.399 161.66 620.198 161.394 622.061 162.193C630.711 166.187 639.76 169.382 648.676 172.844C650.14 173.376 650.273 173.909 649.607 175.373C646.281 181.897 641.623 187.355 636.832 192.814C633.239 196.808 630.977 201.734 627.384 205.728C623.125 210.387 619.133 215.313 615.274 220.372C614.742 221.038 614.076 221.304 613.145 221.171C604.894 219.84 596.51 220.506 588.259 219.174ZM588.526 282.28C589.457 282.413 589.856 282.679 590.122 283.611C591.187 288.936 592.385 294.262 593.583 299.72C594.115 302.383 593.05 303.847 590.122 303.847C588.393 303.98 586.663 303.847 584.933 304.247C584.533 304.38 584.001 304.247 583.868 304.513C581.34 307.176 578.146 305.844 575.218 306.111C573.887 306.244 573.355 305.578 573.222 304.38C572.024 298.256 570.161 292.398 569.23 286.274C568.697 283.212 569.097 279.883 566.701 276.688C574.42 279.218 581.339 281.081 588.526 282.28ZM549.934 339.261C540.885 340.193 531.702 340.06 522.786 338.329C506.817 335.134 498.433 326.48 495.772 309.705C494.84 304.247 494.175 298.788 494.175 293.33C494.308 283.478 498.433 275.756 508.148 272.161C511.475 270.963 514.802 270.031 518.262 269.366C521.455 268.7 524.25 269.632 526.912 271.229C529.307 272.561 531.702 274.158 533.965 275.756C539.421 279.484 545.409 280.416 551.531 278.019C554.325 276.954 556.454 275.09 557.785 272.428C558.184 271.629 558.584 270.963 559.648 270.963C560.713 270.963 560.979 271.895 561.245 272.694C562.31 276.022 563.507 279.351 564.439 282.812C566.169 289.868 567.766 296.924 569.363 303.847C569.762 305.445 569.496 306.111 567.633 305.977C558.184 305.578 548.869 304.912 540.086 300.918C531.436 297.057 525.581 290.933 525.714 280.549C524.25 280.815 523.984 281.747 523.851 282.812C523.052 289.868 529.307 300.12 535.295 302.516C543.679 305.844 552.595 307.043 561.378 307.841C574.819 309.173 588.259 308.241 601.7 305.977C603.031 305.711 603.563 305.844 603.962 307.442C605.293 313.566 606.225 319.823 607.422 325.947C607.689 327.279 607.422 327.811 606.092 328.211C587.86 333.137 569.097 337.397 549.934 339.261ZM840.97 270.298C842.966 267.635 844.829 264.972 846.826 262.31C847.092 261.91 847.358 260.845 848.023 261.378C848.955 262.043 849.886 263.108 850.419 264.04C850.818 264.706 849.753 264.839 849.221 265.105C848.289 265.505 847.225 265.904 846.426 266.437C845.096 267.235 844.297 268.434 845.229 269.898C846.027 271.363 845.362 272.161 844.164 272.827C842.434 273.759 840.837 274.957 838.575 275.357C838.974 273.36 839.906 271.762 840.97 270.298ZM817.017 264.573C817.948 262.31 818.88 262.576 820.477 264.173C823.67 267.102 827.13 269.632 830.723 272.561C830.058 272.96 829.659 273.227 829.26 273.36C825.667 274.957 825.667 274.957 824.336 271.363C823.005 267.768 823.005 267.768 819.013 268.034C817.948 268.167 816.351 268.567 815.819 267.635C815.287 266.57 816.617 265.505 817.017 264.573ZM803.177 488.504C802.112 494.761 802.911 500.752 807.701 505.545C809.831 507.675 811.827 509.805 813.823 512.069C816.085 514.465 817.416 517.128 817.15 520.589C816.883 524.983 812.625 527.911 808.5 526.447C805.971 525.515 803.975 523.784 802.112 522.054C797.188 517.66 793.329 512.335 789.337 507.143C788.139 505.545 787.607 503.681 787.873 501.684C788.538 497.291 788.405 492.897 788.272 488.504C788.139 486.107 788.938 485.309 791.2 485.841C791.865 485.974 792.531 485.841 793.196 485.841C796.124 486.107 798.918 486.374 801.713 486.64C802.778 486.64 803.443 486.773 803.177 488.504ZM807.701 374.941C807.169 375.473 806.238 375.74 805.572 374.941C805.04 374.142 805.306 373.476 805.838 372.811C809.564 368.95 812.625 364.556 814.355 359.364C814.488 358.832 814.887 358.299 815.42 358.565C816.351 358.965 815.819 359.897 816.085 360.962C814.887 366.42 811.827 371.08 807.701 374.941ZM821.94 460.546C824.735 449.629 827.796 438.579 831.123 427.795C834.849 415.946 838.708 404.097 840.97 391.716C841.636 388.254 842.434 384.793 843.765 381.597C844.563 379.734 845.495 378.003 847.225 376.805C847.225 380 846.293 382.663 845.628 385.458C843.765 392.381 842.7 398.905 844.696 406.36C849.62 424.067 856.141 441.108 861.863 458.549C848.689 459.88 835.381 460.546 821.94 460.546ZM878.897 342.057C858.802 345.518 838.442 346.45 818.214 347.515C813.157 347.781 808.234 346.849 803.177 347.515C801.447 347.781 801.447 346.45 801.314 345.385C800.914 338.063 800.382 330.873 800.249 323.551C799.983 312.634 799.85 301.717 799.584 290.933C799.584 289.336 799.451 287.738 799.184 286.14C799.051 284.543 798.386 282.945 801.048 282.413C802.511 282.146 802.511 280.549 801.181 279.617C800.382 279.084 799.451 278.818 798.519 278.419C792.531 276.422 786.808 273.892 781.219 270.697C779.09 269.499 778.558 268.434 779.888 265.904C782.949 260.446 785.478 254.721 788.006 249.129C788.672 247.532 789.204 246.999 790.535 248.597C796.39 255.253 804.108 258.715 812.758 259.913C815.154 260.313 814.887 260.978 813.823 262.576C809.831 269.099 810.629 270.697 818.347 270.697C819.811 270.697 820.61 271.229 821.009 272.561C821.275 273.36 821.674 274.158 821.94 274.957C822.606 276.688 823.937 277.221 825.8 276.821C828.062 276.289 830.191 275.756 832.32 274.824C833.518 274.292 834.316 274.292 834.316 276.155C834.583 279.617 834.316 282.945 834.45 286.407C834.583 287.339 834.583 288.271 834.849 289.336C834.982 290.134 835.248 291.066 836.18 291.066C836.978 291.066 836.978 290.001 837.111 289.336C837.51 286.673 837.51 283.877 837.244 281.215C837.111 279.75 837.377 278.951 838.974 278.552C841.769 277.886 844.031 276.155 846.559 274.824C848.289 273.892 848.822 272.295 848.289 270.564C847.89 269.099 848.556 268.7 849.62 268.301C855.609 265.505 855.742 265.238 851.217 260.179C851.084 260.046 850.951 259.78 850.552 259.114C860.266 257.117 865.989 250.461 871.178 243.005C872.642 240.875 873.308 241.141 874.638 242.872C878.365 247.665 883.421 251.259 887.547 255.653C888.878 257.117 888.878 257.916 887.946 259.647C884.087 266.437 877.167 269.499 870.912 273.227C866.521 275.889 866.255 275.756 867.053 280.815C869.848 298.123 871.977 315.563 877.034 332.471C877.832 335.001 878.498 337.53 879.562 339.927C880.494 341.258 880.627 341.79 878.897 342.057ZM892.204 477.853C893.269 477.454 893.801 477.587 894.068 478.785C894.201 479.584 894.6 480.383 894.999 481.182C897.927 488.504 903.383 492.099 911.101 492.631C914.029 492.897 916.957 493.297 920.017 493.829C922.413 494.229 924.276 495.294 925.74 497.158C926.937 498.755 927.07 499.82 924.808 500.619C918.953 502.749 913.097 504.48 907.375 503.681C901.919 503.681 896.995 503.282 892.204 502.749C887.946 502.217 886.349 500.885 885.418 496.625C884.353 491.832 884.087 486.906 882.623 482.247C882.224 481.048 883.155 480.915 883.821 480.649C886.615 479.717 889.41 478.785 892.204 477.853ZM858.27 284.543C855.342 284.809 852.415 285.075 849.487 285.475C848.556 285.608 848.023 286.007 847.757 286.806C846.426 290.667 848.156 293.063 852.149 293.063C852.415 293.063 852.681 293.063 853.479 293.063C855.076 293.33 857.206 292.664 859.468 292.531C860.799 292.398 861.464 291.599 861.464 290.268C861.464 289.336 861.331 288.404 861.464 287.339C861.464 285.075 860.266 284.277 858.27 284.543ZM857.339 289.735C855.875 289.868 854.411 290.134 852.947 290.268C851.882 290.001 850.419 290.933 850.419 288.936C850.419 287.206 851.749 287.738 852.681 287.605C854.145 287.339 855.609 287.339 857.072 287.206C857.871 287.072 858.669 287.206 858.669 288.404C858.669 289.336 858.403 289.735 857.339 289.735ZM816.351 209.056C815.287 209.189 814.754 209.722 814.754 210.52C815.021 212.251 815.952 213.449 817.682 213.716C818.48 213.849 819.013 213.183 818.88 212.384C818.747 210.92 817.948 209.589 816.351 209.056ZM833.651 205.328C833.518 204.13 833.252 202.932 831.788 202.799C830.59 202.666 830.058 203.464 830.058 204.529C830.058 205.728 830.723 206.793 832.054 206.926C833.119 207.192 833.518 206.26 833.651 205.328ZM273.136 181.897C272.338 182.163 271.938 181.364 271.539 180.832C270.874 179.9 270.475 178.968 269.809 178.036C268.612 176.172 267.148 176.039 265.551 177.503C265.018 178.036 264.619 178.701 264.22 179.367C263.155 181.231 263.022 183.228 262.889 185.225C262.889 186.556 262.756 188.154 261.159 188.287C259.562 188.42 259.562 186.69 259.163 185.624C258.897 184.959 258.631 184.16 258.365 183.361C257.699 181.497 256.235 180.699 254.372 180.699C252.509 180.699 251.312 181.497 250.38 183.095C249.182 185.225 249.182 187.621 248.783 189.885C248.65 190.684 248.65 191.749 247.586 191.882C246.521 192.015 245.856 191.349 245.456 190.417C244.791 189.219 244.259 187.888 243.46 186.69C242.529 185.092 241.065 184.027 239.202 184.293C237.339 184.559 236.141 185.758 235.343 187.488C234.677 188.953 234.278 190.684 234.278 192.281C234.411 194.145 234.411 195.743 233.213 197.34C234.544 198.006 235.609 197.34 236.806 197.074C244.126 194.944 251.179 192.148 258.631 190.417C264.087 189.219 269.809 188.687 275.132 186.823C276.862 186.157 276.995 185.491 276.463 184.027C275.798 182.03 274.201 180.699 273.935 178.568C273.935 179.101 273.668 179.633 273.801 180.166C273.801 180.832 273.935 181.63 273.136 181.897ZM241.198 191.349C240.533 191.749 239.734 192.015 239.069 192.281C238.669 192.414 238.137 192.414 237.738 192.148C237.472 191.882 237.339 191.615 237.472 191.349C238.137 190.151 235.742 188.154 238.536 187.621C238.936 187.488 239.202 187.355 239.601 187.222C240.399 187.089 241.198 186.556 241.73 187.488C242.129 188.287 240.932 188.553 240.666 189.352C241.198 189.752 242.262 189.219 242.396 190.284C242.529 190.684 241.73 191.083 241.198 191.349ZM252.642 188.82C250.38 188.82 251.578 186.823 251.578 186.29C251.445 184.426 253.308 184.559 254.505 184.16C255.171 184.293 255.969 184.027 255.836 185.092C255.703 187.222 254.372 188.82 252.642 188.82ZM265.018 182.429C264.752 181.231 266.349 181.231 267.281 180.832C267.813 180.565 268.745 180.432 269.011 181.098C269.41 182.163 268.079 182.163 267.68 182.829C266.748 182.562 265.285 183.894 265.018 182.429ZM268.079 185.225C267.281 185.491 266.083 186.157 265.551 185.225C264.885 183.627 266.882 183.761 267.547 182.962C268.478 183.095 269.942 181.897 270.341 183.228C270.874 184.693 269.144 184.826 268.079 185.225ZM832.72 235.55C832.853 236.082 833.252 236.482 833.784 236.615C835.78 237.014 837.377 236.348 838.841 235.017C840.172 233.686 841.103 232.221 840.039 229.825C838.043 231.955 836.18 233.819 833.518 234.485C832.853 234.618 832.586 235.017 832.72 235.55ZM845.894 197.74C842.833 189.618 838.176 182.296 830.324 178.701C818.081 173.11 805.173 173.509 792.664 178.169C785.877 180.699 781.752 186.024 780.687 193.213C780.421 194.678 780.155 195.743 778.824 196.675C774.166 200.003 772.037 204.529 772.17 210.254C772.436 217.843 775.497 224.1 780.554 229.559C786.01 235.55 793.329 238.745 800.116 242.606C801.048 243.138 802.378 243.405 803.443 243.405C805.04 243.271 805.971 243.937 807.036 245.002C813.024 251.925 820.876 254.854 829.925 255.12C831.655 255.12 833.385 255.12 835.115 254.721C843.233 252.591 850.685 243.937 851.217 234.618C851.749 226.097 849.753 217.71 846.559 209.722C846.027 208.523 845.362 207.192 846.027 205.994C847.491 203.065 846.959 200.402 845.894 197.74ZM847.624 228.627C847.491 235.15 845.894 241.408 840.837 246.467C837.377 249.928 833.252 251.393 828.195 250.993C816.617 249.928 808.633 244.07 803.576 233.819C802.112 230.89 802.112 230.89 799.318 232.887C798.652 233.286 798.12 233.686 797.454 233.419C796.656 233.02 796.523 232.221 796.523 231.422C796.656 228.893 797.321 226.63 798.652 224.5C802.778 217.71 802.511 210.52 799.983 203.198C799.584 201.867 797.321 201.068 798.386 199.47C799.051 198.405 800.781 198.006 801.979 197.473C810.629 193.746 819.545 190.95 829.26 193.346C831.921 194.012 833.917 195.476 835.514 197.473C842.966 206.127 847.491 216.378 847.624 228.627ZM216.712 201.467C217.111 202.799 216.978 203.997 216.446 205.328C215.514 207.858 215.248 210.52 215.647 213.183C215.914 214.515 215.78 215.58 215.248 216.778C213.784 220.372 214.583 223.967 217.377 225.298C219.906 226.363 220.172 227.828 219.507 229.958C219.373 230.491 219.373 231.023 219.373 231.556C219.24 237.68 225.229 244.47 230.951 244.203C232.282 244.203 232.814 244.603 233.479 245.535C241.198 256.718 252.243 260.446 265.285 258.981C272.737 258.049 277.927 254.055 280.721 246.999C282.318 243.138 282.984 239.011 283.383 234.884C284.181 226.363 282.451 217.976 280.721 209.722C280.455 208.39 280.056 207.059 281.653 206.127C282.584 205.595 282.718 204.396 282.851 203.331C283.383 198.938 282.052 194.944 279.79 191.216C277.394 187.355 277.395 187.355 273.136 189.086C271.938 189.618 271.672 190.018 272.338 191.216C273.935 194.145 274.999 197.207 275.798 200.402C277.128 206.793 278.459 213.316 279.657 219.84C280.854 226.23 280.854 232.621 279.79 239.011C277.927 250.993 272.338 256.185 260.228 256.185C252.11 256.185 244.924 253.922 239.069 247.665C232.681 240.742 229.886 232.488 228.822 223.434C228.689 222.636 228.955 221.704 228.156 221.304C227.358 221.038 226.959 221.97 226.56 222.369C224.43 224.366 222.035 224.5 219.507 223.568C217.111 222.769 216.313 220.639 217.244 217.71C217.91 215.58 218.974 215.047 221.636 215.713C223.1 216.112 224.031 215.846 224.963 214.514C227.491 210.787 228.955 206.66 229.886 202.399C230.286 200.935 229.886 200.136 228.156 200.669C225.761 201.334 223.499 201.867 221.103 202.399C220.039 202.666 218.442 203.731 218.043 202.133C217.777 200.935 219.64 200.935 220.571 200.669C224.297 199.604 228.156 198.672 232.016 197.606C230.685 195.743 229.753 194.012 228.955 192.148C228.156 190.417 226.959 188.953 224.963 188.953C222.833 188.953 221.769 190.684 220.97 192.414C220.172 194.278 219.906 196.142 219.906 198.139C219.906 198.805 220.172 200.003 219.24 200.136C218.176 200.136 218.176 198.938 218.176 198.139C218.043 195.476 218.309 192.947 219.64 190.684C222.434 185.624 227.624 185.624 230.685 190.417C230.951 190.817 231.084 191.482 231.883 191.749C232.149 188.021 232.947 184.559 236.673 182.829C240.932 180.832 243.593 183.494 246.122 186.423C247.186 183.095 247.852 179.9 251.445 178.701C254.905 177.503 257.832 178.835 260.228 181.497C260.893 180.033 261.292 178.568 261.958 177.37C264.619 172.844 269.277 172.844 272.071 177.104C272.471 177.77 272.737 178.302 273.535 178.435C272.471 177.636 272.071 176.305 271.805 175.24C270.608 170.447 267.414 168.45 262.756 167.385C255.038 165.521 247.719 162.592 239.734 161.927C238.403 161.794 237.339 162.06 236.407 162.992C230.153 169.648 223.765 176.039 217.91 182.962C217.377 183.627 216.978 184.16 216.18 185.358C217.91 184.693 219.107 184.16 220.172 183.761C231.616 179.5 243.194 175.906 254.905 172.577C258.498 171.512 262.224 170.847 265.817 169.915C266.615 169.782 267.547 169.515 267.813 170.58C267.946 171.645 266.882 171.645 266.216 171.912C265.95 172.045 265.817 172.045 265.551 172.045C257.167 174.042 248.916 176.305 240.666 178.968C232.415 181.63 224.164 184.426 215.913 187.355C213.784 188.154 213.651 188.953 214.05 190.684C215.115 194.278 215.913 197.873 216.712 201.467ZM222.833 193.346C223.1 191.749 224.563 191.882 225.628 191.482C226.293 191.482 227.092 191.615 226.826 192.148C226.426 193.479 224.963 193.612 223.898 194.012C223.366 194.278 222.7 193.879 222.833 193.346ZM222.301 196.275C223.1 194.544 224.697 194.278 226.293 194.012C226.959 194.145 227.89 194.145 227.491 194.811C226.56 196.275 224.83 196.675 223.366 197.074C222.7 197.207 222.168 196.808 222.301 196.275ZM244.924 170.713C243.46 170.847 241.996 170.847 240.533 171.113C239.202 171.246 237.871 171.379 237.605 173.11C237.339 174.175 236.274 174.574 235.209 174.574C234.411 174.574 233.879 174.175 233.479 173.509C232.947 172.444 233.346 171.512 234.145 170.713C235.476 169.116 237.206 168.317 239.202 168.051C241.065 167.918 242.928 167.918 245.057 167.785C246.255 168.184 248.783 167.651 248.783 169.382C248.65 171.379 246.255 170.58 244.924 170.713ZM273.668 205.861C274.201 204.796 273.136 204.13 272.338 203.731C271.672 203.331 270.874 203.198 270.475 203.065C268.345 203.065 266.882 203.731 265.684 204.929C265.152 205.461 264.619 205.994 265.152 206.793C265.684 207.592 266.482 207.192 267.015 206.66C268.345 205.595 269.676 205.195 271.406 205.861C272.205 206.393 273.136 207.059 273.668 205.861ZM810.496 203.065C808.234 203.731 806.504 206.393 806.637 209.589C807.036 210.52 806.504 212.517 808.367 212.651C810.496 212.784 809.697 210.92 809.964 209.722C810.23 208.257 810.363 206.66 811.96 205.994C813.024 205.595 813.557 204.796 813.024 203.731C812.492 202.799 811.427 202.799 810.496 203.065ZM830.723 196.009C830.723 194.544 829.526 193.879 828.195 193.746C825.8 193.479 823.005 195.476 822.34 197.74C822.207 198.538 821.94 199.337 822.872 199.87C823.67 200.269 824.203 199.604 824.602 199.071C825.534 197.873 826.465 197.074 827.796 197.207C829.393 197.607 830.59 197.74 830.723 196.009Z" fill="black"/>
</svg>
