<svg width="320" height="225" viewBox="0 0 320 225" fill="none" xmlns="http://www.w3.org/2000/svg">
<path d="M48.1557 86.4806C48.1557 86.6295 48.1556 86.7784 48.379 86.8528C48.6023 86.9272 48.7512 86.7039 48.9001 86.555C50.24 85.2151 51.2822 83.6518 52.0266 81.7907C50.91 82.163 48.2301 85.5128 48.1557 86.4806ZM50.4633 31.7658C49.9423 31.8402 50.0911 32.3613 50.1656 32.6591C50.5378 34.2224 51.1333 35.7112 52.6966 36.6789C52.4733 35.0412 51.6544 33.7757 51.1333 32.3613C50.9844 31.9891 50.8356 31.6913 50.4633 31.7658ZM62.0763 33.4035C62.7463 33.3291 63.044 32.808 63.1929 32.2124C63.2674 31.9147 63.1929 31.6169 63.1929 31.3191C63.2674 30.7236 63.1185 30.2025 62.8951 29.607C62.6718 29.0859 62.2996 28.5648 61.6296 28.6392C60.8852 28.7881 60.8108 29.5325 60.8108 30.1281C60.8108 30.8725 60.8852 31.5425 61.0341 32.2869C61.2574 32.7335 61.2574 33.4779 62.0763 33.4035ZM37.3616 42.4854C38.4782 43.2298 39.5948 44.0487 40.7859 44.7187C41.2326 45.0164 41.6792 45.2398 42.3492 44.8676C41.2326 43.2298 39.5948 42.3365 37.8827 41.4432C37.5849 41.2943 37.2127 41.2943 36.9894 41.6666C36.8405 42.1132 37.1382 42.3365 37.3616 42.4854ZM62.3741 83.6518C61.9274 82.8329 60.9597 82.6841 60.7363 83.5029C60.1408 85.2895 59.9919 87.1506 60.3641 88.9372C60.4386 89.4583 60.9597 89.9049 61.4808 89.8305C62.1507 89.8305 62.2996 89.3094 62.4485 88.7139C62.5974 87.8205 62.8207 87.0017 62.6718 86.1084C62.8207 85.2895 62.8207 84.3962 62.3741 83.6518ZM42.7214 57.076C40.4881 56.7783 38.1804 56.5549 35.8727 56.3316C35.1283 56.2572 34.3839 56.5549 34.3095 57.2994C34.1606 58.0438 34.9794 58.2671 35.5005 58.416C37.5105 58.7882 39.5204 59.0115 41.5303 59.3093V59.2348C41.8281 59.2348 42.2003 59.3093 42.4981 59.2348C43.168 59.1604 43.6891 58.8626 43.7636 58.1927C43.9125 57.4482 43.2425 57.1505 42.7214 57.076ZM37.8827 74.6443C38.106 74.8676 38.4038 74.7188 38.6271 74.5699C39.967 73.6766 41.3814 72.8577 42.5725 71.2944C40.4137 71.22 39.1482 72.4855 37.8827 73.751C37.5849 74.0488 37.5849 74.421 37.8827 74.6443ZM215.724 32.7335C214.533 32.7335 213.938 33.1802 213.938 34.1479C213.938 35.1157 214.236 35.5623 214.906 35.5623C215.724 35.5623 216.915 34.5201 216.915 33.7757C216.767 33.1057 216.32 32.808 215.724 32.7335ZM195.178 146.704C201.655 147.3 208.057 146.853 214.087 144.396C221.233 141.493 226.444 136.208 230.241 129.582C234.633 122.064 236.643 113.875 236.643 106.282C236.568 100.327 236.345 95.6369 234.633 91.096C232.772 86.0339 230.241 81.493 225.476 78.4409C222.871 76.8031 220.414 75.0165 217.883 73.3044C214.831 71.22 211.407 69.8801 207.908 68.8379C206.717 68.4657 205.377 68.8379 204.186 68.2423C201.804 67.1257 199.198 66.7535 196.593 66.4557C191.456 65.9346 186.394 66.3068 181.481 68.3168C177.536 69.9545 174.111 72.3366 170.836 75.0165C164.36 80.2275 159.967 86.8528 157.66 94.8181C156.245 99.5079 155.799 104.272 155.948 109.111C156.171 118.267 159.595 126.158 166.146 132.337C174.26 140.004 183.64 145.662 195.178 146.704ZM192.647 86.7784C198.379 94.5948 204.409 102.188 209.546 110.451C201.357 113.056 193.02 115.811 184.31 117.97C187.139 107.399 189.893 97.0513 192.647 86.7784ZM89.2476 87.225C92.4486 83.1307 94.533 78.5153 96.394 73.751C98.3295 68.7634 98.404 63.478 98.5528 58.1927C98.6273 56.3316 98.5528 54.545 98.2551 52.7584C96.9151 46.0586 93.5652 40.401 89.322 35.1901C87.1632 32.5846 84.6322 30.2769 81.9523 28.1926C79.1235 25.9593 76.1458 23.8005 72.4982 22.9072C70.3393 22.3861 68.1805 21.7906 66.0217 21.4184C62.0018 20.6739 57.982 20.5251 53.9621 21.3439C52.771 21.5672 51.8033 22.3117 50.5378 22.535C47.5601 23.0561 44.7313 24.0983 42.1259 25.5871C38.0316 27.9692 34.4583 31.0958 31.1085 34.4457C28.8752 36.6789 27.0886 39.2844 25.972 42.3365C24.3342 46.803 23.2176 51.344 22.9198 56.1827C22.6965 59.9048 22.8454 63.5525 23.292 67.2001C24.0365 72.4855 26.4186 77.1753 29.173 81.5674C31.1829 84.8429 33.4906 87.9694 36.5427 90.3516C41.6792 94.3714 47.6346 96.3814 53.8877 97.7958C59.0986 98.9124 64.2351 99.359 69.446 97.3491C75.1781 95.1158 80.9845 93.1059 86.1955 89.6816C87.3121 88.8627 88.4287 88.2672 89.2476 87.225ZM85.9721 86.9272C82.0267 89.3094 78.0813 91.6171 73.6892 93.0315C71.8282 93.627 70.0416 94.297 68.255 95.0414C64.384 96.6791 60.4386 96.4558 56.4931 95.7114C52.25 94.8925 48.0068 93.9248 44.0613 92.0637C37.0638 88.8627 32.5973 83.2796 29.2474 76.5798C27.833 73.751 26.4186 70.8478 25.8975 67.7212C25.4509 64.818 25.1531 61.9148 25.302 58.8626C25.0042 53.2051 26.2697 47.7708 28.2797 42.4854C29.9918 38.0189 33.3417 34.8179 36.9894 31.8402C39.0737 30.1281 41.0092 28.267 43.4658 27.0015C45.4757 25.9593 47.5601 24.9171 49.7934 24.396C51.5055 23.9494 53.2921 23.9494 55.0787 23.6516C57.6098 23.205 60.1408 23.205 62.6718 23.5027C67.4361 24.0238 72.2004 24.7682 76.3691 27.2993C81.059 30.1281 85.3022 33.6268 88.5776 38.0189C91.9275 42.411 94.8307 47.2497 95.7985 52.8328C96.394 55.9594 96.1707 59.1604 95.9474 62.3614C95.7985 64.8924 95.6496 67.349 94.9796 69.8056C93.7886 74.5699 91.5553 78.8875 89.0987 83.1307C88.3543 84.6195 87.461 86.0339 85.9721 86.9272ZM318.826 69.9545C317.561 66.9768 316.072 64.2225 314.881 61.2448C314.211 59.5326 313.243 58.0438 312.052 56.7038C309.447 53.8006 306.171 51.9395 302.449 50.8974C297.983 49.5574 293.367 48.9619 288.901 47.6964C285.774 46.803 282.722 45.5375 279.447 44.942C277.66 44.6442 275.873 44.4209 274.161 43.7509C270.96 42.4854 267.61 41.6666 264.261 41.071C260.613 40.4755 256.965 40.0288 253.392 39.3589C250.787 38.8378 248.256 38.0933 245.725 37.5723C241.63 36.679 237.536 35.5623 233.516 34.3713C227.188 32.5102 220.935 30.2769 214.459 28.7881C209.397 27.597 204.335 26.406 199.347 25.2149C194.955 24.1727 190.563 22.9072 186.245 21.5672C182.896 20.5251 179.546 19.5573 176.27 18.1429C171.953 16.3563 167.635 14.6441 163.094 13.602C161.456 13.2297 159.744 13.1553 158.106 12.5598C155.054 11.5176 152.077 10.2521 148.801 9.80542C147.61 9.65654 146.493 9.35877 145.377 9.13544C141.952 8.31658 138.677 6.90218 135.327 5.93444C131.084 4.74337 126.915 3.99895 122.523 4.89225C120.737 5.26446 119.173 6.00888 118.057 7.57216C116.717 9.43321 115.6 11.3687 114.632 13.3786C112.325 18.1429 109.347 22.6094 107.933 27.8204C107.635 29.0859 107.263 30.3514 106.667 31.5425C106.22 31.3191 105.997 30.9469 105.848 30.5747C103.689 26.7782 101.084 23.2794 97.4362 20.6739C94.6074 18.5896 91.8531 16.2819 88.5032 15.2397C81.729 13.1553 74.9547 11.1454 67.9572 10.1032C67.3617 10.0287 67.2128 9.87986 67.2128 9.28432C67.2128 7.6466 66.9894 6.08332 66.7661 4.4456C66.3195 1.54236 65.5751 0.649062 63.4907 0.276852C60.2152 -0.244241 56.9398 -0.0209135 53.7388 0.87239C51.0589 1.61681 48.9001 2.95676 48.6767 6.23221C48.6023 7.49772 48.5279 8.76323 48.5279 9.9543C48.5279 10.6987 48.379 11.0709 47.4857 11.2198C46.1457 11.4431 44.7313 11.3687 43.4658 11.9642C40.5626 13.3042 37.5849 14.2719 34.5328 15.3141C26.7908 17.9196 20.3888 22.4605 14.8801 28.3415C11.158 32.3613 8.55255 37.0512 6.24485 41.9643C5.20266 44.1231 4.30936 46.3564 3.4905 48.813C5.64932 46.5797 6.91483 43.9743 8.62699 41.6666C8.92476 41.2943 9.29697 40.5499 9.81806 40.9221C10.3392 41.2199 10.2647 41.9643 9.81806 42.5599C9.66918 42.7087 9.59474 42.9321 9.5203 43.081C7.80813 45.8353 5.7982 48.3663 3.93715 50.9718C3.04385 52.1629 2.15054 53.4284 1.70389 54.9172C0.661707 58.2671 0.43838 61.7659 0.0661706 65.2646C-0.0827132 66.8279 0.0661706 68.3912 0.0661706 70.1034C1.1828 68.0934 2.37387 66.3068 3.71383 64.5202C4.01159 64.0736 4.3838 63.478 4.9049 63.8502C5.42599 64.148 5.20266 64.8924 5.05378 65.4135C4.9049 65.7113 4.68157 66.0091 4.45825 66.3068C3.26717 68.019 2.0761 69.6567 1.25724 71.5178C0.810592 72.4855 -0.0827116 73.3788 0.140614 74.6443C0.36394 75.9098 0.363938 77.2498 0.661705 78.5153C1.10836 80.3764 1.25724 82.3863 2.0761 84.3218C3.04385 82.9818 3.86271 81.8652 4.68157 80.6741C5.42599 79.5575 6.17041 78.5153 6.98927 77.3987C7.28704 77.0265 7.73369 76.4309 8.25478 76.8031C8.85032 77.1754 8.32923 77.6964 8.18034 78.1431C8.1059 78.2175 8.03146 78.3664 7.95702 78.4409C6.31929 80.823 4.68157 83.2051 2.96941 85.5128C2.67164 85.8851 2.52275 86.1084 2.67164 86.7039C4.01159 90.6493 6.84039 93.7759 8.92476 97.498C9.37141 96.7536 9.66918 96.158 9.96695 95.6369C11.0836 93.7759 11.9769 91.6915 13.689 90.1282C13.9868 89.8305 14.2846 89.5327 14.7312 89.9049C15.1034 90.2027 14.8801 90.5749 14.7312 90.8727C14.5823 91.096 14.5079 91.3938 14.359 91.6171C12.8702 93.5526 11.828 95.7858 10.5625 97.8702C10.1158 98.6146 10.1903 98.9868 10.7114 99.6568C12.8702 102.486 15.4012 105.017 18.0067 107.399C18.4533 107.845 18.6766 107.697 18.9744 107.25C20.5377 105.091 21.6543 102.634 22.9198 100.327C23.1432 99.8801 23.3665 99.0613 24.1109 99.4335C24.7809 99.7312 24.3342 100.401 24.1854 100.922C24.1854 101.071 24.0365 101.22 23.962 101.369C22.5476 103.826 21.5799 106.505 19.4211 108.441C21.7288 110.451 24.0365 112.312 26.5675 113.95C27.163 114.322 27.3864 114.471 27.6841 113.577C28.8752 110.302 30.8107 107.399 32.4484 104.421C32.6717 104.049 32.9695 103.602 33.4906 103.826C34.0117 104.049 33.8628 104.57 33.6395 105.017C33.4906 105.389 33.3417 105.761 33.1184 106.133C31.6295 108.813 29.9918 111.493 28.8752 114.322C28.7263 114.694 28.2797 115.141 29.0241 115.513C32.1506 117.002 35.3516 118.267 38.776 118.937C39.3715 119.086 39.5204 118.788 39.7437 118.416C40.5626 117.002 41.307 115.587 41.9025 114.099C42.6469 112.237 43.6891 110.6 44.8802 108.962C45.1035 108.664 45.4013 108.143 45.9224 108.441C46.4435 108.739 46.2946 109.26 45.9968 109.632C43.7636 112.61 42.9447 116.257 40.7859 119.235C40.9348 119.309 41.0837 119.384 41.1581 119.384C44.508 120.128 47.9323 120.128 51.4311 120.054C51.7289 120.054 51.8033 119.905 51.9522 119.682C52.3988 118.714 52.9199 117.746 53.441 116.778C54.7065 114.62 55.972 112.386 57.312 110.228C57.5353 109.93 57.7587 109.409 58.2053 109.632C58.7264 109.93 58.4286 110.376 58.2053 110.749C57.7587 111.568 57.2376 112.386 56.7909 113.28C55.5254 115.513 54.2599 117.672 52.8455 120.054C53.8877 119.979 54.781 119.831 55.6743 119.831C57.6842 119.831 59.6941 119.831 61.7785 119.831C62.4485 119.831 62.8951 119.607 63.2674 118.937C65.1284 115.587 67.1383 112.386 69.2972 109.185C69.5949 108.739 70.0416 107.845 70.6371 108.218C71.3071 108.664 70.7115 109.409 70.3393 110.004L70.2649 110.079C68.3294 113.056 66.4684 116.108 64.5329 119.086C64.6818 119.161 64.7562 119.235 64.8306 119.235C67.9572 118.788 71.0093 118.267 74.0614 117.523C74.3592 117.448 74.657 117.225 74.8803 116.853C76.9647 113.577 79.049 110.376 81.1334 107.101C81.4312 106.729 81.6545 106.282 81.9523 105.91C82.1756 105.612 82.5478 105.389 82.92 105.687C83.2178 105.91 83.1433 106.282 82.9945 106.58C82.6223 107.175 82.25 107.845 81.8778 108.441C80.1657 111.046 78.4535 113.652 76.6669 116.481C79.2724 116.034 81.5801 115.066 83.8878 114.099C84.26 113.95 84.6322 113.503 84.93 113.875C85.2277 114.099 84.93 114.545 84.8555 114.917C83.1433 121.766 81.5056 128.615 79.6446 135.389C78.2302 140.6 77.5602 146.034 75.9969 151.245C75.6247 152.585 75.4014 153.999 75.8481 155.414C76.8158 158.391 78.2302 161.22 79.719 163.975C80.7612 165.91 82.0267 167.846 82.7711 169.93C83.6644 172.387 85.3766 173.578 87.8332 174.173C91.8531 175.215 95.8729 176.034 99.8184 177.374C104.508 179.012 109.347 180.203 114.186 181.543C118.95 182.808 123.789 183.925 128.553 185.191C134.508 186.828 140.315 188.764 146.27 190.327C153.64 192.337 161.01 194.57 168.379 196.58C173.665 197.995 178.95 199.335 184.236 200.675C188.702 201.791 193.094 203.131 197.486 204.322C204.409 206.183 211.407 207.821 218.33 209.608C225.625 211.543 232.995 213.032 240.216 215.191C245.055 216.605 249.893 217.871 254.732 219.136C258.156 220.029 261.581 220.848 265.005 221.593C268.132 222.263 271.035 223.528 274.087 224.198C275.799 224.57 277.511 224.719 279 223.603C281.382 221.89 283.541 220.029 284.285 216.977C285.849 210.426 288.454 204.173 290.092 197.697C291.581 191.816 293.218 186.009 295.005 180.277C296.271 176.183 297.611 172.089 298.578 167.92C299.993 161.667 301.482 155.488 303.194 149.31C305.352 141.493 307.437 133.602 309.745 125.786C312.276 117.002 314.658 108.143 317.114 99.359C318.305 95.1903 319.273 90.8727 319.422 86.4806C319.496 83.0563 319.496 79.6319 319.943 76.2076C320.166 74.0488 319.72 72.1133 318.826 69.9545ZM61.3319 2.28678C62.2996 1.98901 64.0118 2.88232 64.1607 3.85007C64.4584 5.56223 64.7562 7.27439 64.6818 8.98655C64.6818 9.65653 64.4584 9.87986 63.8629 9.80542C63.7885 9.80542 63.714 9.80542 63.6396 9.80542C61.183 9.58209 61.1085 9.58209 61.183 9.28432C61.4063 8.39102 61.2574 7.42328 61.3319 6.52997C61.183 5.26446 61.5552 3.99895 61.1085 2.80788C61.0341 2.58455 61.0341 2.36122 61.3319 2.28678ZM55.8232 2.65899C56.7165 2.58455 57.6842 2.43567 58.5775 2.36123C59.2475 2.28679 59.0986 2.73343 59.0986 3.0312C59.1731 4.4456 59.2475 5.86 59.2475 7.27439C59.2475 8.01881 59.2475 8.83767 59.7686 9.58209C58.3542 9.65653 57.0887 9.50765 55.8976 9.80542C55.3765 9.9543 55.1532 9.73098 55.1532 9.20988C55.2276 7.42328 55.1532 5.56223 54.9299 3.77562C54.8554 2.95676 55.1532 2.65899 55.8232 2.65899ZM50.5378 8.39102C50.6122 7.57216 50.5378 6.67886 50.6867 5.86C50.91 4.59448 51.7289 3.99895 52.8455 3.47786C52.9944 5.48779 53.0688 7.34883 53.2177 9.20988C53.2177 9.65653 53.0688 9.80542 52.6966 9.9543C50.6867 10.6243 50.4633 10.4754 50.5378 8.39102ZM72.0515 105.835C69.1483 106.357 66.245 106.58 63.714 106.431C58.7264 106.58 54.1854 105.835 49.6445 105.314C44.0613 104.644 38.776 103.081 33.6395 100.997C29.0241 99.0613 25.0787 96.2325 21.7288 92.5104C16.1456 86.3317 12.7957 79.0364 10.7114 70.9967C9.37141 66.0091 9.22253 61.0215 9.96695 55.885C11.2325 47.0264 14.4335 38.8378 19.0489 31.2447C21.9521 26.5549 26.2697 23.0561 30.8107 20.004C33.4162 18.2918 36.0961 16.5796 39.0737 15.9097C41.8281 15.2397 44.4336 13.9742 47.3368 13.8997C48.9745 13.8253 50.4633 12.932 52.1011 12.6342C55.5254 12.0387 59.0242 12.1131 62.5229 12.1876C71.0093 12.4853 78.9746 15.1652 87.0143 17.3985C90.4387 18.3662 93.1186 20.6739 95.9474 22.6839C100.339 25.8104 102.796 30.5003 105.625 34.8179C108.9 39.7311 110.687 45.2398 111.506 51.1207C112.101 55.5128 112.697 59.9793 112.176 64.3713C111.506 69.5823 110.315 74.7188 108.379 79.6319C106.146 85.1406 102.87 89.8305 98.5528 93.8503C95.4263 96.7536 91.4808 98.6146 87.6099 100.55C82.6223 103.081 77.4858 104.868 72.0515 105.835ZM114.409 54.9172C113.962 52.2373 113.962 49.6318 114.781 47.0264C115.153 45.7609 115.377 44.4209 115.674 43.1554C117.312 36.7534 119.471 30.5747 122.821 24.7682C124.086 22.6839 124.905 20.3017 126.32 18.2918C127.139 17.1007 128.255 16.4307 129.595 16.2819C130.935 16.0585 132.275 15.9841 133.615 15.9097C137.188 16.133 140.613 17.2496 143.962 18.3662C146.791 19.334 149.546 20.2273 152.523 20.6739C155.501 21.1206 158.33 22.0883 161.159 23.205C162.126 23.5772 163.02 23.5772 163.987 23.8005C169.347 24.9171 174.26 27.0759 179.322 29.0859C181.853 30.1281 184.533 30.8725 187.139 31.6913C193.466 33.7013 199.943 35.1157 206.419 36.6789C209.695 37.4234 212.97 38.1678 216.171 39.1355C221.233 40.6244 226.221 42.1876 231.283 43.7509C235.452 45.0164 239.769 45.8353 244.012 46.9519C250.34 48.5897 257.04 48.5897 263.293 50.5996C267.387 51.9395 271.705 52.5351 275.873 53.8006C277.065 54.1728 278.256 54.6194 279.372 55.1405C281.308 55.885 283.392 56.0339 285.402 56.5549C289.943 57.6716 294.633 58.3415 298.429 61.4681C300.067 62.7336 301.035 64.2225 300.96 66.3068C300.588 72.4855 300.737 78.5897 299.546 84.7684C298.132 91.6171 295.749 98.0935 294.112 104.793C291.804 114.173 288.752 123.329 286.295 132.635C284.732 138.515 283.392 144.471 281.903 150.352C279.968 157.796 277.511 165.017 275.427 172.387C274.385 176.109 273.417 179.831 272.375 183.553C271.556 186.456 270.439 189.21 269.62 192.114C269.099 193.975 268.653 195.836 267.908 197.548C266.717 200.451 263.516 201.94 260.613 200.898C255.03 198.962 249.223 197.995 243.566 196.58C239.099 195.464 234.707 194.124 230.315 192.858C222.796 190.699 215.203 188.987 207.61 187.052C192.796 183.404 178.28 178.863 163.466 175.29C159.149 174.248 154.831 173.131 150.513 171.865C138.528 168.292 126.617 164.793 114.409 161.89C108.007 160.401 101.903 157.945 95.5007 156.456C94.1608 156.158 92.8208 156.009 91.4809 155.488C90.9598 155.265 90.4387 155.042 90.2153 154.595C89.4709 152.957 88.3543 151.32 88.7265 149.31C89.1731 147.076 89.8431 144.843 90.2898 142.535C91.9275 133.975 94.4585 125.711 96.4685 117.3C97.2873 113.801 98.1062 110.302 98.7762 106.729C99.4461 103.23 101.307 100.401 103.392 97.6469C106.518 93.4037 108.603 88.565 110.612 83.7262C111.878 80.6741 112.697 77.3987 112.92 73.9743C113.143 71.3689 113.962 68.7634 114.335 66.1579C114.93 62.2125 115.004 58.5649 114.409 54.9172ZM92.0764 102.113C91.9275 102.411 92.0019 102.783 91.7786 103.156C90.2898 105.538 89.0987 108.069 88.0565 110.674C87.6099 111.716 86.9399 112.237 85.6744 112.312C87.3865 108.888 88.7265 105.389 90.7364 102.262C90.8853 101.965 91.1086 101.592 91.4809 101.592C91.8531 101.518 92.2997 101.443 92.0764 102.113ZM311.085 72.56C311.01 78.962 309.521 85.2151 307.66 91.2449C305.352 98.6891 303.566 106.282 301.333 113.726C299.174 120.724 297.387 127.796 295.377 134.793C293.293 142.089 291.879 149.533 289.869 156.828C288.454 161.89 286.816 166.878 285.328 171.94C283.839 177.151 282.499 182.362 281.01 187.498C279.744 191.741 278.33 195.985 276.99 200.228C276.395 202.163 275.948 204.248 275.129 206.109C273.64 209.608 270.216 211.022 266.717 209.756C263.814 208.714 260.836 207.746 257.859 207.225C253.839 206.481 249.893 205.513 245.948 204.471C239.099 202.684 232.325 200.526 225.402 198.813C219 197.176 212.523 195.464 206.047 193.975C196.146 191.667 186.469 188.615 176.568 186.009C171.283 184.669 165.997 183.404 160.786 181.915C155.799 180.501 150.737 179.459 145.749 177.895C140.687 176.258 135.402 175.066 130.34 173.503C121.109 170.6 111.729 168.516 102.424 165.985C96.6173 164.421 91.0342 162.262 85.1533 160.923C83.7389 160.625 82.3245 160.401 80.9101 159.88C80.389 159.657 79.7935 159.434 79.4957 158.913C78.6024 157.052 77.4113 155.265 77.858 153.106C78.3046 150.724 78.9746 148.416 79.4957 146.034C80.7612 139.781 82.3245 133.677 83.9622 127.498C85.1533 122.957 86.2699 118.416 87.3866 113.801C87.5354 113.354 87.5354 112.907 88.131 112.61C91.1831 111.344 93.6397 109.26 96.4685 107.101C94.9052 113.95 93.2675 120.501 91.5553 126.977C90.2153 132.039 88.8009 137.176 87.9821 142.312C87.6099 144.396 86.791 146.406 86.4932 148.565C86.3444 149.384 86.3444 150.203 86.5677 150.947C86.9399 152.064 87.3121 153.181 87.7588 154.297C88.4287 156.009 89.8431 156.828 91.4809 157.275C94.3096 158.094 97.2129 158.466 99.9672 159.359C103.019 160.327 106.071 161.295 109.124 162.114C115.451 163.826 121.779 165.389 128.032 167.101C135.104 169.037 142.101 171.195 149.173 173.205C151.034 173.727 152.821 174.322 154.682 174.843C161.158 176.555 167.635 178.267 174.037 179.98C179.173 181.394 184.31 182.883 189.521 184.223C197.561 186.307 205.6 188.317 213.714 190.253C221.531 192.114 229.347 194.272 237.089 196.431C241.258 197.622 245.501 198.739 249.819 199.632C253.764 200.377 257.486 201.717 261.283 202.759C263.293 203.28 265.005 202.908 266.717 201.568C269.099 199.781 270.216 197.399 271.035 194.645C272.598 189.062 274.682 183.553 276.097 177.895C277.586 172.089 279.149 166.357 281.01 160.699C283.318 153.702 284.732 146.406 286.593 139.334C288.454 132.486 290.092 125.563 292.102 118.788C294.484 111.121 296.196 103.23 298.578 95.6369C300.216 90.5005 301.482 85.2895 302.3 79.9297C302.673 77.1754 302.598 74.2721 302.747 71.4433C302.821 69.4334 302.97 67.4235 302.896 65.4135C302.821 62.8825 301.779 60.947 299.769 59.3837C297.238 57.4482 294.41 56.1827 291.283 55.3639C287.784 54.4706 284.137 53.875 280.638 52.9817C279.67 52.7584 278.777 52.3862 277.883 52.014C275.278 51.0462 272.598 50.4507 269.844 50.0785C267.685 49.7807 265.675 48.7385 263.591 48.143C259.496 46.9519 255.253 46.5053 251.084 45.8353C245.948 45.0164 240.811 43.7509 235.824 42.3365C229.645 40.6244 223.466 38.8378 217.288 36.8278C211.853 35.1157 206.196 34.1479 200.687 32.7335C197.188 31.8402 193.69 31.0214 190.191 29.9792C186.32 28.7881 182.3 27.8204 178.503 26.2571C174.335 24.5449 170.24 22.6839 165.774 21.865C162.35 21.195 159.074 20.0784 155.799 19.0362C153.863 18.4407 151.779 18.2918 149.843 17.7707C147.238 17.0263 144.781 16.0585 142.25 15.3141C139.198 14.4953 136.22 13.3042 133.019 13.4531C131.828 13.5275 130.563 13.602 129.372 13.7508C127.064 14.0486 125.426 15.3141 124.161 17.324C118.578 26.4804 115.377 33.999 112.846 44.7931C112.325 44.3465 112.325 43.6765 112.176 43.1554C111.134 40.1777 110.166 37.1256 108.454 34.3713C108.156 33.9246 108.156 33.6268 108.23 33.1057C109.794 27.4482 111.804 22.0139 114.707 16.9518C115.972 14.793 117.089 12.4853 118.206 10.1776C119.397 7.72105 121.332 6.45553 124.161 6.23221C127.139 6.00888 130.042 6.30665 132.871 7.05107C136.518 8.01881 140.091 9.43321 143.739 10.4754C146.27 11.2198 149.024 11.3687 151.555 12.1131C153.714 12.7087 155.724 13.602 157.883 14.1975C159.967 14.8675 162.201 15.1652 164.359 15.6863C168.305 16.6541 172.027 18.4407 175.824 19.9295C179.769 21.4928 183.863 22.6094 187.883 23.9494C195.402 26.406 203.218 27.8948 210.886 29.6814C216.618 31.0958 222.201 32.808 227.858 34.5201C234.856 36.6789 241.928 38.6144 249.074 40.1777C254.211 41.2943 259.347 41.8154 264.484 42.7832C267.61 43.3787 270.811 44.1231 273.789 45.3887C275.055 45.9098 276.543 46.0586 277.883 46.282C281.233 46.8031 284.36 47.8452 287.486 49.1108C289.645 49.9296 291.878 50.0785 294.112 50.5996C299.025 51.7907 304.087 52.5351 308.33 55.8105C310.415 57.4482 311.382 59.3093 311.233 61.8403C311.382 65.7857 311.159 69.2101 311.085 72.56ZM77.1136 73.751C77.4113 72.9322 76.8158 72.6344 76.2203 72.2622C71.6049 69.5823 66.9895 66.9768 62.0763 64.9669C61.1085 64.5947 60.8852 63.9991 61.1085 63.1058C61.183 62.8081 61.2574 62.5847 61.2574 62.287C61.2574 56.7783 62.0763 51.344 62.0018 45.8353C62.0018 44.4209 62.0018 43.081 62.0018 41.6666C62.0018 40.9966 61.853 40.401 61.4808 39.8055C61.2574 39.5077 60.9597 39.21 60.5875 39.3589C60.2152 39.4333 60.0664 39.7311 59.9919 40.1033C59.843 40.7733 59.7686 41.3688 59.7686 42.0388C59.7686 44.7187 59.7686 47.473 59.6197 50.1529C59.3219 54.9172 59.0986 59.6815 58.8008 64.4458C58.7264 65.5624 59.1731 66.2324 60.2152 66.679C64.7562 68.6145 69.1483 70.9967 73.3915 73.5277C73.987 73.8999 74.5825 74.3466 75.327 74.421C76.0714 74.3466 76.8158 74.4954 77.1136 73.751ZM91.4809 58.5649C91.4064 58.0438 90.9598 57.746 90.5131 57.746C88.5032 57.6716 86.4932 57.4482 84.4833 57.746C83.8878 57.8204 83.3667 58.2671 83.3667 58.7882C83.3667 59.3837 83.9622 59.8304 84.4833 59.8304C85.5255 59.9048 86.5677 60.277 87.6843 60.0537C88.7265 60.2026 89.8431 60.0537 90.8109 59.5326C91.1086 59.3837 91.5553 59.1604 91.4809 58.5649ZM75.4014 80.4508C74.9547 80.6741 75.1036 81.1952 75.2525 81.493C75.6992 82.5352 76.3691 83.4285 77.6347 84.024C77.5602 82.6841 77.0391 81.7163 76.4436 80.823C76.2203 80.4508 75.7736 80.2275 75.4014 80.4508ZM78.0069 37.9445C77.7091 37.7211 77.4113 38.0189 77.2624 38.1678C75.7736 39.5077 74.5825 40.9966 73.5403 42.7087C73.3915 42.9321 73.1681 43.3043 73.5403 43.602C73.8381 43.8254 74.1359 43.5276 74.4336 43.3787C76.0714 42.0388 77.1136 40.2522 78.2302 38.54C78.3046 38.4655 78.3046 38.3911 78.3046 38.3167C78.3046 38.0933 78.1557 38.0189 78.0069 37.9445ZM86.6421 48.5896C86.6421 48.2174 86.1955 48.0686 85.8233 48.0686C85.1533 47.9941 84.5577 47.9197 83.8878 47.8452C82.92 47.7708 82.0267 47.9197 81.2079 48.813C82.8456 49.1852 84.3344 49.3341 85.8233 49.1852C86.1955 49.1852 86.6421 49.0363 86.6421 48.5896ZM84.0367 69.5078C83.7389 69.2845 83.2922 69.2101 82.92 69.5823C82.6223 69.8801 82.8456 70.3267 83.0689 70.4756C84.4089 71.5178 85.8233 72.56 87.8332 72.56C86.791 71.0711 85.3766 70.3267 84.0367 69.5078Z" fill="black"/>
</svg>
