<svg width="343" height="226" viewBox="0 0 343 226" fill="none" xmlns="http://www.w3.org/2000/svg">
<path d="M194.804 147.734C194.604 151.434 195.604 154.734 196.904 157.934C202.704 173.034 214.604 179.434 229.904 180.834C237.104 181.434 244.204 180.134 251.004 177.634C261.304 173.934 267.604 166.634 270.704 156.334C271.904 152.434 272.604 148.434 273.204 144.334C273.404 143.134 273.604 141.434 275.104 141.634C276.704 141.834 276.404 143.434 276.304 144.734C275.604 150.734 274.304 156.634 271.804 162.234C268.404 169.934 263.004 175.534 255.204 178.934C243.504 184.034 231.304 185.434 219.004 181.534C205.204 177.234 196.004 168.034 192.804 153.534C192.304 151.134 191.904 148.734 192.104 146.234C192.204 144.534 191.304 143.634 189.804 143.434C185.404 142.934 181.004 142.434 176.704 143.434C176.104 143.534 175.504 143.534 174.904 143.534C169.104 143.534 163.404 144.034 157.704 145.134C154.704 145.634 152.104 147.334 149.404 148.334C144.904 150.034 140.504 151.634 136.604 154.634C127.804 161.234 121.804 169.734 118.904 180.334C117.404 185.634 116.904 191.034 116.504 196.434C116.504 196.934 116.504 197.434 116.404 197.934C116.304 198.934 116.104 200.034 114.804 199.934C113.504 199.934 113.204 198.834 113.204 197.834C113.004 195.534 113.404 193.134 113.604 190.834C114.204 183.734 115.804 176.834 118.904 170.434C122.204 163.734 126.704 157.934 132.704 153.234C134.004 152.234 134.304 151.334 133.504 149.834C128.104 139.934 121.704 130.934 110.704 126.634C107.404 125.334 104.604 123.134 101.004 122.534C99.8038 122.334 99.2038 122.534 98.6038 123.534C94.4038 129.734 89.2038 134.634 82.3038 137.634C81.8038 137.834 81.3038 138.134 81.0038 138.634C79.2038 141.634 77.5038 144.634 76.4038 147.934C75.9038 149.434 75.7038 150.934 76.0038 152.534C76.6038 152.434 76.7038 151.934 76.9038 151.634C79.2038 147.234 82.2038 143.134 84.7038 138.834C85.4038 137.534 86.6038 137.334 88.0038 138.434C90.7038 140.534 93.3038 142.834 95.9038 145.034C96.8038 145.834 97.6038 146.634 98.5038 147.434C99.5038 148.334 100.204 148.134 100.404 146.834C100.704 145.334 100.904 143.734 101.004 142.134C101.404 138.034 101.004 133.834 100.504 129.734C100.504 129.534 100.404 129.334 100.404 129.034C100.404 128.234 100.304 127.234 101.204 126.934C102.304 126.634 102.604 127.734 103.004 128.434C103.704 130.034 104.004 131.634 104.204 133.334C104.704 138.034 104.404 142.734 103.404 147.234C102.504 151.134 100.104 151.934 96.8038 149.734C93.7038 147.834 91.2038 145.334 88.4038 143.034C86.9038 141.834 86.8038 141.834 85.9038 143.434C83.1038 148.734 80.0038 153.934 77.6038 159.534C76.3038 162.634 77.3038 164.934 77.6038 167.634C77.8038 169.334 78.0038 170.934 78.0038 172.634C78.0038 173.134 77.9038 173.834 77.3038 173.934C76.6038 174.134 76.3038 173.534 76.1038 173.134C74.4038 170.234 73.8038 167.034 73.2038 163.834C72.9038 162.134 72.4038 160.634 71.4038 159.234C69.3038 156.334 66.9038 153.634 64.3038 151.134C62.9038 149.834 62.5038 149.934 62.1038 151.734C61.2038 156.034 58.6038 159.134 55.5038 161.934C52.3038 164.834 49.6038 164.634 47.4038 160.934C43.3038 154.234 40.8038 146.834 40.8038 138.834C40.8038 137.834 40.9038 136.734 41.3038 135.834C41.5038 135.134 41.9038 134.634 42.7038 134.734C43.6038 134.734 44.0038 135.334 44.1038 136.134C44.3038 137.734 44.5038 139.334 44.6038 141.034C45.2038 146.934 47.1038 152.434 49.6038 157.634C51.1038 160.634 51.8038 160.734 54.1038 158.234C55.7038 156.434 57.2038 154.534 57.8038 152.134C58.3038 150.034 59.8038 148.334 60.0038 146.134C60.1038 145.534 60.1038 145.134 59.7038 144.734C58.3038 143.234 56.9038 141.734 55.4038 140.234C55.1038 139.834 54.6038 139.634 54.2038 139.534C47.5038 137.334 41.9038 133.534 37.4038 128.134C36.7038 127.234 36.2038 127.134 35.1038 127.834C23.0038 134.834 16.1038 146.034 10.6038 158.334C7.50384 165.334 6.10383 172.834 4.90383 180.334C4.80383 181.234 4.60383 182.034 4.20383 182.834C3.80383 183.434 3.20384 183.934 2.50384 183.834C1.70384 183.734 1.30384 183.134 1.00384 182.434C0.803838 181.834 0.803833 181.234 0.803833 180.634C2.40383 169.634 5.00384 158.834 10.6038 149.034C14.9038 141.434 20.0038 134.534 26.7038 128.834C28.7038 127.134 30.9038 125.934 33.4038 125.134C34.4038 124.734 34.7038 124.434 34.0038 123.434C30.6038 118.134 28.0038 112.334 26.1038 106.334C25.7038 105.234 25.4038 104.634 23.9038 105.034C21.2038 105.634 19.0038 104.634 17.3038 102.434C16.0038 100.734 16.2038 97.8345 17.7038 95.6345C18.3038 94.7345 19.0038 93.8345 19.9038 93.2345C20.4038 92.9345 20.8038 92.5345 20.2038 91.9345C17.2038 89.3345 16.7038 85.6345 15.8038 82.1345C14.6038 77.7345 14.0038 73.1345 12.8038 68.7345C11.3038 62.8345 10.0038 56.8345 8.20383 50.9345C8.00383 50.1345 7.80383 49.2345 7.70383 48.3345C7.50383 46.8345 7.40383 45.2345 6.70383 43.7345C5.80383 41.8345 6.40384 39.8345 7.10384 38.0345C12.6038 23.8345 21.6038 12.4345 33.8038 3.43447C38.9038 -0.265527 44.1038 -0.0655334 49.6038 1.83447C59.9038 5.23447 69.6038 9.73448 78.9038 15.2345C88.3038 20.7345 94.4038 28.7345 96.5038 39.5345C96.6038 40.3345 96.7038 41.0345 96.3038 41.7345C95.2038 43.7345 95.4038 45.9345 96.4038 47.7345C99.5038 53.5345 100.004 59.6345 99.2038 65.9345C99.0038 67.4345 99.4038 67.8345 100.804 67.8345C104.104 67.9345 107.004 70.7345 107.604 73.9345C108.504 78.6345 106.704 81.8345 102.404 83.5345C101.404 83.9345 101.304 84.3345 101.504 85.2345C103.604 93.5345 104.004 101.934 103.304 110.334C103.104 112.834 102.504 115.234 101.504 117.634C101.104 118.634 101.304 118.934 102.304 119.134C104.504 119.534 106.604 120.234 108.404 121.634C108.804 121.934 109.204 122.134 109.704 122.334C119.504 125.234 126.504 131.734 131.904 140.034C133.704 142.734 135.104 145.534 136.704 148.334C137.104 148.934 137.404 149.434 138.204 148.934C143.404 146.034 149.204 144.734 154.404 142.034C158.704 139.834 163.304 140.234 167.804 139.534C171.704 138.934 175.604 138.734 179.504 138.534C181.504 138.434 183.404 138.534 185.404 138.734C185.804 138.734 186.204 138.934 186.404 138.434C186.604 138.034 186.204 137.834 186.104 137.634C183.204 133.934 180.504 130.034 178.204 125.834C177.804 125.034 177.404 124.834 176.704 125.734C174.504 128.434 171.604 128.934 168.604 127.734C160.004 124.234 153.904 118.234 150.704 109.434C150.404 108.634 150.304 107.934 149.104 108.134C144.904 108.834 141.404 107.134 138.404 104.434C133.104 99.6345 129.904 87.4345 134.504 79.8345C138.104 73.9345 142.904 69.6345 149.704 67.8345C150.304 67.6345 150.904 67.6345 151.504 67.6345C152.104 67.6345 152.504 67.3345 152.704 66.7345C155.204 58.9345 160.604 53.4345 167.404 49.3345C171.204 47.0345 175.304 45.1345 179.904 44.8345C182.704 44.6345 185.504 44.9345 188.004 46.3345C189.204 46.9345 189.604 46.5345 190.104 45.6345C194.204 38.6345 199.704 33.1345 207.204 29.9345C214.004 27.0345 220.804 26.7345 227.404 30.6345C230.104 32.2345 232.204 34.4345 233.404 37.3345C233.804 38.4345 234.304 38.5345 235.204 37.8345C238.204 35.5345 241.404 33.7345 245.104 32.9345C251.304 31.7345 257.204 31.8345 262.604 35.8345C268.904 40.5345 272.404 50.0345 270.604 57.6345C270.104 59.7345 270.404 59.9345 272.504 60.2345C281.904 61.4345 288.504 66.8345 292.204 75.2345C294.904 81.3345 292.604 87.2345 288.604 92.2345C287.204 94.0345 287.104 93.9345 288.804 95.3345C291.004 97.1345 292.104 99.5345 292.504 102.334C293.304 108.434 291.104 113.234 286.204 116.734C279.604 121.434 272.704 125.234 264.404 125.834C264.204 125.834 264.004 125.834 263.704 125.834C259.904 125.934 259.904 125.934 259.104 129.634C258.304 133.434 258.304 133.534 262.304 133.634C265.804 133.734 269.204 134.534 272.604 135.134C276.604 135.834 280.804 136.134 284.804 136.934C295.204 138.834 305.304 141.334 314.604 146.434C328.404 154.034 337.204 165.534 341.604 180.534C342.104 182.034 342.104 183.634 342.004 185.234C342.004 185.934 342.204 186.834 341.304 187.034C340.604 187.234 340.304 186.334 340.004 185.834C338.804 184.034 338.104 182.034 337.304 180.134C330.404 162.234 318.104 150.334 299.604 144.834C294.204 143.234 288.804 141.534 283.304 141.034C277.804 140.434 272.404 139.334 267.004 138.134C265.604 137.834 265.404 138.134 265.404 139.634C265.304 150.134 263.604 160.034 255.204 167.534C249.904 172.234 243.504 174.334 236.604 174.934C229.704 175.534 223.004 174.934 216.504 172.534C207.604 169.334 202.904 162.334 200.004 153.834C200.404 150.134 196.504 149.834 194.804 147.734ZM65.0038 137.634C70.9038 137.434 76.6038 136.234 81.8038 133.334C93.0038 127.134 99.8038 118.034 99.6038 104.634C99.5038 96.7345 98.5038 89.0345 96.6038 81.4345C96.3038 80.3345 96.1038 79.2345 96.3038 78.0345C96.4038 77.3345 96.5038 76.6345 97.2038 76.4345C97.9038 76.2345 98.4038 76.8345 98.8038 77.3345C99.4038 78.1345 99.7038 79.0345 100.004 80.0345C100.304 81.0345 100.804 81.0345 101.604 80.6345C103.404 79.8345 104.404 77.7345 104.104 75.7345C103.704 73.6345 102.004 71.9345 100.004 72.0345C99.1038 72.0345 98.0038 71.3345 97.2038 72.4345C96.1038 73.9345 94.9038 74.0345 93.6038 72.7345C91.8038 70.9345 91.0038 68.6345 90.8038 66.1345C90.7038 64.1345 90.7038 62.2345 90.6038 60.2345C90.6038 58.6345 90.0038 57.4345 88.5038 56.6345C87.1038 55.9345 86.1038 54.8345 85.0038 53.7345C83.8038 52.5345 82.7038 51.3345 81.2038 50.3345C79.4038 49.1345 77.7038 48.9345 75.9038 50.2345C73.4038 52.0345 70.6038 52.4345 67.7038 51.9345C65.1038 51.5345 62.4038 51.1345 59.8038 50.7345C58.8038 50.6345 57.8038 50.5345 57.6038 51.9345C57.4038 53.9345 56.2038 55.3345 54.8038 56.5345C52.7038 58.2345 50.3038 59.1345 47.8038 59.9345C42.0038 61.6345 36.2038 61.2345 30.3038 60.1345C28.4038 59.7345 28.2038 59.9345 28.7038 61.7345C29.4038 64.2345 29.4038 66.7345 28.5038 69.1345C27.1038 73.1345 25.9038 77.2345 23.9038 80.9345C23.5038 81.6345 23.4038 82.3345 23.6038 83.1345C24.8038 87.9345 25.9038 92.7345 27.2038 97.5345C29.5038 106.234 32.4038 114.734 37.5038 122.234C44.0038 132.134 53.0038 137.434 65.0038 137.634ZM223.104 156.434C226.104 156.234 229.304 155.934 232.404 155.134C241.604 152.834 248.504 147.834 252.204 138.834C254.704 132.534 256.004 126.034 256.604 119.334C256.804 116.934 256.904 114.534 257.104 112.134C257.204 110.934 257.604 109.834 259.104 109.734C261.604 109.534 263.804 108.534 265.604 106.834C267.904 104.634 268.404 101.334 266.904 98.6345C266.004 96.8345 264.904 96.2345 262.904 96.6345C260.704 97.0345 258.404 96.6345 256.304 97.8345C255.504 98.3345 254.404 98.1345 253.404 97.9345C250.204 97.4345 247.504 96.1345 245.204 93.9345C241.404 90.3345 239.504 85.6345 238.104 80.7345C237.504 78.6345 237.504 78.5345 235.504 79.5345C228.704 82.9345 222.104 80.9345 218.904 75.3345C218.404 74.5345 218.004 74.3345 217.304 75.0345C216.104 76.2345 214.704 76.9345 213.204 77.5345C208.404 79.5345 203.504 80.3345 198.904 77.1345C197.604 76.2345 197.104 76.4345 196.404 77.7345C193.604 82.5345 190.504 87.0345 185.504 89.8345C184.904 90.1345 184.904 90.6345 184.804 91.2345C184.504 99.2345 180.604 105.234 174.204 109.734C173.404 110.334 173.204 110.734 173.704 111.634C177.404 117.634 180.604 124.034 184.604 129.834C190.004 137.734 196.204 144.834 204.204 150.134C209.704 153.834 215.904 156.334 223.104 156.434ZM37.1038 41.0345C37.7038 41.3345 38.0038 41.0345 38.4038 40.8345C43.8038 38.7345 49.4038 37.0345 55.3038 36.5345C56.3038 36.4345 56.5038 35.8345 56.6038 35.0345C57.1038 31.5345 58.7038 28.5345 61.2038 26.0345C64.8038 22.6345 69.6038 23.3345 72.2038 27.5345C72.7038 28.4345 73.1038 29.3345 73.6038 30.3345C73.7038 30.6345 73.8038 31.0345 74.2038 31.0345C74.6038 31.0345 74.7038 30.6345 74.8038 30.3345C75.8038 28.4345 77.4038 27.0345 79.2038 25.9345C81.4038 24.6345 83.6038 24.8345 85.5038 26.5345C87.6038 28.3345 88.7038 30.8345 89.2038 33.4345C89.4038 34.3345 89.7038 35.7345 88.7038 36.0345C87.8038 36.3345 87.3038 35.1345 86.8038 34.3345C85.8038 32.7345 85.1038 31.0345 83.9038 29.6345C82.7038 28.1345 81.5038 28.0345 79.9038 29.1345C78.4038 30.1345 77.3038 31.5345 76.8038 33.3345C76.6038 34.1345 76.2038 35.3345 75.3038 34.8345C73.9038 34.1345 72.0038 34.0345 71.3038 32.2345C70.9038 31.3345 70.3038 30.5345 69.8038 29.7345C67.7038 26.3345 64.9038 26.1345 62.4038 29.3345C61.3038 30.8345 60.6038 32.5345 59.9038 34.2345C59.2038 35.8345 59.2038 35.9345 61.0038 35.8345C71.2038 35.1345 81.1038 36.6345 90.7038 40.0345C92.1038 40.5345 92.4038 40.3345 92.2038 38.8345C91.7038 34.9345 90.3038 31.3345 88.0038 28.1345C86.5038 26.0345 84.5038 24.4345 81.9038 23.8345C78.0038 22.9345 74.1038 22.3345 70.1038 22.1345C61.8038 21.8345 53.5038 21.7345 45.3038 23.0345C34.3038 24.8345 24.7038 29.9345 15.7038 36.4345C11.9038 39.1345 10.3038 42.7345 10.9038 47.3345C11.4038 51.0345 12.6038 54.6345 13.6038 58.2345C13.7038 58.5345 13.7038 58.9345 14.1038 58.9345C14.5038 58.9345 14.6038 58.5345 14.7038 58.2345C15.3038 57.3345 15.8038 56.3345 16.5038 55.5345C21.1038 49.3345 27.5038 45.6345 34.2038 42.3345C35.1038 41.8345 36.7038 41.7345 35.1038 40.1345C34.5038 39.5345 34.5038 38.5345 34.5038 37.6345C34.6038 34.4345 35.5038 31.4345 37.6038 29.0345C39.7038 26.6345 42.2038 24.9345 45.6038 25.4345C49.4038 26.0345 52.1038 28.4345 54.4038 31.4345C54.9038 32.1345 55.2038 32.9345 54.5038 33.6345C53.7038 34.4345 52.9038 33.9345 52.2038 33.4345C51.6038 32.9345 51.0038 32.3345 50.4038 31.7345C49.6038 30.9345 48.7038 30.2345 47.7038 29.6345C45.0038 28.0345 42.7038 28.3345 40.5038 30.5345C39.6038 31.4345 39.0038 32.5345 38.6038 33.7345C37.7038 36.3345 37.7038 38.7345 37.1038 41.0345ZM202.204 153.434C202.504 155.234 203.304 156.434 204.004 157.634C207.004 163.434 211.204 167.934 217.604 170.134C225.004 172.734 232.504 173.134 240.104 171.734C247.504 170.334 253.404 166.734 257.304 160.134C261.204 153.434 262.204 146.034 262.004 138.434C262.004 138.234 261.904 137.934 261.704 137.934C260.404 137.334 259.004 137.534 257.704 137.534C256.704 137.534 256.604 138.534 256.404 139.234C253.004 148.134 247.004 154.334 238.004 157.534C228.904 160.734 219.804 161.534 210.604 157.734C207.704 156.534 205.104 155.034 202.204 153.434ZM76.1038 19.3345C76.0038 18.6345 75.6038 18.4345 75.3038 18.3345C66.4038 13.6345 57.4038 9.13447 47.8038 6.13447C43.9038 4.93447 40.1038 4.13447 36.2038 6.93447C26.6038 13.7345 19.4038 22.6345 13.6038 32.7345C13.3038 33.2345 12.9038 33.7345 13.3038 34.4345C13.6038 34.2345 13.8038 34.0345 14.1038 33.8345C26.7038 24.5345 40.5038 18.7345 56.4038 18.9345C62.8038 18.8345 69.4038 18.5345 76.1038 19.3345ZM71.8038 155.434C72.0038 153.134 72.2038 151.334 72.4038 149.534C72.6038 147.934 72.8038 146.134 74.1038 145.034C75.4038 143.934 75.7038 142.434 76.5038 141.034C76.9038 140.334 76.8038 139.834 75.8038 140.034C71.2038 141.334 66.5038 141.734 61.7038 141.434C61.4038 141.434 61.1038 141.334 61.0038 141.634C60.8038 142.034 61.1038 142.234 61.3038 142.534C62.2038 143.634 62.8038 144.934 63.6038 146.034C65.9038 149.434 68.8038 152.134 71.8038 155.434ZM22.8038 95.2345C21.3038 96.4345 20.1038 97.6345 19.6038 99.2345C19.2038 100.334 19.6038 101.134 20.6038 101.634C21.7038 102.134 22.8038 102.334 23.8038 101.634C24.1038 101.434 24.1038 101.034 24.0038 100.734C23.6038 98.9345 23.2038 97.1345 22.8038 95.2345Z" fill="black"/>
<path d="M196.304 206.734C198.004 209.634 199.704 212.435 200.704 215.635C201.504 218.135 201.604 220.634 201.104 223.234C200.904 224.234 200.504 225.235 199.404 225.435C198.304 225.735 197.604 224.935 197.004 224.135C193.204 218.735 188.604 213.935 184.304 208.835C184.204 208.635 184.104 208.435 183.904 208.335C183.704 209.335 184.204 210.034 184.604 210.734C185.604 212.534 186.704 214.235 187.204 216.335C187.504 217.835 187.504 219.235 186.804 220.635C185.904 222.335 184.104 222.635 182.704 221.335C181.704 220.335 181.104 219.034 180.404 217.734C179.004 214.834 177.304 212.035 175.104 209.535C174.704 209.135 174.504 208.535 173.704 208.435C173.604 209.935 173.904 211.435 174.104 212.935C174.304 215.035 174.504 217.035 173.804 219.035C172.504 222.435 170.004 223.035 167.404 220.535C165.404 218.535 164.104 216.235 163.204 213.635C162.304 211.035 161.404 208.435 160.304 205.835C158.504 201.735 155.504 198.935 151.304 197.435C150.204 197.035 149.104 196.735 148.204 196.035C147.804 195.735 147.404 195.335 147.604 194.835C147.804 194.335 148.204 194.334 148.704 194.234C149.704 194.134 150.804 194.335 151.704 194.635C158.404 196.835 162.104 201.835 164.404 208.135C165.304 210.635 166.004 213.235 167.204 215.635C167.804 216.735 168.404 217.834 169.304 218.734C170.404 219.734 170.804 219.634 171.304 218.234C171.704 216.834 171.604 215.335 171.604 213.835C171.504 211.535 171.004 209.335 171.104 207.035C171.104 206.235 171.004 205.335 172.004 204.935C173.004 204.535 173.704 205.034 174.304 205.734C177.504 209.134 180.304 212.934 182.204 217.234C182.604 218.134 183.104 218.935 183.604 219.835C183.904 220.235 184.204 220.635 184.804 220.435C185.304 220.235 185.204 219.734 185.204 219.234C185.004 216.634 183.804 214.335 182.604 212.035C181.604 210.135 180.604 208.234 180.004 206.234C179.804 205.534 179.404 204.835 180.304 204.335C181.004 203.935 181.604 204.335 182.104 204.835C187.504 210.235 193.504 214.935 197.804 221.335C198.004 221.735 198.204 222.435 198.804 222.135C199.404 221.835 199.104 221.135 199.004 220.635C198.204 213.235 194.304 207.435 189.204 202.335C188.804 201.935 188.304 201.535 187.904 201.035C187.404 200.435 187.104 199.835 187.604 199.135C188.104 198.435 188.804 198.635 189.504 199.035C192.404 200.735 195.404 202.435 198.204 204.435C203.204 208.035 208.104 211.934 212.104 216.734C212.404 217.034 212.604 217.635 213.104 217.435C213.704 217.235 213.404 216.535 213.304 216.135C212.504 211.135 210.504 206.735 207.104 203.035C199.704 194.835 190.804 189.635 179.704 188.335C178.504 188.235 177.204 187.935 176.004 187.535C175.204 187.335 174.204 186.834 174.504 185.734C174.704 184.734 175.604 184.635 176.504 184.635C184.804 184.935 192.604 186.835 199.604 191.535C205.704 195.635 211.004 200.434 214.104 207.234C215.204 209.634 216.004 212.135 216.504 214.635C216.804 216.035 216.704 217.335 216.304 218.635C215.704 220.935 213.804 221.735 211.804 220.335C210.204 219.335 209.204 217.735 207.904 216.435C204.304 212.735 200.404 209.634 196.304 206.734Z" fill="black"/>
<path d="M280.604 206.234C279.404 207.334 278.904 208.634 278.204 209.834C277.204 211.434 276.304 213.034 274.804 214.234C272.704 216.034 270.904 215.534 270.004 212.934C269.604 211.934 269.504 210.934 269.404 209.934C269.304 208.934 269.104 207.934 269.004 206.734C267.904 207.434 267.404 208.434 266.704 209.334C265.004 211.534 263.304 213.834 260.904 215.434C259.604 216.234 258.304 217.334 256.704 216.334C255.104 215.334 255.504 213.734 255.804 212.134C256.104 210.334 256.704 208.634 257.404 207.034C257.604 206.534 258.004 206.134 257.604 205.234C255.404 207.034 253.204 208.734 251.104 210.334C249.204 211.734 247.304 213.034 245.104 213.834C243.804 214.334 242.504 214.634 241.404 213.634C240.204 212.634 240.404 211.134 240.804 209.834C242.004 206.134 244.104 202.934 246.704 200.134C259.604 185.634 275.404 178.734 295.004 181.734C297.704 182.134 300.204 183.234 302.604 184.634C303.304 185.034 304.104 185.634 303.604 186.534C303.104 187.434 302.304 187.134 301.504 186.834C287.104 181.334 273.804 184.634 260.904 191.834C253.704 195.934 248.004 201.334 244.104 208.734C243.704 209.534 242.704 210.534 243.404 211.234C244.204 212.134 245.204 211.034 246.004 210.634C250.504 208.034 254.504 204.534 258.304 200.934C259.004 200.334 259.604 199.634 260.404 199.134C262.004 198.234 263.304 199.034 263.204 200.834C263.204 201.934 262.704 202.934 262.204 203.934C260.804 206.434 259.904 209.234 258.904 211.934C258.804 212.334 258.404 212.834 258.804 213.134C259.204 213.434 259.604 213.034 259.904 212.734C261.504 211.534 262.804 209.934 264.004 208.334C265.204 206.734 266.304 205.134 267.504 203.634C268.204 202.734 268.904 201.834 270.104 202.134C271.304 202.434 271.504 203.534 271.704 204.534C271.904 206.534 272.104 208.534 272.304 210.534C272.404 211.134 272.104 211.934 272.804 212.134C273.504 212.334 273.904 211.534 274.304 211.034C276.504 207.934 278.304 204.634 280.004 201.334C280.204 200.934 280.404 200.534 280.604 200.134C281.104 199.334 281.704 198.534 282.804 198.834C283.904 199.134 284.004 200.134 284.004 201.134C283.904 203.534 283.704 205.934 283.604 208.334C283.504 210.034 283.404 211.834 283.604 213.534C283.704 214.034 283.604 214.934 284.404 215.034C285.004 215.134 285.204 214.334 285.404 213.934C287.904 209.334 290.904 204.934 294.104 200.734C295.704 198.734 297.504 196.934 299.804 195.734C301.204 194.934 302.604 194.834 304.104 195.234C304.704 195.434 305.204 195.834 305.104 196.534C305.004 197.234 304.404 197.534 303.804 197.434C301.204 197.034 299.604 198.434 298.104 200.134C294.304 204.534 291.004 209.334 288.204 214.534C287.604 215.734 287.004 216.834 285.904 217.634C284.804 218.534 283.604 218.534 282.604 217.534C281.204 216.134 280.704 214.234 280.704 212.334C280.604 210.334 280.604 208.434 280.604 206.234Z" fill="black"/>
<path d="M84.3038 156.635C84.3038 155.535 84.4038 154.635 85.0038 153.935C85.6038 153.135 86.4038 152.635 87.4038 153.135C88.5038 153.735 88.5038 154.734 88.0038 155.734C87.5038 156.834 86.5038 157.735 85.4038 158.035C83.8038 158.635 84.7038 157.035 84.3038 156.635Z" fill="black"/>
<path d="M67.4038 106.935C62.5038 106.935 58.5038 103.835 57.0038 98.8345C56.5038 97.1345 56.2038 95.4345 55.9038 93.7345C55.7038 92.8345 55.9038 91.9345 56.9038 91.6345C57.9038 91.3345 58.4038 92.1345 58.7038 92.8345C59.5038 94.6345 60.1038 96.4345 60.8038 98.3345C62.0038 101.535 64.3038 103.135 67.8038 103.135C68.2038 103.135 68.7038 103.035 69.1038 103.135C70.0038 103.235 70.9038 103.435 71.0038 104.535C71.1038 105.535 70.5038 106.135 69.6038 106.535C68.9038 106.835 68.2038 106.935 67.4038 106.935Z" fill="black"/>
<path d="M68.0039 121.234C66.3039 121.234 64.7039 120.834 63.1039 120.134C62.3039 119.734 61.7039 119.134 62.0039 118.234C62.3039 117.234 63.2039 117.234 64.0039 117.334C66.4039 117.634 68.9039 118.034 71.2039 117.034C71.9039 116.734 72.6039 116.334 73.3039 116.134C74.3039 115.834 75.3039 115.734 75.9039 116.834C76.5039 117.934 75.8039 118.734 75.0039 119.334C72.8039 120.634 70.5039 121.234 68.0039 121.234Z" fill="black"/>
<path d="M43.5038 71.9344C46.1038 71.9344 48.0038 72.5344 49.6038 74.1344C50.2038 74.8344 50.9038 75.6344 50.3038 76.6344C49.6038 77.6344 48.7038 77.3344 47.8038 76.9344C45.6038 75.9344 43.5038 75.7344 41.1038 76.4344C40.0038 76.7344 38.5038 77.1344 38.0038 75.6344C37.5038 74.1344 38.8038 73.4344 40.0038 72.8344C41.2038 72.2344 42.6038 71.9344 43.5038 71.9344Z" fill="black"/>
<path d="M75.9038 61.0344C77.0038 61.0344 78.3038 61.2344 79.4038 61.7344C80.3038 62.1344 81.1038 62.8344 80.8038 64.0344C80.5038 65.1344 79.6038 65.3344 78.6038 65.3344C78.1038 65.3344 77.5038 65.2344 77.0038 65.1344C75.1038 64.7344 73.5038 64.9344 71.9038 66.2344C71.1038 66.9344 70.2038 67.4344 69.3038 66.5344C68.3038 65.5344 69.0038 64.6344 69.7038 63.8344C71.2038 62.0344 73.4038 61.0344 75.9038 61.0344Z" fill="black"/>
<path d="M47.8038 92.3344C47.7038 93.2344 47.7038 94.1344 46.7038 94.5344C45.6038 94.9344 45.0038 94.1344 44.4038 93.4344C43.9038 92.7344 43.5038 91.9344 43.3038 91.1344C43.1038 90.0344 43.5038 89.0344 44.6038 88.7344C45.7038 88.3344 46.5038 88.9344 47.0038 89.8344C47.6038 90.5344 47.7038 91.4344 47.8038 92.3344Z" fill="black"/>
<path d="M79.6038 84.1345C79.5038 85.0345 79.6038 85.9345 78.8038 86.2345C77.9038 86.6345 77.3038 85.9345 76.8038 85.2345C76.3038 84.6345 75.9038 83.8345 75.7038 83.0345C75.4038 81.9345 75.6038 80.8345 76.8038 80.5345C78.0038 80.1345 78.8038 80.9345 79.2038 82.0345C79.4038 82.7345 79.4038 83.5345 79.6038 84.1345Z" fill="black"/>
<path d="M245.304 136.534C245.304 138.334 244.704 139.934 243.704 141.434C241.704 144.434 239.004 146.534 235.504 147.534C235.004 147.634 234.504 147.734 234.104 147.734C233.404 147.734 232.804 147.534 232.504 146.834C232.304 146.134 232.804 145.734 233.204 145.334C234.104 144.534 235.104 144.134 236.104 143.534C238.504 142.034 240.704 140.434 241.504 137.534C241.704 136.834 242.004 136.034 241.304 135.534C240.604 135.034 240.204 135.934 239.704 136.234C236.704 138.334 233.704 140.434 230.604 142.234C229.504 142.834 228.104 143.934 227.204 142.334C226.404 140.934 228.104 140.334 229.004 139.734C232.304 137.634 235.604 135.434 238.604 132.934C239.904 131.834 241.504 131.334 243.104 132.234C244.804 133.134 245.304 134.734 245.304 136.534Z" fill="black"/>
<path d="M227.104 127.734C227.004 128.934 226.304 129.834 225.604 130.834C224.804 131.834 223.804 132.634 222.704 133.434C221.804 134.034 221.204 133.934 220.204 133.434C215.404 130.734 213.204 125.834 210.304 121.534C208.604 118.934 207.204 116.034 205.704 113.334C205.504 112.934 205.104 112.334 205.704 112.034C206.304 111.734 206.504 112.334 206.804 112.734C210.504 117.334 213.604 122.234 217.104 126.934C217.904 128.034 218.804 129.134 219.904 130.134C220.604 130.734 221.204 130.834 221.804 130.034C222.604 128.934 223.404 127.834 224.204 126.734C224.704 126.134 225.304 125.734 226.004 126.034C226.904 126.134 227.104 126.834 227.104 127.734Z" fill="black"/>
<path d="M219.204 92.9344C221.104 93.1344 223.204 93.3344 224.904 94.8344C225.404 95.2344 225.904 95.7345 225.704 96.5345C225.404 97.3345 224.604 97.3345 223.904 97.2345C223.304 97.1345 222.704 97.0344 222.104 96.9344C219.104 95.9344 216.304 96.4344 213.704 97.9344C212.804 98.4344 211.704 99.5344 210.904 98.1344C210.104 96.8344 211.304 96.0344 212.204 95.3344C214.204 93.9344 216.504 93.0344 219.204 92.9344Z" fill="black"/>
<path d="M193.504 106.334C193.904 106.434 194.404 106.434 194.904 106.634C196.104 107.034 196.204 108.034 195.204 108.834C195.004 109.034 194.804 109.134 194.504 109.234C192.004 110.034 189.804 111.034 188.204 113.234C187.704 113.834 186.904 114.134 186.204 113.534C185.304 112.834 185.404 111.834 185.904 111.034C187.604 108.134 190.204 106.534 193.504 106.334Z" fill="black"/>
<path d="M201.704 121.934C201.604 122.734 201.404 123.634 200.304 123.634C199.004 123.734 197.304 121.434 197.404 119.734C197.404 118.634 198.004 117.834 199.204 117.834C200.504 117.934 201.704 119.934 201.704 121.934Z" fill="black"/>
<path d="M224.204 115.034C222.804 115.034 221.304 113.234 221.404 111.834C221.504 110.634 222.104 109.934 223.304 109.834C224.504 109.834 225.904 111.634 225.904 113.134C225.904 114.234 225.304 114.934 224.204 115.034Z" fill="black"/>
<path d="M13.9038 45.9345C14.6038 40.8345 16.8038 36.4345 21.1038 33.6345C25.6038 30.7345 32.9038 34.9345 33.0038 40.4345C33.0038 41.0345 33.1038 41.8345 32.3038 42.1345C31.6038 42.3345 31.2038 41.7345 30.8038 41.3345C29.9038 40.2345 29.1038 39.1345 28.1038 38.1345C25.6038 35.5345 23.3038 35.5345 20.8038 38.0345C18.3038 40.4345 17.3038 43.4345 16.8038 46.7345C16.7038 47.0345 16.7038 47.4345 16.7038 47.7345C16.6038 48.4345 16.5038 49.0345 15.6038 49.2345C14.7038 49.3345 14.4038 48.6345 14.2038 47.9345C14.0038 47.2345 14.0038 46.6345 13.9038 45.9345Z" fill="black"/>
<path d="M50.3038 13.9345C48.1038 14.1345 45.6038 13.0345 43.0038 13.2345C42.0038 13.3345 41.2038 13.3345 41.0038 14.7345C40.6038 16.3345 39.0038 16.5345 37.5038 16.6345C36.3038 16.7345 35.2038 16.3345 34.7038 15.1345C34.2038 13.7345 34.7038 12.5345 35.8038 11.8345C40.1038 8.93448 44.7038 8.63449 49.5038 10.4345C50.9038 10.9345 52.2038 11.5345 53.4038 12.5345C53.7038 12.8345 54.1038 13.1345 54.0038 13.6345C53.8038 14.0345 53.4038 14.0345 53.0038 14.0345C52.2038 13.9345 51.4038 13.9345 50.3038 13.9345Z" fill="black"/>
</svg>
