<svg width="300" height="256" viewBox="0 0 300 256" fill="none" xmlns="http://www.w3.org/2000/svg">
<path d="M299.67 195.263C298.979 193.036 298.212 190.81 298.288 188.507C298.596 182.902 298.212 177.374 298.058 171.77C297.905 166.779 297.367 161.789 297.367 156.799C297.367 153.958 297.214 151.041 296.983 148.2C296.83 146.204 296.523 144.284 296.292 142.288C295.908 138.833 295.217 135.455 294.987 131.924C294.68 128.008 294.757 124.093 294.219 120.177C293.759 117.183 293.682 114.189 293.221 111.271C292.914 109.352 293.068 107.51 292.837 105.59C292.761 105.283 292.991 104.669 292.07 104.822C286.849 105.667 281.782 107.202 276.638 108.277C272.032 109.199 267.655 111.118 263.202 112.423C257.982 113.959 252.684 115.11 247.31 116.031C241.706 117.03 236.408 119.333 230.727 120.177C227.426 120.715 224.124 121.559 220.746 121.79C217.061 122.097 213.376 122.557 209.998 124.477C209.076 125.014 208.078 125.398 207.004 125.552C202.32 126.396 197.637 127.471 192.877 127.855C189.422 128.162 186.121 129.237 182.743 129.928C179.134 130.619 175.526 131.002 171.994 131.924C166.467 133.459 160.862 134.457 155.181 135.225C151.496 135.763 147.81 136.07 144.202 136.837C139.212 137.835 134.221 138.296 129.154 138.987C126.237 139.371 123.319 139.601 120.402 140.139C115.258 141.06 110.191 142.519 104.97 143.21C99.9031 143.901 94.9128 144.592 89.9225 145.743C87.7728 146.281 85.5463 146.05 83.3198 146.511C80.1721 147.202 76.9476 147.509 73.7998 148.046C71.8037 148.43 69.7308 148.046 67.7346 148.661C66.0456 149.198 64.4333 149.198 62.7443 148.968C61.132 148.737 60.5178 149.352 60.7481 151.041C60.8249 151.425 60.9785 151.808 60.9785 152.192C60.9785 159.639 60.9785 167.163 61.5159 174.61C61.7462 177.835 61.7462 181.136 62.0533 184.361C62.514 188.507 63.2049 192.729 63.2817 196.875C63.3585 201.942 64.1262 206.932 64.2798 211.923C64.4333 219.37 64.9707 226.74 65.3546 234.111C65.5849 239.101 65.0475 244.015 64.9707 249.005C64.9707 250.617 64.9707 252.229 64.9707 253.842C64.9707 254.456 64.8172 254.84 65.8153 254.686C72.8017 253.304 79.9418 252.844 87.005 252.537C88.9244 252.46 90.9205 252.46 92.8399 252.153C102.59 250.694 112.033 248.16 121.477 245.32C131.765 242.172 141.976 238.487 152.724 236.875C157.254 236.184 161.707 235.109 166.16 234.111C175.142 232.191 183.971 229.888 192.647 226.894C200.708 224.053 208.846 221.673 217.138 219.754C222.051 218.602 227.042 217.834 231.802 216.222C242.934 212.383 254.373 210.234 265.89 207.854C273.183 206.318 280.553 205.167 287.54 202.403C290.841 201.098 294.143 199.792 297.674 199.178C299.901 198.794 300.438 197.566 299.67 195.263ZM108.809 212C105.584 213.074 102.283 214.149 99.0586 215.224C98.0605 215.531 96.9857 215.915 95.9109 215.685C94.4521 215.454 93.9147 214.226 94.5289 212.998C95.1431 211.846 96.1412 211.232 97.2928 210.771C97.9838 210.541 98.6747 210.234 99.3657 210.003C101.362 209.312 101.362 209.312 101.208 207.163C100.901 203.017 100.671 198.948 100.441 194.802C100.364 193.881 100.441 192.96 99.596 192.269C99.0586 191.808 98.9051 191.04 99.2889 190.503C100.517 188.737 99.9031 186.818 99.8264 185.052C99.8264 183.132 99.596 181.29 99.6728 179.37C99.6728 178.603 99.5193 178.296 98.6747 178.603C98.1373 178.756 97.5231 178.91 96.9857 178.987C96.2947 179.063 95.6038 178.91 95.2199 178.219C94.9128 177.605 95.1431 176.99 95.527 176.453C95.9876 175.762 96.6786 175.378 97.3696 175.071C102.821 173.152 108.425 172.614 114.106 173.843C118.099 174.687 119.634 179.601 117.331 183.286C116.179 185.129 114.567 186.51 112.724 187.662C112.417 187.816 112.034 187.892 112.034 188.43C113.262 188.66 114.49 188.737 115.719 189.044C119.941 190.119 123.243 192.422 124.471 196.798C125.239 199.639 123.934 201.942 122.168 203.938C118.559 208.161 113.799 210.311 108.809 212ZM147.887 203.094C147.273 203.631 146.582 203.938 145.814 204.169C145.2 204.322 144.586 204.476 143.972 204.936C143.204 205.551 139.519 204.629 139.058 203.785C138.828 203.401 138.751 202.863 138.981 202.556C139.979 201.558 139.365 200.56 138.981 199.562C138.06 196.798 138.06 196.798 135.219 197.105C133.837 197.259 132.993 197.643 132.916 199.255C132.839 200.714 132.379 202.172 132.072 203.631C131.995 204.169 131.841 204.629 132.686 204.399C133.454 204.169 134.145 204.399 134.528 205.167C134.836 205.934 134.605 206.549 134.068 207.163C133.377 208.007 132.456 208.545 131.381 208.775C129.768 209.236 128.156 209.773 126.39 209.773C125.546 209.85 124.778 209.696 124.471 208.775C124.164 207.777 124.625 206.932 125.469 206.549C126.851 206.011 127.081 204.936 127.388 203.708C129.001 196.03 129.845 188.353 130.306 180.522C130.459 178.219 130.766 175.916 131.074 173.612C131.227 172.461 131.15 171.539 129.692 171.309C128.77 171.156 127.849 170.618 128.003 169.467C128.156 168.315 129.154 168.085 130.076 167.931C132.148 167.701 133.607 168.699 134.528 170.618C137.906 177.451 139.365 184.898 141.745 192.038C142.59 194.495 143.357 197.029 144.048 199.562C144.279 200.253 144.586 200.483 145.2 200.253C145.738 200.023 146.275 200.1 146.812 200.023C147.657 199.946 148.425 200.176 148.732 201.021C149.039 201.942 148.501 202.556 147.887 203.094ZM170.459 194.725C169 194.879 168.616 195.8 168.156 196.952C165.776 202.633 158.789 204.322 154.106 200.176C145.047 192.192 144.739 179.294 150.19 171.156C153.492 166.242 159.096 165.014 164.24 167.854C165.085 168.315 165.469 168.392 165.852 167.394C166.236 166.396 167.081 165.705 168.232 165.935C169.461 166.242 169.768 167.163 169.768 168.315C169.768 170.388 168.923 172.077 167.618 173.536C166.467 174.841 164.854 174.457 164.47 172.691C164.24 171.77 163.78 171.539 163.089 171.386C161.63 170.925 160.171 170.541 158.559 170.848C155.181 171.463 153.645 173.843 152.647 176.837C151.879 179.14 151.572 181.443 151.649 183.823C151.419 188.89 153.492 192.883 156.87 196.338C159.634 199.178 163.165 197.643 164.854 194.495C165.161 193.958 164.854 193.727 164.394 193.497C163.472 192.96 162.474 192.345 163.012 190.963C163.396 189.965 164.854 189.428 166.236 189.812C167.618 190.196 169 190.58 170.459 190.963C171.38 191.194 172.225 191.578 172.225 192.652C172.225 193.727 171.534 194.572 170.459 194.725ZM197.253 191.731C195.334 193.19 193.107 194.111 190.727 194.265C189.499 194.341 188.962 193.42 189.269 192.192C189.345 191.731 189.576 191.424 189.192 191.04C186.044 188.123 183.357 184.668 180.593 181.367C180.516 181.29 180.363 181.213 180.132 181.059C179.749 182.365 180.286 183.516 180.363 184.668C180.516 187.125 180.823 189.581 180.977 192.038C181.054 192.883 181.438 193.036 182.052 192.883C182.743 192.806 183.434 192.729 184.048 192.883C185.737 193.267 186.198 194.725 185.046 196.03C184.432 196.645 183.741 197.029 182.896 197.105C181.054 197.412 179.288 197.72 177.445 197.95C176.447 198.103 175.296 197.95 174.835 196.798C174.374 195.647 175.142 194.879 176.063 194.341C176.447 194.111 176.678 194.034 176.678 193.42C175.91 185.973 174.989 178.526 173.683 171.156C173.53 170.234 173.453 169.236 173.3 168.315C173.146 167.394 173.223 166.396 172.071 165.781C171.15 165.244 171.227 163.708 172.225 162.864C174.067 161.252 176.217 160.561 178.674 160.868C179.979 161.021 180.44 162.326 179.749 163.555C179.288 164.399 178.52 164.86 177.676 165.09C176.985 165.321 176.985 165.705 177.061 166.242C177.676 169.006 178.213 171.693 178.827 174.687C181.668 171.309 185.123 168.699 186.965 164.783C186.812 164.399 186.428 164.553 186.198 164.476C185.583 164.323 184.969 164.169 184.816 163.401C184.662 162.557 185.046 161.866 185.66 161.405C186.965 160.407 188.424 160.1 190.036 159.87C191.034 159.716 192.033 159.716 193.107 159.793C194.029 159.793 194.873 160.177 195.103 161.175C195.334 162.173 194.72 163.094 193.875 163.248C192.186 163.555 192.033 164.783 191.572 166.088C190.343 170.234 187.503 173.305 184.355 176.069C183.28 176.99 183.203 177.374 184.278 178.449C187.349 181.443 189.96 184.975 193.031 187.969C193.645 188.583 194.182 188.89 195.027 188.583C195.257 188.507 195.487 188.43 195.718 188.43C196.716 188.353 197.637 188.583 198.021 189.581C198.405 190.426 197.867 191.27 197.253 191.731ZM202.781 174.61C201.629 175.685 200.171 175.916 198.635 175.916C197.407 175.839 195.948 176.069 195.641 174.38C195.411 173.305 196.409 172.23 198.098 171.77C199.096 171.463 200.171 171.232 201.169 171.079C202.167 170.925 203.011 171.079 203.549 172.077C204.086 173.075 203.472 173.919 202.781 174.61ZM224.585 186.741C221.667 187.892 218.52 187.892 215.525 188.583C213.913 188.967 212.301 189.351 210.689 189.658C209.46 189.889 208.232 190.196 207.464 188.814C206.927 187.816 207.541 186.434 209.076 185.589C210.075 185.052 210.305 184.438 210.151 183.439C209.691 178.679 209.307 173.996 208.846 169.236C208.539 165.858 208.002 162.557 207.618 159.179C207.541 158.334 207.311 158.104 206.466 158.334C205.929 158.488 205.314 158.488 204.7 158.334C203.549 158.104 203.242 156.799 204.009 155.801C204.624 155.033 205.468 154.495 206.313 154.112C208.923 152.96 211.687 152.576 214.527 152.346C216.447 152.192 218.213 151.732 220.055 151.117C222.051 150.426 223.433 151.117 223.74 153.267C224.124 155.877 223.664 158.411 222.896 160.868C222.666 161.559 222.128 162.173 221.284 162.173C220.439 162.173 219.978 161.636 219.671 160.945C219.134 159.793 219.057 158.641 219.134 157.413C219.134 156.875 219.134 156.338 218.443 156.492C216.447 156.952 214.374 156.876 212.378 157.183C211.61 157.336 211.61 157.566 211.764 158.181C212.685 161.482 213.146 164.86 213.453 168.315C213.606 169.62 213.836 170.157 215.372 169.85C216.677 169.543 217.445 169.236 217.598 167.701C217.675 166.626 218.213 165.551 219.518 165.551C220.516 165.551 221.36 166.779 221.437 168.161C221.514 169.697 221.284 171.232 220.823 172.768C220.286 174.303 219.364 174.61 217.982 173.919C216.754 173.228 215.756 174.38 214.604 174.61C213.76 174.764 214.451 175.608 214.451 176.146C214.527 178.142 214.681 180.215 214.758 182.211C214.835 183.209 214.835 184.054 216.37 183.67C218.213 183.209 220.055 182.979 221.975 182.672C222.819 182.518 223.203 182.134 223.203 181.213C223.28 179.14 223.971 178.219 225.122 178.296C226.351 178.296 227.349 179.601 227.579 181.367C227.579 181.674 227.579 182.058 227.579 182.365C227.579 184.821 226.965 185.819 224.585 186.741ZM250.611 179.985C248.539 180.676 247.08 180.061 245.775 178.603C241.629 173.612 239.556 167.394 235.871 162.096C235.41 161.482 235.103 160.791 234.489 160.254C235.026 163.478 235.487 166.626 236.024 169.85C236.485 172.845 236.869 175.839 236.715 178.833C236.638 179.831 237.022 180.138 238.02 179.908C238.251 179.831 238.481 179.754 238.711 179.754C239.709 179.831 240.861 179.908 241.245 181.059C241.629 182.134 241.015 182.979 240.247 183.593C239.402 184.284 238.404 184.591 237.329 184.745C235.871 184.975 234.335 185.205 232.877 185.436C231.725 185.589 230.497 185.512 230.036 184.284C229.575 183.056 230.113 181.981 231.111 181.443C232.186 180.829 232.186 180.138 232.186 179.14C231.955 171.77 230.343 164.63 229.268 157.413C229.191 156.952 229.115 156.568 229.115 156.108C228.961 154.803 228.961 153.344 226.888 153.881C226.12 154.035 225.276 153.651 225.122 152.73C224.969 151.578 225.66 150.81 226.504 150.426C229.959 148.968 232.569 148.737 234.949 152.115C237.79 156.185 240.17 160.484 242.78 164.706C242.934 164.937 243.011 165.244 243.395 165.397C242.78 160.637 242.243 155.954 241.936 151.271C241.859 150.119 241.475 149.735 240.324 149.889C239.479 149.966 238.481 149.966 238.174 148.891C237.867 147.816 238.481 147.048 239.326 146.588C241.706 145.129 244.316 144.822 247.003 144.899C248.539 144.899 249.076 147.048 247.617 148.123C246.005 149.352 246.312 150.503 246.542 152.039C247.54 159.563 248.462 167.087 249.383 174.687C249.46 175.455 249.613 175.762 250.458 175.839C251.61 175.916 252.838 176.146 252.915 177.605C252.838 178.833 251.84 179.524 250.611 179.985ZM271.724 172.384C270.266 176.914 267.041 179.217 262.511 179.985C261.206 180.215 259.901 180.292 258.596 180.292C257.598 180.292 256.753 179.908 256.37 178.987C255.986 177.988 256.293 177.067 257.214 176.376C257.521 176.146 257.905 175.762 258.289 175.685C260.055 175.378 259.748 174.303 259.671 172.921C259.057 164.63 256.6 156.645 255.755 148.43C255.679 147.663 255.295 147.739 254.834 147.816C253.759 148.046 252.531 148.43 251.993 147.202C251.456 145.82 252.454 144.899 253.529 144.284C256.83 142.365 260.208 142.826 263.663 144.054C267.118 145.283 269.114 147.97 270.342 151.271C272.108 155.954 272.646 160.868 272.953 165.781C272.723 167.931 272.415 170.157 271.724 172.384Z" fill="black"/>
<path d="M60.9786 201.481C60.518 196.721 60.5947 191.885 59.827 187.201C59.2896 183.67 59.3663 180.061 59.2128 176.453C58.9825 172 58.6754 167.547 58.445 163.094C58.2147 159.255 58.445 155.417 58.8289 151.655C58.9825 150.426 59.4431 148.968 58.445 148.046C56.5257 146.281 54.6063 144.515 52.3799 143.133C46.7753 139.832 41.4011 136.146 36.4108 131.847C32.3417 128.392 28.5798 124.63 24.2036 121.482C18.9062 117.72 13.8391 113.498 8.77195 109.429C7.69711 108.584 6.77582 107.586 5.54743 106.435C8.15776 106.204 10.3074 105.82 12.4571 105.82C16.7565 105.82 20.9791 104.976 25.2785 104.515C28.9636 104.055 32.572 103.671 36.1805 103.21C37.1017 103.057 37.7159 103.44 38.1766 104.208C39.4818 106.435 40.7869 108.584 42.2456 110.657C46.8521 117.106 51.1515 123.632 55.067 130.465C57.6773 135.148 60.2876 139.832 62.5909 144.668C63.4354 146.434 63.9728 146.664 65.8922 146.204C66.5831 146.05 67.2741 145.82 67.9651 145.743C70.5754 145.283 73.3393 145.513 76.0264 144.668C75.1819 142.826 73.7999 141.213 72.8787 139.448C69.8845 133.766 67.0438 128.008 63.5122 122.634C58.9057 115.494 54.7599 108.124 50.614 100.83C46.545 93.7669 42.2456 86.9339 37.7927 80.101C34.9521 75.8016 31.9578 71.579 29.1172 67.2029C25.8159 62.1358 23.6662 56.4545 21.5165 50.8499C20.4417 48.086 19.2901 45.3989 17.6778 42.8654C16.2959 40.6389 16.3726 38.4892 17.9849 37.3376C19.2901 36.3395 20.672 35.4183 22.2843 35.0344C27.1211 33.9595 31.8811 32.7311 36.6411 31.3492C42.1689 29.6602 47.8502 29.046 53.3779 27.5105C56.3721 26.666 59.5199 26.3589 62.6676 25.975C66.3528 25.5143 70.038 25.0537 73.7232 24.593C76.7174 24.2092 79.7884 23.9788 82.7826 23.5182C86.3142 22.9808 89.3852 23.4414 92.149 26.1285C94.222 28.2014 95.9878 30.5047 97.8304 32.7311C101.208 36.6466 103.588 41.3299 106.736 45.4757C110.575 50.6196 113.185 56.4545 116.64 61.8287C121.63 69.5829 126.39 77.4907 130.229 85.9359C133.454 93.0759 137.369 99.9856 141.131 106.895C145.277 114.573 149.346 122.327 153.492 130.004C154.797 132.461 154.874 132.461 157.868 132.001C155.565 127.394 153.338 122.864 151.112 118.335C150.882 117.797 150.574 117.337 150.882 116.722C151.342 115.648 151.88 114.496 152.263 113.421C156.716 101.905 161.937 90.6959 166.697 79.3333C168.77 74.4197 171.15 69.5829 173.53 64.7461C179.211 53.3067 185.353 42.1744 191.572 31.1189C196.639 22.1363 202.935 13.8446 206.543 4.01748C206.773 3.32651 207.311 3.32651 207.848 3.48006C211.764 4.55491 215.833 5.1691 219.671 6.62782C228.27 9.85234 237.33 11.8485 245.698 15.764C250.228 17.8369 254.911 19.5259 259.287 21.8292C263.894 24.2859 268.116 27.4337 272.876 29.5834C273.798 30.044 273.183 30.5047 272.876 30.9653C271.034 33.8828 269.114 36.877 267.809 40.0247C262.205 53.0764 256.139 65.9745 250.151 78.8726C247.617 84.3236 244.163 89.3139 242.55 95.3024C241.399 99.5249 239.249 103.594 237.253 107.663C235.794 110.58 234.259 113.498 233.184 116.569C235.41 116.799 236.639 116.031 237.483 114.189C239.403 110.12 241.322 106.128 243.088 101.982C246.005 95.3023 249.537 88.8533 252.377 82.0971C254.45 77.1836 256.754 72.4236 259.057 67.6635C262.819 59.9093 266.197 51.9248 269.652 44.0938C271.494 39.7944 273.798 35.7253 276.254 31.8866C281.475 36.8002 286.081 42.0976 291.686 46.397C292.377 46.9344 291.916 47.3951 291.686 47.9325C285.698 58.6809 281.245 70.2739 276.638 81.79C275.103 85.552 274.028 89.5443 272.416 93.3062C270.496 97.6824 268.884 102.135 267.195 106.588C267.041 107.049 266.734 107.586 266.965 107.817C270.266 108.2 270.803 105.82 271.571 103.594C271.648 103.44 271.648 103.287 271.648 103.133C272.185 101.444 272.799 99.7553 273.414 98.143C273.49 97.8359 273.567 97.1449 274.258 97.5288C277.252 99.0643 280.554 99.7553 283.318 101.675C285.774 103.364 288.231 102.98 290.995 102.135C288.231 100.83 285.467 100.139 283.087 98.5269C280.861 97.0682 278.25 96.454 275.794 95.3791C275.026 95.072 274.796 94.6114 275.179 93.8436C278.25 86.9339 280.4 79.7171 283.625 72.8074C285.467 68.8151 286.619 64.5926 288.692 60.6771C290.918 56.3777 292.684 51.848 295.371 47.7022C296.062 46.6273 295.832 45.5525 294.757 44.7847C292.377 43.0957 290.15 41.3299 288.231 39.1034C285.467 35.9557 282.089 33.4989 279.402 30.2744C278.865 29.6602 278.25 29.046 277.559 28.5853C273.26 25.8982 268.73 23.5182 264.431 20.9079C256.677 16.2246 248.308 12.8466 239.786 9.85235C229.268 6.16717 218.673 2.55877 207.771 0.178758C205.775 -0.281889 204.931 0.101987 204.009 1.8678C203.779 2.32845 203.626 2.86587 203.395 3.32652C202.013 6.55104 200.631 9.77557 198.789 12.8465C196.332 16.9156 193.798 20.9846 191.418 25.1305C187.042 32.8079 182.513 40.4086 178.444 48.2396C173.837 56.9919 169.231 65.7442 165.238 74.8036C164.778 75.8784 164.317 76.4926 163.165 76.6461C153.185 78.2584 143.434 81.0991 133.454 82.6346C132.532 82.7881 132.225 82.6346 131.841 81.79C130.613 79.3333 129.385 76.8765 128.08 74.4197C123.319 65.6674 117.638 57.4525 112.878 48.7002C109.961 43.4028 106.199 38.6428 102.821 33.6524C99.98 29.5066 96.9091 25.5143 92.9936 22.2898C91.2278 20.8311 89.2316 19.9866 86.9284 19.9866C82.9361 19.9098 79.0206 20.524 75.1051 20.9079C71.5735 21.215 68.0419 21.8292 64.4335 22.213C59.3663 22.7505 54.376 23.595 49.3857 24.9769C44.3953 26.3589 39.1747 26.8963 34.1843 28.5085C31.0366 29.5066 27.9656 30.4279 24.6643 30.8885C21.5933 31.3492 18.7526 32.5008 16.2191 34.4202C15.1442 35.2647 14.1462 36.1092 13.8391 37.4144C13.6087 38.4892 13.2249 39.4105 12.7642 40.4086C11.0752 44.4776 10.7681 48.7002 11.5358 52.9996C12.4571 58.0667 14.4533 62.9035 16.7565 67.51C21.2094 76.5694 26.6604 85.0913 31.8043 93.7669C33.1095 95.9165 34.4146 98.143 35.7198 100.446C31.9578 100.907 28.3494 101.137 24.8178 101.751C17.1404 103.057 9.38615 103.44 1.55515 103.978C0.633859 104.055 -0.133886 104.362 0.0196628 105.437C0.326761 107.279 0.249987 109.122 0.557085 111.041C1.47838 116.799 0.864182 122.634 1.78548 128.392C2.39967 132.308 2.55322 136.223 2.86032 140.139C3.24419 144.975 3.78161 149.812 3.85838 154.649C3.85838 163.555 3.78161 172.461 3.93516 181.29C4.01194 187.816 3.93516 194.341 4.77968 200.867C5.08678 203.247 5.16355 205.397 7.54356 207.393C11.3055 210.541 14.8371 214.072 18.5223 217.374C21.5933 220.138 24.6643 223.055 27.812 225.742C30.7295 228.276 33.7237 230.579 36.6411 233.113C39.7888 235.876 42.8598 238.871 46.0844 241.558C51.2282 245.934 56.3721 250.233 60.6715 255.454C61.0554 255.915 61.5928 255.838 62.1302 255.761C62.8212 255.684 62.5909 255.147 62.5909 254.763C62.5909 253.765 62.4373 252.844 62.5141 251.846C62.6676 247.93 62.6676 244.091 62.898 240.176C63.1283 235.032 62.7444 229.888 62.4373 224.744C61.5928 217.067 61.8231 209.236 60.9786 201.481ZM156.947 80.7152C158.636 80.4081 160.248 79.9474 161.86 79.6404C162.244 79.5636 162.705 79.41 163.012 79.7171C163.396 80.101 162.935 80.4081 162.782 80.792C160.632 85.7055 158.405 90.6191 156.256 95.6094C153.799 101.291 151.419 106.972 149.346 112.73C149.192 113.037 149.192 113.498 148.578 113.805C143.511 104.515 138.367 95.2256 133.531 85.552C141.515 84.4004 149.116 82.0204 156.947 80.7152Z" fill="black"/>
<path d="M24.9715 48.4699C25.9695 52.7693 28.3496 56.3009 30.8063 59.7558C36.6412 68.1242 41.9386 76.7997 46.6987 85.7823C48.7716 89.621 50.998 93.3062 53.378 96.9914C57.2935 102.98 61.209 108.968 64.4336 115.34C69.1168 124.323 73.8 133.306 79.1743 141.904C80.0188 143.286 80.633 144.131 82.7059 144.054C84.702 143.977 86.7749 144.054 88.6943 143.747C92.3795 143.056 96.0646 142.519 99.8266 141.828C102.898 141.29 106.045 140.983 109.116 140.446C114.03 139.601 118.867 138.219 123.857 137.605C129.385 136.991 134.989 136.377 140.44 135.379C143.051 134.918 145.661 134.227 148.271 133.613C148.885 133.459 148.809 133.075 148.578 132.615C148.118 131.693 147.657 130.695 147.196 129.774C142.744 121.175 137.984 112.73 134.068 103.824C131.151 97.2217 128.003 90.7727 124.471 84.5539C122.091 80.3313 119.327 76.2623 117.178 71.8861C116.026 69.5829 114.874 67.2029 113.492 65.0532C110.882 60.9074 108.118 56.7616 105.431 52.6925C101.592 46.9344 98.9821 40.4854 94.7595 34.9576C93.1472 32.8847 91.6117 30.5047 89.0014 29.6602C86.9285 28.9692 84.702 28.6621 82.2452 28.6621C79.4814 28.355 76.9478 30.2744 73.9536 30.3511C71.1129 30.4279 68.4258 31.6563 65.6619 32.3473C63.0516 33.0382 60.3645 33.115 57.7542 33.806C53.378 34.9576 48.9251 36.0324 44.3186 36.4931C38.5606 37.0305 33.1863 38.6428 28.1192 41.3299C25.816 42.4815 24.434 45.8596 24.9715 48.4699ZM113.492 110.58C113.185 109.89 112.648 109.045 113.646 108.584C114.567 108.124 115.412 108.661 115.949 109.429C117.254 111.348 118.406 113.421 119.634 115.417C120.402 116.646 121.17 117.874 121.861 119.179C122.629 120.484 122.322 121.175 120.786 121.482C119.251 121.79 117.715 121.866 116.256 122.097C115.489 122.097 114.644 122.02 114.491 121.252C114.337 120.408 115.028 120.024 115.719 119.717C116.41 119.41 117.638 119.64 117.792 118.949C117.945 118.335 117.178 117.49 116.794 116.722C115.181 113.728 115.181 113.728 112.034 115.033C110.421 115.724 108.809 116.339 107.197 116.953C106.66 117.183 106.122 117.183 106.813 118.104C107.658 119.179 108.349 120.331 109.961 119.947C110.498 119.87 111.036 120.254 111.112 120.868C111.189 121.406 110.805 121.79 110.345 122.02C108.425 122.788 106.506 123.248 104.433 123.325C103.896 123.325 103.358 123.248 103.128 122.634C102.898 122.02 103.358 121.559 103.819 121.329C104.97 120.715 104.356 120.101 104.049 119.333C103.589 118.335 103.051 118.565 102.36 118.872C100.21 119.717 97.984 120.408 95.7575 121.175C94.9898 121.406 94.913 121.713 95.3737 122.404C96.0646 123.555 96.6788 124.784 97.293 126.012C97.6769 126.703 98.0608 127.01 98.9053 126.78C99.9034 126.55 100.901 126.473 101.976 126.703C102.437 126.78 102.821 127.01 102.974 127.471C103.128 128.008 102.744 128.469 102.283 128.622C100.518 129.39 98.5214 129.621 96.6788 129.928C95.9879 130.004 95.3737 129.467 95.0666 128.853C93.4543 125.935 91.8421 123.095 90.3066 120.177C89.9995 119.64 89.6924 118.872 90.3833 118.335C90.9975 117.874 91.842 117.951 92.3795 118.411C93.224 119.256 93.9917 118.872 94.913 118.565C99.5195 116.876 104.126 115.264 108.732 113.575C110.114 113.037 111.573 112.5 112.955 112.039C113.646 111.732 113.8 111.271 113.492 110.58ZM103.896 93.6901C104.356 93.383 104.97 93.383 105.431 93.7669C106.89 95.072 108.118 96.6843 108.886 98.5269C109.116 98.9875 108.963 99.5249 108.502 99.832C107.888 100.216 107.12 100.216 106.736 99.7553C105.278 97.9894 103.896 98.9108 102.36 99.5249C97.0627 101.675 91.6117 103.287 86.1607 105.129C85.0091 105.513 84.8556 105.974 85.393 107.049C86.1607 108.661 86.6982 110.35 87.6195 111.962C88.2337 113.037 88.8478 113.498 90.0762 112.884C90.9208 112.5 91.9188 112.27 92.9169 112.423C93.3775 112.5 93.8382 112.577 93.9917 113.037C94.1453 113.498 93.915 113.959 93.5311 114.189C91.7653 115.187 89.7691 115.648 87.8498 116.339C87.082 116.339 86.6982 115.955 86.2375 115.417C83.2433 112.039 82.1685 107.74 80.5562 103.748C80.4027 103.287 80.4794 102.826 80.7865 102.519C81.3239 102.135 82.0917 102.135 82.3988 102.519C83.6272 103.901 84.8556 102.98 86.084 102.596C91.4582 100.753 96.9859 99.1411 102.283 97.0682C103.281 96.6843 104.356 96.454 103.589 94.9185C103.358 94.5346 103.435 93.9972 103.896 93.6901ZM98.2911 87.241C97.9072 86.6268 97.4466 85.9359 98.2911 85.3217C99.0589 84.7842 99.8266 85.1681 100.364 85.7823C101.439 86.8572 102.283 88.0855 102.744 89.5443C102.974 90.1585 103.281 90.8494 102.437 91.3101C101.746 91.7707 100.901 91.6172 100.441 91.003C99.8266 90.0817 99.1356 90.3888 98.3679 90.6191C92.7633 92.7688 87.082 94.7649 81.2472 96.3004C80.2491 96.5307 79.4046 96.6843 80.3259 98.0662C80.8633 98.9107 80.2491 99.5249 79.0975 99.5249C78.3297 99.6017 77.7923 99.2178 77.3317 98.6804C76.4104 97.8359 76.0265 96.6843 75.4123 95.6094C75.1052 95.1488 75.0284 94.6114 75.4123 94.1507C75.873 93.6133 76.5639 93.6133 77.0246 93.9972C78.253 94.9185 79.4046 94.3811 80.7098 93.9972C86.4678 92.3849 91.9956 90.2352 97.7537 88.4694C98.5982 88.2391 98.8285 88.0088 98.2911 87.241ZM89.6924 76.4158C90.4601 76.1855 91.3814 76.2623 90.7672 74.8803C90.3833 74.1894 91.2279 74.0358 91.7653 74.1126C94.7595 74.3429 97.8305 80.4081 96.2182 82.8649C94.9898 84.7075 93.1472 85.0146 90.844 85.2449C88.464 83.7094 87.6195 85.552 86.3911 87.4713C84.6252 90.3888 79.942 91.4636 76.2568 90.3888C71.8807 89.1604 69.1936 86.0894 67.4278 82.0971C67.0439 81.3294 67.4278 80.8687 68.1187 80.6384C68.8097 80.4081 69.5774 80.4081 70.0381 80.8687C71.1129 82.0204 72.111 81.4062 73.1858 81.0991C78.7136 79.5636 84.1646 77.9513 89.6924 76.4158ZM88.3104 68.3545C88.5407 70.3506 87.5427 71.579 86.0072 72.5771C82.1685 75.0339 77.7923 76.2623 72.4181 76.4158C70.5755 76.4926 68.8865 76.1855 67.1207 75.6481C64.8174 74.8803 63.3587 73.4216 62.9748 71.0416C62.591 68.6616 63.5123 66.5887 65.4316 65.2835C70.8058 61.6751 76.7175 60.5235 83.0898 62.059C86.3143 62.8267 87.9266 65.13 88.3104 68.3545ZM52.9942 50.5428C53.6851 51.2338 54.2225 51.0802 55.0671 50.9267C61.209 49.6983 67.351 48.5467 73.4929 47.3951C74.3375 47.2415 75.182 47.1647 74.6446 45.9364C74.3375 45.3222 74.7981 44.8615 75.4123 44.9383C76.4871 45.0151 77.1013 45.706 77.4084 46.7809C77.7923 47.7789 77.2549 48.2396 76.4872 48.6235C74.0304 49.8519 71.4968 51.0802 69.04 52.3086C67.5045 53.0764 66.0458 53.8441 64.5103 54.6119C64.5103 54.7654 64.5103 54.8422 64.5871 54.9957C66.8903 54.9957 69.2703 54.9957 71.5736 54.9957C74.6446 55.0725 77.6388 55.4564 80.7098 55.7635C81.4775 55.8403 82.0149 56.1474 82.5523 56.7616C83.013 57.3757 83.6272 58.0667 82.9362 58.6041C82.2452 59.2951 81.1704 58.988 80.7865 58.2203C80.2491 57.1454 79.6349 57.3758 78.8672 57.6061C73.1091 59.0648 67.2742 60.5235 61.5161 61.9822C61.0555 62.1358 60.3645 61.9822 60.3645 62.9035C60.3645 64.2854 59.3664 64.7461 58.138 63.9784C57.4471 63.5177 56.1419 60.7538 56.2955 59.9861C56.449 59.1416 57.7542 58.7577 58.4451 59.6022C59.2897 60.6771 60.211 60.2932 61.1323 60.0629C65.1245 58.988 69.1936 57.9899 73.5697 56.8383C71.9575 56.5312 70.7291 56.608 69.4239 56.5312C66.8136 56.4545 64.2032 56.8383 61.5929 56.3009C60.9787 56.1474 60.1342 56.2241 60.0574 55.4564C59.9806 54.6119 60.8252 54.3048 61.4394 53.9977C63.5123 52.9228 65.5852 51.9248 67.7349 50.9267C68.042 50.7731 68.3491 50.6964 68.5794 50.159C64.1265 51.3106 59.5968 51.9248 55.1438 52.8461C54.8367 52.9228 54.4529 52.9228 54.3761 53.537C54.2993 54.7654 53.1477 55.2261 52.1496 54.4583C51.0748 53.6138 50.8445 52.3086 50.9212 51.0802C50.998 50.0822 52.2264 49.6983 52.9942 50.5428Z" fill="black"/>
<path d="M216.754 80.7152C221.591 80.8688 226.428 81.0223 231.264 80.1778C232.416 79.9475 233.261 79.4868 233.644 78.3352C233.952 77.6442 234.259 76.8765 234.489 76.1855C234.719 75.4178 234.796 74.5732 233.952 74.1894C233.03 73.7287 232.646 74.5732 232.416 75.2642C232.109 76.1855 231.648 76.2623 230.804 75.8016C226.428 73.1913 221.514 71.7326 216.831 69.8132C215.526 69.2758 213.99 69.0455 215.065 67.0493C215.142 66.9726 215.065 66.7422 215.065 66.5887C215.142 65.9745 214.988 65.5139 214.451 65.2835C213.913 65.0532 213.376 65.3603 213.146 65.7442C211.994 67.7403 210.689 69.6597 210.075 71.8861C210.075 72.0397 210.075 72.1932 210.075 72.3468C210.075 72.8842 210.228 73.3448 210.766 73.4984C211.226 73.5752 211.764 73.4984 211.994 72.961C212.455 71.7326 213.146 71.9629 214.067 72.5003C214.604 72.8074 215.142 73.0377 215.602 73.2681C219.057 74.8803 222.666 76.1087 226.121 77.8745C225.967 77.8745 225.737 77.8745 225.583 77.8745C221.821 77.9513 218.059 77.6442 214.297 77.8745C212.148 78.0281 209.998 78.6423 207.848 78.412C207.618 78.412 207.234 78.5655 207.08 78.7191C205.852 80.3313 204.777 82.0971 204.317 84.0933C204.24 84.5539 204.24 85.0913 204.777 85.3984C205.238 85.6288 205.699 85.3984 206.082 85.0914C206.313 84.861 206.62 84.6307 206.773 84.3236C207.234 83.3255 207.925 83.4023 208.77 83.863C213.299 86.0894 217.906 88.0088 222.589 89.9281C223.741 90.3888 225.353 90.6191 224.201 92.6153C223.894 93.0759 224.278 93.6901 224.662 94.074C224.969 94.3043 225.276 94.1507 225.43 93.9972C227.195 92.5385 228.424 90.6959 228.884 88.4694C228.961 87.932 228.731 87.3946 228.193 87.1643C227.656 86.9339 227.195 87.1643 226.965 87.5481C226.504 88.3159 225.967 88.0856 225.353 87.7785C222.435 86.4733 219.441 85.3217 216.601 84.0165C214.911 83.2488 213.299 82.4042 211.457 81.5597C213.376 80.6384 215.065 80.6384 216.754 80.7152Z" fill="black"/>
<path d="M186.351 59.0648C186.044 59.7557 185.891 60.6003 186.582 61.0609C187.35 61.5983 188.041 60.9073 188.348 60.2932C188.962 59.1415 189.73 59.2951 190.728 59.6022C195.027 60.8306 199.019 62.7499 203.242 64.2854C204.624 64.7461 206.159 64.8229 205.238 66.8958C205.084 67.2796 205.238 67.8938 205.699 68.1241C206.083 68.3545 206.466 68.2009 206.697 67.8938C208.155 66.128 209.537 64.2854 209.768 61.9822C209.844 61.4448 209.844 60.8306 209.23 60.6002C208.539 60.2931 207.925 60.7538 207.772 61.2144C207.311 62.5196 206.62 62.1357 205.775 61.7519C205.392 61.5983 205.008 61.5215 204.701 61.368C201.476 60.0628 198.252 58.6809 194.72 57.2222C196.102 57.0686 197.1 56.9151 198.098 56.8383C201.706 56.6848 205.392 56.9919 209 56.6848C211.533 56.4544 213.606 54.9957 214.374 52.6157C214.604 51.848 214.835 50.8499 213.913 50.3892C212.992 49.9286 212.455 50.9267 212.301 51.4641C211.764 52.6925 211.15 52.3086 210.382 51.848C205.929 49.1609 200.862 47.7789 196.025 45.9363C195.104 45.6292 194.49 45.3989 195.027 44.2473C195.257 43.6331 195.104 42.8653 194.49 42.635C193.875 42.4047 193.338 42.8653 192.954 43.2492C191.802 44.7847 190.651 46.397 190.267 48.3163C190.113 49.0073 189.806 49.9286 190.804 50.3125C191.879 50.7731 192.11 49.7751 192.34 49.2376C192.724 48.3163 193.261 48.3163 194.029 48.6234C196.332 49.5447 198.635 50.3892 200.939 51.3105C202.551 52.0015 204.24 52.3854 206.006 53.537C201.322 53.537 196.946 53.6905 192.647 54.3047C189.499 54.7654 187.58 56.3009 186.351 59.0648Z" fill="black"/>
<path d="M234.259 69.8132C234.335 71.0416 234.95 71.3487 235.948 70.7345C236.332 70.5042 236.639 70.1971 236.946 69.89C238.328 68.508 238.635 66.6654 239.172 64.9764C241.936 56.6848 235.564 49.3144 227.426 49.2376C225.967 49.0073 224.662 49.8518 223.357 50.6196C219.518 52.9996 217.829 57.0686 215.679 60.7538C215.295 61.368 215.295 62.1357 215.909 62.5964C216.524 63.057 217.291 62.5964 217.599 62.1357C218.29 61.2912 218.98 61.5215 219.748 61.7519C224.201 63.2874 228.731 64.8229 233.261 66.2816C234.566 66.7422 235.641 66.9725 234.489 68.6616C234.259 68.9687 234.259 69.5061 234.259 69.8132ZM234.719 63.3641C230.343 61.6751 225.89 60.1396 221.437 58.9112C220.055 58.5273 220.286 57.9899 220.977 57.1454C221.898 55.9938 222.742 54.8422 223.894 53.9977C225.046 53.0764 226.274 52.6925 227.81 52.7693C232.877 53.0764 236.715 56.9151 236.639 61.8286C236.639 61.8286 236.639 62.1357 236.562 62.4428C236.332 63.9783 236.255 63.9783 234.719 63.3641Z" fill="black"/>
<path d="M217.368 111.041C218.059 111.348 218.443 110.811 218.75 110.273C218.904 109.966 219.057 109.659 219.211 109.352C220.746 106.588 221.591 103.517 223.203 100.83C223.664 100.139 223.971 99.3714 224.355 98.6036C224.662 97.9127 224.739 97.0682 224.048 96.6075C223.126 95.8398 222.052 95.3023 220.746 95.2256C219.748 95.1488 218.904 95.4559 218.673 96.454C218.443 97.452 219.288 97.8359 220.055 98.143C220.286 98.2198 220.593 98.3733 220.823 98.4501C221.284 98.6804 221.437 98.9875 221.053 99.3714C219.902 100.677 219.441 102.442 218.597 103.978C218.29 104.515 218.059 104.669 217.522 104.362C215.295 103.287 212.992 102.366 210.766 101.368C210.535 101.291 210.151 101.214 210.151 100.907C210.075 100.369 211.687 98.0662 212.224 97.9127C213.837 97.5288 214.144 96.3004 213.069 95.072C212.301 94.2275 211.38 93.7669 210.305 93.6901C209.537 93.6133 208.77 93.6133 208.309 94.5346C207.925 95.3024 208.002 95.9165 208.693 96.454C208.923 96.6843 209 96.8378 208.923 97.2217C208.232 100.216 208.155 100.216 205.391 99.0643C205.315 99.0643 205.315 99.0643 205.238 98.9875C203.856 98.3733 201.706 98.2198 201.322 97.0682C200.939 95.8398 202.32 94.3043 202.935 92.8456C203.549 91.5404 204.086 90.4656 205.852 91.0798C206.927 91.3869 207.541 90.5423 207.848 89.621C208.232 88.5462 207.311 88.3159 206.543 88.0088C205.929 87.7785 205.238 87.5481 204.624 87.3946C203.626 87.241 202.704 87.4713 202.167 88.4694C201.092 90.6191 199.864 92.7688 198.942 94.9952C198.175 96.8378 197.1 98.5269 196.793 100.523C196.716 101.137 196.562 101.982 197.407 102.289C198.251 102.596 198.712 101.905 198.942 101.368C199.326 100.369 199.864 100.446 200.631 100.907C205.315 103.287 210.228 105.129 214.988 107.202C216.14 107.74 217.138 108.047 216.524 109.582C216.447 110.12 216.754 110.811 217.368 111.041Z" fill="black"/>
<path d="M194.182 94.074C195.104 94.9185 195.641 94.2275 196.025 93.5365C196.486 92.4617 196.946 91.3869 197.177 90.2352C197.33 89.3907 197.868 88.1623 196.639 87.8552C195.488 87.5481 195.181 88.6997 194.797 89.5443C194.566 90.0817 194.413 90.6959 193.645 90.8494C191.419 91.2333 189.192 91.6939 186.966 92.1546C186.275 92.3081 186.044 92.1546 186.044 91.3869C186.198 88.5462 184.893 86.243 183.05 84.2468C181.899 82.9417 180.363 82.5578 178.674 82.9417C175.603 83.5559 173.914 85.7823 172.609 88.3159C171.841 89.7746 170.997 91.3101 170.997 93.0759C170.997 93.6133 171.073 94.074 171.611 94.2275C172.071 94.3811 172.609 94.2275 172.762 93.6901C173.07 92.8456 173.607 93.383 173.991 93.5365C179.595 95.763 185.2 98.0662 190.804 100.293C190.728 100.753 190.574 101.368 190.497 101.905C190.421 102.442 190.574 102.98 191.188 103.21C191.726 103.364 192.186 103.057 192.417 102.673C193.261 101.137 194.259 99.6785 194.797 98.0662C195.027 97.452 195.104 96.6843 194.413 96.3772C193.722 95.9933 193.108 96.454 192.724 97.0682C192.493 97.452 192.34 97.9895 191.649 97.5288C190.267 96.6843 188.732 95.9933 186.966 95.1488C188.885 94.7649 190.497 94.4578 192.11 94.2275C192.801 94.1507 193.492 93.4598 194.182 94.074ZM181.899 92.9991C180.44 92.4617 178.981 91.9243 177.599 91.3101C176.601 90.9262 175.603 90.4656 174.375 90.2352C175.296 88.3159 176.217 86.7036 178.367 86.0894C179.058 85.9359 179.672 86.0126 180.133 86.3965C181.899 87.932 183.127 89.7746 182.897 92.3081C182.897 93.1527 182.666 93.3062 181.899 92.9991Z" fill="black"/>
<path d="M180.44 73.2681C179.518 76.5694 180.286 79.8707 183.127 81.7133C187.196 84.3236 191.802 85.4752 196.716 84.2468C199.94 83.4791 202.858 79.6404 202.781 76.1088C202.704 74.65 202.32 72.961 201.322 71.5023C199.019 67.8939 195.564 66.0513 191.572 64.9765C188.424 64.1319 185.584 64.9764 183.357 67.2029C181.745 68.8152 181.054 71.1184 180.44 73.2681ZM191.572 68.7384C194.336 69.89 197.023 71.0416 198.712 73.7287C200.401 76.4926 200.094 78.9494 197.56 80.7152C196.639 81.4062 195.488 81.483 194.336 81.6365C191.418 81.0991 188.271 81.0223 185.584 79.3333C182.897 77.6442 182.206 74.5733 183.511 71.7326C184.969 68.5081 188.348 67.3565 191.572 68.7384Z" fill="black"/>
<path d="M183.357 118.565C184.048 118.872 184.432 118.335 184.816 117.951C185.891 116.799 186.428 115.264 187.042 113.882C187.349 113.191 187.657 112.423 187.58 111.655C187.503 111.195 187.426 110.657 186.889 110.504C186.351 110.35 185.814 110.58 185.66 110.964C184.969 112.653 183.971 112.039 182.82 111.502C182.206 111.195 181.438 111.041 180.747 110.734C177.906 109.582 177.983 109.659 179.211 106.819C179.595 106.051 179.825 105.513 180.9 105.437C181.745 105.36 182.206 104.439 181.975 103.517C181.745 102.519 178.981 100.293 177.983 100.216C177.138 100.139 176.447 100.446 175.987 101.137C175.68 101.751 175.833 102.366 176.371 102.673C177.906 103.594 177.522 104.669 176.831 105.897C176.447 106.511 176.217 107.202 175.987 107.893C175.756 108.661 175.449 108.584 174.835 108.354C172.839 107.586 170.92 106.742 168.847 106.051C168.156 105.82 168.156 105.513 168.463 104.976C169 103.901 169.461 102.903 169.922 101.828C170.305 101.06 170.382 100.062 171.073 99.525C171.687 99.0643 172.302 99.832 172.993 99.7553C173.684 99.6785 174.375 99.7553 174.682 98.9108C174.989 98.143 174.605 97.6056 174.067 97.1449C173.607 96.7611 173.069 96.454 172.455 96.1469C170.843 95.2256 169.845 95.5327 169.077 97.1449C168.002 99.4482 167.004 101.751 165.929 103.978C165.162 105.667 164.24 107.202 163.78 109.045C163.626 109.659 163.626 110.273 164.24 110.58C164.931 110.964 165.315 110.427 165.622 109.966C165.776 109.736 165.929 109.582 166.006 109.352C166.39 108.2 167.004 108.354 167.925 108.738C172.225 110.58 176.524 112.346 180.824 114.189C182.129 114.726 184.125 114.803 182.743 116.953C182.973 117.644 182.743 118.335 183.357 118.565Z" fill="black"/>
<path d="M205.622 26.9731C206.236 26.8963 206.62 26.3589 206.62 25.6679C206.62 25.2072 206.313 24.9769 206.006 24.7466C204.624 23.9788 202.474 24.5163 201.783 25.8982C199.94 29.6602 198.175 33.4989 196.409 37.3376C195.718 38.7196 196.178 39.7944 197.177 40.7157C197.637 41.1763 198.251 41.637 198.942 41.0228C199.557 40.4854 199.94 39.7944 199.326 39.1034C198.712 38.4124 198.866 37.875 199.326 37.1841C199.71 36.4931 200.017 35.8021 200.324 35.1111C200.631 34.3434 200.862 34.0363 201.86 34.4202C206.466 36.2628 210.919 38.4125 215.295 40.5621C216.293 41.0228 217.138 41.4067 216.831 42.7886C216.754 43.2492 216.908 43.7867 217.445 43.9402C217.829 44.0938 218.289 44.017 218.52 43.6331C219.825 41.4834 221.053 39.3338 221.821 36.9537C221.821 36.3395 221.744 35.6486 221.13 35.4183C220.439 35.1879 220.055 35.7253 219.748 36.2628C219.441 36.7234 219.211 37.1841 218.98 37.6447C218.597 38.6428 218.059 38.4125 217.368 38.0286C212.762 35.2647 208.002 32.9615 202.935 31.426C202.167 31.1956 202.167 30.8885 202.551 30.2744C203.318 28.9692 203.549 27.2034 205.622 26.9731Z" fill="black"/>
<path d="M45.0096 34.1131C45.2399 34.0363 45.547 33.9595 45.8541 33.9595C49.8464 33.1918 53.7618 31.8866 57.9844 32.0402C59.2896 32.1169 60.6716 31.6563 61.8999 31.0421C62.5909 30.6582 63.0516 30.1208 62.7445 29.2763C62.5141 28.5085 61.7464 28.5085 61.1322 28.5853C60.2109 28.7389 59.2896 29.046 58.2915 29.1227C54.5296 29.4298 50.8444 29.8137 47.236 31.1957C46.2379 31.5795 45.0863 31.8098 44.2418 32.5776C43.9347 32.8847 43.5508 33.1918 43.7044 33.7292C43.9347 34.2666 44.4721 34.0363 45.0096 34.1131Z" fill="black"/>
<path d="M215.218 26.5892C216.14 25.5143 216.831 24.2859 216.831 22.8272C216.831 22.2898 216.831 21.7524 216.216 21.522C215.679 21.2917 215.295 21.6756 214.988 22.0595C214.067 23.1343 213.529 24.4395 213.606 25.8982C213.606 26.3588 213.836 26.7427 214.22 26.973C214.681 27.2034 214.988 26.8963 215.218 26.5892Z" fill="black"/>
<path d="M41.0174 33.2686C41.0174 32.4241 40.4799 31.9634 39.6354 31.8866C38.7909 31.8099 37.7161 33.115 37.7161 34.1899C37.8696 34.9576 38.0232 35.7254 38.9445 35.7254C39.8657 35.7254 41.0941 34.3434 41.0174 33.2686Z" fill="black"/>
<path d="M117.024 194.495C116.947 194.418 116.871 194.418 116.794 194.341C113.339 192.652 109.73 192.576 105.969 192.959C105.354 193.036 105.354 193.42 105.431 193.881C105.585 196.798 105.738 199.716 105.969 203.094C105.969 204.015 105.969 205.474 105.969 206.932C105.969 207.393 105.969 207.854 106.66 207.623C110.729 206.241 114.798 204.783 117.945 201.635C120.709 198.794 120.479 196.568 117.024 194.495Z" fill="black"/>
<path d="M106.275 186.127C107.58 185.359 108.962 184.821 110.268 184.054C111.573 183.363 112.724 182.518 113.569 181.29C114.721 179.524 114.106 177.912 112.033 177.528C110.882 177.297 109.73 177.374 108.579 177.297V177.374C107.811 177.374 107.043 177.374 106.275 177.374C103.895 177.374 103.895 177.374 104.202 179.677C104.509 181.52 104.74 183.286 104.74 185.128C104.74 186.203 105.047 186.818 106.275 186.127Z" fill="black"/>
<path d="M264.738 150.657C263.74 148.814 262.128 148.046 260.055 147.739C261.514 156.492 263.817 165.014 264.508 173.919C266.043 173.075 266.965 171.693 267.425 169.774C268.116 166.933 267.963 164.092 267.656 161.252C267.195 157.566 266.581 153.958 264.738 150.657Z" fill="black"/>
<path d="M134.989 185.743C134.836 185.743 134.759 185.743 134.605 185.819C134.452 187.585 134.298 189.351 134.222 191.117C134.068 193.343 134.068 193.343 136.218 192.959C136.755 192.883 136.985 192.729 136.832 192.115C136.218 189.965 135.603 187.892 134.989 185.743Z" fill="black"/>
<path d="M72.9555 85.0146C74.491 86.8572 76.4104 87.7785 78.6368 88.2391C81.4007 88.8533 84.6252 86.3965 84.6252 83.6326C84.6252 83.4023 84.6252 83.0185 84.5485 82.7114C84.2414 80.8688 83.6272 80.4849 81.7846 81.0223C78.9439 81.8668 76.18 82.7881 73.3394 83.5559C72.1878 83.863 72.3413 84.1701 72.9555 85.0146Z" fill="black"/>
<path d="M93.4542 81.8669C94.1452 81.0223 93.7614 78.7191 92.8401 77.7978C92.6865 77.6443 92.6097 77.5675 92.3794 77.6443C90.46 78.2585 88.5407 78.8726 86.4678 79.6404C87.6194 80.6385 88.5407 81.6365 89.5388 82.3275C90.9207 83.3256 92.6097 83.0185 93.4542 81.8669Z" fill="black"/>
<path d="M76.8708 63.5177C73.6463 63.9016 70.4985 64.3622 67.8882 66.5119C66.6598 67.5868 65.9688 68.8919 66.3527 70.6577C66.7366 72.4236 67.7346 73.3448 69.4237 73.7287C70.4985 73.959 71.4966 74.1126 72.3411 74.0358C76.2566 74.0358 79.6347 73.0377 82.8592 71.3487C84.4715 70.5042 85.3928 69.199 85.316 67.51C85.2392 65.9745 84.1644 64.8229 82.7056 64.1319C80.8631 63.2106 78.8669 63.2874 76.8708 63.5177Z" fill="black"/>
</svg>
