<svg width="320" height="248" viewBox="0 0 320 248" fill="none" xmlns="http://www.w3.org/2000/svg">
<path d="M319.46 77.4376C318.565 75.6481 318.565 73.8586 318.118 72.0691C317.223 68.4902 315.657 65.1349 312.526 63.1218C311.184 62.4507 310.065 61.7797 308.723 61.1086C302.684 57.977 296.42 56.1876 289.934 54.1744C284.565 52.3849 278.973 51.2665 273.828 49.0297C267.342 46.5692 261.078 43.885 254.592 41.4244C240.276 35.8323 225.513 31.806 210.749 27.7797C203.368 25.7665 196.21 22.8586 189.052 20.3981C181.223 17.4902 173.171 15.2534 165.118 12.3455C157.96 9.66128 150.355 8.09548 142.749 6.97706C138.723 6.30601 134.92 4.74022 130.894 5.18758C127.092 5.41127 123.96 6.97706 122.618 10.556C120.605 15.7007 117.921 20.6218 116.131 25.7665C113.447 32.7007 110.092 39.4113 107.855 46.5692C106.96 49.0297 106.065 51.7139 104.947 54.6218C104.276 52.385 103.605 50.3718 102.934 48.3586C99.3547 36.5034 95.9995 24.8718 91.9732 13.2402C91.3021 11.4508 90.4074 9.66128 89.96 7.64812C89.0653 2.50339 84.5916 0.266543 80.3416 0.0428586C75.6442 -0.180826 70.9468 0.49022 66.4732 1.60864C61.5521 2.50338 56.8547 3.84548 51.9337 4.9639C44.7758 6.52969 37.6179 8.31917 30.46 9.43759C23.9732 10.556 17.9337 12.3455 12.1179 15.4771C8.53897 17.4902 5.85475 20.3981 3.8416 23.7534C0.486335 29.5692 -0.18471 35.8323 0.0389738 42.5428C0.0389738 45.6744 1.38108 48.3586 2.4995 51.2665C5.18371 58.6481 7.19686 66.2534 9.4337 73.6349C12.1179 83.4771 15.2495 93.0955 18.3811 102.714C23.0784 117.253 27.3284 132.016 30.6837 146.78C32.9205 156.174 36.2758 165.345 38.7363 174.74C40.7495 182.345 43.21 189.727 46.789 196.661C47.6837 198.451 48.5784 200.016 49.4732 201.806C50.8153 204.266 53.0521 205.385 55.7363 205.609C61.3284 206.056 66.9205 204.938 72.2889 203.148C77.4337 201.359 82.5784 199.345 87.7231 197.556C88.1705 197.332 88.8416 197.109 89.5126 197.332C95.1047 199.569 100.921 200.911 106.736 202.477C118.144 205.609 129.328 209.859 140.513 213.885C149.907 217.24 159.526 219.477 168.92 222.385C178.315 225.293 187.71 228.424 196.881 232.003C203.368 234.464 209.631 237.372 216.342 239.385C224.394 241.845 232.447 244.082 240.052 246.99C241.842 247.661 243.855 247.661 245.644 247.661C247.434 247.661 248.999 247.885 250.789 247.214C254.144 245.648 256.381 242.964 257.499 239.609C261.302 227.977 265.999 216.793 270.92 205.609C274.276 197.78 276.96 189.503 280.539 181.898C283.223 176.082 285.013 170.043 287.249 164.003C289.71 157.74 292.17 151.701 294.855 145.438C296.868 140.964 298.434 136.49 300.223 132.016C302.46 126.424 304.249 120.832 306.486 115.464C310.736 104.951 315.434 94.8849 319.236 84.1481C319.684 81.6876 320.578 79.4507 319.46 77.4376ZM96.6705 181.674C90.1837 183.911 83.6968 186.372 77.21 188.832C72.7363 190.622 67.8153 191.516 63.1179 191.964C59.0916 192.188 55.96 190.845 53.7232 187.266C51.4863 183.688 50.3679 179.661 49.2495 175.411C46.3416 165.122 43.21 155.056 40.0784 144.767C37.6179 136.267 35.8284 127.766 33.5916 119.267C29.5653 104.28 24.4205 89.5165 19.9469 74.7534C17.039 64.9113 14.1311 55.0691 10.7758 45.4507C9.65738 42.0955 8.31528 38.7402 7.19686 35.6086C6.52581 33.8192 6.52582 32.0297 6.52582 30.0165C6.52582 28.2271 6.52581 26.6613 6.97318 25.0955C7.86792 21.9639 9.88107 19.5034 12.789 17.9376C18.1574 15.0297 23.9732 13.2402 30.0127 12.1218C35.8284 11.2271 41.8679 9.66127 47.6837 8.54285C54.1705 7.20074 60.6574 5.41128 67.3679 4.29286C70.9468 3.62181 74.7495 2.72706 78.5521 2.95074C80.5653 3.17443 82.3547 3.39812 84.1442 4.51654C85.71 5.41128 86.8284 6.75337 87.4995 8.54285C90.4074 17.2665 93.0916 25.9902 95.5521 34.9376C98.9074 46.5692 102.71 58.2007 106.289 69.6086C110.539 82.806 113.894 96.227 117.249 109.648C119.71 119.714 123.289 129.556 126.197 139.622C128.434 147.227 130.447 154.832 132.236 162.661C132.907 165.345 132.013 167.135 129.999 168.701C127.539 170.714 124.631 172.056 121.723 173.174C113.671 176.082 105.171 178.766 96.6705 181.674ZM187.71 135.819C187.263 134.253 187.71 133.135 189.276 132.464C189.947 132.017 190.842 131.793 191.736 131.569C196.881 130.227 201.802 127.543 206.947 126.201C207.842 125.977 208.736 125.753 209.631 125.53C210.526 125.306 210.749 124.859 210.526 123.964C208.96 120.161 207.842 116.359 206.499 112.332C206.276 111.438 205.605 110.767 205.157 109.872C204.71 108.977 204.71 108.082 205.381 107.188C206.499 105.845 207.618 104.503 209.184 103.609C210.749 102.49 211.868 102.938 212.986 104.503C214.999 107.411 215.671 110.99 216.789 114.122C218.355 118.148 219.697 122.174 221.039 126.201C222.157 129.556 221.486 131.569 218.578 133.135C216.789 134.253 214.776 134.924 212.763 135.595C208.513 136.938 204.263 138.056 200.236 139.622C197.105 140.74 193.973 141.411 190.618 142.082C188.828 142.306 188.157 141.859 187.934 140.069C187.934 139.622 187.934 138.951 187.934 138.503C188.157 137.609 187.934 136.714 187.71 135.819ZM205.828 97.3454C202.92 100.924 200.013 104.503 197.105 107.859C192.407 113.227 187.486 118.595 183.236 124.188C180.328 127.99 176.749 130.898 173.842 134.477C172.276 136.714 169.815 136.49 167.802 134.924C167.131 134.253 166.236 133.806 165.565 133.135C163.999 132.016 163.999 131.569 165.118 130.227C167.355 127.543 169.815 124.859 172.052 122.174C175.407 118.372 178.539 114.345 181.671 110.543C184.578 107.188 187.934 104.056 190.618 100.477C193.078 97.3455 195.539 94.4376 198.223 91.306C200.46 88.8455 202.249 88.6218 204.486 90.8586C205.157 91.306 205.605 91.977 206.276 92.4244C206.723 92.8718 207.17 93.5428 207.17 94.2139C207.17 95.556 206.499 96.4507 205.828 97.3454ZM174.065 96.227C174.065 97.1218 173.394 97.5692 172.723 97.7928C167.578 100.253 162.434 102.49 157.289 104.503C155.723 105.174 155.499 105.398 156.618 106.964C158.407 109.648 160.197 112.109 162.21 114.569C163.999 117.03 165.342 119.714 166.907 122.174C167.578 123.293 167.355 124.188 166.236 124.859C164.671 126.201 162.881 126.872 160.868 127.767C159.749 128.438 158.631 127.99 157.96 126.872C154.605 121.28 151.473 115.688 148.342 110.319C147.223 108.53 146.105 106.517 145.21 104.503C143.868 102.043 144.092 101.372 146.328 99.5823C151.026 96.0033 156.394 93.5428 161.986 91.5297C165.342 90.1876 168.697 89.9639 172.052 88.6218C173.842 87.9507 174.96 88.8455 174.96 90.8586C174.289 92.6481 174.289 94.4376 174.065 96.227ZM154.605 170.714C160.197 172.503 166.013 173.845 171.605 175.859C174.065 176.753 176.973 176.753 179.434 177.872C182.118 178.766 184.802 179.885 187.486 180.556C193.973 182.345 200.236 185.03 206.723 186.819C209.407 187.49 212.315 188.385 214.999 189.056C217.013 189.727 219.026 189.503 221.263 189.056C223.052 188.609 224.17 187.266 224.842 185.701C226.407 181.674 227.749 177.648 229.315 173.622C232.223 165.793 235.578 158.188 238.934 150.582C240.276 147.451 240.723 144.319 242.065 141.188C245.197 132.688 248.776 124.188 252.355 115.911C255.486 108.753 258.394 101.595 261.302 94.4376C261.973 92.8718 262.197 91.0823 262.644 89.5165C263.092 87.056 261.302 84.5955 258.394 83.477C252.131 80.7928 245.42 78.7797 238.934 76.5428C223.723 71.1744 208.513 65.806 193.302 60.4376C187.71 58.4244 182.118 56.8586 176.302 55.2928C170.934 53.9507 165.789 52.1613 160.421 51.0428C156.394 50.1481 152.144 49.2534 148.342 47.9113C146.105 47.2402 143.868 48.3586 142.973 50.3718C139.171 59.7665 134.921 69.1612 131.342 79.0034C128.21 87.9507 124.407 96.4507 121.276 105.398C121.052 106.069 120.828 106.74 120.157 107.411C119.486 104.727 119.039 102.267 118.368 99.806C116.131 91.5297 113.671 83.2534 111.434 74.9771C111.434 74.7534 111.21 74.5297 111.21 74.306C108.973 70.056 110.763 66.2534 112.328 62.227C115.907 53.2797 119.486 44.3323 123.065 35.6086C124.855 31.3586 126.421 26.885 128.21 22.635C128.657 21.2928 129.552 20.1744 130.447 19.056C131.342 17.7139 132.907 17.7139 134.249 18.1613C143.868 21.7402 154.381 23.0823 164.223 26.2139C174.289 29.3455 184.802 31.806 194.868 35.1613C208.289 39.6349 221.71 44.556 235.131 49.2534C245.644 53.056 256.157 56.4113 266.671 60.2139C276.065 63.5692 285.684 66.7007 295.078 70.2797C300.223 72.2928 300.894 74.5297 300.223 79.6744C299.552 84.5955 297.091 88.8455 295.302 93.3192C289.934 105.845 284.789 118.595 279.42 131.122C275.618 140.069 271.592 149.016 269.131 158.411C267.342 165.345 263.986 171.609 261.302 178.095C257.276 187.49 253.249 196.661 249.894 206.28C248.552 209.859 247.434 213.661 245.868 217.24C244.526 220.595 243.407 221.49 239.828 221.043C239.157 221.043 238.486 221.266 237.815 221.266C235.131 221.714 232.67 220.595 230.21 219.924C220.592 217.24 210.973 214.78 201.802 210.753C200.236 210.082 198.447 209.635 196.881 209.411C191.736 208.293 187.039 206.056 182.118 204.49C180.328 204.043 178.539 203.595 176.749 203.148C170.934 202.253 165.789 199.345 160.197 198.227C154.157 197.109 148.789 194.424 142.749 193.082C138.276 192.188 134.026 190.398 129.552 189.056C126.868 188.161 123.96 187.938 121.499 186.819C121.052 186.595 120.381 186.595 119.934 185.924C122.842 185.03 125.526 183.688 127.986 181.674C128.434 181.451 128.657 181.227 129.105 180.78C132.013 176.53 135.368 172.28 135.815 166.688C136.039 164.003 136.039 164.227 138.723 164.898C143.42 167.135 149.013 168.924 154.605 170.714ZM312.973 73.4112C311.184 75.8718 310.513 78.7797 309.394 81.4639C305.368 90.1876 301.789 99.1349 298.21 108.082C296.42 112.556 294.855 117.253 293.289 121.951C292.17 125.082 290.828 128.214 289.486 131.345C285.907 138.727 282.999 146.332 279.868 153.938C276.513 161.543 273.605 169.372 270.92 177.201C268.907 183.464 265.999 189.28 263.539 195.319C259.289 205.832 254.592 216.122 251.236 227.082C250.789 228.201 250.565 229.319 250.118 230.214C248.776 232.898 246.315 234.24 243.184 234.464C239.828 234.911 236.92 233.569 234.013 232.674C227.078 230.438 220.144 228.424 213.21 226.188C206.052 223.951 199.342 220.819 192.407 218.135C182.565 214.332 172.499 210.977 162.21 208.069C150.578 204.714 139.171 201.135 127.763 197.332C121.276 195.095 115.013 192.188 108.302 190.622C110.763 189.727 112.999 188.832 115.46 187.938C116.355 187.714 117.026 188.161 117.697 188.385C125.078 190.845 132.46 193.306 139.842 195.543C144.539 196.885 149.013 198.451 153.71 199.793C158.855 201.359 164.223 202.477 169.368 204.49C173.618 206.056 178.315 206.056 182.565 207.845C188.381 210.306 194.868 211.424 200.684 213.661C206.499 215.898 212.539 217.688 218.355 219.477C223.276 221.043 228.197 222.385 233.118 223.727C236.249 224.622 239.157 224.398 242.289 223.727C245.197 223.056 246.539 221.266 247.657 218.582C248.999 214.332 250.565 210.082 252.131 206.056C255.71 196.438 259.736 187.043 263.539 177.648C265.105 173.622 266.894 169.819 268.46 166.016C270.249 161.766 270.92 157.293 272.486 153.266C276.513 143.201 280.315 132.911 284.789 122.845C289.934 111.661 294.184 100.03 299.105 88.6218C300.447 85.4902 301.565 82.3586 302.46 79.0034C303.578 74.5297 301.565 70.5034 296.868 68.4902C293.065 66.9244 289.263 65.5823 285.46 64.2402C268.46 58.2007 251.236 52.3849 234.013 46.3455C222.157 42.3192 210.526 37.8455 198.67 34.0428C189.947 31.1349 180.999 28.4507 172.052 26.2139C167.578 25.0955 163.328 23.7534 158.855 22.4113C154.157 21.0692 149.46 20.3981 144.763 19.2797C141.855 18.6086 138.947 17.9376 136.263 16.8192C133.355 15.4771 130.671 16.1481 127.986 17.4902C127.315 17.9376 127.315 18.6086 127.092 19.056C123.289 28.4507 119.486 37.8455 115.684 47.2402C113.223 53.2797 110.986 59.3191 108.302 65.5823C107.631 62.227 105.618 59.9902 106.96 56.4113C110.315 47.6876 113.447 38.7402 117.249 30.2402C119.934 24.2007 122.618 18.1613 124.855 11.6744C125.973 8.54285 127.763 7.42443 131.118 7.20074C134.473 6.97706 137.605 8.09549 140.96 8.76654C146.105 9.88496 151.026 10.3323 156.171 11.8981C158.855 12.7928 161.539 13.4639 164.223 14.3586C175.855 18.1613 187.486 21.9639 199.118 26.2139C208.289 29.5692 217.684 32.0297 227.078 34.7139C241.394 38.7402 255.263 43.8849 269.131 49.4771C275.618 52.1613 282.328 53.9507 288.815 55.9639C294.855 57.7534 300.894 59.5428 306.486 62.227C308.499 63.1218 310.513 64.2402 312.526 65.5823C313.868 67.1481 314.539 71.3981 312.973 73.4112Z" fill="black"/>
<path d="M211.197 31.3586C209.631 31.3586 208.065 32.7008 208.065 34.4902C208.065 36.056 209.407 37.3981 211.197 37.3981C212.986 37.3981 214.105 36.2797 214.105 34.4902C214.105 32.7008 212.763 31.3586 211.197 31.3586ZM211.197 36.2797C210.078 36.2797 209.407 35.6086 209.407 34.4902C209.407 33.3718 210.078 32.7007 211.197 32.7007C212.315 32.7007 212.986 33.3718 212.986 34.4902C212.763 35.6086 212.315 36.5034 211.197 36.2797Z" fill="black"/>
<path d="M125.526 159.977C125.749 158.411 125.078 156.622 125.526 155.056C125.973 153.49 125.526 152.148 125.078 150.806C123.736 146.332 122.394 141.635 121.052 137.161C119.263 131.345 117.249 125.53 115.907 119.49C112.552 104.951 108.526 90.6349 103.828 76.3191C98.6837 60.4376 94.21 44.3323 89.0653 28.4507C87.9468 24.8718 86.1574 21.5165 85.4863 17.9376C85.0389 15.9244 83.9205 14.1349 82.1311 12.7928C79.6705 11.0034 76.7626 10.556 73.8547 10.7797C70.0521 10.556 66.2495 11.6744 62.4469 12.1218C59.9863 12.5692 59.9863 12.5692 59.7626 15.2534C59.7626 15.9244 59.539 16.5955 59.3153 17.2665C59.3153 17.9376 58.8679 18.3849 57.9732 18.6086C52.6048 19.9507 47.0127 21.5165 41.6442 22.8586C40.9732 23.0823 40.3021 23.0823 39.6311 22.4113C38.96 21.5165 38.0653 20.6218 37.6179 19.5034C36.9469 18.1613 36.0521 17.9376 34.9337 18.3849C31.5784 19.056 27.9995 19.9507 24.6442 20.6218C23.3021 20.8455 21.7363 20.8455 20.3942 21.7402C16.1442 24.2007 15.0258 29.3455 16.5916 34.0428C17.039 35.6086 17.71 37.3981 17.9337 38.9639C18.8285 43.8849 20.3942 48.806 21.96 53.727C25.3153 65.3586 28.8942 77.2139 32.4732 88.8455C35.8284 98.9113 38.7363 109.201 41.4206 119.266C43.4337 127.095 45.2232 134.924 47.46 142.53C50.8153 154.161 54.6179 165.569 57.7495 177.424C58.6442 180.78 60.8811 182.569 64.0126 183.464C66.4732 184.135 69.1574 184.135 71.6179 183.688C77.6574 182.793 83.4732 181.003 89.0653 178.99C96.4468 176.53 103.381 172.951 110.763 170.714C113.671 169.819 116.578 168.477 119.486 167.582C122.394 166.24 124.855 163.109 125.526 159.977ZM118.368 164.898C113.447 166.464 108.749 168.477 104.052 170.043C99.1311 171.832 94.21 174.069 89.0653 176.082C83.4732 178.095 77.6574 179.885 71.8416 181.003C70.0521 181.451 68.2626 181.451 66.4732 180.78C65.5784 180.556 64.9074 181.003 64.0126 180.78C61.7758 180.109 60.8811 178.319 60.21 176.306C59.3153 173.174 58.4205 170.043 57.5258 166.911C54.6179 156.845 51.039 147.003 48.5784 136.938C46.3416 128.214 44.1048 119.267 41.6442 110.543C38.5127 99.3586 34.71 88.1744 31.3548 77.2139C27.7758 65.806 24.6442 54.3981 20.8416 43.2139C19.9469 40.5297 18.6048 37.8455 17.9337 34.9376C17.71 34.0428 17.71 32.9244 17.71 32.0297C17.4864 30.9113 17.71 29.5692 17.9337 28.4507C18.3811 26.2139 19.9469 24.2007 22.1837 23.977C26.21 23.5297 30.0127 22.6349 33.8153 21.7402C34.9337 21.5165 35.3811 21.7402 36.0521 22.6349C38.5127 26.4376 38.96 26.8849 44.3284 25.3191C49.2495 23.977 54.1705 22.6349 59.3153 21.5165C60.8811 21.2928 61.3284 20.1744 61.5521 18.8323C61.9995 15.7007 61.9995 15.4771 65.1311 15.0297C68.9337 14.3586 72.7363 13.4639 76.539 14.3586C79.6705 15.0297 81.9074 16.5955 83.0258 19.9507C86.3811 29.7928 89.2889 39.8586 92.1968 49.9244C95.7758 62.4507 100.026 74.7534 103.605 87.056C105.842 94.8849 108.302 102.49 110.092 110.319C113.447 125.306 118.592 139.622 122.618 154.385C123.513 157.516 123.513 160.648 121.052 163.332C120.381 164.003 119.486 164.451 118.368 164.898Z" fill="black"/>
<path d="M47.2363 17.7139C49.6968 17.9376 51.0389 16.3718 50.5916 14.5823C50.3679 13.4639 49.6968 12.7928 48.5784 12.5692C47.2363 12.1218 46.3416 13.0165 45.6705 13.9113C44.9995 14.5823 44.5521 15.2534 44.9995 16.3718C45.6705 17.2665 46.5653 17.7139 47.2363 17.7139Z" fill="black"/>
<path d="M86.3811 78.3323C88.6179 77.6612 88.8416 76.7665 88.1706 74.5297C84.5916 62.4507 79.6705 51.0428 74.0784 39.8586C73.6311 38.7402 72.7363 38.7402 71.6179 38.5165C70.7232 38.7402 69.6048 38.9639 68.71 39.4112C66.9205 39.8586 65.3548 40.306 63.5653 40.7534C58.1969 42.0955 52.3811 42.5428 47.0127 44.1086C43.6574 45.0034 40.5258 46.1218 37.1706 46.3455C36.0521 46.3455 34.9337 46.7928 34.039 47.4639C32.6969 48.1349 32.2495 49.0297 32.6969 50.5955C33.1442 52.1612 33.5916 53.5034 34.039 54.8455C36.7232 63.7928 40.5258 72.2928 43.21 81.2402C43.6574 83.0297 44.3284 84.5954 45.2232 86.3849C46.5653 89.0691 47.46 89.5165 50.3679 88.6218C57.0785 86.8323 63.5653 84.8191 70.2758 83.2533C75.6442 81.6875 81.0127 80.1218 86.3811 78.3323ZM50.1442 85.9376C48.3548 86.3849 47.9074 86.1613 47.2363 84.3718C46.5653 82.806 46.1179 81.2402 45.4469 79.4507C42.9863 71.6218 39.8548 64.0165 37.1706 56.4112C36.4995 53.9507 35.3811 51.7139 34.4864 49.2534C34.2627 48.5823 34.2627 48.3586 35.1574 48.1349C38.289 47.9113 41.1969 46.7928 44.1048 46.1218C52.6048 44.1086 60.8811 41.6481 69.3811 40.0823C69.8284 40.0823 70.2758 39.8586 70.9469 39.8586C72.289 39.6349 72.96 40.306 73.4074 41.6481C77.4337 51.2665 81.2363 61.1086 84.3679 70.9507C84.5916 71.8454 85.039 72.9639 85.4863 73.8586C85.9337 74.977 85.71 75.6481 84.3679 76.0955C74.9732 78.7797 65.5784 81.6876 55.96 84.1481C53.9469 84.5954 51.9337 85.2665 50.1442 85.9376Z" fill="black"/>
<path d="M105.842 149.688C103.381 143.201 99.8021 137.385 98.0126 130.898C97.3416 128.661 96.8942 128.438 94.4337 128.438C93.3153 128.438 92.1969 128.661 91.0784 129.109C87.9469 130.451 84.5916 131.345 81.2363 131.793C76.9863 132.464 72.96 134.03 69.1574 135.819C67.5916 136.49 66.9206 138.056 67.3679 139.622C70.0521 148.345 72.7363 157.069 76.3153 165.569C77.21 167.582 77.6574 167.806 79.8942 167.359C84.3679 166.016 88.3942 164.227 92.8679 162.885C97.5653 161.543 102.039 159.977 106.736 158.635C107.855 158.188 108.302 157.517 107.855 156.398C107.407 153.938 106.736 151.924 105.842 149.688ZM105.171 156.174C99.1311 157.964 93.3153 159.753 87.4995 161.766C85.039 162.438 83.0258 163.78 80.5653 164.451C79.6706 164.674 78.9995 164.674 78.5521 163.556C75.4206 155.503 72.7363 147.227 70.0521 139.174C69.8284 138.28 70.0521 137.832 70.7232 137.385C73.4074 135.819 76.539 135.372 79.4469 134.253C84.1442 132.688 89.0653 131.793 93.539 130.003C93.7626 129.78 94.21 129.78 94.6574 129.78C95.5521 130.003 96.2232 130.898 96.6705 131.793C99.3548 138.503 102.039 145.214 104.499 151.701C104.947 152.595 105.171 153.49 105.618 154.385C106.513 155.28 106.289 155.951 105.171 156.174Z" fill="black"/>
<path d="M78.7758 124.635C80.3416 125.977 82.1311 125.53 82.8021 123.293C83.9206 119.49 85.2627 115.688 87.0521 112.109C87.4995 111.214 87.9469 110.095 87.9469 108.53C87.9469 107.635 87.4995 107.188 86.1574 107.411C84.8153 107.635 83.6969 108.082 82.3548 108.082C81.6837 108.082 81.0127 107.859 80.789 107.188C79.8942 103.609 78.3285 100.477 77.4337 97.1218C76.9864 95.3323 76.3153 93.3192 75.8679 91.5297C75.1969 89.7402 74.5258 89.5165 72.7364 89.9639C71.3943 90.4113 70.0521 90.6349 68.9337 91.306C66.0258 92.8718 66.2495 92.2007 67.1443 94.885C68.4864 99.5823 70.0521 104.28 71.6179 108.977C72.0653 110.095 72.0653 110.767 70.4995 111.214C69.1574 111.438 67.5916 112.109 66.2495 112.556C64.6837 113.227 64.46 114.569 65.8022 115.464C66.9206 116.359 68.039 117.03 69.1574 117.701C72.7364 119.938 75.8679 122.174 78.7758 124.635ZM72.0653 113.451C74.3021 112.78 74.7495 111.885 74.0785 109.648C72.5127 104.951 70.9469 100.253 69.3811 95.3323C68.9337 94.2139 68.9337 93.5428 70.2758 93.5428C70.4995 93.5428 70.9469 93.3192 71.1706 93.3192C73.6311 92.6481 74.7495 93.3192 75.4206 95.7797C76.0916 97.7928 76.539 100.03 77.21 102.267C78.1048 104.503 78.7758 106.964 79.6706 109.201C79.8942 110.095 80.3416 110.319 81.2363 110.319C82.5785 110.319 83.6969 110.095 85.039 109.648C85.71 109.424 86.3811 109.424 86.8285 110.095C87.2758 110.99 86.6048 111.214 86.1574 111.661C85.71 112.109 85.2627 112.556 85.039 113.003C83.9206 115.688 82.1311 117.924 81.6837 120.832C81.2364 122.845 80.789 122.845 79.2232 121.503C76.539 119.267 73.4074 117.477 70.4995 115.688C70.0521 115.464 69.6048 115.017 68.9337 114.793C69.8285 113.898 70.9469 113.674 72.0653 113.451Z" fill="black"/>
<path d="M68.4863 49.4771C66.2495 47.6876 64.0126 45.8981 60.6574 46.3455C57.9732 46.7928 55.2889 47.0165 52.8284 48.1349C49.0258 49.9244 46.3416 52.8323 45.6705 57.0823C45.2232 59.5428 45.6705 61.7797 46.1179 64.2402C48.1311 74.5297 56.8547 77.8849 64.9074 75.2007C70.7232 73.4113 74.0784 69.6086 74.3021 60.8849C74.5258 56.8586 72.2889 52.8323 68.4863 49.4771ZM72.0653 63.1218C71.8416 66.9244 70.0521 69.8323 66.9205 72.2928C61.9995 76.0955 57.7495 74.977 53.4995 71.6218C50.1442 68.9376 48.1311 65.5823 47.46 61.3323C47.2363 59.5428 47.2363 57.5297 48.1311 55.9639C50.1442 52.3849 53.0521 49.7007 57.3021 49.0297C58.4205 48.806 59.5389 48.1349 60.6574 48.3586C65.1311 48.3586 68.0389 50.5955 69.8284 54.1744C71.3942 57.0823 72.2889 59.9902 72.0653 63.1218Z" fill="black"/>
<path d="M96.6706 148.569C94.4337 146.109 91.9732 143.872 89.5127 141.411C87.9469 139.846 86.3811 138.28 84.5916 137.161C82.8022 136.043 81.4601 136.49 81.4601 138.503C81.4601 142.082 80.789 145.438 81.2364 149.017C81.2364 151.03 81.0127 152.819 81.2364 154.832C81.46 156.622 82.1311 157.069 83.9206 156.398C88.1706 154.832 92.1969 153.267 96.4469 151.701C98.2364 151.03 98.4601 150.582 97.1179 149.017C97.1179 149.017 96.8943 148.793 96.6706 148.569ZM93.0916 150.359C90.4074 151.477 87.7232 152.596 85.039 153.714C83.9206 154.161 83.4732 154.161 83.4732 152.819C83.4732 151.03 83.4732 149.017 83.4732 147.003C83.2495 144.99 83.6969 142.753 83.2495 140.293C83.0258 139.398 83.6969 139.174 84.3679 139.398C84.8153 139.622 85.039 139.846 85.2627 140.069C87.9469 142.306 90.4074 144.543 92.6443 147.451C92.868 147.674 93.0916 147.898 93.3153 148.122C95.1048 149.688 95.1048 149.688 93.0916 150.359Z" fill="black"/>
<path d="M58.1969 51.9376C57.3022 52.1613 57.0785 53.056 57.0785 53.7271C56.6311 57.7534 56.4075 62.0034 55.9601 66.2534C56.1838 66.9244 55.9601 68.2665 57.0785 68.2665C58.1969 68.2665 58.4206 67.1481 58.4206 66.2534C58.4206 66.0297 58.4206 65.5823 58.6443 65.3586C58.868 64.9113 58.868 64.2402 59.539 64.2402C61.1048 63.7928 62.6706 63.3455 64.0127 63.3455C64.9074 63.3455 65.1311 64.6876 65.8022 65.3586L66.0259 65.5823C66.4732 66.0297 67.1443 66.2534 67.8153 65.806C68.4864 65.3586 68.2627 64.6876 68.039 64.0165C65.5785 59.9902 63.3417 55.9639 60.2101 52.6086C59.539 52.1613 59.0917 51.7139 58.1969 51.9376ZM61.9995 61.1086C59.539 62.0034 59.0917 61.7797 59.0917 59.0955C59.0917 58.2007 59.3153 57.306 59.539 56.1876C60.6574 57.7534 61.5522 58.8718 62.4469 60.2139C62.6706 60.6613 62.6706 60.8849 61.9995 61.1086Z" fill="black"/>
</svg>
